<svg xmlns="http://www.w3.org/2000/svg" xmlns:xlink="http://www.w3.org/1999/xlink" width="223" height="224" viewBox="0 0 223 224">
  <defs>
    <clipPath id="clip-path">
      <ellipse id="Elipse_154" data-name="Elipse 154" cx="101.5" cy="102" rx="101.5" ry="102" transform="translate(0.422 0.02)" fill="#fff" stroke="#707070" stroke-width="1"/>
    </clipPath>
  </defs>
  <g id="Grupo_55649" data-name="Grupo 55649" transform="translate(-844 -693)">
    <g id="Grupo_53402" data-name="Grupo 53402" transform="translate(853.579 702.979)">
      <g id="Elipse_157" data-name="Elipse 157" transform="translate(0.421 0.02)" fill="#fff" stroke="#95af3d" stroke-linejoin="round" stroke-width="10">
        <ellipse cx="101.5" cy="102" rx="101.5" ry="102" stroke="none"/>
        <ellipse cx="101.5" cy="102" rx="106.5" ry="107" fill="none"/>
      </g>
    </g>
    <g id="Grupo_53399" data-name="Grupo 53399" transform="translate(-148.275 686.104)">
      <path id="Trazado_99356" data-name="Trazado 99356" d="M1105.3,192.917a73.709,73.709,0,1,0-73.7-73.709,73.709,73.709,0,0,0,73.7,73.709Z" transform="translate(-1.531)" fill="#e1f1ff" fill-rule="evenodd"/>
      <path id="Trazado_99357" data-name="Trazado 99357" d="M1108.2,195.81a73.7,73.7,0,0,0,47.9-129.722A73.7,73.7,0,0,1,1052.182,170,73.551,73.551,0,0,0,1108.2,195.81Z" transform="translate(-4.422 -2.893)" fill="#cbe2ff" fill-rule="evenodd"/>
      <path id="Trazado_99358" data-name="Trazado 99358" d="M1093.553,144.068v21.118c0,9.63,8.231,9.087,8.231,21.375h24.447c0-18.313,7.662-16.85,7.662-34.546,0-16.905-1.619-35.549-19.426-37.3-4.984-.487-9.105,4.093-9.105,9.106v20.243a5.9,5.9,0,1,0-11.809,0Z" transform="translate(-10.235 -9.721)" fill="#ffdecf" fill-rule="evenodd"/>
      <path id="Trazado_99359" data-name="Trazado 99359" d="M1093.992,206.167v17.926a5.7,5.7,0,0,0,5.022,5.021h30.113a5.7,5.7,0,0,0,5.031-5.021V206.167a7.882,7.882,0,0,0-7.863-7.855h-24.447A7.874,7.874,0,0,0,1093.992,206.167Z" transform="translate(-10.297 -21.472)" fill="#ccf49f" fill-rule="evenodd"/>
      <path id="Trazado_99360" data-name="Trazado 99360" d="M1136.555,136.931l18.286-10.559c8.333-4.82,3.752-11.681,14.394-17.816l-12.224-21.173c-15.857,9.152-18.422,1.784-33.755,10.633-14.634,8.452-29.975,19.186-22.58,35.475,2.07,4.562,8.1,5.84,12.435,3.338l17.54-10.126a5.9,5.9,0,0,0,5.9,10.228Z" transform="translate(-10.966 -5.885)" fill="#f7beaf" fill-rule="evenodd"/>
      <path id="Trazado_99361" data-name="Trazado 99361" d="M1189.322,108.127l15.526-8.958a5.711,5.711,0,0,0,1.839-6.861l-15.057-26.085a5.72,5.72,0,0,0-6.87-1.839l-15.516,8.968a7.881,7.881,0,0,0-2.879,10.734l12.224,21.173a7.878,7.878,0,0,0,10.734,2.869Z" transform="translate(-20.319 -2.587)" fill="#f7a416" fill-rule="evenodd"/>
      <path id="Trazado_99362" data-name="Trazado 99362" d="M1107.092,101.5,1088.8,90.934c-8.334-4.811-11.985,2.594-22.616-3.55l-12.224,21.173c15.857,9.152,10.753,15.056,26.084,23.9,14.634,8.452,31.6,16.372,42.015,1.821,2.915-4.065,1-9.934-3.339-12.435l-17.53-10.126a5.9,5.9,0,1,0,5.9-10.218Z" transform="translate(-4.672 -5.885)" fill="#fed4be" fill-rule="evenodd"/>
      <path id="Trazado_99363" data-name="Trazado 99363" d="M1058.632,73.352l-15.526-8.968a5.71,5.71,0,0,0-6.861,1.839l-15.057,26.085a5.7,5.7,0,0,0,1.839,6.861l15.526,8.958a7.879,7.879,0,0,0,10.733-2.87l12.224-21.173A7.881,7.881,0,0,0,1058.632,73.352Z" transform="translate(0 -2.587)" fill="#e8546a" fill-rule="evenodd"/>
      <path id="Trazado_99364" data-name="Trazado 99364" d="M1183.957,108.054a7.871,7.871,0,0,0,7.983.073l15.527-8.958a5.711,5.711,0,0,0,1.839-6.861l-15.057-26.085a5.72,5.72,0,0,0-6.87-1.839l-1.9,1.1a6.374,6.374,0,0,1,.653.736l15.056,26.085a5.71,5.71,0,0,1-1.84,6.861Z" transform="translate(-22.938 -2.587)" fill="#e66f09" fill-rule="evenodd"/>
      <path id="Trazado_99365" data-name="Trazado 99365" d="M1056.044,84.085l-12.224,21.173a7.8,7.8,0,0,1-2.759,2.8l.137.074a7.879,7.879,0,0,0,10.733-2.87l12.224-21.173a7.881,7.881,0,0,0-2.879-10.733l-15.526-8.968a5.7,5.7,0,0,0-6.208,1.1l13.621,7.863a7.881,7.881,0,0,1,2.879,10.734Z" transform="translate(-2.646 -2.587)" fill="#c1142d" fill-rule="evenodd"/>
      <path id="Trazado_99366" data-name="Trazado 99366" d="M1130,224.093a5.7,5.7,0,0,1-5.031,5.021h8.112a5.7,5.7,0,0,0,5.031-5.021V206.167a7.78,7.78,0,0,0-1.665-4.811,7.865,7.865,0,0,0-6.2-3.044h-8.112a7.882,7.882,0,0,1,7.863,7.855Z" transform="translate(-14.252 -21.472)" fill="#b3e59f" fill-rule="evenodd"/>
      <path id="Trazado_99367" data-name="Trazado 99367" d="M1155.747,90.492l9.151,15.848a3.275,3.275,0,0,1-1.076,3.761c-7.845,5.39-4.4,11.856-12.04,16.271l-12.831,7.4-4.23,2.447a5.942,5.942,0,0,0,6.889.708l18.285-10.559c8.334-4.82,3.753-11.681,14.394-17.816l-12.224-21.173a47.485,47.485,0,0,1-6.318,3.109Z" transform="translate(-16.02 -5.885)" fill="#f0b6a6" fill-rule="evenodd"/>
      <path id="Trazado_99368" data-name="Trazado 99368" d="M1114.539,122.144a9.229,9.229,0,0,1,4.406,10.246,7.478,7.478,0,0,1-1.076,2.189c-3.238,4.525-7.1,6.871-11.332,7.716,7.349,1.214,14.173-.423,19.369-7.616.028-.036.046-.064.074-.1a7.831,7.831,0,0,0,1.095-6.659c-.019-.064-.037-.129-.056-.193a9.581,9.581,0,0,0-4.378-5.583L1107,113.111l-1.886-1.095a5.731,5.731,0,0,0,2.3.755,5.943,5.943,0,0,0,4.764-1.628,5.585,5.585,0,0,0,1-1.288,5.913,5.913,0,0,0-.424-6.53,5.8,5.8,0,0,0-1.738-1.527l-18.294-10.567c-4.332-2.5-7.4-1.7-10.843-1.214a13.593,13.593,0,0,1,2.731,1.214L1102.9,101.8a5.918,5.918,0,0,1,2.64,7,5.449,5.449,0,0,1-.479,1.057,5.852,5.852,0,0,1-1.453,1.684,5.988,5.988,0,0,1-1.747.947c-1.187.487-.239,2.189,1.205,3.044Z" transform="translate(-8.595 -6.182)" fill="#f7cdb7" fill-rule="evenodd"/>
      <path id="Trazado_99369" data-name="Trazado 99369" d="M1129.8,155.862c0,17.7-7.661,16.234-7.661,34.546h8.112c0-18.312,7.662-16.85,7.662-34.546,0-3.486-.065-7.036-.332-10.5a5.871,5.871,0,0,1-5.8-2.906c-.074-.129-.147-.258-.211-.387a22.671,22.671,0,0,1-2.152,2.576c.312,3.7.386,7.5.386,11.221Z" transform="translate(-14.252 -13.569)" fill="#fcd4c2" fill-rule="evenodd"/>
    </g>
  </g>
</svg>
