<svg xmlns="http://www.w3.org/2000/svg" xmlns:xlink="http://www.w3.org/1999/xlink" width="296" height="296.293" viewBox="0 0 296 296.293">
  <defs>
    <linearGradient id="linear-gradient" x1="0.302" y1="0.298" x2="0.81" y2="0.84" gradientUnits="objectBoundingBox">
      <stop offset="0" stop-color="#9ed4ee"/>
      <stop offset="1" stop-color="#8ebdfd"/>
    </linearGradient>
    <linearGradient id="linear-gradient-2" x1="0.978" y1="0.047" x2="0.263" y2="0.702" gradientUnits="objectBoundingBox">
      <stop offset="0" stop-color="#fff"/>
      <stop offset="0.996" stop-color="#f2f6f9"/>
    </linearGradient>
    <linearGradient id="linear-gradient-3" x1="0" y1="0.5" x2="1" y2="0.5" xlink:href="#linear-gradient-2"/>
    <linearGradient id="linear-gradient-9" x1="2.434" y1="0.231" x2="3.486" y2="0.231" gradientUnits="objectBoundingBox">
      <stop offset="0" stop-color="#afb25c"/>
      <stop offset="0.996" stop-color="#ddea95"/>
    </linearGradient>
    <linearGradient id="linear-gradient-10" y1="0.5" x2="1" y2="0.5" gradientUnits="objectBoundingBox">
      <stop offset="0.004" stop-color="#9da725"/>
      <stop offset="1" stop-color="#c6d75e"/>
    </linearGradient>
    <linearGradient id="linear-gradient-11" x1="0.881" y1="0.067" x2="0.433" y2="0.559" xlink:href="#linear-gradient-10"/>
    <linearGradient id="linear-gradient-13" x1="0.451" y1="-0.115" x2="0.688" y2="2.232" gradientUnits="objectBoundingBox">
      <stop offset="0" stop-color="#ffc444"/>
      <stop offset="0.996" stop-color="#e26850"/>
    </linearGradient>
    <linearGradient id="linear-gradient-14" x1="0.473" y1="0.366" x2="1.052" y2="2.183" xlink:href="#linear-gradient-10"/>
    <linearGradient id="linear-gradient-15" x1="-0.012" y1="0.026" x2="1.499" y2="1.304" xlink:href="#linear-gradient-9"/>
    <linearGradient id="linear-gradient-16" x1="0.974" y1="-0.105" x2="0.276" y2="0.797" xlink:href="#linear-gradient"/>
    <linearGradient id="linear-gradient-17" x1="0.593" y1="-0.143" x2="0.053" y2="3.782" xlink:href="#linear-gradient-13"/>
    <linearGradient id="linear-gradient-18" x1="-77.616" y1="-46.899" x2="-78.409" y2="-44.963" xlink:href="#linear-gradient"/>
    <linearGradient id="linear-gradient-19" x1="0" y1="0.5" x2="1" y2="0.5" xlink:href="#linear-gradient-9"/>
    <linearGradient id="linear-gradient-20" x1="285.789" y1="-256.278" x2="286.669" y2="-256.278" xlink:href="#linear-gradient-13"/>
    <linearGradient id="linear-gradient-21" y1="0.5" x2="1" y2="0.5" gradientUnits="objectBoundingBox">
      <stop offset="0" stop-color="#90a066"/>
      <stop offset="0.996" stop-color="#836449"/>
    </linearGradient>
    <linearGradient id="linear-gradient-23" x1="-75.985" y1="12.21" x2="-76.489" y2="11.667" xlink:href="#linear-gradient-21"/>
    <linearGradient id="linear-gradient-24" x1="-81.366" y1="12.072" x2="-80.642" y2="12.84" xlink:href="#linear-gradient-21"/>
    <linearGradient id="linear-gradient-25" x1="0.575" y1="-0.146" x2="0.374" y2="1.521" gradientUnits="objectBoundingBox">
      <stop offset="0" stop-color="#e3eaf4"/>
      <stop offset="1" stop-color="#fff"/>
    </linearGradient>
    <linearGradient id="linear-gradient-26" x1="0.576" y1="-0.503" x2="0.164" y2="5.398" xlink:href="#linear-gradient"/>
    <linearGradient id="linear-gradient-27" x1="1.034" y1="-0.207" x2="-0.235" y2="1.473" xlink:href="#linear-gradient"/>
    <linearGradient id="linear-gradient-28" x1="0.8" y1="-0.288" x2="0.087" y2="1.585" xlink:href="#linear-gradient"/>
    <linearGradient id="linear-gradient-29" x1="0.689" y1="-0.434" x2="0.24" y2="1.785" xlink:href="#linear-gradient"/>
    <linearGradient id="linear-gradient-30" x1="1.356" y1="-0.173" x2="-0.679" y2="1.427" xlink:href="#linear-gradient"/>
    <linearGradient id="linear-gradient-31" x1="1.271" y1="-0.179" x2="-0.562" y2="1.435" xlink:href="#linear-gradient"/>
    <linearGradient id="linear-gradient-32" x1="1.441" y1="-0.168" x2="-0.796" y2="1.421" xlink:href="#linear-gradient"/>
    <linearGradient id="linear-gradient-33" x1="1.199" y1="-0.185" x2="-0.462" y2="1.444" xlink:href="#linear-gradient"/>
    <linearGradient id="linear-gradient-34" x1="0.925" y1="-0.232" x2="-0.085" y2="1.508" xlink:href="#linear-gradient"/>
  </defs>
  <g id="Business_analysis" data-name="Business analysis" transform="translate(-1342.987 -87)">
    <path id="Trazado_99830" data-name="Trazado 99830" d="M1413.227,104.808c-9.814,14.305,1.693,37.5-12.868,48.256-14.174,10.473-31.587-6.693-44.946,2.321-19.816,13.373-16.2,74.566,12.775,112.585,8.714,11.434,15.994,15.883,19.217,28.814,6.924,27.767-17.409,44.284-12.779,58.017,10.427,30.922,170.777,56.868,235.117-36.061,30.049-43.4,34.545-106.074,7.7-153.675C1568.927,79.053,1435.246,72.711,1413.227,104.808Z" transform="translate(0 0)" fill="#f7fafd"/>
    <g id="Grupo_53593" data-name="Grupo 53593" transform="translate(1363.332 99.112)">
      <g id="Grupo_53592" data-name="Grupo 53592">
        <g id="Grupo_53589" data-name="Grupo 53589">
          <path id="Trazado_99831" data-name="Trazado 99831" d="M1520.439,108.477l-143.595-4.861a5.683,5.683,0,0,0-5.95,5.681V370.142a5.531,5.531,0,0,0,5.95,5.544l143.595-8.165a5.871,5.871,0,0,0,5.373-5.886v-247.4A5.706,5.706,0,0,0,1520.439,108.477Z" transform="translate(-1370.894 -103.613)" fill="url(#linear-gradient)"/>
          <g id="Grupo_53588" data-name="Grupo 53588" opacity="0.3" style="mix-blend-mode: multiply;isolation: isolate">
            <path id="Trazado_99832" data-name="Trazado 99832" d="M1461.522,301.09c-2.442-29.825,15.879-42.136,8.892-69.158-8.635-33.4-41.851-34.833-53.162-67.587-4.334-12.55-6.047-31.522,6.36-59.145l-46.768-1.583a5.683,5.683,0,0,0-5.95,5.681V370.142a5.531,5.531,0,0,0,5.95,5.544l128.038-7.281C1472.307,343.182,1463.023,319.422,1461.522,301.09Z" transform="translate(-1370.894 -103.613)" fill="#e3eaf4"/>
          </g>
          <path id="Trazado_99833" data-name="Trazado 99833" d="M1521.742,113.057l-143.595-4.694a2.337,2.337,0,0,0-2.442,2.334V371.235a2.275,2.275,0,0,0,2.442,2.278l143.595-8a2.414,2.414,0,0,0,2.21-2.418V115.424A2.347,2.347,0,0,0,1521.742,113.057Z" transform="translate(-1372.198 -104.9)" opacity="0.3" fill="url(#linear-gradient-2)"/>
        </g>
        <g id="Grupo_53590" data-name="Grupo 53590" transform="translate(31.568 205.393)">
          <path id="Trazado_99834" data-name="Trazado 99834" d="M1505.052,385.345l-87.131,3.139a3.891,3.891,0,0,0-3.726,3.855h0a3.556,3.556,0,0,0,3.726,3.577l87.131-3.357a3.724,3.724,0,0,0,3.5-3.738h0A3.4,3.4,0,0,0,1505.052,385.345Z" transform="translate(-1414.195 -385.343)" opacity="0.6" fill="url(#linear-gradient-3)"/>
          <path id="Trazado_99835" data-name="Trazado 99835" d="M1505.052,402.972l-87.131,3.528a3.912,3.912,0,0,0-3.726,3.872h0a3.538,3.538,0,0,0,3.726,3.561l87.131-3.746a3.745,3.745,0,0,0,3.5-3.754h0A3.385,3.385,0,0,0,1505.052,402.972Z" transform="translate(-1414.195 -390.119)" opacity="0.6" fill="url(#linear-gradient-3)"/>
          <path id="Trazado_99836" data-name="Trazado 99836" d="M1505.052,420.6l-87.131,3.916a3.933,3.933,0,0,0-3.726,3.888h0a3.52,3.52,0,0,0,3.726,3.545l87.131-4.134a3.764,3.764,0,0,0,3.5-3.769h0A3.366,3.366,0,0,0,1505.052,420.6Z" transform="translate(-1414.195 -394.895)" opacity="0.6" fill="url(#linear-gradient-3)"/>
        </g>
        <g id="Grupo_53591" data-name="Grupo 53591" transform="translate(31.568 17.346)">
          <path id="Trazado_99837" data-name="Trazado 99837" d="M1459.869,128.648l-43.829-1.242a1.782,1.782,0,0,0-1.845,1.789h0a1.905,1.905,0,0,0,1.845,1.892l43.829,1.187a1.742,1.742,0,0,0,1.789-1.764h0A1.863,1.863,0,0,0,1459.869,128.648Z" transform="translate(-1414.195 -127.406)" opacity="0.6" fill="url(#linear-gradient-3)"/>
          <path id="Trazado_99838" data-name="Trazado 99838" d="M1459.869,137.545,1416.04,136.4a1.787,1.787,0,0,0-1.845,1.793h0a1.9,1.9,0,0,0,1.845,1.887l43.829,1.091a1.748,1.748,0,0,0,1.789-1.768h0A1.858,1.858,0,0,0,1459.869,137.545Z" transform="translate(-1414.195 -129.843)" opacity="0.6" fill="url(#linear-gradient-3)"/>
          <path id="Trazado_99839" data-name="Trazado 99839" d="M1459.869,146.442l-43.829-1.048a1.791,1.791,0,0,0-1.845,1.8h0a1.9,1.9,0,0,0,1.845,1.884l43.829.994a1.752,1.752,0,0,0,1.789-1.772h0A1.853,1.853,0,0,0,1459.869,146.442Z" transform="translate(-1414.195 -132.28)" opacity="0.6" fill="url(#linear-gradient-3)"/>
        </g>
      </g>
      <path id="Trazado_99840" data-name="Trazado 99840" d="M1463.286,302.37c-2.442-29.822,15.876-42.131,8.891-69.15-8.634-33.4-41.842-34.829-53.151-67.579-4.154-12.031-5.9-29.967,4.9-55.781l-45.3-1.481a2.336,2.336,0,0,0-2.441,2.334V371.22a2.274,2.274,0,0,0,2.441,2.277l124.121-6.915C1473.316,342.5,1464.725,319.941,1463.286,302.37Z" transform="translate(-1372.328 -104.904)" fill="#fff" opacity="0.35" style="mix-blend-mode: soft-light;isolation: isolate"/>
    </g>
    <g id="Grupo_53594" data-name="Grupo 53594" transform="translate(1463.773 163.567)">
      <path id="Trazado_99841" data-name="Trazado 99841" d="M1527.171,393.641c-9.235-.157-17.631-21.558-18.36-39.053-.282-6.767-.562-13.5,3.347-20.275,6.6-11.436,16.729-8.436,22.647-17.752,8.74-13.756-7.268-29.876,1.424-41.305,6.393-8.407,17.079-2.348,24.831-11.585,8.993-10.716.217-25.548,8.543-30.953,4.837-3.139,9.072,1.038,22.993-2.128,5.446-1.239,8.169-1.858,10.453-3.766,8.009-6.686,1.881-18.069,7.806-26.539,6.523-9.324,23.738-9.524,34.449-6.585,19.193,5.267,30.38,24.148,33.126,40.115.589,3.421,4.066,25.753-10.121,40.054-10.317,10.4-26.012,12.558-28.557,12.909-9.917,1.364-12.343-1.2-15.534,1.418-9.224,7.571,8.862,30.791-1.606,49-4.274,7.435-12.665,12.916-20.611,14.519-12.846,2.591-19.863-5.9-26.242-1.628-8.253,5.525-.172,22.185-9.127,28.845-6.337,4.712-12.776-1.847-23.934,3.024C1532.793,386.281,1532.64,393.733,1527.171,393.641Z" transform="translate(-1508.665 -192.024)" fill="url(#linear-gradient-9)"/>
      <path id="Trazado_99842" data-name="Trazado 99842" d="M1527.9,379.542c4.261.383,4.725-11.1,16.473-27.9,12.83-18.346,21.359-17.637,33.379-34.215,13.722-18.926,5.321-23.593,16.98-38.407,15.8-20.079,32.874-13.585,51.963-37.183,5.726-7.078,13.312-16.736,10.3-26.681-2.613-8.624-12.852-16.336-22.877-14.806-.419.063-8.829,1.482-13.207,8.791-5.371,8.965,1.58,16.353-3.607,23.325-2.717,3.652-7.658,4.789-17.539,7.064-14.212,3.273-17.076.6-20.6,3.835-7.969,7.307,3.656,23.69-4.231,32.447-6.771,7.518-19.365-.09-25.217,7.016-7.063,8.576,8.275,23.307,1.721,36.826-5.644,11.639-20.222,7.334-28.318,19.835C1513.559,354.249,1521.753,378.989,1527.9,379.542Z" transform="translate(-1511.395 -194.227)" fill="#f7fafd" opacity="0.5" style="mix-blend-mode: soft-light;isolation: isolate"/>
    </g>
    <g id="Grupo_53595" data-name="Grupo 53595" transform="translate(1525.053 239.445)">
      <path id="Trazado_99843" data-name="Trazado 99843" d="M1610,403.5c6.591-.16,6.346-12.276,17.442-16.957,12.274-5.177,21.419,5.917,29.8.558,9.422-6.02,2.216-22.8,12.723-30.343,7.178-5.153,13.082.855,22.252-4.117,9.558-5.182,17.992-19.761,12.906-32.8-4.244-10.878-16.414-16.881-25.677-16.076-7.578.658-9.289,5.532-16.042,4.78-8.413-.938-8.962-8.859-17.943-11.6-8.937-2.731-20.409,1.441-26.219,9.077-4.831,6.349-4.692,13.707-4.571,20.125.326,17.229,8.755,23.084,5.2,30.05-4.43,8.693-19.341,3.084-25.071,11.829C1587.633,378.968,1600.515,403.732,1610,403.5Z" transform="translate(-1592.72 -296.104)" fill="url(#linear-gradient-10)"/>
      <path id="Trazado_99844" data-name="Trazado 99844" d="M1608.676,394.746c2.442.252,2.413-7.611,9.332-14.829,7.932-8.277,14.792-5.062,23.9-11.865,11.284-8.431,5.869-17.19,15.828-25.6,13.963-11.793,33.595-2.175,37.812-11.126,2.463-5.229-1.677-13.949-7.242-16.4-5.938-2.613-9.373,3.73-19.19,3.23-9.195-.469-10.252-6.241-21.72-8.109-5.59-.911-12.935-2.108-17.183,1.834-8.325,7.723-1.142,31.812,1.051,39.164,2.017,6.765,3.538,9.323,2.008,12.3-4.008,7.8-20.312,1.676-26.777,10.3C1601.087,380.848,1605.523,394.422,1608.676,394.746Z" transform="translate(-1595.764 -299.635)" fill="#f7fafd" opacity="0.5" style="mix-blend-mode: soft-light;isolation: isolate"/>
    </g>
    <g id="Grupo_53607" data-name="Grupo 53607" transform="translate(1352.392 93.313)">
      <g id="Grupo_53604" data-name="Grupo 53604" transform="translate(30.661)">
        <g id="Grupo_53600" data-name="Grupo 53600">
          <g id="Grupo_53597" data-name="Grupo 53597">
            <path id="Trazado_99845" data-name="Trazado 99845" d="M1553.863,100.73l-149.716-5.068a5.926,5.926,0,0,0-6.2,5.924V373.548a5.767,5.767,0,0,0,6.2,5.781l149.716-8.514a6.12,6.12,0,0,0,5.6-6.136V106.738A5.951,5.951,0,0,0,1553.863,100.73Z" transform="translate(-1397.944 -95.659)" fill="url(#linear-gradient-11)"/>
            <g id="Grupo_53596" data-name="Grupo 53596" opacity="0.3" style="mix-blend-mode: multiply;isolation: isolate">
              <path id="Trazado_99846" data-name="Trazado 99846" d="M1492.435,301.553c-2.547-31.1,16.556-43.932,9.271-72.106-9-34.826-43.635-36.318-55.429-70.468-4.519-13.085-6.3-32.866,6.631-61.666l-48.761-1.651a5.926,5.926,0,0,0-6.2,5.924V373.548a5.767,5.767,0,0,0,6.2,5.781l133.5-7.591C1503.679,345.44,1494,320.667,1492.435,301.553Z" transform="translate(-1397.944 -95.659)" fill="#e3eaf4"/>
            </g>
            <path id="Trazado_99847" data-name="Trazado 99847" d="M1555.223,105.505l-149.716-4.895a2.438,2.438,0,0,0-2.545,2.434V374.688a2.371,2.371,0,0,0,2.545,2.375l149.716-8.341a2.517,2.517,0,0,0,2.3-2.521V107.973A2.447,2.447,0,0,0,1555.223,105.505Z" transform="translate(-1399.304 -97)" fill="url(#linear-gradient-2)"/>
          </g>
          <g id="Grupo_53598" data-name="Grupo 53598" transform="translate(32.913 214.148)">
            <path id="Trazado_99848" data-name="Trazado 99848" d="M1537.82,389.4l-90.844,3.273a4.057,4.057,0,0,0-3.886,4.019h0a3.708,3.708,0,0,0,3.886,3.73l90.844-3.5a3.882,3.882,0,0,0,3.651-3.9h0A3.547,3.547,0,0,0,1537.82,389.4Z" transform="translate(-1443.09 -389.398)" fill="#e3eaf4"/>
            <path id="Trazado_99849" data-name="Trazado 99849" d="M1537.82,407.778l-90.844,3.678a4.08,4.08,0,0,0-3.886,4.037h0a3.689,3.689,0,0,0,3.886,3.712l90.844-3.905a3.9,3.9,0,0,0,3.651-3.913h0A3.529,3.529,0,0,0,1537.82,407.778Z" transform="translate(-1443.09 -394.377)" fill="#e3eaf4"/>
            <path id="Trazado_99850" data-name="Trazado 99850" d="M1537.82,426.156l-90.844,4.083a4.1,4.1,0,0,0-3.886,4.054h0a3.67,3.67,0,0,0,3.886,3.7l90.844-4.311a3.925,3.925,0,0,0,3.651-3.93h0A3.511,3.511,0,0,0,1537.82,426.156Z" transform="translate(-1443.09 -399.357)" fill="#e3eaf4"/>
          </g>
          <g id="Grupo_53599" data-name="Grupo 53599" transform="translate(32.913 18.085)">
            <path id="Trazado_99851" data-name="Trazado 99851" d="M1490.712,121.761l-45.7-1.295a1.859,1.859,0,0,0-1.925,1.866h0a1.988,1.988,0,0,0,1.925,1.973l45.7,1.237a1.817,1.817,0,0,0,1.865-1.839h0A1.943,1.943,0,0,0,1490.712,121.761Z" transform="translate(-1443.09 -120.466)" fill="#e3eaf4"/>
            <path id="Trazado_99852" data-name="Trazado 99852" d="M1490.712,131.038l-45.7-1.194a1.864,1.864,0,0,0-1.925,1.87h0a1.982,1.982,0,0,0,1.925,1.968l45.7,1.137a1.822,1.822,0,0,0,1.865-1.843h0A1.938,1.938,0,0,0,1490.712,131.038Z" transform="translate(-1443.09 -123.007)" fill="#e3eaf4"/>
            <path id="Trazado_99853" data-name="Trazado 99853" d="M1490.712,140.314l-45.7-1.092a1.868,1.868,0,0,0-1.925,1.874h0a1.976,1.976,0,0,0,1.925,1.964l45.7,1.036a1.827,1.827,0,0,0,1.865-1.847h0A1.933,1.933,0,0,0,1490.712,140.314Z" transform="translate(-1443.09 -125.548)" fill="#e3eaf4"/>
          </g>
        </g>
        <g id="Grupo_53603" data-name="Grupo 53603" transform="translate(32.75 48.868)">
          <g id="Grupo_53601" data-name="Grupo 53601" transform="translate(0 18.252)">
            <path id="Trazado_99854" data-name="Trazado 99854" d="M1474.523,225.8a19.561,19.561,0,0,1,15.026-10.343l.455-27.735a46.93,46.93,0,0,0-41.675,28.308Z" transform="translate(-1444.346 -187.725)" fill="url(#linear-gradient-13)"/>
            <path id="Trazado_99855" data-name="Trazado 99855" d="M1518.7,257.256a19.635,19.635,0,0,1-19.067,16.376,19.181,19.181,0,0,1-7.96-1.639l-14.533,23.89a45.994,45.994,0,0,0,22.493,5.369c24.11-.442,43.64-19.309,45.841-42.984Z" transform="translate(-1452.153 -206.565)" fill="url(#linear-gradient-14)"/>
            <path id="Trazado_99856" data-name="Trazado 99856" d="M1463.366,286.7l14.575-23.911a19.722,19.722,0,0,1-7.2-15.294,20.06,20.06,0,0,1,.476-4.35l-26.226-9.734a47.97,47.97,0,0,0-2.126,14.163A47.29,47.29,0,0,0,1463.366,286.7Z" transform="translate(-1442.866 -200.105)" fill="url(#linear-gradient-15)"/>
          </g>
          <g id="Grupo_53602" data-name="Grupo 53602" transform="translate(50.396)">
            <path id="Trazado_99857" data-name="Trazado 99857" d="M1511.993,208.78a19.569,19.569,0,0,1,16.36,17.627l44.31,1.75V228.1c0-34.341-26.22-62.876-59.917-65.41Z" transform="translate(-1511.993 -162.689)" fill="url(#linear-gradient-16)"/>
          </g>
        </g>
        <path id="Trazado_99858" data-name="Trazado 99858" d="M1494.275,302.888c-2.546-31.093,16.552-43.927,9.27-72.1-9-34.822-43.625-36.314-55.417-70.46-4.331-12.544-6.151-31.244,5.111-58.159l-47.232-1.544a2.436,2.436,0,0,0-2.544,2.434V374.673a2.371,2.371,0,0,0,2.544,2.374l129.411-7.209C1504.732,344.733,1495.774,321.208,1494.275,302.888Z" transform="translate(-1399.439 -97.005)" fill="#fff" opacity="0.35" style="mix-blend-mode: soft-light;isolation: isolate"/>
      </g>
      <g id="Grupo_53605" data-name="Grupo 53605" transform="translate(0 44.699)">
        <path id="Trazado_99859" data-name="Trazado 99859" d="M1431.314,190.982l-72.457-.721a2.965,2.965,0,0,1-2.969-2.915V159.786a2.846,2.846,0,0,1,2.969-2.815l63.078,1.5a2.888,2.888,0,0,1,2.808,2.87V185.03Z" transform="translate(-1355.888 -156.971)" fill="url(#linear-gradient-17)"/>
        <path id="Trazado_99860" data-name="Trazado 99860" d="M1418.539,171.118l-47.984-.936v-3.3l47.984,1Z" transform="translate(-1359.862 -159.655)" fill="#fff" opacity="0.67"/>
        <path id="Trazado_99861" data-name="Trazado 99861" d="M1418.539,180.049l-47.984-.8v-3.3l47.984.869Z" transform="translate(-1359.862 -162.111)" fill="#fff" opacity="0.67"/>
        <path id="Trazado_99862" data-name="Trazado 99862" d="M1418.539,188.98l-47.984-.671v-3.3l47.984.737Z" transform="translate(-1359.862 -164.567)" fill="#fff" opacity="0.67"/>
      </g>
      <g id="Grupo_53606" data-name="Grupo 53606" transform="translate(104.678 151.622)">
        <path id="Trazado_99863" data-name="Trazado 99863" d="M1508.478,310.534l87.126-1.872a4.071,4.071,0,0,1,4.105,4.159v40.565a4.353,4.353,0,0,1-4.105,4.387l-91.83,3.095a4.158,4.158,0,0,1-4.3-4.209V303.633Z" transform="translate(-1499.471 -303.633)" opacity="0.3" fill="url(#linear-gradient-18)" style="mix-blend-mode: multiply;isolation: isolate"/>
        <path id="Trazado_99864" data-name="Trazado 99864" d="M1520.742,359.428l69.857-2.089v4.9l-69.857,2.174Z" transform="translate(-1505.234 -318.185)" fill="#fff" opacity="0.67"/>
        <path id="Trazado_99865" data-name="Trazado 99865" d="M1520.742,345.808l69.857-1.919v4.9l-69.857,2Z" transform="translate(-1505.234 -314.541)" fill="#fff" opacity="0.67"/>
        <path id="Trazado_99866" data-name="Trazado 99866" d="M1520.742,332.188l69.857-1.749v4.9l-69.857,1.834Z" transform="translate(-1505.234 -310.896)" fill="#fff" opacity="0.67"/>
      </g>
    </g>
    <g id="Grupo_53609" data-name="Grupo 53609" transform="translate(1408.443 193.742)">
      <path id="Trazado_99867" data-name="Trazado 99867" d="M1587.73,320.378c6.7-1.508,9.368-1.46,12.68-4.128,5.515-4.444,6.343-11.207,9.548-11.124,1.515.039,2.745,1.586,3.62,3.1l-2.42,3.79c0-.047-.014-.085-.041-.1-.267-.137-1.376,1.631-2.375,3.089-5.084,7.425-15.795,14.138-25.033,12.252a16.059,16.059,0,0,1-7.486-3.64A114.229,114.229,0,0,1,1587.73,320.378Z" transform="translate(-1471.641 -252.844)" opacity="0.3" fill="url(#linear-gradient-19)" style="mix-blend-mode: multiply;isolation: isolate"/>
      <path id="Trazado_99868" data-name="Trazado 99868" d="M1573.494,333.328a25.848,25.848,0,0,1-6.032-1.339c-2.252-.964-3.707.42-3.5,1.378s3.912,2.291,5.393,2.339S1573.494,333.328,1573.494,333.328Z" transform="translate(-1468.313 -260.035)" fill="url(#linear-gradient-20)"/>
      <g id="Grupo_53608" data-name="Grupo 53608">
        <path id="Trazado_99869" data-name="Trazado 99869" d="M1649.944,353.142l.473-1.39a4.122,4.122,0,0,0-2.766-5.277l-89.426-27.241-2.725,9.236,88.974,27.4A4.414,4.414,0,0,0,1649.944,353.142Z" transform="translate(-1466.026 -256.667)" fill="url(#linear-gradient-21)"/>
        <path id="Trazado_99870" data-name="Trazado 99870" d="M1436.751,270.958c6.838-27.012,33.631-43.29,60.128-35.661,26.983,7.769,42.432,37.005,34.233,64.565-8.005,26.913-35.461,41.431-61.08,33.128C1444.856,324.83,1430.069,297.355,1436.751,270.958Zm86.577,26.52c6.776-23.064-6.153-47.493-28.685-54.047-22.193-6.456-44.739,7.1-50.557,29.775-5.707,22.245,6.755,45.431,28.013,52.261C1493.672,332.4,1516.686,320.087,1523.328,297.478Z" transform="translate(-1433.415 -233.414)" fill="url(#linear-gradient-21)"/>
        <path id="Trazado_99871" data-name="Trazado 99871" d="M1558.225,319.234l11.4,3.473a11.844,11.844,0,0,0,3.834,6.989c5.759,4.774,13.45-.432,24.179,5.166,5.384,2.809,4.361,4.6,9.408,6.557,8.343,3.241,12.163-1.248,19.546,1.7,7.468,2.984,8.2,9.431,12.44,9.2,1.812-.1,4.145-1.417,6.745-6.415l1.871.57a4.122,4.122,0,0,1,2.766,5.277l-.473,1.39a4.415,4.415,0,0,1-5.471,2.732l-88.974-27.4Z" transform="translate(-1466.026 -256.667)" fill="#e3eaf4" opacity="0.3" style="mix-blend-mode: multiply;isolation: isolate"/>
        <path id="Trazado_99872" data-name="Trazado 99872" d="M1471.637,332.577c22.315,7.181,46.14-5.536,53.029-28.933,7.033-23.885-6.355-49.189-29.7-55.967-22.978-6.672-46.3,7.375-52.309,30.846C1436.772,301.53,1449.659,325.5,1471.637,332.577Z" transform="translate(-1435.065 -236.828)" fill="#fff" opacity="0.56"/>
        <path id="Trazado_99873" data-name="Trazado 99873" d="M1434.376,274.135c6.837-27.012,33.63-43.29,60.127-35.661,26.983,7.769,42.432,37.005,34.233,64.565-8.006,26.913-35.461,41.431-61.079,33.128C1442.48,328.008,1427.693,300.532,1434.376,274.135Zm86.577,26.52c6.776-23.065-6.152-47.493-28.685-54.048-22.192-6.456-44.739,7.1-50.557,29.775-5.706,22.245,6.755,45.431,28.013,52.261C1491.3,335.575,1514.31,323.265,1520.952,300.656Z" transform="translate(-1432.771 -234.275)" fill="url(#linear-gradient-23)"/>
        <path id="Trazado_99874" data-name="Trazado 99874" d="M1437.956,276.035c6.479-25.479,31.773-40.788,56.745-33.572,25.4,7.341,39.959,34.872,32.268,60.838-7.52,25.391-33.4,39.133-57.593,31.317C1445.581,326.93,1431.615,300.967,1437.956,276.035Zm83.987,25.727c6.776-23.065-6.152-47.493-28.685-54.048-22.192-6.456-44.739,7.1-50.557,29.775-5.706,22.245,6.754,45.431,28.013,52.261C1492.288,336.682,1515.3,324.372,1521.943,301.762Z" transform="translate(-1433.762 -235.381)" fill="url(#linear-gradient-24)"/>
      </g>
    </g>
    <g id="Grupo_53612" data-name="Grupo 53612" transform="translate(1499.8 114.867)">
      <g id="Grupo_53610" data-name="Grupo 53610">
        <path id="Trazado_99875" data-name="Trazado 99875" d="M1558.081,133.983v51.268a3.079,3.079,0,0,0,3.076,3.082h98.14a2.773,2.773,0,0,0,2.672-2.867v-47.7Z" transform="translate(-1558.081 -127.598)" fill="url(#linear-gradient-25)"/>
        <path id="Trazado_99876" data-name="Trazado 99876" d="M1659.3,129.233l-98.14-4.006a2.933,2.933,0,0,0-3.076,2.956v5.253l103.888,3.66V132.21A2.915,2.915,0,0,0,1659.3,129.233Z" transform="translate(-1558.081 -125.224)" fill="url(#linear-gradient-26)"/>
        <path id="Trazado_99877" data-name="Trazado 99877" d="M1566.738,130.535a1.3,1.3,0,0,1-1.359,1.313,1.427,1.427,0,0,1-1.361-1.417,1.3,1.3,0,0,1,1.361-1.314A1.428,1.428,0,0,1,1566.738,130.535Z" transform="translate(-1559.69 -126.279)" fill="#fff"/>
      </g>
      <g id="Grupo_53611" data-name="Grupo 53611" transform="translate(13.409 15.926)">
        <path id="Trazado_99878" data-name="Trazado 99878" d="M1584.171,185.238l-7.7-.035V147.07l7.7.233Z" transform="translate(-1576.474 -147.07)" fill="#fff"/>
        <path id="Trazado_99879" data-name="Trazado 99879" d="M1584.171,192.682l-7.7-.035v-18.1l7.7.129Z" transform="translate(-1576.474 -154.514)" fill="url(#linear-gradient-27)"/>
        <path id="Trazado_99880" data-name="Trazado 99880" d="M1598.72,185.406l-7.586-.034V147.515l7.586.23Z" transform="translate(-1580.446 -147.19)" fill="#fff"/>
        <path id="Trazado_99881" data-name="Trazado 99881" d="M1598.72,196.136l-7.586-.034v-8.987l7.586.081Z" transform="translate(-1580.446 -157.921)" fill="url(#linear-gradient-28)"/>
        <path id="Trazado_99882" data-name="Trazado 99882" d="M1613.06,185.572l-7.478-.034V147.953l7.478.227Z" transform="translate(-1584.361 -147.309)" fill="#fff"/>
        <path id="Trazado_99883" data-name="Trazado 99883" d="M1613.06,197.8l-7.478-.034v-4.684l7.478.058Z" transform="translate(-1584.361 -159.537)" fill="url(#linear-gradient-29)"/>
        <path id="Trazado_99884" data-name="Trazado 99884" d="M1627.2,185.736l-7.372-.033V148.385l7.372.224Z" transform="translate(-1588.22 -147.426)" fill="#fff"/>
        <path id="Trazado_99885" data-name="Trazado 99885" d="M1627.2,188.74l-7.372-.033V159.473l7.372.182Z" transform="translate(-1588.22 -150.431)" fill="url(#linear-gradient-30)"/>
        <path id="Trazado_99886" data-name="Trazado 99886" d="M1641.134,185.9l-7.268-.033V148.811l7.268.22Z" transform="translate(-1592.025 -147.542)" fill="#fff"/>
        <path id="Trazado_99887" data-name="Trazado 99887" d="M1641.134,190.106l-7.268-.033V164.345l7.268.163Z" transform="translate(-1592.025 -151.751)" fill="url(#linear-gradient-31)"/>
        <path id="Trazado_99888" data-name="Trazado 99888" d="M1654.876,186.056l-7.167-.032V149.231l7.167.217Z" transform="translate(-1595.776 -147.655)" fill="#fff"/>
        <path id="Trazado_99889" data-name="Trazado 99889" d="M1654.876,188.044l-7.167-.032V156.569l7.167.191Z" transform="translate(-1595.776 -149.644)" fill="url(#linear-gradient-32)"/>
        <path id="Trazado_99890" data-name="Trazado 99890" d="M1668.427,186.212l-7.067-.032V149.645l7.067.214Z" transform="translate(-1599.474 -147.768)" fill="#fff"/>
        <path id="Trazado_99891" data-name="Trazado 99891" d="M1668.427,191.451l-7.067-.032V168.977l7.067.144Z" transform="translate(-1599.474 -153.006)" fill="url(#linear-gradient-33)"/>
        <path id="Trazado_99892" data-name="Trazado 99892" d="M1681.79,186.367l-6.97-.032V150.053l6.97.211Z" transform="translate(-1603.122 -147.878)" fill="#fff"/>
        <path id="Trazado_99893" data-name="Trazado 99893" d="M1681.79,195.17l-6.97-.031v-12.6l6.97.094Z" transform="translate(-1603.122 -156.681)" fill="url(#linear-gradient-34)"/>
      </g>
    </g>
  </g>
</svg>
