<svg xmlns="http://www.w3.org/2000/svg" xmlns:xlink="http://www.w3.org/1999/xlink" width="264.605" height="266.259" viewBox="0 0 264.605 266.259">
  <defs>
    <linearGradient id="linear-gradient" x1="0.71" y1="0.876" x2="0.151" y2="-0.124" gradientUnits="objectBoundingBox">
      <stop offset="0" stop-color="#ff9f55"/>
      <stop offset="1" stop-color="#ffd255"/>
    </linearGradient>
  </defs>
  <g id="Grupo_53395" data-name="Grupo 53395" transform="translate(-146.759 -36)">
    <g id="Grupo_53394" data-name="Grupo 53394" transform="translate(146.759 36)">
      <path id="Trazado_99247" data-name="Trazado 99247" d="M469.614,146.559H368.905c-25.831,1.719-25.717,30.174-25.717,30.174h0V312.707H444.023V176.733S444.5,148.182,469.614,146.559Z" transform="translate(-249.976 -94.095)" fill="#e8913a"/>
      <g id="Grupo_53307" data-name="Grupo 53307" transform="translate(86.185 84.356)">
        <rect id="Rectángulo_5035" data-name="Rectángulo 5035" width="1.163" height="104.655" fill="#ffc155"/>
      </g>
      <g id="Grupo_53308" data-name="Grupo 53308" transform="translate(140.931 2.434)">
        <path id="Trazado_99248" data-name="Trazado 99248" d="M505.261,75.2H443.749V41.129h61.512Zm-60.348-1.163H504.1V42.292H444.913Z" transform="translate(-443.749 -41.129)" fill="#ffc155"/>
      </g>
      <g id="Grupo_53309" data-name="Grupo 53309" transform="translate(25.837 29.187)">
        <path id="Trazado_99249" data-name="Trazado 99249" d="M262.717,140.368H201.205V97.508h61.512ZM202.369,139.2h59.185V98.671H202.369Z" transform="translate(-201.205 -97.508)" fill="#ffc155"/>
      </g>
      <g id="Grupo_53310" data-name="Grupo 53310" transform="translate(200.134 106.182)">
        <path id="Trazado_99250" data-name="Trazado 99250" d="M630.021,293.965H568.509v-34.2h61.512ZM569.673,292.8h59.185V260.927H569.673Z" transform="translate(-568.509 -259.763)" fill="#ffc155"/>
      </g>
      <path id="Trazado_99251" data-name="Trazado 99251" d="M461.129,142.668c-25.113,1.623-25.59,30.174-25.59,30.174V308.817H334.7V172.842s-.114-28.456,25.717-30.174Z" transform="translate(-245.518 -92.051)" fill="url(#linear-gradient)"/>
      <rect id="Rectángulo_5036" data-name="Rectángulo 5036" width="69.261" height="6.111" transform="translate(102.427 86.139)" fill="#ffdc94"/>
      <rect id="Rectángulo_5037" data-name="Rectángulo 5037" width="59.139" height="4.329" transform="translate(102.427 100.271)" fill="#ffdc94"/>
      <rect id="Rectángulo_5038" data-name="Rectángulo 5038" width="29.729" height="6.43" transform="translate(102.427 111.698)" fill="#ffdc94"/>
      <rect id="Rectángulo_5039" data-name="Rectángulo 5039" width="30.747" height="6.43" transform="translate(140.94 111.698)" fill="#ffdc94"/>
      <rect id="Rectángulo_5040" data-name="Rectángulo 5040" width="47.362" height="4.583" transform="translate(102.427 124.079)" fill="#ffdc94"/>
      <rect id="Rectángulo_5041" data-name="Rectángulo 5041" width="53.362" height="2.546" transform="translate(102.427 135.538)" fill="#ffdc94"/>
      <rect id="Rectángulo_5042" data-name="Rectángulo 5042" width="64.168" height="2.546" transform="translate(102.427 146.997)" fill="#ffdc94"/>
      <g id="Grupo_53311" data-name="Grupo 53311" transform="translate(102.208 158.237)">
        <path id="Trazado_99252" data-name="Trazado 99252" d="M392.312,383.9H362.147V369.46h30.165Zm-29.729-.436h29.292V369.9H362.583Z" transform="translate(-362.147 -369.46)" fill="#ffdc94"/>
      </g>
      <rect id="Rectángulo_5043" data-name="Rectángulo 5043" width="26.991" height="3.31" transform="translate(139.603 158.455)" fill="#ffdc94"/>
      <rect id="Rectángulo_5044" data-name="Rectángulo 5044" width="19.131" height="3.31" transform="translate(139.603 165.457)" fill="#ffdc94"/>
      <rect id="Rectángulo_5045" data-name="Rectángulo 5045" width="57.707" height="2.546" transform="translate(102.427 181.372)" fill="#ffdc94"/>
      <rect id="Rectángulo_5046" data-name="Rectángulo 5046" width="30.397" height="2.546" transform="translate(102.427 192.831)" fill="#ffdc94"/>
      <g id="Grupo_53318" data-name="Grupo 53318" transform="translate(207.294 113.385)">
        <g id="Grupo_53316" data-name="Grupo 53316" transform="translate(5.6 7.726)">
          <g id="Grupo_53315" data-name="Grupo 53315">
            <g id="Grupo_53314" data-name="Grupo 53314">
              <g id="Grupo_53313" data-name="Grupo 53313">
                <g id="Grupo_53312" data-name="Grupo 53312">
                  <path id="Trazado_99253" data-name="Trazado 99253" d="M598.5,297.38l-2.974-4.869a.847.847,0,0,1,1.446-.883l2.1,3.443,5.59-3.309a.847.847,0,0,1,.863,1.458Z" transform="translate(-595.4 -291.222)" fill="#ffca55"/>
                </g>
              </g>
            </g>
          </g>
        </g>
        <g id="Grupo_53317" data-name="Grupo 53317">
          <path id="Trazado_99254" data-name="Trazado 99254" d="M594.293,296.33a10.695,10.695,0,1,1,10.7-10.694A10.707,10.707,0,0,1,594.293,296.33Zm0-19.862a9.167,9.167,0,1,0,9.167,9.167A9.177,9.177,0,0,0,594.293,276.469Z" transform="translate(-583.599 -274.941)" fill="#ffca55"/>
        </g>
      </g>
      <path id="Trazado_99255" data-name="Trazado 99255" d="M476.765,66.055l.209,4.495,1.784-.083-.351-7.541-7.7.358.083,1.784,4.655-.217-8.205,9.006L458.7,66.08l-1.2,1.32,9.858,8.981Z" transform="translate(-310.043 -50.149)" fill="#ffca55"/>
      <g id="Grupo_53319" data-name="Grupo 53319" transform="translate(34.224 36.994)">
        <path id="Trazado_99256" data-name="Trazado 99256" d="M232.72,121.9a4.058,4.058,0,0,0-.769-.628,8.825,8.825,0,0,0-1.177-.644,9.608,9.608,0,0,0-1.468-.529,8.445,8.445,0,0,0-1.644-.282l-.019,6.025.552.118a25.646,25.646,0,0,1,2.835.853,8.072,8.072,0,0,1,2.136,1.142,4.622,4.622,0,0,1,1.348,1.649,5.334,5.334,0,0,1,.473,2.374,5.77,5.77,0,0,1-.562,2.632,5.131,5.131,0,0,1-1.534,1.814,6.864,6.864,0,0,1-2.274,1.084,11.067,11.067,0,0,1-2.781.384l-.01,3.056-1.513-.005.01-3.114a14.659,14.659,0,0,1-3.985-.843,12.544,12.544,0,0,1-3.457-1.918l1.493-2.789a5.174,5.174,0,0,0,.929.76,10.621,10.621,0,0,0,1.424.79,13.074,13.074,0,0,0,1.788.675,11.444,11.444,0,0,0,2.021.414l.019-6.025c-.116-.039-.237-.074-.363-.1s-.247-.064-.363-.1a24.777,24.777,0,0,1-2.689-.867,6.737,6.737,0,0,1-1.9-1.1,4.286,4.286,0,0,1-1.145-1.5,4.982,4.982,0,0,1-.386-2.082,6.14,6.14,0,0,1,.5-2.53,5.537,5.537,0,0,1,1.4-1.9,6.648,6.648,0,0,1,2.114-1.245,9.82,9.82,0,0,1,2.665-.559l.009-2.94,1.513,0-.009,2.94a11.21,11.21,0,0,1,3.49.768,12.631,12.631,0,0,1,2.818,1.552Zm-9.607.726a2.1,2.1,0,0,0,.853,1.836,8.289,8.289,0,0,0,2.6,1.085l.019-5.734a4.223,4.223,0,0,0-2.622.821A2.521,2.521,0,0,0,223.113,122.623Zm8.379,9.69a2.154,2.154,0,0,0-1.012-1.939,10.942,10.942,0,0,0-2.848-1.188l-.019,5.762a5.3,5.3,0,0,0,2.869-.689A2.195,2.195,0,0,0,231.492,132.312Z" transform="translate(-218.881 -113.96)" fill="#ffca55"/>
      </g>
      <rect id="Rectángulo_5047" data-name="Rectángulo 5047" width="24.158" height="3.437" transform="translate(57.293 41.389)" fill="#ded4ce"/>
      <rect id="Rectángulo_5048" data-name="Rectángulo 5048" width="18.988" height="3.438" transform="translate(57.293 48.899)" fill="#ded4ce"/>
      <rect id="Rectángulo_5049" data-name="Rectángulo 5049" width="21.306" height="3.438" transform="translate(57.293 56.409)" fill="#ded4ce"/>
      <rect id="Rectángulo_5050" data-name="Rectángulo 5050" width="17.262" height="3.438" transform="translate(233.118 117.81)" fill="#ded4ce"/>
      <rect id="Rectángulo_5051" data-name="Rectángulo 5051" width="19.369" height="3.438" transform="translate(233.118 125.32)" fill="#ded4ce"/>
      <rect id="Rectángulo_5052" data-name="Rectángulo 5052" width="21.962" height="3.438" transform="translate(173.915 10.242)" fill="#ded4ce"/>
      <rect id="Rectángulo_5053" data-name="Rectángulo 5053" width="17.262" height="3.438" transform="translate(173.915 17.752)" fill="#ded4ce"/>
      <rect id="Rectángulo_5054" data-name="Rectángulo 5054" width="19.369" height="3.438" transform="translate(173.915 25.262)" fill="#ded4ce"/>
      <g id="Grupo_53320" data-name="Grupo 53320" transform="translate(197.532 141.14)">
        <path id="Trazado_99257" data-name="Trazado 99257" d="M581.688,355.4H563.027v-1.163h17.5V333.43h1.163Z" transform="translate(-563.027 -333.43)" fill="#ded4ce"/>
      </g>
      <g id="Grupo_53321" data-name="Grupo 53321" transform="translate(125.526 38.268)">
        <path id="Trazado_99258" data-name="Trazado 99258" d="M412.448,126.954h-1.163V120.9h40.487v-4.258h1.163v5.421H412.448Z" transform="translate(-411.285 -116.643)" fill="#ded4ce"/>
      </g>
      <g id="Grupo_53322" data-name="Grupo 53322" transform="translate(60.212 74.171)">
        <path id="Trazado_99259" data-name="Trazado 99259" d="M294.885,238.117H273.646V192.3h1.163v44.65h20.076Z" transform="translate(-273.646 -192.304)" fill="#ded4ce"/>
      </g>
      <g id="Grupo_53323" data-name="Grupo 53323" transform="translate(196.356 56.887)">
        <path id="Trazado_99260" data-name="Trazado 99260" d="M561.738,200.379h-1.164V186.533c-.016-.23-1.492-26.788,20.917-30.652l.2,1.146c-21.39,3.688-19.97,29.21-19.953,29.468Z" transform="translate(-560.549 -155.881)" fill="#ffc155"/>
      </g>
      <g id="Grupo_53324" data-name="Grupo 53324" transform="translate(238.242 103.349)">
        <path id="Trazado_99261" data-name="Trazado 99261" d="M675.18,278.436h-1.163V254.955h-25.2v-1.163H675.18Z" transform="translate(-648.817 -253.792)" fill="#ffc155"/>
      </g>
      <g id="Grupo_53325" data-name="Grupo 53325" transform="translate(22.558 52.998)">
        <path id="Trazado_99262" data-name="Trazado 99262" d="M218.224,170.228H194.3V147.684h1.163v21.381h22.764Z" transform="translate(-194.297 -147.684)" fill="#ffc155"/>
      </g>
      <g id="Grupo_53326" data-name="Grupo 53326" transform="translate(138.152)">
        <path id="Trazado_99263" data-name="Trazado 99263" d="M439.056,53.752h-1.163V36h29.694v1.163h-28.53Z" transform="translate(-437.893 -36)" fill="#ffc155"/>
      </g>
      <g id="Grupo_53327" data-name="Grupo 53327" transform="translate(176.334 188.422)">
        <path id="Trazado_99264" data-name="Trazado 99264" d="M540.135,467.262h-21.78V466.1h20.617v-33.03h1.163Z" transform="translate(-518.355 -433.069)" fill="#ffc155"/>
      </g>
      <g id="Grupo_53328" data-name="Grupo 53328" transform="translate(162.475 180.577)">
        <path id="Trazado_99265" data-name="Trazado 99265" d="M508.115,435.5H489.15V416.537h18.965Zm-17.22-1.745H506.37V418.282H490.9Z" transform="translate(-489.15 -416.537)" fill="#ffdc94"/>
      </g>
      <g id="Grupo_53329" data-name="Grupo 53329" transform="translate(165.597 181.522)">
        <path id="Trazado_99266" data-name="Trazado 99266" d="M502.389,431l-6.661-6.279,1.995-2.117,4.8,4.523,10.469-8.6,1.846,2.247Z" transform="translate(-495.728 -418.529)" fill="#ffdc94"/>
      </g>
      <path id="Trazado_99267" data-name="Trazado 99267" d="M411.716,313.172A51.344,51.344,0,0,0,334.7,299.349v11.768a42.9,42.9,0,0,1,75.5,26.194c.019.531.03,1.058.03,1.589A42.892,42.892,0,0,1,334.7,366.752v11.779a50.721,50.721,0,0,0,10.019,6.455h45.257c1.058-.519,2.1-1.081,3.136-1.68A51.306,51.306,0,0,0,411.716,313.172Z" transform="translate(-245.518 -168.22)" fill="#3f444f" opacity="0.24" style="mix-blend-mode: hard-light;isolation: isolate"/>
      <g id="Grupo_53330" data-name="Grupo 53330" transform="translate(0 119.402)">
        <rect id="Rectángulo_5055" data-name="Rectángulo 5055" width="82.918" height="14.097" transform="translate(72.722 93.771) rotate(140.192)" fill="#ff7e55"/>
        <rect id="Rectángulo_5056" data-name="Rectángulo 5056" width="4.429" height="10.7" transform="translate(75.037 89.631) rotate(140.192)" fill="#e66947"/>
        <path id="Trazado_99268" data-name="Trazado 99268" d="M274.329,364.7a51.307,51.307,0,1,0,18.6-70.134A51.307,51.307,0,0,0,274.329,364.7Zm7.286-4.231a42.882,42.882,0,1,1,79.942-23.162h0a42.888,42.888,0,0,1-79.942,23.161Z" transform="translate(-210.142 -287.622)" fill="#494f5c"/>
        <path id="Trazado_99269" data-name="Trazado 99269" d="M289.364,335.332s44.66-33.911,83.743,11.309h0a42.887,42.887,0,0,0-83.743-11.309Z" transform="translate(-221.693 -296.953)" fill="#c2c2c2" opacity="0.3"/>
      </g>
      <g id="Grupo_53338" data-name="Grupo 53338" transform="translate(178.32 155.836)">
        <path id="Trazado_99270" data-name="Trazado 99270" d="M528.9,438.385a8.15,8.15,0,0,1-1.707.44,4.239,4.239,0,0,0-2.093,1.186,32.78,32.78,0,0,0-2.56,3.057c-.039.307.574.205.78-.038s2.165-2.186,2.165-2.186a21.423,21.423,0,0,0-2.184,2.734c.014.287.345.532.751.279a.507.507,0,0,0,.9.089L526.1,442.8s-.484.7.151.5c.338-.107,1.471-1.548,1.788-1.761a17.083,17.083,0,0,0,1.529-2.059Z" transform="translate(-522.541 -403.277)" fill="#eea886"/>
        <path id="Trazado_99271" data-name="Trazado 99271" d="M543.883,538.3a7.976,7.976,0,0,1-1.343,2c-.507.33-3.345,3.092-3.928,3.344s-2.458.608-2.432,1.5,4.839.608,5.777.279,2.508-2.458,3.141-2.432.406,2.61.406,2.61h.684a19.571,19.571,0,0,0,.836-3.7,34.7,34.7,0,0,0-.557-3.6Z" transform="translate(-529.708 -455.777)" fill="#162d40"/>
        <path id="Trazado_99272" data-name="Trazado 99272" d="M569.866,536.107a5.835,5.835,0,0,1-.972,2.234,36.349,36.349,0,0,1-3.446,3.285c-.575.263-1.678.447-2.02.867s-.138,1.656,2.02,1.524,2.861-.112,3.373-.545,2.168-1.931,2.661-1.971v2.385h.591s1.045-3.134.67-4.454a13.214,13.214,0,0,1-.354-3.114Z" transform="translate(-543.956 -454.627)" fill="#162d40"/>
        <path id="Trazado_99273" data-name="Trazado 99273" d="M575.336,384.734a7.236,7.236,0,0,1,.218,4.493s3.608-.228,3.745-.639-.145-4.207.351-5.329S575.336,384.734,575.336,384.734Z" transform="translate(-550.283 -374.162)" fill="#eea886"/>
        <g id="Grupo_53333" data-name="Grupo 53333" transform="translate(30.991 43.666)">
          <g id="Grupo_53332" data-name="Grupo 53332">
            <g id="Grupo_53331" data-name="Grupo 53331">
              <path id="Trazado_99274" data-name="Trazado 99274" d="M588.446,457.307a2.767,2.767,0,0,0-.177.961,4.553,4.553,0,0,1-.223,1.138,10.573,10.573,0,0,0-.189,1.857,8.056,8.056,0,0,1,.431,1.123c0,.262-.052.8.177.781s.411-.482.411-.482a.326.326,0,0,0,.223.287.563.563,0,0,0,.565-.1s.179.227.355.225a.719.719,0,0,0,.545-.2.661.661,0,0,0,.448.047.6.6,0,0,0,.419-.4s.434,0,.521-.23a2.005,2.005,0,0,0,.049-.626,6.947,6.947,0,0,0-1.044-2.879,3.1,3.1,0,0,1-.371-2.392Z" transform="translate(-587.85 -456.419)" fill="#eea886"/>
            </g>
          </g>
        </g>
        <g id="Grupo_53334" data-name="Grupo 53334" transform="translate(29.997 48.616)">
          <path id="Trazado_99275" data-name="Trazado 99275" d="M586.212,471.686l-.448-3.085a.911.911,0,0,1,.77-1.031l4.892-.71a.911.911,0,0,1,1.032.77l.448,3.085a.911.911,0,0,1-.77,1.032l-4.892.71A.912.912,0,0,1,586.212,471.686Zm.41-3.511a.3.3,0,0,0-.253.339l.448,3.084a.3.3,0,0,0,.339.253l4.892-.709a.3.3,0,0,0,.253-.339l-.448-3.085a.3.3,0,0,0-.339-.253Z" transform="translate(-585.755 -466.851)" fill="#0e1e2b"/>
        </g>
        <g id="Grupo_53335" data-name="Grupo 53335" transform="translate(24.824 50.983)">
          <rect id="Rectángulo_5057" data-name="Rectángulo 5057" width="18.248" height="13.287" transform="matrix(-0.99, 0.144, -0.144, -0.99, 19.966, 13.15)" fill="#eddad3"/>
        </g>
        <g id="Grupo_53337" data-name="Grupo 53337" transform="translate(31.814 47.366)">
          <g id="Grupo_53336" data-name="Grupo 53336">
            <path id="Trazado_99276" data-name="Trazado 99276" d="M589.7,466.642s-.289-1.459.036-1.853.458.126.458.126-.141-.512.26-.672.525.458.525.458a.43.43,0,0,1,.448-.429c.448-.011.433.527.433.527s.328-.595.68-.168a2.229,2.229,0,0,1,.322,1.782s-.09.25-.522.23a.6.6,0,0,1-.867.353s-.572.492-.9-.028A.518.518,0,0,1,589.7,466.642Z" transform="translate(-589.583 -464.217)" fill="#db9c7c"/>
          </g>
        </g>
        <path id="Trazado_99277" data-name="Trazado 99277" d="M568.045,394.007s-2.132.738-3.1.943-2.98,1.135-2.815,4.633a71.214,71.214,0,0,0,.984,8.037,30.879,30.879,0,0,1-.273,7.189,27.744,27.744,0,0,0,11.125,0,23.911,23.911,0,0,1-1.039-3.991c.028-.82,3.554-7.572,3.717-8.638s.875-5.768-.738-6.807-2.925-.9-3.608-1.367S569.042,393.673,568.045,394.007Z" transform="translate(-543.341 -379.799)" fill="#eb4747"/>
        <path id="Trazado_99278" data-name="Trazado 99278" d="M550.793,396.147s-2.354-.065-4.021,3.626-2.078,5.85-2.46,6.369a17.644,17.644,0,0,1-3.035,3.526c-1.312.984-6.775,6.527-6.775,6.527l1.5,1.919s7.872-5.576,8.692-6.533,5.8-8.2,6.1-9.294S553.392,397.277,550.793,396.147Z" transform="translate(-528.826 -381.082)" fill="#eb4747"/>
        <path id="Trazado_99279" data-name="Trazado 99279" d="M592.615,415.385c.015,1.476-1.518,11.549-1.518,11.549l-2.9.123s.929-9.991,1.257-12.287a11.609,11.609,0,0,0-.149-2.878h0c-.1-.729-.24-1.5-.385-2.229-.4-2.024-.86-3.79-.86-3.79s-2.61-8.6,1.4-7.969a9.755,9.755,0,0,1,1.838,4.238,50.124,50.124,0,0,1,.82,7.955C592.041,411.612,592.6,414.3,592.615,415.385Z" transform="translate(-556.532 -381.987)" fill="#eb4747"/>
        <path id="Trazado_99280" data-name="Trazado 99280" d="M557.467,436.223a24.575,24.575,0,0,0-1.012,2.753c-.082.555-3,7.808-3.2,9.931-.2,2.146-.82,7.872-1.039,8.693s.492,4.483.6,5.3.055,14.215-.93,20.83c0,0,2.3.984,4.046,0,0,0,2.9-10.332,2.733-16.292s-.92-8.474,0-10.88,6.337-9.622,6.884-10.388,3.972-5,.728-9.577S557.467,436.223,557.467,436.223Z" transform="translate(-537.963 -401.213)" fill="#1d3b54"/>
        <path id="Trazado_99281" data-name="Trazado 99281" d="M576.708,455.466c-.288,1.914.015,4.428.616,11.427a66.4,66.4,0,0,1-1.053,15.472,8.4,8.4,0,0,1-4.469,0c.055-.492,0-17.057,0-18.534s-.424-3.151-.533-4.845a34.612,34.612,0,0,0-1.216-5.457c-.181-.651-.368-1.305-.55-1.939h0l-.3-1.043c-.851-2.952-2-14.352-2-14.352s6.345-5.111,9.434-.3,1.5,8.31,1.394,8.911S577,453.553,576.708,455.466Z" transform="translate(-546.011 -400.884)" fill="#1d3b54"/>
        <path id="Trazado_99282" data-name="Trazado 99282" d="M560.8,409.458s.427,8.609-1.623,13.57a29.771,29.771,0,0,0,15.5,0s-1.872-6.171-1.722-7.114,3.419-11.822,2.413-14.382S561.808,401.383,560.8,409.458Z" transform="translate(-541.792 -383.399)" fill="#eb4747"/>
        <path id="Trazado_99283" data-name="Trazado 99283" d="M573.859,365.617c-1.523-.172-5.467.137-5.166,6.069s2.46,5.576,4.62,4.947,4.729-5.221,4.729-6.451S578.206,366.109,573.859,365.617Z" transform="translate(-546.784 -365.022)" fill="#eea886"/>
        <path id="Trazado_99284" data-name="Trazado 99284" d="M569.172,368.347a9.083,9.083,0,0,0,3.441,2.712,6.75,6.75,0,0,0,3.645,2.98s4.941-4.725.786-8.279S569.144,366.533,569.172,368.347Z" transform="translate(-547.044 -364.4)" fill="#fccca2"/>
        <path id="Trazado_99285" data-name="Trazado 99285" d="M575.661,376.069a.745.745,0,0,1,1.332-.246c.555.738-.457,2.46-.839,2.46S575.442,377.3,575.661,376.069Z" transform="translate(-550.417 -370.226)" fill="#eea886"/>
        <path id="Trazado_99286" data-name="Trazado 99286" d="M584.772,368.891c.124-.188,3.869-1.875,4.648,1.651s-3.016,7.627-3.681,9.39,0,5.946,0,5.946a13.9,13.9,0,0,1-2.674-4.351C582.306,379.111,582.051,373.021,584.772,368.891Z" transform="translate(-554.076 -366.462)" fill="#fccca2"/>
        <path id="Trazado_99287" data-name="Trazado 99287" d="M576.619,457.757c-.049.109-3.211,7.127-4.024,8.343-.181-.651-.368-1.305-.55-1.939h0S576.514,457.911,576.619,457.757Z" transform="translate(-548.554 -413.456)" fill="#162d40"/>
        <path id="Trazado_99288" data-name="Trazado 99288" d="M591.847,412.32a50.961,50.961,0,0,1-.661,7.164c-.1-.729-.24-1.5-.385-2.229C590.824,417.155,591.738,413.018,591.847,412.32Z" transform="translate(-558.41 -389.58)" fill="#ab3434"/>
      </g>
      <g id="Grupo_53370" data-name="Grupo 53370" transform="translate(79.242 157.745)">
        <g id="Grupo_53341" data-name="Grupo 53341" transform="translate(18.154 43.661)">
          <g id="Grupo_53340" data-name="Grupo 53340">
            <g id="Grupo_53339" data-name="Grupo 53339">
              <path id="Trazado_99289" data-name="Trazado 99289" d="M354.188,460.431a2.518,2.518,0,0,1,.523.719,4.131,4.131,0,0,0,.63.846,9.69,9.69,0,0,1,.885,1.45,7.363,7.363,0,0,0,.087,1.09c.1.217.355.632.162.71s-.527-.233-.527-.233a.3.3,0,0,1-.07.323.433.433,0,0,1-.52.071s-.041.326-.186.394a.5.5,0,0,1-.521-.017.579.579,0,0,1-.353.284.511.511,0,0,1-.493-.209s-.355.154-.515,0a1.648,1.648,0,0,1-.3-.435,6.342,6.342,0,0,1-.275-2.773,2.509,2.509,0,0,0-.713-2.034Z" transform="translate(-352.004 -460.431)" fill="#eea886"/>
            </g>
          </g>
        </g>
        <g id="Grupo_53342" data-name="Grupo 53342" transform="translate(17.602 47.586)">
          <path id="Trazado_99290" data-name="Trazado 99290" d="M356.786,473.717h-5.021a.926.926,0,0,1-.925-.924v-3.166a.926.926,0,0,1,.925-.925h5.021a.926.926,0,0,1,.924.925v3.166A.926.926,0,0,1,356.786,473.717Zm-5.021-4.395a.3.3,0,0,0-.3.3v3.166a.3.3,0,0,0,.3.3h5.021a.3.3,0,0,0,.3-.3v-3.166a.3.3,0,0,0-.3-.3Z" transform="translate(-350.841 -468.702)" fill="#0e1e2b"/>
        </g>
        <g id="Grupo_53343" data-name="Grupo 53343" transform="translate(11.619 51.242)">
          <rect id="Rectángulo_5058" data-name="Rectángulo 5058" width="18.836" height="13.496" fill="#ffcc63"/>
        </g>
        <g id="Grupo_53344" data-name="Grupo 53344" transform="translate(11.541 15.129)">
          <path id="Trazado_99291" data-name="Trazado 99291" d="M339.563,400.3s-.965.014-1.376,2.9.368,4.091.461,5.292,1.5,8.954,1.539,9.3.227,4.469.776,5.564,4.586,7.3,4.64,7.612,1.96-1.081,1.96-1.081-3.172-6.639-3.355-7.4-1.461-4.625-1.258-5.806-.566-7.694-.491-8.419S341.413,400.745,339.563,400.3Z" transform="translate(-338.068 -400.305)" fill="#eea886"/>
        </g>
        <g id="Grupo_53345" data-name="Grupo 53345" transform="translate(11.476 15.129)">
          <path id="Trazado_99292" data-name="Trazado 99292" d="M339.491,400.3s-.965.014-1.376,2.9a11.8,11.8,0,0,0,.209,5.175c.235,1.181,1.035,8.405,1.073,8.748s1,4.7,1.494,6.231c.379,1.165,3.978,7.265,4.033,7.574s2.8-1.425,2.8-1.425-3.52-6.866-3.7-7.624a30.111,30.111,0,0,1-.8-4.577c-.022-1.407-.908-8.314-.833-9.038S342.184,401.292,339.491,400.3Z" transform="translate(-337.931 -400.305)" fill="#285173"/>
        </g>
        <path id="Trazado_99293" data-name="Trazado 99293" d="M321.4,542.03a28.152,28.152,0,0,0,2.357,3.1s1.558.546,1.655,1.605c.063.693,0,1.806-1.778,1.856s-2.923-.571-3.249-1.65a3.258,3.258,0,0,0-.941-1.56v2.257h-.4s-.1-2.181-.125-2.583-.289-1.944.558-2.627A2.347,2.347,0,0,1,321.4,542.03Z" transform="translate(-316.432 -459.616)" fill="#eddad3"/>
        <path id="Trazado_99294" data-name="Trazado 99294" d="M344.913,537.266a7.193,7.193,0,0,0,.84,1.4c.4.525,1.655,2.683,2.207,2.834s2.257.451,2.408,1.4.225,1.63-1.455,1.706-2.783.176-3.586-1a8.737,8.737,0,0,0-2.081-2.031v3.075h-.652a27.881,27.881,0,0,0-.476-3.427,3.867,3.867,0,0,1,.928-3.962C344.6,535.987,344.913,537.266,344.913,537.266Z" transform="translate(-328.551 -456.846)" fill="#eddad3"/>
        <path id="Trazado_99295" data-name="Trazado 99295" d="M317.788,439.618a15.74,15.74,0,0,0-2.7,6.031c-.576,3.272.34,14.256.315,15.874s-1.53,5.642-1.229,8.69,2.815,17.961,2.815,17.961l1.924-.395s-.188-15.46,0-16.739.566-5.941.641-6.468,4.776-14.355,4.776-16.714S322.9,435.768,317.788,439.618Z" transform="translate(-313.952 -405.365)" fill="#eea886"/>
        <path id="Trazado_99296" data-name="Trazado 99296" d="M336.213,442.111s3.486,13.3,3.9,15.147a38.867,38.867,0,0,1,1.013,4.146,27.408,27.408,0,0,1-.674,4.732l-2.37,21.065h-1.868s-1.178-12.3-1.367-14.784,1.354-6.319.978-7.373-6.056-13.2-6.056-13.2S325.467,438.249,336.213,442.111Z" transform="translate(-321.719 -406.781)" fill="#eea886"/>
        <path id="Trazado_99297" data-name="Trazado 99297" d="M324.725,545.322a2.782,2.782,0,0,1-2.793-.241,5.431,5.431,0,0,1-1.778-2.589l1.924-.395Z" transform="translate(-317.114 -459.683)" fill="#eea886"/>
        <path id="Trazado_99298" data-name="Trazado 99298" d="M348.815,541.76s-1.5.376-2.081,0-2.538-3.69-3.187-3.889c0,0,.63-1.277,2.222-.349C345.768,537.522,348.389,541.208,348.815,541.76Z" transform="translate(-329.406 -457.101)" fill="#eea886"/>
        <path id="Trazado_99299" data-name="Trazado 99299" d="M333.164,461.217s-6.4,3.77-18.409,3.77c0,0-.68-13.923,1.065-17.84s13.331-1.481,13.331-1.481S332.751,458.337,333.164,461.217Z" transform="translate(-314.208 -408.618)" fill="#1d3b54"/>
        <g id="Grupo_53346" data-name="Grupo 53346" transform="translate(0.958 13.992)">
          <path id="Trazado_99300" data-name="Trazado 99300" d="M325.014,398.006a19.445,19.445,0,0,0,2.508,1.008c.646.13,3.155,3.387,3.594,4.576s0,2.973-.9,5.068-.052,2.793-.465,4.887a48.68,48.68,0,0,0-.7,7.692c.077,1.164-10.458,1.383-12.862-.737,0,0,2.417-3.619,2.727-4.137s.052-3.335-.233-4.059-2.177-6.881-2.177-6.881-1.548-4.728-.149-5.814c1.215-.944,4.527-1.28,5.122-1.487A10.161,10.161,0,0,1,325.014,398.006Z" transform="translate(-315.768 -397.909)" fill="#eddad3"/>
        </g>
        <g id="Grupo_53347" data-name="Grupo 53347" transform="translate(10.745 13.428)">
          <path id="Trazado_99301" data-name="Trazado 99301" d="M336.446,401.531l1.131-1.324-.982-3.487A23.034,23.034,0,0,0,336.446,401.531Z" transform="translate(-336.392 -396.719)" fill="#d6c5be"/>
        </g>
        <g id="Grupo_53348" data-name="Grupo 53348" transform="translate(5.001 0.549)">
          <path id="Trazado_99302" data-name="Trazado 99302" d="M327.141,369.907c1.107-.389,5.171-1.344,6.128,3.852s-1.913,8.895-4.551,7.912-4.266-4.576-4.421-7.317A4.1,4.1,0,0,1,327.141,369.907Z" transform="translate(-324.287 -369.578)" fill="#eea886"/>
        </g>
        <g id="Grupo_53349" data-name="Grupo 53349" transform="translate(4.452 0.123)">
          <path id="Trazado_99303" data-name="Trazado 99303" d="M332.661,373.289s.2-4.447-4.222-4.6-5.61,3.485-5.248,6.138a6.492,6.492,0,0,0,2.192,4.052s-.159-2.146.7-2.7,4.3-1.669,5.8-4.254A3.972,3.972,0,0,1,332.661,373.289Z" transform="translate(-323.13 -368.682)" fill="#252e3b"/>
        </g>
        <g id="Grupo_53350" data-name="Grupo 53350" transform="translate(2.672)">
          <path id="Trazado_99304" data-name="Trazado 99304" d="M325.178,372.682a2.978,2.978,0,1,1-1.748-4.128A3.184,3.184,0,0,1,325.178,372.682Z" transform="translate(-319.379 -368.422)" fill="#252e3b"/>
        </g>
        <g id="Grupo_53351" data-name="Grupo 53351" transform="translate(6.665 9.393)">
          <path id="Trazado_99305" data-name="Trazado 99305" d="M332.222,390.766a44.447,44.447,0,0,0-.294,4.527s-1.934,1.938-4.134-2.263a5.767,5.767,0,0,0,.229-4.091C327.326,386.579,332.222,390.766,332.222,390.766Z" transform="translate(-327.794 -388.218)" fill="#eea886"/>
        </g>
        <g id="Grupo_53352" data-name="Grupo 53352" transform="translate(8.573 16.468)">
          <path id="Trazado_99306" data-name="Trazado 99306" d="M334.041,403.127V404.9l-2.226-1.664Z" transform="translate(-331.815 -403.127)" fill="#eea886"/>
        </g>
        <g id="Grupo_53353" data-name="Grupo 53353" transform="translate(5.755 13.992)">
          <path id="Trazado_99307" data-name="Trazado 99307" d="M330.92,402.156,330,401.012l-3.113-3.1-1.007.97Z" transform="translate(-325.875 -397.909)" fill="#d6c5be"/>
        </g>
        <g id="Grupo_53354" data-name="Grupo 53354" transform="translate(0 14.289)">
          <path id="Trazado_99308" data-name="Trazado 99308" d="M320.078,398.535s2.613,3.965,2.738,5.71a158.309,158.309,0,0,1-1.849,19c-.877,4.2-7.219-.473-7.219-.473s4.261-6.9,2.626-12.419-2.23-7.73-2.23-7.73.563-3.075,2.557-3.508C318.449,398.731,320.078,398.535,320.078,398.535Z" transform="translate(-313.748 -398.535)" fill="#285173"/>
        </g>
        <g id="Grupo_53355" data-name="Grupo 53355" transform="translate(11.586 14.702)">
          <path id="Trazado_99309" data-name="Trazado 99309" d="M343.056,404.906s.472,1.668-1.365,5.354c0,0,.029,4.717.081,6.191s.4,7.045.4,7.045l-1.816,1.063a.512.512,0,0,1-.767-.5c.514-4.241,2.187-20.328-1.426-24.652l1.45.428A11.734,11.734,0,0,1,343.056,404.906Z" transform="translate(-338.164 -399.404)" fill="#285173"/>
        </g>
        <g id="Grupo_53356" data-name="Grupo 53356" transform="translate(6.535 6.266)">
          <path id="Trazado_99310" data-name="Trazado 99310" d="M328.832,382.035a.681.681,0,0,0-1.008-.289c-.31.233-.491.931,0,1.835S330.048,385.117,328.832,382.035Z" transform="translate(-327.52 -381.627)" fill="#eea886"/>
        </g>
        <g id="Grupo_53357" data-name="Grupo 53357" transform="translate(10.949 13.428)">
          <path id="Trazado_99311" data-name="Trazado 99311" d="M337.8,400.206l1.425.394-2.408-3.881Z" transform="translate(-336.82 -396.719)" fill="#fae6de"/>
        </g>
        <g id="Grupo_53358" data-name="Grupo 53358" transform="translate(5.9 13.992)">
          <path id="Trazado_99312" data-name="Trazado 99312" d="M330.157,401.012l-1.3,1.706-2.673-4.456.862-.354Z" transform="translate(-326.181 -397.909)" fill="#fae6de"/>
        </g>
        <g id="Grupo_53359" data-name="Grupo 53359" transform="translate(7.404 11.212)">
          <path id="Trazado_99313" data-name="Trazado 99313" d="M332.963,393.531l-.064.685s-1.537.288-3.549-2.166A4.367,4.367,0,0,0,332.963,393.531Z" transform="translate(-329.35 -392.05)" fill="#a77860"/>
        </g>
        <g id="Grupo_53362" data-name="Grupo 53362" transform="translate(18.163 33.326)">
          <g id="Grupo_53361" data-name="Grupo 53361">
            <g id="Grupo_53360" data-name="Grupo 53360">
              <path id="Trazado_99314" data-name="Trazado 99314" d="M352.788,438.926s.9.582,1.425.257a3.437,3.437,0,0,1,1.452-.327c.317-.017,1.274-.43,1.3-.03s-1.544.758-1.858.9,1.069.816,1.224,1.138-1.092,2.549-1.988,1.976-1.473-1.776-1.651-1.846a6.583,6.583,0,0,1-.668-.391Z" transform="translate(-352.023 -438.651)" fill="#eea886"/>
            </g>
          </g>
        </g>
        <g id="Grupo_53363" data-name="Grupo 53363" transform="translate(0.636 15.449)">
          <path id="Trazado_99315" data-name="Trazado 99315" d="M316.208,401.017a2.534,2.534,0,0,1,2.34.852,12.275,12.275,0,0,1,1.913,3.7c.285.62,3.878,6.36,4.085,6.49s3.859,3.076,5.514,4.653a29.114,29.114,0,0,0,4.88,3.336l-1.215,1.706s-9.8-5.223-11.04-7.136-6.2-7.214-6.2-7.214S313.532,402.945,316.208,401.017Z" transform="translate(-315.088 -400.979)" fill="#eea886"/>
        </g>
        <g id="Grupo_53366" data-name="Grupo 53366" transform="translate(20.525 35.353)">
          <g id="Grupo_53365" data-name="Grupo 53365">
            <g id="Grupo_53364" data-name="Grupo 53364">
              <path id="Trazado_99316" data-name="Trazado 99316" d="M358.768,442.924a23.7,23.7,0,0,1,2.691,2.212c.067.276-.046.411-.3.241s-2.59-1.8-2.59-1.8,2.721,2.814,2.825,3.028c.061.125-.143.4-.287.322s-3-2.713-3-2.713,2.536,2.632,2.57,2.836a.252.252,0,0,1-.423.2c-.2-.182-2.693-2.492-2.693-2.492a14.827,14.827,0,0,1,1.652,2.222c-.045.116-.21.363-.639-.175s-1.574-1.7-1.574-1.7Z" transform="translate(-357.001 -442.924)" fill="#eea886"/>
            </g>
          </g>
        </g>
        <path id="Trazado_99317" data-name="Trazado 99317" d="M346.03,420.332s.087,5.889-.273,8.729l-.159-7.8Z" transform="translate(-330.484 -395.699)" fill="#1d3b54"/>
        <g id="Grupo_53367" data-name="Grupo 53367" transform="translate(0.243 15.055)">
          <path id="Trazado_99318" data-name="Trazado 99318" d="M316.42,400.149a3.812,3.812,0,0,1,1.8,1.284,12.3,12.3,0,0,1,1.913,3.7c.284.62,3.878,6.36,4.085,6.49a45.784,45.784,0,0,1,4.854,3.762,35.495,35.495,0,0,0,4.734,3.461l-1.58,2.346s-8.642-4.786-10.012-6.609c-1.464-1.947-6.684-7.663-6.684-7.663S312.148,401.71,316.42,400.149Z" transform="translate(-314.26 -400.149)" fill="#285173"/>
        </g>
        <g id="Grupo_53369" data-name="Grupo 53369" transform="translate(18.952 46.421)">
          <g id="Grupo_53368" data-name="Grupo 53368">
            <path id="Trazado_99319" data-name="Trazado 99319" d="M356.847,467.92s-.337-1.311-.758-1.506-.326.284-.326.284-.085-.475-.478-.449-.251.582-.251.582a.391.391,0,0,0-.535-.177c-.372.167-.148.6-.148.6s-.5-.359-.624.13a2.027,2.027,0,0,0,.437,1.589s.172.169.519-.017a.542.542,0,0,0,.85-.051s.663.179.727-.377C356.259,468.532,356.977,468.681,356.847,467.92Z" transform="translate(-353.686 -466.248)" fill="#db9c7c"/>
          </g>
        </g>
        <path id="Trazado_99320" data-name="Trazado 99320" d="M327.959,428.18,325,423.407s2.522,2.978,2.785,3.3.285.343.285.343S327.994,428.018,327.959,428.18Z" transform="translate(-319.661 -397.315)" fill="#1d3b54"/>
      </g>
      <g id="Grupo_53393" data-name="Grupo 53393" transform="translate(111.68 157.698)">
        <path id="Trazado_99321" data-name="Trazado 99321" d="M393.761,457.715a15.222,15.222,0,0,0,.563,1.869,26.707,26.707,0,0,1,.244,3.87c-.015.328-.232.134-.344-.082-.064-.123-.261-1.167-.454-1.722-.162-.466-.3-.64-.384-.489a10.194,10.194,0,0,0-.054,2.92c.178.829-.007,2.739-.444,2.463s-1.457-3.73-1.371-5.031a17.052,17.052,0,0,1,.551-2.932Z" transform="translate(-387.049 -415.296)" fill="#eea886"/>
        <g id="Grupo_53371" data-name="Grupo 53371" transform="translate(4.009 16.499)">
          <path id="Trazado_99322" data-name="Trazado 99322" d="M392.849,430.761s1.424-9.467,1.8-11.266c.171-.815.642-2.842.94-4.507.1-.549.181-1.113.251-1.667v0c.279-2.208.351-4.222.351-4.222s1.235-5.657-2.335-6.006c0,0-.957.3-1.013.691-.216,1.512-.709,4.781-.73,5.556-.017.629-.94,6.977-.954,7.2-.026.436-.24,3.376-.327,4.667-.2,3.015-.28,9.756-.28,9.756Z" transform="translate(-390.554 -403.092)" fill="#2c5396"/>
        </g>
        <g id="Grupo_53372" data-name="Grupo 53372" transform="translate(0 84.248)">
          <path id="Trazado_99323" data-name="Trazado 99323" d="M387.271,546.134A6.742,6.742,0,0,1,384.494,548c-1.4.322-2.378.734-2.388,1.616s4.026,1.465,5.627.575c2.39-1.328,2.633-.928,2.9-1.592s-.318-2.439-.3-2.651C390.35,545.683,387.271,546.134,387.271,546.134Z" transform="translate(-382.106 -545.862)" fill="#202338"/>
        </g>
        <g id="Grupo_53373" data-name="Grupo 53373" transform="translate(14.585 84.813)">
          <path id="Trazado_99324" data-name="Trazado 99324" d="M417.481,547.161a4.943,4.943,0,0,1-2.37,1.844c-1.337.341-2.2.99-2.269,1.848s3.152,1.982,5.413.474c1.486-.99,2.04-.934,2.339-1.563s-.157-2.393-.127-2.6C420.505,546.915,417.481,547.161,417.481,547.161Z" transform="translate(-412.842 -547.053)" fill="#202338"/>
        </g>
        <g id="Grupo_53374" data-name="Grupo 53374" transform="translate(5.163 83.35)">
          <path id="Trazado_99325" data-name="Trazado 99325" d="M393.143,544.4a6.372,6.372,0,0,0-.155.736c.027.015,3.153.388,3.058-.191-.076-.469-.186-.978-.186-.978Z" transform="translate(-392.985 -543.971)" fill="#81807e"/>
        </g>
        <g id="Grupo_53375" data-name="Grupo 53375" transform="translate(19.219 83.909)">
          <path id="Trazado_99326" data-name="Trazado 99326" d="M422.654,545.419a7.06,7.06,0,0,0-.041.741c.025.017,3,.577,2.987.006a4.662,4.662,0,0,0-.189-1.017Z" transform="translate(-422.607 -545.149)" fill="#81807e"/>
        </g>
        <g id="Grupo_53376" data-name="Grupo 53376" transform="translate(4.852 37.319)">
          <path id="Trazado_99327" data-name="Trazado 99327" d="M395.64,450.285s-1.136,11.039-1.728,14.818c-.691,4.418-.925,8.069-1.118,10.356-.242,2.876-.289,17.026-.459,17.867s3.765.232,3.765.232,1.936-18.488,2.658-21.551c.672-2.852,3.168-15.133,3.781-14.354s1.374,14.331,1.829,16.581S406.2,494.1,406.2,494.1s3.131.624,3.964-.081c0,0,.379-15.178.09-19.4-.11-1.607,1.883-19.273-.673-26.384C408.235,444.475,395.64,450.285,395.64,450.285Z" transform="translate(-392.33 -446.968)" fill="#292c47"/>
        </g>
        <g id="Grupo_53377" data-name="Grupo 53377" transform="translate(7.207 13.035)">
          <path id="Trazado_99328" data-name="Trazado 99328" d="M417.731,424.961a8.927,8.927,0,0,1-2.719.435c-.8-.147-.4-10-.428-12.046a52.353,52.353,0,0,0-.934-6.051v.02a41.911,41.911,0,0,0-1.36,7.071c-.045,2.271.3,10.958.3,10.958l-3.05,1.437-10.547.3-1.537.023s.242-5.15.333-6.914c.056-1.122.274-3.13.218-5.085a17.964,17.964,0,0,0-.169-2.949c-.022-3.919-.259-7.8-.259-7.8q-.2-2.665-.275-4.988c.428-.226.944-.492,1.356-.688,1.276-.607,3.054-1.426,4.2-1.949.668-.307,1.322-.531,1.322-.531s4.56-.437,4.93-.414a11.474,11.474,0,0,1,1.434.491,52.328,52.328,0,0,1,5.231,2.22c.728.521,2.268,12.907,2.337,13.774C418.225,413.841,417.731,424.961,417.731,424.961Z" transform="translate(-397.293 -395.793)" fill="#d8d5e0"/>
        </g>
        <g id="Grupo_53378" data-name="Grupo 53378" transform="translate(13.871 8.492)">
          <path id="Trazado_99329" data-name="Trazado 99329" d="M416.454,390.753c-.335,3.074-3.748,3.074-3.748,3.074s-1.413-1.236-1.368-2.151c0-.019,0-.04,0-.059.021-.168.212-.378.231-.715,0-.046,0-.093.005-.139s0-.092,0-.137c0-.233-.014-.464-.028-.624,0-.056-.009-.1-.013-.142-.006-.057-.009-.089-.009-.089s.55-.58,1.249-1.27c1.222-1.208,2.9-2.756,2.9-2.141a.585.585,0,0,1-.015.117C415.374,387.861,416.454,390.753,416.454,390.753Z" transform="translate(-411.338 -386.219)" fill="#eea886"/>
        </g>
        <g id="Grupo_53379" data-name="Grupo 53379" transform="translate(18.669 38.336)">
          <path id="Trazado_99330" data-name="Trazado 99330" d="M421.447,449.184s.276,1.742.3,2.2l.586-.117s-.161-1.844-.256-2.152Z" transform="translate(-421.447 -449.111)" fill="#5d676c"/>
        </g>
        <g id="Grupo_53380" data-name="Grupo 53380" transform="translate(27.038 45.641)">
          <path id="Trazado_99331" data-name="Trazado 99331" d="M440.3,467.418s-.179-2.442-.832-2.812-.268.381-.268.381.391,1.769.482,2.487A3.633,3.633,0,0,0,440.3,467.418Z" transform="translate(-439.084 -464.504)" fill="#7f827f"/>
        </g>
        <g id="Grupo_53382" data-name="Grupo 53382" transform="translate(21.796 47.697)">
          <g id="Grupo_53381" data-name="Grupo 53381">
            <path id="Trazado_99332" data-name="Trazado 99332" d="M428.038,471.42l8.608-2.583.135,10.648-8.526,5.286Z" transform="translate(-428.038 -468.837)" fill="#7f827f"/>
          </g>
        </g>
        <g id="Grupo_53383" data-name="Grupo 53383" transform="translate(22.014 47.697)">
          <path id="Trazado_99333" data-name="Trazado 99333" d="M428.5,484.771l1.086.184,8.29-5.33-.266-10.749-.719-.038Z" transform="translate(-428.496 -468.837)" fill="#7f827f"/>
        </g>
        <path id="Trazado_99334" data-name="Trazado 99334" d="M415.642,399.586l-1.421,1.265a6.2,6.2,0,0,0,1.947-.382Z" transform="translate(-398.981 -384.751)" fill="#b4b1ba"/>
        <path id="Trazado_99335" data-name="Trazado 99335" d="M397.909,458.3a80.821,80.821,0,0,0,12.519,0v1.918s-8.778,1.267-12.811-.365Z" transform="translate(-390.256 -415.605)" fill="#292c47"/>
        <g id="Grupo_53384" data-name="Grupo 53384" transform="translate(5.432 13.729)">
          <path id="Trazado_99336" data-name="Trazado 99336" d="M400.879,397.506c-.369.169-.805.369-1.268.583-.97.448-2.064.956-2.927,1.366-.457.218-1.025.474-1.463.66.051,1.575.128,3.266.262,5.075,0,0,.126,4.419.381,8.611a8.341,8.341,0,0,1,.082,1.843c-.064.819-.152,1.714-.26,2.648,0,.012,0,.024,0,.036-.026.221-.053.444-.079.67v.01a97.927,97.927,0,0,1-2.03,11.649c-.106.338.26.651.52.892l1.826,1.151s.753-6.927,1-9.278c.241-2.27,1-5.313,1.332-8.278h0c.421-3.762,1-7.447,1.314-9.636a36.647,36.647,0,0,1,1.9-8.251Z" transform="translate(-393.552 -397.254)" fill="#2c5396"/>
        </g>
        <g id="Grupo_53385" data-name="Grupo 53385" transform="translate(16.403 13.526)">
          <path id="Trazado_99337" data-name="Trazado 99337" d="M424.626,413.987c.141,1.9-.663,12.425.14,12.573a18.538,18.538,0,0,0,3.754-.5s.37-11.349.251-12.539c-.086-.866-1.465-13.853-2.193-14.375-.42-.3-3.535-1.406-5.063-2.008-.279-.111-.55-.215-.8-.31-.324.361-3.763,6.722-4.031,11.891a69.408,69.408,0,0,0,.568,7.61c.3,2.9.631,5.156.874,7.578.479,4.771.813,8.568.813,8.568l4.749-2.114c.768-.384,1.833-1.962,1.544-2.771-1.1-3.074-2.48-8.328-2.482-11.026,0,0,.53-6.606.95-8.058A40.708,40.708,0,0,1,424.626,413.987Z" transform="translate(-416.672 -396.828)" fill="#2c5396"/>
        </g>
        <g id="Grupo_53386" data-name="Grupo 53386" transform="translate(24.18 41.417)">
          <path id="Trazado_99338" data-name="Trazado 99338" d="M434.124,457.321s-.235,1.061-.551,2.123-.617,1.4-.475,2.007c.107.455.63.791.758.642s.165-1.927.9-1.929-.187,2.2.249,2.036,2.109-1.117,1.989-2.011-.8-1.531-.781-2.87a2.879,2.879,0,0,0-.365-1.715Z" transform="translate(-433.062 -455.603)" fill="#eea886"/>
        </g>
        <g id="Grupo_53388" data-name="Grupo 53388" transform="translate(24.925 45.892)">
          <g id="Grupo_53387" data-name="Grupo 53387">
            <path id="Trazado_99339" data-name="Trazado 99339" d="M435.508,465.044s-.977.265-.868,3.581l1.108-.2a11.432,11.432,0,0,1,.268-2.836S435.949,464.939,435.508,465.044Z" transform="translate(-434.631 -465.033)" fill="#7f827f"/>
          </g>
        </g>
        <g id="Grupo_53389" data-name="Grupo 53389" transform="translate(24.232 31.652)">
          <path id="Trazado_99340" data-name="Trazado 99340" d="M433.172,439.378l.048,8.364a14.559,14.559,0,0,0,3.969-.924l.159-11.794Z" transform="translate(-433.172 -435.024)" fill="#2c5396"/>
        </g>
        <path id="Trazado_99341" data-name="Trazado 99341" d="M410.947,399.81s-.122,1.745,1.354,1.786a3.872,3.872,0,0,0,2.649-1.377l-2.451.632-1.491-1.265Z" transform="translate(-397.26 -384.751)" fill="#d8d5e0"/>
        <path id="Trazado_99342" data-name="Trazado 99342" d="M419.345,394.563a21.274,21.274,0,0,1-2.13,2.384l1.2,2.01,2.066-3.513Z" transform="translate(-400.555 -382.111)" fill="#eae6f2"/>
        <path id="Trazado_99343" data-name="Trazado 99343" d="M411.559,398.077l1.263.935a10.379,10.379,0,0,1-1.131-2.925Z" transform="translate(-397.583 -382.912)" fill="#b4b1ba"/>
        <path id="Trazado_99344" data-name="Trazado 99344" d="M409.938,396.087l-.811.573-.9,2.7,1.583-1.279Z" transform="translate(-395.83 -382.912)" fill="#eae6f2"/>
        <path id="Trazado_99345" data-name="Trazado 99345" d="M397.184,425.461a38.244,38.244,0,0,1,.169,5.952c-.189,2.839-.966,7.379-.966,7.379S396.381,428.829,397.184,425.461Z" transform="translate(-389.611 -398.347)" fill="#1f3b6b"/>
        <g id="Grupo_53390" data-name="Grupo 53390" transform="translate(9.388 1.175)">
          <path id="Trazado_99346" data-name="Trazado 99346" d="M402.592,373.8s-.891,2.168-.309,2.43c.481.216-.292,2.333-.386,2.675s.881.482,1.1.672,1.1,2.733,1.886,2.729a11.76,11.76,0,0,0,5.041-2.7c.855-1.1,1.168-5.689.328-7.522S404.168,370.012,402.592,373.8Z" transform="translate(-401.89 -370.799)" fill="#eea886"/>
        </g>
        <g id="Grupo_53391" data-name="Grupo 53391" transform="translate(9.438)">
          <path id="Trazado_99347" data-name="Trazado 99347" d="M402.472,372.969a3.17,3.17,0,0,1,.516-3.957c1.879-1.86,5.966.627,6.4.693s3.006.614,2.152,4.52c-.76,3.478-.833,3.569-.833,3.569a9.558,9.558,0,0,0-1.5-2.115,4.26,4.26,0,0,0-2.252-.149s.521-2-.638-2.151S403.572,372.423,402.472,372.969Z" transform="translate(-401.995 -368.323)" fill="#323657"/>
        </g>
        <g id="Grupo_53392" data-name="Grupo 53392" transform="translate(15.333 4.95)">
          <path id="Trazado_99348" data-name="Trazado 99348" d="M414.58,379.784c.072-.274.275-1.441,1.317-.878s-.311,2.864-.478,2.91S413.973,382.091,414.58,379.784Z" transform="translate(-414.418 -378.755)" fill="#eea886"/>
        </g>
        <path id="Trazado_99349" data-name="Trazado 99349" d="M414.982,389.7a5.778,5.778,0,0,1-3.178,2.893c0-.046,0-.092,0-.137,0-.233-.014-.464-.028-.624,0-.056-.009-.1-.013-.142A14.338,14.338,0,0,0,414.982,389.7Z" transform="translate(-397.69 -379.554)" fill="#a77860"/>
      </g>
    </g>
  </g>
</svg>
