<svg xmlns="http://www.w3.org/2000/svg" width="354.768" height="254.09" viewBox="0 0 354.768 254.09">
  <g id="Grupo_53841" data-name="Grupo 53841" transform="translate(-1275.203 -1136.604)">
    <g id="Grupo_53784" data-name="Grupo 53784" transform="translate(1275.203 1136.603)">
      <g id="Grupo_53738" data-name="Grupo 53738">
        <path id="Trazado_100145" data-name="Trazado 100145" d="M1342.307,1384.943s-106.051-61.863-51.511-137.1,99.991-137.1,180.287-100.318,54.541,33.44,112.111,23.408,72.721,212.341-16.665,215.685S1342.307,1384.943,1342.307,1384.943Z" transform="translate(-1275.203 -1136.603)" fill="#a1bee9" opacity="0.36"/>
        <path id="Trazado_100146" data-name="Trazado 100146" d="M1744.255,1150.257c0,8.311-1.56,13.376-9.09,13.376s-21.21-8.41-21.21-16.72,10.65-10.032,18.18-10.032S1744.255,1141.946,1744.255,1150.257Z" transform="translate(-1465.305 -1136.724)" fill="#a1bee9" opacity="0.36"/>
      </g>
      <g id="Grupo_53783" data-name="Grupo 53783" transform="translate(63.086 48.596)">
        <g id="Grupo_53739" data-name="Grupo 53739" transform="translate(15.089)">
          <path id="Trazado_100147" data-name="Trazado 100147" d="M1417.155,1227.064l4.342-3.252-2.245,4.139Z" transform="translate(-1414.883 -1222.985)" fill="#c1d7ff"/>
          <path id="Trazado_100148" data-name="Trazado 100148" d="M1425.72,1222.353h197.6c2.376,0,4.3,2.224,4.3,4.968v130.693H1421.417V1227.322C1421.417,1224.577,1423.344,1222.353,1425.72,1222.353Z" transform="translate(-1416.73 -1222.353)" fill="#8aa8ff"/>
          <path id="Trazado_100149" data-name="Trazado 100149" d="M1623.32,1222.354h-197.6c-2.376,0-4.3,2.224-4.3,4.969v27.4l193.091-17.117,12.257-13.262A4.259,4.259,0,0,0,1623.32,1222.354Z" transform="translate(-1416.73 -1222.353)" fill="#c1d7ff"/>
          <path id="Trazado_100150" data-name="Trazado 100150" d="M1413.146,1360.411h206.206v-126.9c0-2.744-1.926-4.968-4.3-4.969h-197.6c-2.376,0-4.3,2.225-4.3,4.969Z" transform="translate(-1413.146 -1225.037)" fill="#435295"/>
          <rect id="Rectángulo_5178" data-name="Rectángulo 5178" width="196.438" height="117.754" transform="translate(4.724 10.565)" fill="#4b5fb0"/>
          <path id="Trazado_100151" data-name="Trazado 100151" d="M1533.47,1242.433H1421.764v116.94h63.5Z" transform="translate(-1416.88 -1231.053)" fill="#6d8192" opacity="0.32" style="mix-blend-mode: screen;isolation: isolate"/>
        </g>
        <path id="Trazado_100152" data-name="Trazado 100152" d="M1627.592,1524.827h-241.07l15.089-63.6H1612.5Z" transform="translate(-1386.521 -1325.851)" fill="#deebff"/>
        <path id="Trazado_100153" data-name="Trazado 100153" d="M1622.542,1506.569l-215.414,1.625,10.978-42.788h195.758Z" transform="translate(-1395.45 -1327.663)" fill="#cfe3ff"/>
        <rect id="Rectángulo_5179" data-name="Rectángulo 5179" width="241.07" height="5.892" transform="translate(0 198.976)" fill="#7d9cea"/>
        <g id="Grupo_53760" data-name="Grupo 53760" transform="translate(18.502 140.952)">
          <path id="Trazado_100154" data-name="Trazado 100154" d="M1537.589,1517.628l-2.047,8.632h72.163l-2.054-8.632Z" transform="translate(-1469.592 -1491.242)" fill="#4c59a5"/>
          <g id="Grupo_53740" data-name="Grupo 53740" transform="translate(141.299 25.959)">
            <path id="Trazado_100155" data-name="Trazado 100155" d="M1759.875,1516.875l2.624,8.632h-15.745l-2.46-8.632Z" transform="translate(-1701.338 -1516.875)" fill="#4c59a5"/>
            <path id="Trazado_100156" data-name="Trazado 100156" d="M1721.819,1516.875l2.624,8.632H1708.7l-2.46-8.632Z" transform="translate(-1684.849 -1516.875)" fill="#4c59a5"/>
            <path id="Trazado_100157" data-name="Trazado 100157" d="M1684.077,1516.875l2.624,8.632h-15.745l-2.46-8.632Z" transform="translate(-1668.497 -1516.875)" fill="#4c59a5"/>
          </g>
          <g id="Grupo_53741" data-name="Grupo 53741" transform="translate(0 26.387)">
            <path id="Trazado_100158" data-name="Trazado 100158" d="M1421.794,1517.628l-2.624,8.632h15.745l2.46-8.632Z" transform="translate(-1419.17 -1517.628)" fill="#4c59a5"/>
            <path id="Trazado_100159" data-name="Trazado 100159" d="M1459.849,1517.628l-2.624,8.632h15.745l2.46-8.632Z" transform="translate(-1435.658 -1517.628)" fill="#4c59a5"/>
            <path id="Trazado_100160" data-name="Trazado 100160" d="M1497.592,1517.628l-2.624,8.632h15.745l2.46-8.632Z" transform="translate(-1452.011 -1517.628)" fill="#4c59a5"/>
          </g>
          <g id="Grupo_53742" data-name="Grupo 53742" transform="translate(25.615 13.142)">
            <path id="Trazado_100161" data-name="Trazado 100161" d="M1466.991,1494.258l-2.624,8.632h15.745l2.46-8.632Z" transform="translate(-1464.367 -1494.258)" fill="#4c59a5"/>
            <path id="Trazado_100162" data-name="Trazado 100162" d="M1505.047,1494.258l-2.624,8.632h15.745l2.46-8.632Z" transform="translate(-1480.856 -1494.258)" fill="#4c59a5"/>
            <path id="Trazado_100163" data-name="Trazado 100163" d="M1542.789,1494.258l-2.624,8.632h17.057l1.148-8.632Z" transform="translate(-1497.209 -1494.258)" fill="#4c59a5"/>
          </g>
          <g id="Grupo_53749" data-name="Grupo 53749" transform="translate(3.985 13.142)">
            <g id="Grupo_53743" data-name="Grupo 53743">
              <path id="Trazado_100164" data-name="Trazado 100164" d="M1428.826,1494.258l-2.624,8.632h15.745l2.46-8.632Z" transform="translate(-1426.202 -1494.258)" fill="#4c59a5"/>
            </g>
            <g id="Grupo_53744" data-name="Grupo 53744" transform="translate(177.042)">
              <path id="Trazado_100165" data-name="Trazado 100165" d="M1754.179,1494.258l2.624,8.632h-15.745l-2.46-8.632Z" transform="translate(-1738.598 -1494.258)" fill="#4c59a5"/>
            </g>
            <g id="Grupo_53745" data-name="Grupo 53745" transform="translate(155.519)">
              <path id="Trazado_100166" data-name="Trazado 100166" d="M1716.2,1494.258l2.624,8.632H1703.08l-2.46-8.632Z" transform="translate(-1700.62 -1494.258)" fill="#4c59a5"/>
            </g>
            <g id="Grupo_53746" data-name="Grupo 53746" transform="translate(133.995)">
              <path id="Trazado_100167" data-name="Trazado 100167" d="M1678.222,1494.258l2.624,8.632H1665.1l-2.46-8.632Z" transform="translate(-1662.641 -1494.258)" fill="#4c59a5"/>
            </g>
            <g id="Grupo_53747" data-name="Grupo 53747" transform="translate(112.472)">
              <path id="Trazado_100168" data-name="Trazado 100168" d="M1640.243,1494.258l2.624,8.632h-17.057l-1.148-8.632Z" transform="translate(-1624.663 -1494.258)" fill="#4c59a5"/>
            </g>
            <g id="Grupo_53748" data-name="Grupo 53748" transform="translate(86.084)">
              <path id="Trazado_100169" data-name="Trazado 100169" d="M1599.2,1494.258l2.624,8.632H1578.1l2.214-8.632Z" transform="translate(-1578.1 -1494.258)" fill="#4c59a5"/>
            </g>
          </g>
          <g id="Grupo_53759" data-name="Grupo 53759" transform="translate(7.705)">
            <g id="Grupo_53750" data-name="Grupo 53750">
              <path id="Trazado_100170" data-name="Trazado 100170" d="M1435.3,1471.068l-2.535,8.632h15.209l2.376-8.632Z" transform="translate(-1432.765 -1471.068)" fill="#4c59a5"/>
            </g>
            <g id="Grupo_53751" data-name="Grupo 53751" transform="translate(21.892)">
              <path id="Trazado_100171" data-name="Trazado 100171" d="M1473.928,1471.068l-2.535,8.632H1486.6l2.376-8.632Z" transform="translate(-1471.393 -1471.068)" fill="#4c59a5"/>
            </g>
            <g id="Grupo_53752" data-name="Grupo 53752" transform="translate(43.783)">
              <path id="Trazado_100172" data-name="Trazado 100172" d="M1512.557,1471.068l-2.535,8.632h15.209l2.376-8.632Z" transform="translate(-1510.022 -1471.068)" fill="#4c59a5"/>
            </g>
            <g id="Grupo_53753" data-name="Grupo 53753" transform="translate(65.675)">
              <path id="Trazado_100173" data-name="Trazado 100173" d="M1551.185,1471.068l-2.535,8.632h16.521l1.064-8.632Z" transform="translate(-1548.65 -1471.068)" fill="#4c59a5"/>
            </g>
            <g id="Grupo_53754" data-name="Grupo 53754" transform="translate(169.252)">
              <path id="Trazado_100174" data-name="Trazado 100174" d="M1746.467,1471.068,1749,1479.7h-15.209l-2.376-8.632Z" transform="translate(-1731.416 -1471.068)" fill="#4c59a5"/>
            </g>
            <g id="Grupo_53755" data-name="Grupo 53755" transform="translate(148.462)">
              <path id="Trazado_100175" data-name="Trazado 100175" d="M1709.781,1471.068l2.535,8.632h-15.209l-2.376-8.632Z" transform="translate(-1694.731 -1471.068)" fill="#4c59a5"/>
            </g>
            <g id="Grupo_53756" data-name="Grupo 53756" transform="translate(127.671)">
              <path id="Trazado_100176" data-name="Trazado 100176" d="M1673.1,1471.068l2.535,8.632h-15.209l-2.376-8.632Z" transform="translate(-1658.045 -1471.068)" fill="#4c59a5"/>
            </g>
            <g id="Grupo_53757" data-name="Grupo 53757" transform="translate(106.677)">
              <path id="Trazado_100177" data-name="Trazado 100177" d="M1636.254,1471.068l2.535,8.632H1621l.2-8.632Z" transform="translate(-1621.001 -1471.068)" fill="#4c59a5"/>
            </g>
            <g id="Grupo_53758" data-name="Grupo 53758" transform="translate(85.493)">
              <path id="Trazado_100178" data-name="Trazado 100178" d="M1598.756,1471.068l2.535,8.632h-17.67l2.139-8.632Z" transform="translate(-1583.621 -1471.068)" fill="#4c59a5"/>
            </g>
          </g>
        </g>
        <g id="Grupo_53781" data-name="Grupo 53781" transform="translate(18.502 140.132)">
          <path id="Trazado_100179" data-name="Trazado 100179" d="M1537.589,1516.182l-2.047,8.632h72.163l-2.054-8.632Z" transform="translate(-1469.592 -1489.795)" fill="#8aa8ff"/>
          <g id="Grupo_53761" data-name="Grupo 53761" transform="translate(141.299 25.959)">
            <path id="Trazado_100180" data-name="Trazado 100180" d="M1759.875,1515.428l2.624,8.632h-15.745l-2.46-8.632Z" transform="translate(-1701.338 -1515.428)" fill="#8aa8ff"/>
            <path id="Trazado_100181" data-name="Trazado 100181" d="M1721.819,1515.428l2.624,8.632H1708.7l-2.46-8.632Z" transform="translate(-1684.849 -1515.428)" fill="#8aa8ff"/>
            <path id="Trazado_100182" data-name="Trazado 100182" d="M1684.077,1515.428l2.624,8.632h-15.745l-2.46-8.632Z" transform="translate(-1668.497 -1515.428)" fill="#8aa8ff"/>
          </g>
          <g id="Grupo_53762" data-name="Grupo 53762" transform="translate(0 26.387)">
            <path id="Trazado_100183" data-name="Trazado 100183" d="M1421.794,1516.182l-2.624,8.632h15.745l2.46-8.632Z" transform="translate(-1419.17 -1516.182)" fill="#8aa8ff"/>
            <path id="Trazado_100184" data-name="Trazado 100184" d="M1459.849,1516.182l-2.624,8.632h15.745l2.46-8.632Z" transform="translate(-1435.658 -1516.182)" fill="#8aa8ff"/>
            <path id="Trazado_100185" data-name="Trazado 100185" d="M1497.592,1516.182l-2.624,8.632h15.745l2.46-8.632Z" transform="translate(-1452.011 -1516.182)" fill="#8aa8ff"/>
          </g>
          <g id="Grupo_53763" data-name="Grupo 53763" transform="translate(25.615 13.142)">
            <path id="Trazado_100186" data-name="Trazado 100186" d="M1466.991,1492.811l-2.624,8.632h15.745l2.46-8.632Z" transform="translate(-1464.367 -1492.811)" fill="#8aa8ff"/>
            <path id="Trazado_100187" data-name="Trazado 100187" d="M1505.047,1492.811l-2.624,8.632h15.745l2.46-8.632Z" transform="translate(-1480.856 -1492.811)" fill="#8aa8ff"/>
            <path id="Trazado_100188" data-name="Trazado 100188" d="M1542.789,1492.811l-2.624,8.632h17.057l1.148-8.632Z" transform="translate(-1497.209 -1492.811)" fill="#8aa8ff"/>
          </g>
          <g id="Grupo_53770" data-name="Grupo 53770" transform="translate(3.985 13.142)">
            <g id="Grupo_53764" data-name="Grupo 53764">
              <path id="Trazado_100189" data-name="Trazado 100189" d="M1428.826,1492.811l-2.624,8.632h15.745l2.46-8.632Z" transform="translate(-1426.202 -1492.811)" fill="#8aa8ff"/>
            </g>
            <g id="Grupo_53765" data-name="Grupo 53765" transform="translate(177.042)">
              <path id="Trazado_100190" data-name="Trazado 100190" d="M1754.179,1492.811l2.624,8.632h-15.745l-2.46-8.632Z" transform="translate(-1738.598 -1492.811)" fill="#8aa8ff"/>
            </g>
            <g id="Grupo_53766" data-name="Grupo 53766" transform="translate(155.519)">
              <path id="Trazado_100191" data-name="Trazado 100191" d="M1716.2,1492.811l2.624,8.632H1703.08l-2.46-8.632Z" transform="translate(-1700.62 -1492.811)" fill="#8aa8ff"/>
            </g>
            <g id="Grupo_53767" data-name="Grupo 53767" transform="translate(133.995)">
              <path id="Trazado_100192" data-name="Trazado 100192" d="M1678.222,1492.811l2.624,8.632H1665.1l-2.46-8.632Z" transform="translate(-1662.641 -1492.811)" fill="#8aa8ff"/>
            </g>
            <g id="Grupo_53768" data-name="Grupo 53768" transform="translate(112.472)">
              <path id="Trazado_100193" data-name="Trazado 100193" d="M1640.243,1492.811l2.624,8.632h-17.057l-1.148-8.632Z" transform="translate(-1624.663 -1492.811)" fill="#8aa8ff"/>
            </g>
            <g id="Grupo_53769" data-name="Grupo 53769" transform="translate(86.084)">
              <path id="Trazado_100194" data-name="Trazado 100194" d="M1599.2,1492.811l2.624,8.632H1578.1l2.214-8.632Z" transform="translate(-1578.1 -1492.811)" fill="#8aa8ff"/>
            </g>
          </g>
          <g id="Grupo_53780" data-name="Grupo 53780" transform="translate(7.705)">
            <g id="Grupo_53771" data-name="Grupo 53771">
              <path id="Trazado_100195" data-name="Trazado 100195" d="M1435.3,1469.622l-2.535,8.632h15.209l2.376-8.632Z" transform="translate(-1432.765 -1469.622)" fill="#8aa8ff"/>
            </g>
            <g id="Grupo_53772" data-name="Grupo 53772" transform="translate(21.892)">
              <path id="Trazado_100196" data-name="Trazado 100196" d="M1473.928,1469.622l-2.535,8.632H1486.6l2.376-8.632Z" transform="translate(-1471.393 -1469.622)" fill="#8aa8ff"/>
            </g>
            <g id="Grupo_53773" data-name="Grupo 53773" transform="translate(43.783)">
              <path id="Trazado_100197" data-name="Trazado 100197" d="M1512.557,1469.622l-2.535,8.632h15.209l2.376-8.632Z" transform="translate(-1510.022 -1469.622)" fill="#8aa8ff"/>
            </g>
            <g id="Grupo_53774" data-name="Grupo 53774" transform="translate(65.675)">
              <path id="Trazado_100198" data-name="Trazado 100198" d="M1551.185,1469.622l-2.535,8.632h16.521l1.064-8.632Z" transform="translate(-1548.65 -1469.622)" fill="#8aa8ff"/>
            </g>
            <g id="Grupo_53775" data-name="Grupo 53775" transform="translate(169.252)">
              <path id="Trazado_100199" data-name="Trazado 100199" d="M1746.467,1469.622l2.535,8.632h-15.209l-2.376-8.632Z" transform="translate(-1731.416 -1469.622)" fill="#8aa8ff"/>
            </g>
            <g id="Grupo_53776" data-name="Grupo 53776" transform="translate(148.462)">
              <path id="Trazado_100200" data-name="Trazado 100200" d="M1709.781,1469.622l2.535,8.632h-15.209l-2.376-8.632Z" transform="translate(-1694.731 -1469.622)" fill="#8aa8ff"/>
            </g>
            <g id="Grupo_53777" data-name="Grupo 53777" transform="translate(127.671)">
              <path id="Trazado_100201" data-name="Trazado 100201" d="M1673.1,1469.622l2.535,8.632h-15.209l-2.376-8.632Z" transform="translate(-1658.045 -1469.622)" fill="#8aa8ff"/>
            </g>
            <g id="Grupo_53778" data-name="Grupo 53778" transform="translate(106.677)">
              <path id="Trazado_100202" data-name="Trazado 100202" d="M1636.254,1469.622l2.535,8.632H1621l.2-8.632Z" transform="translate(-1621.001 -1469.622)" fill="#8aa8ff"/>
            </g>
            <g id="Grupo_53779" data-name="Grupo 53779" transform="translate(85.493)">
              <path id="Trazado_100203" data-name="Trazado 100203" d="M1598.756,1469.622l2.535,8.632h-17.67l2.139-8.632Z" transform="translate(-1583.621 -1469.622)" fill="#8aa8ff"/>
            </g>
          </g>
        </g>
        <g id="Grupo_53782" data-name="Grupo 53782" transform="translate(87.578 179.236)">
          <path id="Trazado_100204" data-name="Trazado 100204" d="M1595.787,1538.621a2.448,2.448,0,0,1,2.326,1.685l3.886,11.854a2.448,2.448,0,0,1-2.326,3.211H1543.5a2.448,2.448,0,0,1-2.359-3.1l3.279-11.854a2.448,2.448,0,0,1,2.359-1.795Z" transform="translate(-1541.057 -1538.621)" fill="#8aa8ff"/>
        </g>
        <path id="Trazado_100205" data-name="Trazado 100205" d="M1602.928,1573.367a2.618,2.618,0,0,1-2.618,2.618h-61.474a2.619,2.619,0,0,1-2.618-2.618Z" transform="translate(-1451.382 -1374.44)" fill="#9fbaff"/>
      </g>
    </g>
    <g id="Grupo_53809" data-name="Grupo 53809" transform="translate(1399.156 1164.943)">
      <rect id="Rectángulo_5180" data-name="Rectángulo 5180" width="114.331" height="147.998" transform="translate(0 0)" fill="#eff8ff"/>
      <g id="Grupo_53790" data-name="Grupo 53790" transform="translate(7.83 21.23)">
        <g id="Grupo_53785" data-name="Grupo 53785" transform="translate(0 0.759)">
          <path id="Trazado_100206" data-name="Trazado 100206" d="M1521.721,1239.392h-13.983v-13.983h13.983Zm-12.21-1.773h10.437v-10.437h-10.437Z" transform="translate(-1507.738 -1225.409)" fill="#679ae2"/>
        </g>
        <g id="Grupo_53786" data-name="Grupo 53786" transform="translate(24.858 1.948)">
          <rect id="Rectángulo_5181" data-name="Rectángulo 5181" width="71.48" height="1.773" fill="#679ae2"/>
        </g>
        <g id="Grupo_53787" data-name="Grupo 53787" transform="translate(24.858 7.459)">
          <rect id="Rectángulo_5182" data-name="Rectángulo 5182" width="58.7" height="1.773" fill="#679ae2"/>
        </g>
        <g id="Grupo_53788" data-name="Grupo 53788" transform="translate(24.858 12.969)">
          <rect id="Rectángulo_5183" data-name="Rectángulo 5183" width="41.599" height="1.773" fill="#679ae2"/>
        </g>
        <g id="Grupo_53789" data-name="Grupo 53789" transform="translate(1.884)">
          <path id="Trazado_100207" data-name="Trazado 100207" d="M1516.17,1238.193h-.028a1.269,1.269,0,0,1-1.019-.553l-4.061-5.954,2.093-1.428,3.062,4.49,7.988-10.678,2.029,1.518-9.049,12.1A1.267,1.267,0,0,1,1516.17,1238.193Z" transform="translate(-1511.063 -1224.07)" fill="#ef487d"/>
        </g>
      </g>
      <g id="Grupo_53796" data-name="Grupo 53796" transform="translate(7.83 49.37)">
        <g id="Grupo_53791" data-name="Grupo 53791" transform="translate(0 0.759)">
          <path id="Trazado_100208" data-name="Trazado 100208" d="M1521.721,1289.047h-13.983v-13.983h13.983Zm-12.21-1.774h10.437v-10.436h-10.437Z" transform="translate(-1507.738 -1275.064)" fill="#679ae2"/>
        </g>
        <g id="Grupo_53792" data-name="Grupo 53792" transform="translate(24.858 1.948)">
          <rect id="Rectángulo_5184" data-name="Rectángulo 5184" width="71.48" height="1.773" fill="#679ae2"/>
        </g>
        <g id="Grupo_53793" data-name="Grupo 53793" transform="translate(24.858 7.458)">
          <rect id="Rectángulo_5185" data-name="Rectángulo 5185" width="58.7" height="1.773" fill="#679ae2"/>
        </g>
        <g id="Grupo_53794" data-name="Grupo 53794" transform="translate(24.858 12.969)">
          <rect id="Rectángulo_5186" data-name="Rectángulo 5186" width="41.599" height="1.773" fill="#679ae2"/>
        </g>
        <g id="Grupo_53795" data-name="Grupo 53795" transform="translate(1.884)">
          <path id="Trazado_100209" data-name="Trazado 100209" d="M1516.17,1287.848h-.028a1.268,1.268,0,0,1-1.019-.553l-4.061-5.953,2.093-1.427,3.062,4.489,7.988-10.678,2.029,1.518-9.049,12.1A1.268,1.268,0,0,1,1516.17,1287.848Z" transform="translate(-1511.063 -1273.725)" fill="#ef487d"/>
        </g>
      </g>
      <g id="Grupo_53802" data-name="Grupo 53802" transform="translate(7.83 77.51)">
        <g id="Grupo_53797" data-name="Grupo 53797" transform="translate(0 0.759)">
          <path id="Trazado_100210" data-name="Trazado 100210" d="M1521.721,1338.7h-13.983v-13.983h13.983Zm-12.21-1.773h10.437v-10.437h-10.437Z" transform="translate(-1507.738 -1324.718)" fill="#679ae2"/>
        </g>
        <g id="Grupo_53798" data-name="Grupo 53798" transform="translate(24.858 1.948)">
          <rect id="Rectángulo_5187" data-name="Rectángulo 5187" width="71.48" height="1.773" fill="#679ae2"/>
        </g>
        <g id="Grupo_53799" data-name="Grupo 53799" transform="translate(24.858 7.458)">
          <rect id="Rectángulo_5188" data-name="Rectángulo 5188" width="58.7" height="1.773" fill="#679ae2"/>
        </g>
        <g id="Grupo_53800" data-name="Grupo 53800" transform="translate(24.858 12.969)">
          <rect id="Rectángulo_5189" data-name="Rectángulo 5189" width="41.599" height="1.773" fill="#679ae2"/>
        </g>
        <g id="Grupo_53801" data-name="Grupo 53801" transform="translate(1.884)">
          <path id="Trazado_100211" data-name="Trazado 100211" d="M1516.17,1337.5h-.028a1.268,1.268,0,0,1-1.019-.553l-4.061-5.953,2.093-1.428,3.062,4.489,7.988-10.677,2.029,1.518-9.049,12.1A1.267,1.267,0,0,1,1516.17,1337.5Z" transform="translate(-1511.063 -1323.379)" fill="#ef487d"/>
        </g>
      </g>
      <g id="Grupo_53808" data-name="Grupo 53808" transform="translate(7.83 105.65)">
        <g id="Grupo_53803" data-name="Grupo 53803" transform="translate(0 0.759)">
          <path id="Trazado_100212" data-name="Trazado 100212" d="M1521.721,1388.355h-13.983v-13.983h13.983Zm-12.21-1.773h10.437v-10.436h-10.437Z" transform="translate(-1507.738 -1374.372)" fill="#679ae2"/>
        </g>
        <g id="Grupo_53804" data-name="Grupo 53804" transform="translate(24.858 1.948)">
          <rect id="Rectángulo_5190" data-name="Rectángulo 5190" width="71.48" height="1.773" fill="#679ae2"/>
        </g>
        <g id="Grupo_53805" data-name="Grupo 53805" transform="translate(24.858 7.459)">
          <rect id="Rectángulo_5191" data-name="Rectángulo 5191" width="58.7" height="1.773" fill="#679ae2"/>
        </g>
        <g id="Grupo_53806" data-name="Grupo 53806" transform="translate(24.858 12.969)">
          <rect id="Rectángulo_5192" data-name="Rectángulo 5192" width="41.599" height="1.773" fill="#679ae2"/>
        </g>
        <g id="Grupo_53807" data-name="Grupo 53807" transform="translate(1.884)">
          <path id="Trazado_100213" data-name="Trazado 100213" d="M1516.17,1387.156h-.028a1.268,1.268,0,0,1-1.019-.552l-4.061-5.953,2.093-1.428,3.062,4.489,7.988-10.678,2.029,1.518-9.049,12.1A1.268,1.268,0,0,1,1516.17,1387.156Z" transform="translate(-1511.063 -1373.033)" fill="#ef487d"/>
        </g>
      </g>
    </g>
    <g id="Grupo_53823" data-name="Grupo 53823" transform="translate(1505.349 1254.007)">
      <path id="Trazado_100214" data-name="Trazado 100214" d="M1760.86,1385.917l-2.6-3.665-.781-3.331-.471.034.2,2.862-.368-.059-.707-3.827-.407.029.047,2.338-.137,1.461-.414-.058-.41-3.587-.453-.058-.037,3.769-.3.034-.567-2.7-.349.049.126,2.818a12.682,12.682,0,0,0,2.738,5.375Z" transform="translate(-1712.413 -1358.57)" fill="#ffa08a"/>
      <path id="Trazado_100215" data-name="Trazado 100215" d="M1762.19,1389.742h0l10.5,12.638a3.232,3.232,0,0,1,.237.286,3.169,3.169,0,0,1-5.121,3.733h0l-9.354-13.625q-.082-.091-.156-.192a2.411,2.411,0,1,1,3.9-2.84Z" transform="translate(-1714.462 -1363.257)" fill="#ffa08a"/>
      <g id="Grupo_53813" data-name="Grupo 53813" transform="translate(0 2.553)">
        <g id="Grupo_53812" data-name="Grupo 53812">
          <g id="Grupo_53811" data-name="Grupo 53811">
            <g id="Grupo_53810" data-name="Grupo 53810">
              <path id="Trazado_100216" data-name="Trazado 100216" d="M1681.421,1377.733a.067.067,0,0,0,.046.008.069.069,0,0,0,.045.009.072.072,0,0,0,.047.008,6.853,6.853,0,0,1,.092.016,10.822,10.822,0,0,0,.092.016.093.093,0,0,0,.046.008.1.1,0,0,0,.046.008.1.1,0,0,0,.046.008.106.106,0,0,0,.047.008.109.109,0,0,0,.046.008.116.116,0,0,0,.046.009.128.128,0,0,0,.047.008.117.117,0,0,0,.046.008.131.131,0,0,0,.046.009c.007,0,.014,0,.021.005a1.393,1.393,0,0,0,.1.02.141.141,0,0,0,.045.008.148.148,0,0,0,.044.008.631.631,0,0,0,.089.016.146.146,0,0,0,.045.008.156.156,0,0,0,.045.008c.011,0,.119.023.134.024l5.376.962c1.92.447,1.522-4.629-.416-3.724l-5.089,1.795c-.017,0-.119.04-.128.045a.154.154,0,0,0-.042.015.141.141,0,0,0-.043.015.136.136,0,0,0-.043.015,4.809,4.809,0,0,0-.085.03.135.135,0,0,0-.043.015.144.144,0,0,0-.051.02.348.348,0,0,1-.066.026.114.114,0,0,0-.043.015.124.124,0,0,0-.045.015.119.119,0,0,0-.044.015.115.115,0,0,0-.044.015.1.1,0,0,0-.044.016.1.1,0,0,0-.044.015.091.091,0,0,0-.043.015.1.1,0,0,0-.044.015.089.089,0,0,0-.044.016.083.083,0,0,0-.044.015.082.082,0,0,0-.043.015.079.079,0,0,0-.044.015,3.873,3.873,0,0,1-.088.031.066.066,0,0,0-.044.015C1681.254,1377.4,1681.29,1377.758,1681.421,1377.733Z" transform="translate(-1681.304 -1359.891)" fill="#ef487d"/>
              <path id="Trazado_100217" data-name="Trazado 100217" d="M1692.786,1373.658c.012,0,15.688,3.866,15.775,3.885,1.59.414,3.782,1.111,5.364-2.3,2.714-5.85-.875-15.507-5.719-13.326-.029.011-15.943,6.639-15.969,6.653C1690.676,1369.118,1690.848,1373.308,1692.786,1373.658Z" transform="translate(-1685.586 -1354.05)" fill="#f9cd93"/>
              <path id="Trazado_100218" data-name="Trazado 100218" d="M1725.626,1366.97l-.537,8.333-3.366,2.647-5.2-5.728.537-8.333,3.052-2.271Z" transform="translate(-1696.566 -1354.055)" fill="#f4d03f"/>
              <path id="Trazado_100219" data-name="Trazado 100219" d="M1717.477,1358.107l88.385-7.62-.2-2.216-85.137,7.564Z" transform="translate(-1696.977 -1348.272)" fill="#fbc02d"/>
              <path id="Trazado_100220" data-name="Trazado 100220" d="M1716.528,1368.134l89.652-7.728-.729-8.225-88.385,7.62Z" transform="translate(-1696.566 -1349.966)" fill="#fdd835"/>
              <path id="Trazado_100221" data-name="Trazado 100221" d="M1721.724,1380.15l84.99-7.452-.533-6-89.652,7.728Z" transform="translate(-1696.566 -1356.254)" fill="#ffee58"/>
            </g>
          </g>
        </g>
      </g>
      <g id="Grupo_53817" data-name="Grupo 53817" transform="translate(67.559 50.446)">
        <path id="Trazado_100222" data-name="Trazado 100222" d="M1854.688,1560l1.669,2.807,3.408-1.64-1.1-2.959Z" transform="translate(-1823.986 -1487.124)" fill="#ffa08a"/>
        <circle id="Elipse_3975" data-name="Elipse 3975" cx="8.486" cy="8.486" r="8.486" transform="translate(0 14.604) rotate(-45.565)" fill="#3b3348"/>
        <g id="Grupo_53815" data-name="Grupo 53815" transform="translate(1.602)">
          <path id="Trazado_100223" data-name="Trazado 100223" d="M1821.7,1450.766c-.282-2.724-1.823-5.035-2.481-7.7l-2.9-7.278-2.155-2.434a7.864,7.864,0,0,0-6.943.524,8.088,8.088,0,0,0-3.881,5.866l8.787,35.69.009.088a5.478,5.478,0,1,0,10.9-1.1Z" transform="translate(-1803.341 -1432.78)" fill="#3b3348"/>
          <g id="Grupo_53814" data-name="Grupo 53814" transform="translate(10.713 13.038)">
            <path id="Trazado_100224" data-name="Trazado 100224" d="M1826.611,1461.426a3.226,3.226,0,0,1-3.362-2.2l-.985-2.963a.361.361,0,0,1,.685-.228l.985,2.963a2.488,2.488,0,0,0,3.115,1.6l.58-.19a.361.361,0,0,1,.225.686l-.58.19A3.128,3.128,0,0,1,1826.611,1461.426Z" transform="translate(-1822.245 -1455.786)" fill="#564c72"/>
          </g>
        </g>
        <g id="Grupo_53816" data-name="Grupo 53816" transform="translate(3.817 13.972)">
          <path id="Trazado_100225" data-name="Trazado 100225" d="M1809.413,1465.3a.361.361,0,0,1-.386-.272l-1.767-7.142a.361.361,0,1,1,.7-.174l1.767,7.142a.361.361,0,0,1-.264.438A.411.411,0,0,1,1809.413,1465.3Z" transform="translate(-1807.249 -1457.434)" fill="#564c72"/>
        </g>
        <path id="Trazado_100226" data-name="Trazado 100226" d="M1829.483,1501.839a1.352,1.352,0,0,0-.12-.1,5.255,5.255,0,0,0-5.968-.691,5.492,5.492,0,0,0-2.548,7.338l.028.058.1.19a5.553,5.553,0,0,0,.548.821l18.124,26.1a20.156,20.156,0,0,0,4.581-2.567S1830.652,1502.438,1829.483,1501.839Z" transform="translate(-1809.086 -1462.091)" fill="#3b3348"/>
        <path id="Trazado_100227" data-name="Trazado 100227" d="M1852.726,1563.008l-1.358,2.774s-1.29,2.04-1.818,2.741a.6.6,0,0,0,.281.994l.706.278a1.435,1.435,0,0,0,1.285-.119l2.213-1.382.543-.546,1.322-.846a29.187,29.187,0,0,0,2.894-1.623c.281-.34-.212-1.492-.212-1.492l-1.248-2.189C1855.958,1563.38,1852.726,1563.008,1852.726,1563.008Z" transform="translate(-1821.682 -1488.594)" fill="#000932"/>
      </g>
      <circle id="Elipse_3976" data-name="Elipse 3976" cx="5.528" cy="5.528" r="5.528" transform="translate(60.288 22.171) rotate(-48.037)" fill="#87554a"/>
      <path id="Trazado_100228" data-name="Trazado 100228" d="M1784.676,1410.14s-4.615,1.744-6.224-5.059l3.662-2.238,2.977,3.593Z" transform="translate(-1723.396 -1369.363)" fill="#d85a4c"/>
      <path id="Trazado_100229" data-name="Trazado 100229" d="M1775.149,1401.155l8.888-12a4.176,4.176,0,0,1,.3-.408,4.128,4.128,0,1,1,6.31,5.324c-.049.058-.1.114-.15.168l-10.119,11.328h0a3.422,3.422,0,1,1-5.231-4.414Z" transform="translate(-1721.616 -1362.621)" fill="#ffa08a"/>
      <path id="Trazado_100230" data-name="Trazado 100230" d="M1778.484,1398.144l5.976-8.71c.2-.274.282-.389.464-.648l.155-.206.049-.059a5.136,5.136,0,0,1,7.736,6.752h0l-.006.006-.019.024a5.161,5.161,0,0,1-.766.737l-7.375,7.154C1784.587,1400.652,1782.082,1398.106,1778.484,1398.144Z" transform="translate(-1723.41 -1362.437)" fill="#e35e4b"/>
      <path id="Trazado_100231" data-name="Trazado 100231" d="M1782.743,1564.76l-1.03,3.472-3.95-1.219.655-4.085Z" transform="translate(-1723.098 -1438.724)" fill="#ffa08a"/>
      <circle id="Elipse_3977" data-name="Elipse 3977" cx="4.195" cy="4.195" r="4.195" transform="translate(65.675 2.461) rotate(-6.263)" fill="#87554a"/>
      <circle id="Elipse_3978" data-name="Elipse 3978" cx="6.332" cy="6.332" r="6.332" transform="translate(66.691 10.883) rotate(-59.252)" fill="#87554a"/>
      <path id="Trazado_100232" data-name="Trazado 100232" d="M1820.135,1360.665a6.332,6.332,0,1,1-6.658-5.987A6.332,6.332,0,0,1,1820.135,1360.665Z" transform="translate(-1735.973 -1348.49)" fill="#87554a"/>
      <circle id="Elipse_3979" data-name="Elipse 3979" cx="7.023" cy="7.023" r="7.023" transform="matrix(0.002, -1, 1, 0.002, 72.765, 28.708)" fill="#87554a"/>
      <circle id="Elipse_3980" data-name="Elipse 3980" cx="4.195" cy="4.195" r="4.195" transform="translate(63.686 7.266) rotate(-28.029)" fill="#87554a"/>
      <circle id="Elipse_3981" data-name="Elipse 3981" cx="4.195" cy="4.195" r="4.195" transform="translate(67.154 4.267) rotate(-30.209)" fill="#87554a"/>
      <circle id="Elipse_3982" data-name="Elipse 3982" cx="6.755" cy="6.755" r="6.755" transform="translate(62.443 19.677) rotate(-76.633)" fill="#87554a"/>
      <path id="Trazado_100233" data-name="Trazado 100233" d="M1810.4,1377.9l-.847-.317-.376-.408a.207.207,0,0,1-.052-.121l-.3-7.111a2.925,2.925,0,0,0-2.919-2.733h0a2.884,2.884,0,0,0-2.736,2.464c-.588,3.51-.908,6.225-1.214,7.583l-.432.146-1.165.1.069,1.3.172.271a33.93,33.93,0,0,0-2.326,3,22.3,22.3,0,0,0,1.248,2.8,31.1,31.1,0,0,0,2.922,1.857c.062,0,3.336-2.048,5.155-3.186a2.985,2.985,0,0,0,1.36-2.187l.18-1.513.686-.241Z" transform="translate(-1731.982 -1353.924)" fill="#ffa08a"/>
      <path id="Trazado_100234" data-name="Trazado 100234" d="M1806.016,1374.672l-.323,2.148s3.354.667,5.069-3.366Z" transform="translate(-1735.199 -1356.629)" fill="#3b3348"/>
      <path id="Trazado_100235" data-name="Trazado 100235" d="M1799.734,1431.6a7.123,7.123,0,0,0-10.723,3.626l-4.8,37.744q-.032.2-.051.4l-.065.513h.041a5.6,5.6,0,1,0,11.194,0l.04-.2,9.514-38.615Z" transform="translate(-1725.84 -1381.296)" fill="#3b3348"/>
      <path id="Trazado_100236" data-name="Trazado 100236" d="M1811,1407.8a29.6,29.6,0,0,1-.336-10.343l.316-11.057-4.057-1-.427-.011c-.432,1.818-3.163,3.136-5.109,3.112-1.99-.023-4.166-1.505-4.507-3.394l-3.22.982s.907,2.767-.55,3.823a10.21,10.21,0,0,0-4.037,7.392c-.1,2.662,1.968,2.28,2,7.086a75.628,75.628,0,0,0,.763,9.336,12.1,12.1,0,0,0-1.864,4.581c-.081.646-.7,2.212-.133,2.524,1.846,1.012,4.557,3.231,10.217,2.568,2.852-.334,6.5.025,8.942-.466,2.417-.488,3.872.078,5.159-.691.793-.474,2.026-1.217,1.662-2.08-.655-1.553.268-1.886-1.374-4.108C1813.165,1414.327,1811.355,1409.025,1811,1407.8Z" transform="translate(-1727.994 -1361.68)" fill="#e35e4b"/>
      <g id="Grupo_53818" data-name="Grupo 53818" transform="translate(61.124 24.982)">
        <path id="Trazado_100237" data-name="Trazado 100237" d="M1791.39,1406.3a.271.271,0,0,1-.289-.251,9.517,9.517,0,0,0-1.2-4.558,4.9,4.9,0,0,1-.739-2.561,10.811,10.811,0,0,1,3.738-8.048,2.827,2.827,0,0,0,.9-2.7.271.271,0,0,1,.527-.125,3.37,3.37,0,0,1-1.086,3.243,10.233,10.233,0,0,0-3.541,7.616,4.4,4.4,0,0,0,.674,2.318,10.1,10.1,0,0,1,1.261,4.776.271.271,0,0,1-.251.29Z" transform="translate(-1789.16 -1387.849)" fill="#bf4d41"/>
      </g>
      <path id="Trazado_100238" data-name="Trazado 100238" d="M1802.887,1362.256a1.719,1.719,0,1,1-1.808-1.626A1.72,1.72,0,0,1,1802.887,1362.256Z" transform="translate(-1732.495 -1351.072)" fill="#ef9789"/>
      <path id="Trazado_100239" data-name="Trazado 100239" d="M1811.643,1357.813c.213,4.008-3.3,7.121-6.756,7.366-1.857.132-3.543-2.778-3.756-6.786s.4-7.321,3.862-7.5S1811.431,1353.806,1811.643,1357.813Z" transform="translate(-1733.206 -1346.849)" fill="#ffa08a"/>
      <g id="Grupo_53819" data-name="Grupo 53819" transform="translate(75.996 9.857)">
        <path id="Trazado_100240" data-name="Trazado 100240" d="M1818.665,1362.705a1.633,1.633,0,1,1-1.717-1.544A1.632,1.632,0,0,1,1818.665,1362.705Z" transform="translate(-1815.402 -1361.159)" fill="#ffa08a"/>
        <path id="Trazado_100241" data-name="Trazado 100241" d="M1818.661,1363.66a.447.447,0,1,1-.47-.422A.447.447,0,0,1,1818.661,1363.66Z" transform="translate(-1816.427 -1362.059)" fill="#d85a4c"/>
      </g>
      <path id="Trazado_100242" data-name="Trazado 100242" d="M1800.586,1355.739c.062-.034,2.265-.911,4.472-5.766l-.117-1.145-3.9,1.094-.991,2.767Z" transform="translate(-1732.755 -1345.959)" fill="#87554a"/>
      <path id="Trazado_100243" data-name="Trazado 100243" d="M1806.024,1349.451a15.942,15.942,0,0,0,7.745,7.028l1.713-.091-2.766-6.923-6.132-1.187Z" transform="translate(-1735.343 -1345.721)" fill="#87554a"/>
      <path id="Trazado_100244" data-name="Trazado 100244" d="M1792.786,1503.284l-.016-.247-.024-.183a5.6,5.6,0,1,0-11.194,0h-.041l-3.376,32.044,5.12,1.636C1784.886,1532.387,1792.833,1508.761,1792.786,1503.284Z" transform="translate(-1723.259 -1410.27)" fill="#3b3348"/>
      <g id="Grupo_53820" data-name="Grupo 53820" transform="translate(61.065 22.257)">
        <path id="Trazado_100245" data-name="Trazado 100245" d="M1800.287,1383.108s-4.648,1.653-1.478,7.883l4.241-.659-.052-4.666Z" transform="translate(-1792.802 -1383.069)" fill="#d85a4c"/>
        <path id="Trazado_100246" data-name="Trazado 100246" d="M1791.909,1389.836l14.538,3.408a4.013,4.013,0,0,0,.495.116,4.128,4.128,0,1,0,1.372-8.141c-.074-.012-.149-.023-.223-.031l-15.043-2.1h0a3.422,3.422,0,1,0-1.137,6.749Z" transform="translate(-1789.055 -1383.039)" fill="#ffa08a"/>
        <path id="Trazado_100247" data-name="Trazado 100247" d="M1799.691,1391l10.19,2.783a5.224,5.224,0,0,0,.784.214l.311.085.051.01a5.156,5.156,0,0,0,1.492-10.2h-.008l-.031-.006a5.181,5.181,0,0,0-1.061-.067l-10.251-.69C1802.726,1385.137,1802.461,1388.7,1799.691,1391Z" transform="translate(-1793.663 -1383.076)" fill="#e35e4b"/>
      </g>
      <g id="Grupo_53822" data-name="Grupo 53822" transform="translate(41.666 10.487)">
        <path id="Trazado_100248" data-name="Trazado 100248" d="M1764.284,1370.713v0l14.167,10.681a3.564,3.564,0,0,0,.32.241,3.422,3.422,0,0,0,3.767-5.715h0l-15.173-9.4a2.643,2.643,0,0,0-.215-.159,2.6,2.6,0,1,0-2.865,4.347Z" transform="translate(-1758.417 -1363.859)" fill="#ffa08a"/>
        <g id="Grupo_53821" data-name="Grupo 53821">
          <path id="Trazado_100249" data-name="Trazado 100249" d="M1762.927,1364.479l-6.322-2.208-1.779,3.476,5.743,3.275Z" transform="translate(-1754.826 -1362.271)" fill="#ffa08a"/>
          <path id="Trazado_100250" data-name="Trazado 100250" d="M1762.19,1373.121l-3.322-.689-.06-.521,1.561-.058Z" transform="translate(-1756.551 -1366.422)" fill="#ffa08a"/>
          <path id="Trazado_100251" data-name="Trazado 100251" d="M1757.344,1363.123l3.418,1.75-3.661-1.275Z" transform="translate(-1755.812 -1362.64)" fill="#f29788"/>
          <path id="Trazado_100252" data-name="Trazado 100252" d="M1756.349,1365.039l3.853,1.9-4.1-1.427Z" transform="translate(-1755.38 -1363.47)" fill="#f29788"/>
          <path id="Trazado_100253" data-name="Trazado 100253" d="M1755.384,1366.923l3.418,1.75-3.661-1.275Z" transform="translate(-1754.963 -1364.287)" fill="#f29788"/>
        </g>
      </g>
      <path id="Trazado_100254" data-name="Trazado 100254" d="M1772.9,1568.274l-2.587,1.687s-2.152,1.092-2.964,1.423a.6.6,0,0,0-.267,1l.464.6a1.435,1.435,0,0,0,1.164.557l2.609-.054.746-.191,1.569-.05a29.189,29.189,0,0,0,3.317.089c.415-.149.581-1.39.581-1.39l.049-2.52C1775.486,1570.25,1772.9,1568.274,1772.9,1568.274Z" transform="translate(-1718.392 -1441.041)" fill="#000932"/>
    </g>
    <g id="Grupo_53840" data-name="Grupo 53840" transform="translate(1291.526 1191.088)">
      <g id="Grupo_53824" data-name="Grupo 53824" transform="translate(46.587 55.921)">
        <path id="Trazado_100255" data-name="Trazado 100255" d="M1387.639,1475.1a1.432,1.432,0,0,1-1.3-2.021l63.585-140.822a1.431,1.431,0,0,1,2.609,1.178l-63.585,140.822A1.431,1.431,0,0,1,1387.639,1475.1Z" transform="translate(-1386.209 -1331.418)" fill="#b97b10"/>
      </g>
      <g id="Grupo_53825" data-name="Grupo 53825" transform="translate(19.212 55.921)">
        <path id="Trazado_100256" data-name="Trazado 100256" d="M1339.335,1475.1a1.431,1.431,0,0,1-1.3-2.021l63.585-140.822a1.431,1.431,0,1,1,2.609,1.178L1340.64,1474.26A1.431,1.431,0,0,1,1339.335,1475.1Z" transform="translate(-1337.905 -1331.418)" fill="#b97b10"/>
      </g>
      <g id="Grupo_53826" data-name="Grupo 53826" transform="translate(22.367 189.756)">
        <path id="Trazado_100257" data-name="Trazado 100257" d="M1373.024,1569.006a1.431,1.431,0,0,1-1.431,1.432H1344.9a1.431,1.431,0,0,1,0-2.863h26.691A1.431,1.431,0,0,1,1373.024,1569.006Z" transform="translate(-1343.472 -1567.575)" fill="#b97b10"/>
      </g>
      <g id="Grupo_53827" data-name="Grupo 53827" transform="translate(34.822 162.174)">
        <path id="Trazado_100258" data-name="Trazado 100258" d="M1393.57,1521.768h-26.69a1.431,1.431,0,1,1,0-2.862h26.69a1.431,1.431,0,1,1,0,2.862Z" transform="translate(-1365.449 -1518.906)" fill="#b97b10"/>
      </g>
      <g id="Grupo_53828" data-name="Grupo 53828" transform="translate(47.276 134.592)">
        <path id="Trazado_100259" data-name="Trazado 100259" d="M1415.546,1473.1h-26.69a1.431,1.431,0,0,1,0-2.862h26.69a1.431,1.431,0,1,1,0,2.862Z" transform="translate(-1387.425 -1470.236)" fill="#b97b10"/>
      </g>
      <g id="Grupo_53829" data-name="Grupo 53829" transform="translate(59.73 107.01)">
        <path id="Trazado_100260" data-name="Trazado 100260" d="M1437.522,1424.43h-26.69a1.431,1.431,0,0,1,0-2.863h26.69a1.431,1.431,0,1,1,0,2.863Z" transform="translate(-1409.401 -1421.567)" fill="#b97b10"/>
      </g>
      <g id="Grupo_53830" data-name="Grupo 53830" transform="translate(72.185 79.428)">
        <path id="Trazado_100261" data-name="Trazado 100261" d="M1459.5,1375.761h-26.69a1.431,1.431,0,1,1,0-2.863h26.69a1.431,1.431,0,0,1,0,2.863Z" transform="translate(-1431.377 -1372.898)" fill="#b97b10"/>
      </g>
      <path id="Trazado_100262" data-name="Trazado 100262" d="M1445.178,1327.031l1.217-3.122-.373-.187-1.669,2.823-.326-.152,1.4-4.254-.532-.108-1.831,3.878-.487-.093.4-1.7.944-2.612-.447-.187-2.255,4.033-.436-.074,1.319-3.142-.517-.217-2.149,3.448-4.327,3.126h0l-15.494,9.51a3.762,3.762,0,1,0,3.959,6.384h0l15.72-11.753a2.763,2.763,0,0,0,.249-.157,2.849,2.849,0,0,0,.5-.451l0,0A15.059,15.059,0,0,0,1445.178,1327.031Z" transform="translate(-1353.242 -1271.122)" fill="#ffa08a"/>
      <g id="Grupo_53832" data-name="Grupo 53832" transform="translate(0 86.03)">
        <path id="Trazado_100263" data-name="Trazado 100263" d="M1355.466,1401.453a56.7,56.7,0,0,1,2.125-7.694l2.844-8.042,3-.863a7.883,7.883,0,0,1,10.052,7.213l-11.864,33.751-.031.088a5.316,5.316,0,0,1-6.345,4.1,5.378,5.378,0,0,1-4.265-6.3Z" transform="translate(-1324.315 -1384.546)" fill="#3b3348"/>
        <path id="Trazado_100264" data-name="Trazado 100264" d="M1361.675,1411.381a3.175,3.175,0,0,0,3.5-1.81l1.237-2.77a.356.356,0,0,0-.651-.291l-1.237,2.77a2.456,2.456,0,0,1-3.206,1.248l-.553-.24a.357.357,0,0,0-.283.655l.553.239A3.121,3.121,0,0,0,1361.675,1411.381Z" transform="translate(-1328.383 -1393.972)" fill="#564c72"/>
        <g id="Grupo_53831" data-name="Grupo 53831" transform="translate(0 34.785)">
          <path id="Trazado_100265" data-name="Trazado 100265" d="M1312.612,1475.712l-3.742,2.444,1.9,3.911,4.41-2.21Z" transform="translate(-1306.113 -1458.831)" fill="#ffa08a"/>
          <path id="Trazado_100266" data-name="Trazado 100266" d="M1310.982,1482.03l-.992,4.021s.361,2.8.359,3.832a.7.7,0,0,1-.969.73l-.858-.242a1.685,1.685,0,0,1-1.118-1.024l-1.088-2.866-.12-.9-.636-1.732a34.194,34.194,0,0,1-1.554-3.574c-.021-.518,1.259-1.245,1.259-1.245l3-.774C1308.285,1480.9,1310.982,1482.03,1310.982,1482.03Z" transform="translate(-1304.005 -1459.935)" fill="#000932"/>
          <path id="Trazado_100267" data-name="Trazado 100267" d="M1337.051,1446.788a5.379,5.379,0,0,1,7.434,1.6,5.314,5.314,0,0,1-1.383,7.423l-.12.056-.248.115a5.291,5.291,0,0,1-.868.4l-25.192,11.651c-2.254-3.111-1.144-2.056-3.336-5.247C1323.991,1454.363,1331.925,1448.8,1337.051,1446.788Z" transform="translate(-1308.048 -1445.925)" fill="#3b3348"/>
        </g>
        <path id="Trazado_100268" data-name="Trazado 100268" d="M1381.688,1417.526a.357.357,0,0,0,.405-.231l2.409-6.853a.357.357,0,0,0-.673-.236l-2.408,6.853a.356.356,0,0,0,.218.454A.273.273,0,0,0,1381.688,1417.526Z" transform="translate(-1337.538 -1395.56)" fill="#564c72"/>
      </g>
      <path id="Trazado_100269" data-name="Trazado 100269" d="M1386.943,1502.54l1.079,5.44,4.331-.222-.119-5.85Z" transform="translate(-1339.94 -1349.367)" fill="#ffa08a"/>
      <path id="Trazado_100270" data-name="Trazado 100270" d="M1378.161,1328.566l-.691.1.445,2.317,2.15.6,5.715,1.192,1.8-3.075-.241-1.275-.979-.192Z" transform="translate(-1335.836 -1274.12)" fill="#ffa08a"/>
      <path id="Trazado_100271" data-name="Trazado 100271" d="M1379.232,1314.488l-.523,6.355a2.956,2.956,0,0,0,.045.635l.689,3.791a2.955,2.955,0,0,0,1.526,2.084c1.943,1.027,5.44,2.871,5.5,2.871a32.241,32.241,0,0,0,2.919-1.983,21.477,21.477,0,0,0,1.136-2.83,41.777,41.777,0,0,0-2.9-3.17c-.3-.312-.817-.653-.957-1.064-.408-1.2-.526-2.906-1.39-6.6-.319-1.37-2.058-3.46-3.464-3.42h0C1380.266,1311.2,1379.288,1312.932,1379.232,1314.488Z" transform="translate(-1336.371 -1266.718)" fill="#ffa08a"/>
      <g id="Grupo_53833" data-name="Grupo 53833" transform="translate(48.246 54.327)">
        <path id="Trazado_100272" data-name="Trazado 100272" d="M1412.716,1342.511l-12.982-10.056a4.54,4.54,0,1,0-5.538,7.173c.069.047.139.091.209.134l14.086,8.98h0a3.764,3.764,0,0,0,4.224-6.231Z" transform="translate(-1390.466 -1329.786)" fill="#ffa08a"/>
        <path id="Trazado_100273" data-name="Trazado 100273" d="M1392.025,1339.665l10.195,6.124s5.039-1.487,6.2-8.2l-9.611-7.679a5.954,5.954,0,0,0-8.645,1.311h0A5.954,5.954,0,0,0,1392.025,1339.665Z" transform="translate(-1389.136 -1328.606)" fill="#ffd32f"/>
      </g>
      <path id="Trazado_100274" data-name="Trazado 100274" d="M1386.733,1318.99l.485,2.467a4.786,4.786,0,0,1-5.763-2.627Z" transform="translate(-1337.562 -1270.043)" fill="#3b3348"/>
      <path id="Trazado_100275" data-name="Trazado 100275" d="M1385,1380.67a7.033,7.033,0,0,1,9.9,5.18l-1.1,37.548q0,.2-.012.4l-.043.4-.012.1a5.525,5.525,0,0,1-6.316,4.6,5.842,5.842,0,0,1-4.775-6.251l-.113-.766c-2.282-8.324-2.82-23.441-3.083-38.624Z" transform="translate(-1336.693 -1296.552)" fill="#3b3348"/>
      <path id="Trazado_100276" data-name="Trazado 100276" d="M1385.228,1451.571a5.526,5.526,0,0,1,10.7,2.745l-.036.218-3.648,26.8c-4.351.462-2.1.111-7.042.126a242.756,242.756,0,0,1,.015-29.356Z" transform="translate(-1338.998 -1325.757)" fill="#3b3348"/>
      <path id="Trazado_100277" data-name="Trazado 100277" d="M1364.121,1357.226a60.459,60.459,0,0,0,.936-14.995l-.237-12.525,5.642-1.1.432-.006c.416,1.845,3.165,3.212,5.135,3.212,2.015,0,4.234-1.475,4.6-3.382l3.868.349s3.579,1.8,3.46,7.507-.422,21.924-.422,21.924.148,5.689.412,8.029a1.608,1.608,0,0,1-.842,1.6c-1.881,1-6,2.828-10.213,2.284-2.883-.372-6.583-.052-9.046-.579a10.163,10.163,0,0,1-5.231-2.586,2.208,2.208,0,0,1-.606-2.189C1362.619,1362.572,1363.868,1358.061,1364.121,1357.226Z" transform="translate(-1329.104 -1274.201)" fill="#ffd32f"/>
      <g id="Grupo_53835" data-name="Grupo 53835" transform="translate(38.615 32.525)">
        <g id="Grupo_53834" data-name="Grupo 53834" transform="translate(0)">
          <path id="Trazado_100278" data-name="Trazado 100278" d="M1389.766,1305.448a1.871,1.871,0,1,0,1.7-2.026A1.871,1.871,0,0,0,1389.766,1305.448Z" transform="translate(-1379.774 -1295.889)" fill="#ef9789"/>
          <circle id="Elipse_3983" data-name="Elipse 3983" cx="2.109" cy="2.109" r="2.109" transform="translate(8.677 4.511) rotate(-49.951)" fill="#4d3932"/>
          <circle id="Elipse_3984" data-name="Elipse 3984" cx="2.109" cy="2.109" r="2.109" transform="translate(8.841 7.525) rotate(-67.674)" fill="#4d3932"/>
          <path id="Trazado_100279" data-name="Trazado 100279" d="M1385.9,1293.24a2.109,2.109,0,1,0,1.92-2.283A2.109,2.109,0,0,0,1385.9,1293.24Z" transform="translate(-1378.1 -1290.488)" fill="#4d3932"/>
          <path id="Trazado_100280" data-name="Trazado 100280" d="M1381.182,1292.426a2.109,2.109,0,1,0,1.919-2.283A2.11,2.11,0,0,0,1381.182,1292.426Z" transform="translate(-1376.055 -1290.135)" fill="#4d3932"/>
          <path id="Trazado_100281" data-name="Trazado 100281" d="M1373.387,1301.3a2.109,2.109,0,1,0,1.919-2.283A2.11,2.11,0,0,0,1373.387,1301.3Z" transform="translate(-1372.678 -1293.978)" fill="#4d3932"/>
          <circle id="Elipse_3985" data-name="Elipse 3985" cx="2.837" cy="2.837" r="2.837" transform="translate(0 5.433) rotate(-49.951)" fill="#4d3932"/>
          <path id="Trazado_100282" data-name="Trazado 100282" d="M1376.121,1302.657c.342,3.948,3.259,7.283,6.668,6.988s4.032-3.916,3.69-7.863-1.4-7.1-4.805-6.807S1375.779,1298.709,1376.121,1302.657Z" transform="translate(-1373.852 -1292.223)" fill="#ffa08a"/>
          <path id="Trazado_100283" data-name="Trazado 100283" d="M1374.372,1307.986a1.872,1.872,0,1,0,1.7-2.026A1.871,1.871,0,0,0,1374.372,1307.986Z" transform="translate(-1373.105 -1296.988)" fill="#ffa08a"/>
          <path id="Trazado_100284" data-name="Trazado 100284" d="M1376.451,1308.934a.512.512,0,1,0,.466-.555A.512.512,0,0,0,1376.451,1308.934Z" transform="translate(-1374.008 -1298.039)" fill="#d85a4c"/>
          <path id="Trazado_100285" data-name="Trazado 100285" d="M1389.74,1299.368s-2.152-5.587-5.649-5.355l-.147-1.691,2.554.246,3.714,2.469Z" transform="translate(-1377.255 -1291.082)" fill="#4d3932"/>
          <path id="Trazado_100286" data-name="Trazado 100286" d="M1380.709,1294.987s-3.3,3.46-2.8,6.8l-1.771-.7.3-4.759,2.583-1.766Z" transform="translate(-1373.873 -1292.056)" fill="#4d3932"/>
          <path id="Trazado_100287" data-name="Trazado 100287" d="M1377.331,1294.761a2.109,2.109,0,1,0,1.92-2.283A2.109,2.109,0,0,0,1377.331,1294.761Z" transform="translate(-1374.386 -1291.147)" fill="#4d3932"/>
          <path id="Trazado_100288" data-name="Trazado 100288" d="M1388.4,1295.586a1.7,1.7,0,1,0,1.548-1.841A1.7,1.7,0,0,0,1388.4,1295.586Z" transform="translate(-1379.183 -1291.696)" fill="#4d3932"/>
          <path id="Trazado_100289" data-name="Trazado 100289" d="M1383.57,1294.312a1.7,1.7,0,1,0,1.548-1.841A1.7,1.7,0,0,0,1383.57,1294.312Z" transform="translate(-1377.09 -1291.144)" fill="#4d3932"/>
          <path id="Trazado_100290" data-name="Trazado 100290" d="M1390.925,1298.4a1.411,1.411,0,1,0,1.284-1.527A1.411,1.411,0,0,0,1390.925,1298.4Z" transform="translate(-1380.277 -1293.051)" fill="#4d3932"/>
          <path id="Trazado_100291" data-name="Trazado 100291" d="M1377.708,1295.45a2.109,2.109,0,1,0,1.919-2.283A2.109,2.109,0,0,0,1377.708,1295.45Z" transform="translate(-1374.55 -1291.445)" fill="#4d3932"/>
          <path id="Trazado_100292" data-name="Trazado 100292" d="M1374.289,1299.1a2.109,2.109,0,1,0,1.919-2.283A2.109,2.109,0,0,0,1374.289,1299.1Z" transform="translate(-1373.068 -1293.027)" fill="#4d3932"/>
          <path id="Trazado_100293" data-name="Trazado 100293" d="M1374.439,1304.35a1.768,1.768,0,1,0,1.608-1.914A1.767,1.767,0,0,0,1374.439,1304.35Z" transform="translate(-1373.134 -1295.462)" fill="#4d3932"/>
        </g>
        <path id="Trazado_100294" data-name="Trazado 100294" d="M1387.953,1313.221a1.18,1.18,0,1,0,2.351-.2Z" transform="translate(-1378.992 -1300.05)" fill="#fff"/>
      </g>
      <path id="Trazado_100295" data-name="Trazado 100295" d="M1404.137,1340.875a.178.178,0,0,0,.178-.177l.034-5.328c-.347-4.571-4.591-6.494-4.634-6.513a.178.178,0,1,0-.144.326c.041.018,4.092,1.86,4.421,6.2l-.034,5.314a.179.179,0,0,0,.177.18Z" transform="translate(-1345.365 -1274.38)" fill="#e9a71a"/>
      <path id="Trazado_100296" data-name="Trazado 100296" d="M1367.805,1385.356a.178.178,0,1,0,0-.356c-1.3,0-2.8-1.784-2.813-1.8a.178.178,0,1,0-.274.228C1364.784,1383.5,1366.343,1385.356,1367.805,1385.356Z" transform="translate(-1330.293 -1297.904)" fill="#e9a71a"/>
      <path id="Trazado_100297" data-name="Trazado 100297" d="M1390.954,1345.1s2.759,5.056-4.849,8.011l-3.177-3.875,3.677-4.02Z" transform="translate(-1338.2 -1281.425)" fill="#e9a71a"/>
      <path id="Trazado_100298" data-name="Trazado 100298" d="M1380.459,1347.813l-14.415-7.865a4.768,4.768,0,0,1-.491-.268,4.54,4.54,0,1,1,4.844-7.68c.071.045.139.091.206.138l13.872,9.307h0a3.764,3.764,0,0,1-4.016,6.366Z" transform="translate(-1329.754 -1275.446)" fill="#ffa08a"/>
      <path id="Trazado_100299" data-name="Trazado 100299" d="M1377.2,1346.161l-11.058-5.525a6.033,6.033,0,0,1-.851-.424l-.337-.169.022-.034a6,6,0,0,1,6.574-10.046h0l.007.005.031.019a6.045,6.045,0,0,1,.979.768l9.481,7.4C1379.123,1338.688,1376.578,1342,1377.2,1346.161Z" transform="translate(-1329.298 -1274.475)" fill="#ffd32f"/>
      <path id="Trazado_100300" data-name="Trazado 100300" d="M1384.006,1338.115a.162.162,0,0,0-.05-.188l-9.817-7.694a6.423,6.423,0,0,0-7.528-.285.162.162,0,1,0,.189.263,6,6,0,0,1,7.139.277l9.818,7.694a.162.162,0,0,0,.227-.027A.157.157,0,0,0,1384.006,1338.115Z" transform="translate(-1331.101 -1274.38)" fill="#e9a71a"/>
      <path id="Trazado_100301" data-name="Trazado 100301" d="M1392.107,1510.771l2.606,3.219s2.451,1.4,3.271,2.027a.7.7,0,0,1,0,1.214l-.71.537a1.684,1.684,0,0,1-1.491.274l-2.942-.862-.788-.446-1.763-.539a34.119,34.119,0,0,1-3.789-.918c-.426-.3-.233-1.756-.233-1.756l1.2-2.861C1389.581,1512.242,1392.107,1510.771,1392.107,1510.771Z" transform="translate(-1339.627 -1353.159)" fill="#000932"/>
      <g id="Grupo_53837" data-name="Grupo 53837" transform="translate(65.885 0)">
        <path id="Trazado_100302" data-name="Trazado 100302" d="M1420.708,1341.111a2.147,2.147,0,0,0,.389,3.013l3.112,2.4a2.148,2.148,0,0,0,3.012-.389l27.361-35.474-6.513-5.024Z" transform="translate(-1420.26 -1264.326)" fill="#f7a416"/>
        <path id="Trazado_100303" data-name="Trazado 100303" d="M1487.67,1283.5a20.033,20.033,0,0,1-14.9-4.017,19.011,19.011,0,0,1-3.479-26.941,20.219,20.219,0,0,1,28.3-3.654,19.011,19.011,0,0,1,3.479,26.941A20.037,20.037,0,0,1,1487.67,1283.5Z" transform="translate(-1439.735 -1237.926)" fill="#6d79ff" opacity="0.18"/>
        <g id="Grupo_53836" data-name="Grupo 53836" transform="translate(19.178)">
          <path id="Trazado_100304" data-name="Trazado 100304" d="M1459.568,1242.968a26.262,26.262,0,1,0,36.835-4.756A26.263,26.263,0,0,0,1459.568,1242.968Zm5.716,4.409a19.044,19.044,0,1,1,3.449,26.711A19.044,19.044,0,0,1,1465.283,1247.377Z" transform="translate(-1454.1 -1232.744)" fill="#f7a416"/>
        </g>
        <path id="Rectángulo_5193" data-name="Rectángulo 5193" d="M5.89,0h0a5.89,5.89,0,0,1,5.89,5.89v0a5.89,5.89,0,0,1-5.89,5.89h0A5.89,5.89,0,0,1,0,5.89v0A5.89,5.89,0,0,1,5.89,0Z" transform="matrix(-0.792, -0.611, 0.611, -0.792, 25.178, 61.042)" fill="#f7a416"/>
      </g>
      <g id="Grupo_53839" data-name="Grupo 53839" transform="translate(49.047 65.295)">
        <path id="Trazado_100305" data-name="Trazado 100305" d="M1414.377,1351.247v0l-19.249-3.194a3.762,3.762,0,1,0-1.2,7.416h0l19.575,1.43a2.918,2.918,0,0,0,.291.045,2.862,2.862,0,1,0,.579-5.7Z" transform="translate(-1390.549 -1347.959)" fill="#ffa08a"/>
        <path id="Trazado_100306" data-name="Trazado 100306" d="M1432.823,1353l3.655-.992.323.488-1.524.846Z" transform="translate(-1408.866 -1349.714)" fill="#ffa08a"/>
        <g id="Grupo_53838" data-name="Grupo 53838" transform="translate(23.775 3.288)">
          <path id="Trazado_100307" data-name="Trazado 100307" d="M1432.5,1359.472l7.407-.994.016-4.358-7.369-.36Z" transform="translate(-1432.5 -1353.76)" fill="#ffa08a"/>
          <path id="Trazado_100308" data-name="Trazado 100308" d="M1442.3,1360.562l-4.285-.015,4.287-.58Z" transform="translate(-1434.889 -1356.45)" fill="#f29788"/>
          <path id="Trazado_100309" data-name="Trazado 100309" d="M1441.931,1358.153l-4.794.053,4.8-.648Z" transform="translate(-1434.509 -1355.406)" fill="#f29788"/>
          <path id="Trazado_100310" data-name="Trazado 100310" d="M1442.329,1355.791l-4.285-.016,4.287-.58Z" transform="translate(-1434.902 -1354.382)" fill="#f29788"/>
        </g>
      </g>
    </g>
  </g>
</svg>
