<svg xmlns="http://www.w3.org/2000/svg" width="846.689" height="458.836" viewBox="0 0 846.689 458.836">
  <g id="Grupo_53907" data-name="Grupo 53907" transform="translate(-49 -63.402)">
    <g id="Grupo_53735" data-name="Grupo 53735" transform="translate(49 63.402)">
      <rect id="Rectángulo_5167" data-name="Rectángulo 5167" width="764.889" height="52.055" rx="3.913" transform="translate(26.559)" fill="#f9b645"/>
      <rect id="Rectángulo_5168" data-name="Rectángulo 5168" width="196.534" height="71.111" rx="3.913" transform="translate(138.105 160.879)" fill="#f9b645"/>
      <rect id="Rectángulo_5169" data-name="Rectángulo 5169" width="288.161" height="99.86" rx="3.913" transform="translate(558.528 225.748)" fill="#badb4c"/>
      <rect id="Rectángulo_5170" data-name="Rectángulo 5170" width="196.534" height="67.857" rx="3.913" transform="translate(138.105 270.898)" fill="#f9b645"/>
      <rect id="Rectángulo_5171" data-name="Rectángulo 5171" width="196.534" height="67.857" rx="3.913" transform="translate(138.105 390.979)" fill="#f9b645"/>
      <rect id="Rectángulo_5172" data-name="Rectángulo 5172" width="117.92" height="67.857" rx="3.913" transform="translate(0 390.979)" fill="#f9b645"/>
      <g id="Grupo_53724" data-name="Grupo 53724" transform="translate(73.071 52.055)">
        <rect id="Rectángulo_5173" data-name="Rectángulo 5173" width="1.527" height="330.047" transform="translate(4.977)" fill="#7c520b"/>
        <g id="Grupo_53723" data-name="Grupo 53723" transform="translate(0 324.018)">
          <path id="Trazado_100138" data-name="Trazado 100138" d="M1485.11,814.81a5.741,5.741,0,1,0,5.742-5.742A5.742,5.742,0,0,0,1485.11,814.81Z" transform="translate(-1485.11 -809.068)" fill="#7c520b"/>
        </g>
      </g>
      <g id="Grupo_53726" data-name="Grupo 53726" transform="translate(225.849 52.995)">
        <rect id="Rectángulo_5174" data-name="Rectángulo 5174" width="1.527" height="102.429" transform="translate(4.979)" fill="#7c520b"/>
        <g id="Grupo_53725" data-name="Grupo 53725" transform="translate(0 96.4)">
          <path id="Trazado_100139" data-name="Trazado 100139" d="M1585.153,666.375a5.742,5.742,0,1,0,5.742-5.742A5.743,5.743,0,0,0,1585.153,666.375Z" transform="translate(-1585.153 -660.633)" fill="#7c520b"/>
        </g>
      </g>
      <g id="Grupo_53728" data-name="Grupo 53728" transform="translate(408.239 52.995)">
        <path id="Trazado_100140" data-name="Trazado 100140" d="M1999.719,758.864h-1.527V685.041l-293.605-.066V597.508h1.527v85.939l293.605.066Z" transform="translate(-1704.587 -597.508)" fill="#8ba439"/>
        <g id="Grupo_53727" data-name="Grupo 53727" transform="translate(288.628 155.327)">
          <path id="Trazado_100141" data-name="Trazado 100141" d="M1893.588,704.962a5.742,5.742,0,1,0,5.742-5.742A5.743,5.743,0,0,0,1893.588,704.962Z" transform="translate(-1893.588 -699.22)" fill="#8ba439"/>
        </g>
      </g>
      <g id="Grupo_53730" data-name="Grupo 53730" transform="translate(334.633 302.501)">
        <rect id="Rectángulo_5175" data-name="Rectángulo 5175" width="215.721" height="1.527" transform="matrix(1, -0.01, 0.01, 1, 0, 7.011)" fill="#8ba439"/>
        <g id="Grupo_53729" data-name="Grupo 53729" transform="translate(209.69)">
          <path id="Trazado_100142" data-name="Trazado 100142" d="M1799.492,772.373a5.741,5.741,0,1,0-5.794-5.688A5.74,5.74,0,0,0,1799.492,772.373Z" transform="translate(-1793.698 -760.891)" fill="#8ba439"/>
        </g>
      </g>
      <g id="Grupo_53732" data-name="Grupo 53732" transform="translate(225.849 231.989)">
        <rect id="Rectángulo_5176" data-name="Rectángulo 5176" width="1.527" height="33.454" transform="translate(4.979)" fill="#7c520b"/>
        <g id="Grupo_53731" data-name="Grupo 53731" transform="translate(0 27.426)">
          <path id="Trazado_100143" data-name="Trazado 100143" d="M1585.153,738.417a5.742,5.742,0,1,0,5.742-5.74A5.742,5.742,0,0,0,1585.153,738.417Z" transform="translate(-1585.153 -732.677)" fill="#7c520b"/>
        </g>
      </g>
      <g id="Grupo_53734" data-name="Grupo 53734" transform="translate(225.849 338.955)">
        <rect id="Rectángulo_5177" data-name="Rectángulo 5177" width="1.527" height="46.569" transform="translate(4.979)" fill="#7c520b"/>
        <g id="Grupo_53733" data-name="Grupo 53733" transform="translate(0 40.541)">
          <path id="Trazado_100144" data-name="Trazado 100144" d="M1585.153,817.049a5.742,5.742,0,1,0,5.742-5.74A5.742,5.742,0,0,0,1585.153,817.049Z" transform="translate(-1585.153 -811.309)" fill="#7c520b"/>
        </g>
      </g>
    </g>
    <text id="What_are_the_two_mea" data-name="What are the two mea" transform="translate(223.495 91.72)" fill="#12263f" font-size="14" font-family="Roboto-Black, Roboto" font-weight="800"><tspan x="0" y="0">VERIFICACIÓN IMPLEMENTACIÓN EFICAZ DE ACCIONES CORRETIVAS</tspan></text>
    <text id="What_are_the_two_mea-2" data-name="What are the two mea" transform="translate(275.495 253.72)" fill="#12263f" font-size="14" font-family="Roboto-Black, Roboto" font-weight="800"><tspan x="-59.004" y="0">ESTABLEZCA UNA</tspan><tspan x="-46.45" y="21">NUEVA FECHA</tspan></text>
    <text id="What_are_the_two_mea-3" data-name="What are the two mea" transform="translate(307.495 168.72)" fill="#d47d08" font-size="13" font-family="Roboto-Black, Roboto" font-weight="800"><tspan x="-9.052" y="0">NO</tspan></text>
    <text id="What_are_the_two_mea-4" data-name="What are the two mea" transform="translate(480.495 168.72)" fill="#95af3d" font-size="13" font-family="Roboto-Black, Roboto" font-weight="800"><tspan x="-6.03" y="0">SI</tspan></text>
    <text id="What_are_the_two_mea-5" data-name="What are the two mea" transform="translate(480.495 353.72)" fill="#95af3d" font-size="13" font-family="Roboto-Black, Roboto" font-weight="800"><tspan x="-6.03" y="0">SI</tspan></text>
    <text id="What_are_the_two_mea-6" data-name="What are the two mea" transform="translate(317.495 429.72)" fill="#d47d08" font-size="13" font-family="Roboto-Black, Roboto" font-weight="800"><tspan x="-9.052" y="0">NO</tspan></text>
    <text id="What_are_the_two_mea-7" data-name="What are the two mea" transform="translate(742.495 332.72)" fill="#12263f" font-size="14" font-family="Roboto-Black, Roboto" font-weight="800"><tspan x="-110.476" y="0">EVIDENCIA (hechos) CIERRE EN EL</tspan><tspan x="-108.035" y="21">REPORTES DE NO CONFORMIDAD</tspan></text>
    <text id="What_are_the_two_mea-8" data-name="What are the two mea" transform="translate(275.495 362.72)" fill="#12263f" font-size="14" font-family="Roboto-Black, Roboto" font-weight="800"><tspan x="-46.491" y="0">VERIFIQUE DE </tspan><tspan x="-22.897" y="21">NUEVO</tspan></text>
    <text id="What_are_the_two_mea-9" data-name="What are the two mea" transform="translate(277.495 493.72)" fill="#12263f" font-size="14" font-family="Roboto-Black, Roboto" font-weight="800"><tspan x="-25.372" y="0">ESCALE</tspan></text>
    <text id="What_are_the_two_mea-10" data-name="What are the two mea" transform="translate(103.495 485.72)" fill="#12263f" font-size="14" font-family="Roboto-Black, Roboto" font-weight="800"><tspan x="-24.363" y="0">NUEVA </tspan><tspan x="-13.744" y="21">SAC</tspan></text>
  </g>
</svg>
