<svg xmlns="http://www.w3.org/2000/svg" width="845.554" height="199.369" viewBox="0 0 845.554 199.369">
  <g id="Grupo_55652" data-name="Grupo 55652" transform="translate(-300.001 -3879)">
    <g id="Grupo_53570" data-name="Grupo 53570" transform="translate(242.195 3760.694)">
      <rect id="Rectángulo_5127" data-name="Rectángulo 5127" width="209.054" height="74.369" rx="14" transform="translate(57.805 118.306)" fill="#badb4c"/>
      <path id="Trazado_10444" data-name="Trazado 10444" d="M378,144.454l.057,40.586,21.389-21.449Z" transform="translate(397.037 -185.326) rotate(90)" fill="#8ba439"/>
    </g>
    <g id="Grupo_53572" data-name="Grupo 53572" transform="translate(568.695 3760.694)">
      <rect id="Rectángulo_5127-2" data-name="Rectángulo 5127" width="209.054" height="74.369" rx="14" transform="translate(57.805 118.306)" fill="#badb4c"/>
      <path id="Trazado_10444-2" data-name="Trazado 10444" d="M378,144.454l.057,40.586,21.389-21.449Z" transform="translate(397.037 -185.326) rotate(90)" fill="#8ba439"/>
    </g>
    <g id="Grupo_53574" data-name="Grupo 53574" transform="translate(878.695 3760.694)">
      <rect id="Rectángulo_5127-3" data-name="Rectángulo 5127" width="209.054" height="74.369" rx="14" transform="translate(57.805 118.306)" fill="#badb4c"/>
    </g>
    <g id="Grupo_53571" data-name="Grupo 53571" transform="translate(413.092 3885.694)">
      <rect id="Rectángulo_5127-4" data-name="Rectángulo 5127" width="209.054" height="74.369" rx="14" transform="translate(57.805 118.306)" fill="#badb4c"/>
      <path id="Trazado_10444-3" data-name="Trazado 10444" d="M378,144.454l.057,40.586,21.389-21.449Z" transform="translate(66.543 496.306) rotate(-90)" fill="#8ba439"/>
    </g>
    <g id="Grupo_53573" data-name="Grupo 53573" transform="translate(733.234 3885.694)">
      <rect id="Rectángulo_5127-5" data-name="Rectángulo 5127" width="209.054" height="74.369" rx="14" transform="translate(57.805 118.306)" fill="#badb4c"/>
      <path id="Trazado_10444-4" data-name="Trazado 10444" d="M378,144.454l.057,40.586,21.389-21.449Z" transform="translate(66.543 496.306) rotate(-90)" fill="#8ba439"/>
    </g>
    <text id="Inicio_de_la_auditoría_" data-name="Inicio de la auditoría " transform="translate(330 3906)" fill="#0e0e0e" font-size="16" font-family="Roboto-Bold, Roboto" font-weight="700"><tspan x="0" y="17">Inicio de la auditoría </tspan></text>
    <text id="Realización_de_actividades" data-name="Realización de actividades" transform="translate(648.027 3895)" fill="#0e0e0e" font-size="16" font-family="Roboto-Bold, Roboto" font-weight="700"><tspan x="-52.441" y="17">Realización de </tspan><tspan x="-41.191" y="39">actividades</tspan></text>
    <text id="Actividades_de_seguimiento" data-name="Actividades de seguimiento" transform="translate(958.027 3895)" fill="#0e0e0e" font-size="16" font-family="Roboto-Bold, Roboto" font-weight="700"><tspan x="-53.109" y="17">Actividades de </tspan><tspan x="-44.563" y="39">seguimiento</tspan></text>
    <text id="Preparación_de_actividades" data-name="Preparación de actividades" transform="translate(493.896 4019.685)" fill="#0e0e0e" font-size="16" font-family="Roboto-Bold, Roboto" font-weight="700"><tspan x="-54.406" y="17">Preparación de </tspan><tspan x="-41.191" y="39">actividades</tspan></text>
    <text id="Preparación_del_informe_" data-name="Preparación del informe   " transform="translate(814.041 4019.685)" fill="#0e0e0e" font-size="16" font-family="Roboto-Bold, Roboto" font-weight="700"><tspan x="-56.527" y="17">Preparación del </tspan><tspan x="-28.16" y="39" xml:space="preserve">informe   </tspan></text>
  </g>
</svg>
