<svg xmlns="http://www.w3.org/2000/svg" width="1088" height="811" viewBox="0 0 1088 811">
  <g id="Grupo_55651" data-name="Grupo 55651" transform="translate(-139 -2937)">
    <g id="Grupo_20668" data-name="Grupo 20668" transform="translate(139 3023.554)">
      <g id="Grupo_20664" data-name="Grupo 20664" transform="translate(0 0)">
        <path id="Trazado_99075" data-name="Trazado 99075" d="M29.581,0A29.581,29.581,0,1,1,0,29.581,29.581,29.581,0,0,1,29.581,0Z" fill="#6393db"/>
        <text id="_1" data-name="1" transform="translate(21 9.446)" fill="#fff" font-size="30" font-family="Roboto-Black, Roboto" font-weight="800"><tspan x="0" y="31">1</tspan></text>
      </g>
    </g>
    <g id="Grupo_20706" data-name="Grupo 20706" transform="translate(139 3438.68)">
      <g id="Grupo_20664-2" data-name="Grupo 20664" transform="translate(0 0)">
        <path id="Trazado_99077" data-name="Trazado 99077" d="M29.581,0A29.581,29.581,0,1,1,0,29.581,29.581,29.581,0,0,1,29.581,0Z" fill="#6393db"/>
        <text id="_5" data-name="5" transform="translate(21 10.32)" fill="#fff" font-size="30" font-family="Roboto-Black, Roboto" font-weight="800"><tspan x="0" y="31">5</tspan></text>
      </g>
    </g>
    <g id="Grupo_53536" data-name="Grupo 53536" transform="translate(839.094 3229.638)">
      <g id="Grupo_20664-3" data-name="Grupo 20664" transform="translate(0 0)">
        <path id="Trazado_99077-2" data-name="Trazado 99077" d="M29.581,0A29.581,29.581,0,1,1,0,29.581,29.581,29.581,0,0,1,29.581,0Z" fill="#6393db"/>
        <text id="_3" data-name="3" transform="translate(20.906 9.362)" fill="#fff" font-size="30" font-family="Roboto-Black, Roboto" font-weight="800"><tspan x="0" y="31">3</tspan></text>
      </g>
    </g>
    <g id="Grupo_20707" data-name="Grupo 20707" transform="translate(839.094 3655.61)">
      <g id="Grupo_20664-4" data-name="Grupo 20664" transform="translate(0 0)">
        <path id="Trazado_99078" data-name="Trazado 99078" d="M29.581,0A29.581,29.581,0,1,1,0,29.581,29.581,29.581,0,0,1,29.581,0Z" fill="#6393db"/>
        <text id="_7" data-name="7" transform="translate(20.906 9.39)" fill="#fff" font-size="30" font-family="Roboto-Black, Roboto" font-weight="800"><tspan x="0" y="31">7</tspan></text>
      </g>
    </g>
    <path id="Trazado_2373" data-name="Trazado 2373" d="M-7217-7744v67.891h700.232v86.785" transform="translate(7385.582 10826.717)" fill="none" stroke="#6393db" stroke-width="3"/>
    <path id="Trazado_2374" data-name="Trazado 2374" d="M0,145.854V77.963H700.232v-90.31" transform="translate(168.582 3300.806)" fill="none" stroke="#6393db" stroke-width="3"/>
    <path id="Trazado_2375" data-name="Trazado 2375" d="M700.232,145.854V77.963H0v-90.31" transform="translate(168.582 3510.873)" fill="none" stroke="#6393db" stroke-width="3"/>
    <g id="Grupo_53534" data-name="Grupo 53534" transform="translate(211.968 2992)">
      <rect id="Rectángulo_4911" data-name="Rectángulo 4911" width="255.581" height="86.772" rx="21" transform="translate(44.178 7.888)" fill="#badb4c" opacity="0.2"/>
      <g id="Grupo_20708" data-name="Grupo 20708" transform="translate(121.089 30.074)">
        <text id="Formular_el_plan_de_auditoría._" data-name="Formular el plan de auditoría. " transform="translate(0 0)" fill="#12263f" font-size="16" font-family="Roboto-Bold, Roboto" font-weight="700"><tspan x="0" y="17">Formular el plan de </tspan><tspan x="0" y="39">auditoría. </tspan></text>
      </g>
      <g id="Grupo_53528" data-name="Grupo 53528">
        <g id="Elipse_3965" data-name="Elipse 3965" transform="translate(0.032)" fill="#fff" stroke="#6393db" stroke-width="4">
          <circle cx="51.5" cy="51.5" r="51.5" stroke="none"/>
          <circle cx="51.5" cy="51.5" r="49.5" fill="none"/>
        </g>
        <g id="Grupo_53527" data-name="Grupo 53527" transform="translate(18.138 23.32)">
          <path id="Trazado_99651" data-name="Trazado 99651" d="M1108.3,815.9h64.075a2.72,2.72,0,0,1,2.2,2.2v34.805a2.721,2.721,0,0,1-2.2,2.2h-57.7a6.372,6.372,0,0,1-6.373-6.37Z" transform="translate(-1108.304 -803.157)" fill="#e1f1ff" fill-rule="evenodd"/>
          <path id="Trazado_99652" data-name="Trazado 99652" d="M1114.677,786a6.375,6.375,0,0,0-6.373,6.373v39.208a6.375,6.375,0,0,1,6.373-6.373,5.982,5.982,0,0,1,3.159.837.441.441,0,0,0,.679-.415V788.1a1.541,1.541,0,0,0-.774-1.314,6.306,6.306,0,0,0-3.064-.786Z" transform="translate(-1108.304 -786)" fill="#cbe2ff" fill-rule="evenodd"/>
          <path id="Trazado_99653" data-name="Trazado 99653" d="M1145.728,827.875h9.514a.973.973,0,0,1,.973.968v9.518a.974.974,0,0,1-.973.973h-9.514a.974.974,0,0,1-.972-.973v-9.518A.973.973,0,0,1,1145.728,827.875Z" transform="translate(-1129.22 -810.028)" fill="#cbe2ff" fill-rule="evenodd"/>
          <path id="Trazado_99654" data-name="Trazado 99654" d="M1196.573,827.84a.97.97,0,0,1,0,1.941h-13.536a.97.97,0,0,1,0-1.941Zm-5.625,9.547a.971.971,0,0,1,0,1.941h-7.911a.971.971,0,0,1,0-1.941Zm5.625-4.773a.97.97,0,0,1,0,1.941h-13.536a.97.97,0,0,1,0-1.941Z" transform="translate(-1150.63 -810.008)" fill="#365e7d"/>
          <g id="Grupo_53527-2" data-name="Grupo 53527" transform="translate(14.427 0)">
            <path id="Trazado_99655" data-name="Trazado 99655" d="M1239.773,801.321l-4.466-1.357-4.08,1.357v31.859l4.3,1.116,4.245-1.116Z" transform="translate(-1193.266 -794.013)" fill="#ff6978" fill-rule="evenodd"/>
            <path id="Trazado_99656" data-name="Trazado 99656" d="M1236.036,885.251l1.6-3.144,2.135-4.2h-8.546l2.136,4.2,1.6,3.144a.588.588,0,0,0,1.079,0Z" transform="translate(-1193.265 -838.734)" fill="#ffdecf" fill-rule="evenodd"/>
            <path id="Trazado_99657" data-name="Trazado 99657" d="M1239.773,793.309v-4.693A2.622,2.622,0,0,0,1237.16,786h-3.32a2.622,2.622,0,0,0-2.613,2.616v4.693Z" transform="translate(-1193.266 -786)" fill="#ff8793" fill-rule="evenodd"/>
            <path id="Trazado_99658" data-name="Trazado 99658" d="M1143.8,889.171h6.516l1.068-3.541-1.068-2.752H1143.8a2.039,2.039,0,0,0-1.64,1.641v3.012a2.039,2.039,0,0,0,1.64,1.64Z" transform="translate(-1142.156 -841.589)" fill="#ffe5a0" fill-rule="evenodd"/>
            <path id="Trazado_99659" data-name="Trazado 99659" d="M1161.294,880.156h8.153l1.119-4.025-1.119-6.186V868.8a2.021,2.021,0,0,0-1.637-1.636h-4.88a2.022,2.022,0,0,0-1.637,1.636Z" transform="translate(-1153.138 -832.574)" fill="#b3e59f" fill-rule="evenodd"/>
            <path id="Trazado_99660" data-name="Trazado 99660" d="M1180.424,883.9h8.156l.826-2.715-.826-3.577V875.32a2.021,2.021,0,0,0-1.64-1.636h-6.517Z" transform="translate(-1164.114 -836.314)" fill="#ffe5a0" fill-rule="evenodd"/>
            <path id="Trazado_99661" data-name="Trazado 99661" d="M1199.562,889.171h6.516a2.031,2.031,0,0,0,1.637-1.64v-3.012a2.031,2.031,0,0,0-1.637-1.641h-6.516Z" transform="translate(-1175.096 -841.589)" fill="#b3e59f" fill-rule="evenodd"/>
          </g>
          <path id="Trazado_99662" data-name="Trazado 99662" d="M1238.82,814.591a1.039,1.039,0,0,1,2.073,0v20.991a1.039,1.039,0,0,1-2.073,0Z" transform="translate(-1183.195 -801.847)" fill="#db4b59"/>
          <path id="Trazado_99663" data-name="Trazado 99663" d="M1150.509,838.516a.97.97,0,0,1,1.372-1.372l.932.932,2.55-2.55a.97.97,0,1,1,1.372,1.372l-3.236,3.236a.966.966,0,0,1-1.372,0Z" transform="translate(-1132.357 -814.255)" fill="#95d6a4"/>
          <path id="Trazado_99664" data-name="Trazado 99664" d="M1169.879,851.871h-57.7a6.366,6.366,0,0,1-2.59-.546,6.382,6.382,0,0,0,5.827,3.783h57.7a2.721,2.721,0,0,0,2.2-2.2V818.1a2.721,2.721,0,0,0-2.2-2.2h-1.039V849.67a2.719,2.719,0,0,1-2.2,2.2Z" transform="translate(-1109.04 -803.156)" fill="#cbe2ff" fill-rule="evenodd"/>
          <path id="Trazado_99665" data-name="Trazado 99665" d="M1121.682,798.743v26.491a5.785,5.785,0,0,1,2.558.811.441.441,0,0,0,.679-.415V788.1a1.541,1.541,0,0,0-.774-1.314,6.31,6.31,0,0,0-3.064-.785,6.513,6.513,0,0,0-1.618.206,6.361,6.361,0,0,1,1.446.58,1.541,1.541,0,0,1,.774,1.314Z" transform="translate(-1114.707 -786)" fill="#bed8fb" fill-rule="evenodd"/>
          <path id="Trazado_99666" data-name="Trazado 99666" d="M1243.684,803.149v31.859h3.236V803.149Z" transform="translate(-1185.986 -795.84)" fill="#eb616f" fill-rule="evenodd"/>
          <path id="Trazado_99667" data-name="Trazado 99667" d="M1240.167,788.616v4.693h3.236v-4.693a2.621,2.621,0,0,0-2.612-2.616h-3.236a2.621,2.621,0,0,1,2.612,2.616Z" transform="translate(-1182.469 -786)" fill="#f77b87" fill-rule="evenodd"/>
        </g>
      </g>
    </g>
    <g id="Grupo_20705" data-name="Grupo 20705" transform="translate(597.512 3114.27)">
      <g id="Grupo_20664-5" data-name="Grupo 20664" transform="translate(0 0)">
        <path id="Trazado_99076" data-name="Trazado 99076" d="M29.581,0A29.581,29.581,0,1,1,0,29.581,29.581,29.581,0,0,1,29.581,0Z" fill="#6393db"/>
        <text id="_2" data-name="2" transform="translate(20.488 9.73)" fill="#fff" font-size="30" font-family="Roboto-Black, Roboto" font-weight="800"><tspan x="0" y="31">2</tspan></text>
      </g>
    </g>
    <rect id="Rectángulo_5117" data-name="Rectángulo 5117" width="293.051" height="81.842" rx="21" transform="translate(616.247 3000.874)" fill="#badb4c" opacity="0.2"/>
    <rect id="Rectángulo_5124" data-name="Rectángulo 5124" width="241.776" height="81.842" rx="21" transform="translate(256.34 3435.722)" fill="#badb4c" opacity="0.2"/>
    <text id="Formular_el_propósito_y_metas_generales_de_la_auditoría._" data-name="Formular el propósito y metas generales de la auditoría. " transform="translate(681 3023)" fill="#12263f" font-size="16" font-family="Roboto-Bold, Roboto" font-weight="700"><tspan x="0" y="17">Formular el propósito y metas </tspan><tspan x="0" y="39">generales de la auditoría. </tspan></text>
    <g id="Elipse_3965-2" data-name="Elipse 3965" transform="translate(572 2992)" fill="#fff" stroke="#6393db" stroke-width="4">
      <ellipse cx="51" cy="51.5" rx="51" ry="51.5" stroke="none"/>
      <ellipse cx="51" cy="51.5" rx="49" ry="49.5" fill="none"/>
    </g>
    <g id="Grupo_53540" data-name="Grupo 53540" transform="translate(211.968 3426.848)">
      <g id="Elipse_3965-3" data-name="Elipse 3965" transform="translate(0.032 0.152)" fill="#fff" stroke="#6393db" stroke-width="4">
        <ellipse cx="51.5" cy="51" rx="51.5" ry="51" stroke="none"/>
        <ellipse cx="51.5" cy="51" rx="49.5" ry="49" fill="none"/>
      </g>
      <g id="Grupo_53563" data-name="Grupo 53563" transform="translate(-572.808 -566.317)">
        <g id="Grupo_53562" data-name="Grupo 53562" transform="translate(594 587.13)">
          <g id="Grupo_53561" data-name="Grupo 53561" transform="translate(0 0)">
            <g id="Grupo_53560" data-name="Grupo 53560">
              <g id="Grupo_53558" data-name="Grupo 53558" transform="translate(0 33.887)">
                <g id="Grupo_53557" data-name="Grupo 53557">
                  <g id="Grupo_53556" data-name="Grupo 53556">
                    <g id="Grupo_53555" data-name="Grupo 53555">
                      <g id="Grupo_53554" data-name="Grupo 53554">
                        <g id="Grupo_53553" data-name="Grupo 53553" transform="translate(4.979 3.319)">
                          <g id="Grupo_53552" data-name="Grupo 53552">
                            <path id="Trazado_99764" data-name="Trazado 99764" d="M641.023,700.462l-.339-.28v-1.3l.356-.244.007-.958a5.013,5.013,0,0,0-4.3-4.45l-10.559-1.205c-2.436-.342-3.653-1.151-5.776-2.383a19.046,19.046,0,0,0-9.556-2.568h-3.476v13.933l13.672,5.09a10.413,10.413,0,0,0,3.634.655h14.09a10.4,10.4,0,0,0,5.57-1.617l8.085-5.125a6.515,6.515,0,0,0,3.538-6.128Z" transform="translate(-607.374 -687.073)" fill="#ffddce"/>
                            <path id="Trazado_99765" data-name="Trazado 99765" d="M624.694,719.078H638.8a10.314,10.314,0,0,0,5.574-1.639L662.034,706.1a3.17,3.17,0,0,0,.5-4.115c-.959-1.428-2.546-1.676-4.292-.84l-2.9,1.3a6.291,6.291,0,0,1-2.877,5.3l-8.092,5.2a10.314,10.314,0,0,1-5.574,1.639H624.717a10.42,10.42,0,0,1-3.675-.67l-13.668-5.154v4.5l13.686,5.161a10.3,10.3,0,0,0,3.633.663Z" transform="translate(-607.374 -695.607)" fill="#ffcbbe"/>
                            <g id="Grupo_53551" data-name="Grupo 53551" transform="translate(32.479 7.674)">
                              <path id="Trazado_99766" data-name="Trazado 99766" d="M694.62,707.688v.067l.045-.019-.044-.048Z" transform="translate(-694.62 -707.688)" fill="#f5dbcc"/>
                            </g>
                          </g>
                        </g>
                        <path id="Trazado_99767" data-name="Trazado 99767" d="M600.144,703.763H595.8a1.8,1.8,0,0,1-1.8-1.8V679.956a1.8,1.8,0,0,1,1.8-1.8h4.346a1.8,1.8,0,0,1,1.8,1.8v22.009A1.8,1.8,0,0,1,600.144,703.763Z" transform="translate(-594 -678.158)" fill="#407093"/>
                      </g>
                    </g>
                  </g>
                </g>
              </g>
              <g id="Grupo_53559" data-name="Grupo 53559" transform="translate(12.683)">
                <path id="Trazado_99768" data-name="Trazado 99768" d="M655.837,605.408a18.093,18.093,0,0,0-12.314-17.144,3.187,3.187,0,0,0-1.724-.085,17.59,17.59,0,0,0-6.235,2.779l-3.194,2.893a17.673,17.673,0,0,0,9.43,28.786,3.186,3.186,0,0,0,1.723-.085,18.093,18.093,0,0,0,12.313-17.144Z" transform="translate(-628.068 -587.738)" fill="#f7a416"/>
                <path id="Trazado_99769" data-name="Trazado 99769" d="M669.012,587.13a17.709,17.709,0,0,0-3.866.426,17.673,17.673,0,0,1,0,34.489,17.671,17.671,0,1,0,3.866-34.914Z" transform="translate(-651.343 -587.13)" fill="#b97b10"/>
                <path id="Trazado_99770" data-name="Trazado 99770" d="M667.057,623.029l.528-9.822a.448.448,0,0,0-.472-.472l-9.822.529a.448.448,0,0,0-.293.764l2.165,2.165a.449.449,0,0,1,0,.634l-7.373,7.372a.448.448,0,0,0,0,.634l3.7,3.7a.449.449,0,0,0,.634,0l7.372-7.373a.448.448,0,0,1,.634,0l2.165,2.165A.448.448,0,0,0,667.057,623.029Z" transform="translate(-642.877 -603.202)" fill="#f4fbff"/>
              </g>
            </g>
          </g>
          <path id="Trazado_99771" data-name="Trazado 99771" d="M671.53,716.368H661.214a.912.912,0,0,0-.916.778.89.89,0,0,0,.882,1h10.35Z" transform="translate(-635.613 -668.256)" fill="#ffcbbe"/>
        </g>
      </g>
    </g>
    <text id="Establecimiento_de_medidas_correctivas." data-name="Establecimiento de medidas correctivas." transform="translate(325.168 3455.325)" fill="#12263f" font-size="16" font-family="Roboto-Bold, Roboto" font-weight="700"><tspan x="0" y="17">Establecimiento de </tspan><tspan x="0" y="39">medidas correctivas.</tspan></text>
    <g id="Grupo_53538" data-name="Grupo 53538" transform="translate(597.512 3349.936)">
      <g id="Grupo_20664-6" data-name="Grupo 20664" transform="translate(0 0)">
        <path id="Trazado_99077-3" data-name="Trazado 99077" d="M29.581,0A29.581,29.581,0,1,1,0,29.581,29.581,29.581,0,0,1,29.581,0Z" fill="#6393db"/>
        <text id="_4" data-name="4" transform="translate(20.488 10.064)" fill="#fff" font-size="30" font-family="Roboto-Black, Roboto" font-weight="800"><tspan x="0" y="31">4</tspan></text>
      </g>
    </g>
    <g id="Grupo_53541" data-name="Grupo 53541" transform="translate(433.828 3558.978)">
      <g id="Grupo_20664-7" data-name="Grupo 20664" transform="translate(0 0)">
        <path id="Trazado_99077-4" data-name="Trazado 99077" d="M29.581,0A29.581,29.581,0,1,1,0,29.581,29.581,29.581,0,0,1,29.581,0Z" fill="#6393db"/>
        <text id="_6" data-name="6" transform="translate(21.172 10.022)" fill="#fff" font-size="30" font-family="Roboto-Black, Roboto" font-weight="800"><tspan x="0" y="31">6</tspan></text>
      </g>
    </g>
    <g id="Grupo_53544" data-name="Grupo 53544" transform="translate(-340.391 2182.066)">
      <circle id="Elipse_3966" data-name="Elipse 3966" cx="35.435" cy="35.435" r="35.435" transform="translate(927.391 827)" fill="#f7a416"/>
      <path id="Trazado_99668" data-name="Trazado 99668" d="M1028.435,862.435A35.436,35.436,0,0,1,993,897.869V827A35.436,35.436,0,0,1,1028.435,862.435Z" transform="translate(-30.174)" fill="#b97b10"/>
      <circle id="Elipse_3967" data-name="Elipse 3967" cx="26.576" cy="26.576" r="26.576" transform="translate(936.25 835.859)" fill="#f5f0ef"/>
      <path id="Trazado_99669" data-name="Trazado 99669" d="M1019.576,869.978A26.576,26.576,0,0,1,993,896.554V843.4A26.576,26.576,0,0,1,1019.576,869.978Z" transform="translate(-30.174 -7.543)" fill="#e0d2ce"/>
      <circle id="Elipse_3968" data-name="Elipse 3968" cx="17.717" cy="17.717" r="17.717" transform="translate(945.109 844.717)" fill="#f7a416"/>
      <path id="Trazado_99670" data-name="Trazado 99670" d="M1010.717,877.522A17.718,17.718,0,0,1,993,895.239V859.8A17.718,17.718,0,0,1,1010.717,877.522Z" transform="translate(-30.174 -15.087)" fill="#b97b10"/>
      <circle id="Elipse_3969" data-name="Elipse 3969" cx="8.859" cy="8.859" r="8.859" transform="translate(953.967 853.576)" fill="#f5f0ef"/>
      <path id="Trazado_99671" data-name="Trazado 99671" d="M1001.859,885.066A8.858,8.858,0,0,1,993,893.924V876.207A8.858,8.858,0,0,1,1001.859,885.066Z" transform="translate(-30.174 -22.631)" fill="#e0d2ce"/>
      <path id="Trazado_99672" data-name="Trazado 99672" d="M1013.061,853.775,990.5,876.336l-2.936-2.936,2.936-2.936,19.623-19.624Z" transform="translate(-27.674 -10.964)" fill="#4a6ea4"/>
      <path id="Trazado_99673" data-name="Trazado 99673" d="M1015.561,853.775,993,876.336v-5.872l19.623-19.624Z" transform="translate(-30.174 -10.964)" fill="#4a6ea4"/>
      <path id="Trazado_99674" data-name="Trazado 99674" d="M1027.575,850.992l9.689-9.689-5.53-2.619-2.619-5.531-9.689,9.689,2.619,5.531Z" transform="translate(-42.328 -2.83)" fill="#6393db"/>
    </g>
    <g id="Grupo_53844" data-name="Grupo 53844" transform="translate(-40 489.613)">
      <rect id="Rectángulo_5123" data-name="Rectángulo 5123" width="267.414" height="81.842" rx="21" transform="translate(399.68 2731.261)" fill="#badb4c" opacity="0.2"/>
      <g id="Elipse_3965-4" data-name="Elipse 3965" transform="translate(616 2722.387)" fill="#fff" stroke="#6393db" stroke-width="4">
        <circle cx="51.274" cy="51.274" r="51.274" stroke="none"/>
        <circle cx="51.274" cy="51.274" r="49.274" fill="none"/>
      </g>
      <text id="Seguimiento_de_la_ejecución_del_programa." data-name="Seguimiento de la ejecución del programa." transform="translate(428.471 2751.235)" fill="#12263f" font-size="16" font-family="Roboto-Bold, Roboto" font-weight="700"><tspan x="0" y="17">Seguimiento de la </tspan><tspan x="0" y="39">ejecución del programa.</tspan></text>
      <g id="Grupo_53548" data-name="Grupo 53548" transform="translate(301 1982.004)">
        <path id="Trazado_99713" data-name="Trazado 99713" d="M340.9,763.846h42.868a3.9,3.9,0,0,1,3.9,3.9v52.611a3.9,3.9,0,0,1-3.9,3.9H340.9a3.9,3.9,0,0,1-3.9-3.9V767.743A3.9,3.9,0,0,1,340.9,763.846Z" transform="translate(0 -2.897)" fill="#ecce93"/>
        <path id="Trazado_99714" data-name="Trazado 99714" d="M346.692,813.315V773.537H389.56v52.611H359.525Z" transform="translate(-5.795 -8.692)" fill="#efefef"/>
        <path id="Trazado_99715" data-name="Trazado 99715" d="M359.411,872.574v12.833l-12.833-12.833Z" transform="translate(-5.727 -67.905)" fill="#e76e54"/>
        <path id="Trazado_99716" data-name="Trazado 99716" d="M375.766,766.794V759h19.486v7.794a3.9,3.9,0,0,1-3.9,3.9H379.663A3.9,3.9,0,0,1,375.766,766.794Z" transform="translate(-23.178 0)" fill="#e76e54"/>
        <path id="Trazado_99717" data-name="Trazado 99717" d="M439.849,844.365a17.537,17.537,0,1,1-17.537-17.537A17.537,17.537,0,0,1,439.849,844.365Z" transform="translate(-40.522 -40.554)" fill="#6393db"/>
        <path id="Trazado_99718" data-name="Trazado 99718" d="M431.933,869.662l-3.776-3.778a1.948,1.948,0,1,1,2.755-2.756l1.263,1.261L441,857.034a1.949,1.949,0,0,1,2.5,2.995Z" transform="translate(-54.161 -58.343)" fill="#fff"/>
        <g id="Grupo_53547" data-name="Grupo 53547" transform="translate(348.691 774.588)">
          <path id="Trazado_99719" data-name="Trazado 99719" d="M387.341,797.766h15.537a1.982,1.982,0,0,1,1.988,1.727,1.949,1.949,0,0,1-1.936,2.17H387.392a1.982,1.982,0,0,1-1.987-1.727A1.949,1.949,0,0,1,387.341,797.766Z" transform="translate(-377.625 -797.766)" fill="#77959e"/>
          <path id="Trazado_99720" data-name="Trazado 99720" d="M366.075,797.766h3.9v3.9h-3.9Z" transform="translate(-366.075 -797.766)" fill="#77959e"/>
          <path id="Trazado_99721" data-name="Trazado 99721" d="M366.075,817.15h3.9v3.9h-3.9Z" transform="translate(-366.075 -809.356)" fill="#77959e"/>
          <path id="Trazado_99722" data-name="Trazado 99722" d="M366.075,836.533h3.9v3.9h-3.9Z" transform="translate(-366.075 -820.944)" fill="#77959e"/>
          <path id="Trazado_99723" data-name="Trazado 99723" d="M366.075,855.916h3.9v3.9h-3.9Z" transform="translate(-366.075 -832.533)" fill="#77959e"/>
          <path id="Trazado_99724" data-name="Trazado 99724" d="M387.341,817.15h11.64a1.982,1.982,0,0,1,1.988,1.727,1.949,1.949,0,0,1-1.936,2.17h-11.64a1.981,1.981,0,0,1-1.987-1.727A1.949,1.949,0,0,1,387.341,817.15Z" transform="translate(-377.625 -809.356)" fill="#77959e"/>
          <path id="Trazado_99725" data-name="Trazado 99725" d="M387.341,836.533h3.846a1.982,1.982,0,0,1,1.988,1.727,1.949,1.949,0,0,1-1.936,2.171h-3.846A1.982,1.982,0,0,1,385.4,838.7,1.949,1.949,0,0,1,387.341,836.533Z" transform="translate(-377.625 -820.944)" fill="#77959e"/>
        </g>
      </g>
    </g>
    <g id="Grupo_53843" data-name="Grupo 53843" transform="translate(-40 497.057)">
      <rect id="Rectángulo_5122" data-name="Rectángulo 5122" width="273.33" height="81.842" rx="21" transform="translate(993.67 2723.819)" fill="#badb4c" opacity="0.2"/>
      <g id="Elipse_3965-5" data-name="Elipse 3965" transform="translate(949.298 2714.944)" fill="#fff" stroke="#6393db" stroke-width="4">
        <circle cx="51.274" cy="51.274" r="51.274" stroke="none"/>
        <circle cx="51.274" cy="51.274" r="49.274" fill="none"/>
      </g>
      <text id="Determinar_modalidades_o_formas_en_las_que_se_va_a_realizar_la_auditoría._" data-name="Determinar modalidades o formas en las que se va a realizar la auditoría. " transform="translate(1062 2733)" fill="#12263f" font-size="16" font-family="Roboto-Bold, Roboto" font-weight="700"><tspan x="0" y="17">Determinar modalidades o </tspan><tspan x="0" y="39">formas en las que se va a </tspan><tspan x="0" y="61">realizar la auditoría. </tspan></text>
      <g id="Grupo_53550" data-name="Grupo 53550" transform="translate(373.607 1938.638)">
        <path id="Trazado_99726" data-name="Trazado 99726" d="M673.308,960.551l-2.881-9.6H659.758l-2.881,9.6h-3.521v2.134h23.473v-2.134Z" transform="translate(-38.151 -101.736)" fill="#e0e0de"/>
        <path id="Trazado_99727" data-name="Trazado 99727" d="M682.335,954.15l-.96-3.2h-10.67l-.96,3.2Z" transform="translate(-49.053 -101.736)" fill="#d6d6d4"/>
        <path id="Trazado_99728" data-name="Trazado 99728" d="M649.346,823.492h5.335a3.2,3.2,0,0,1,3.2,3.2v33.075H596V826.693a3.2,3.2,0,0,1,3.2-3.2h3.2" transform="translate(0 -16.956)" fill="#348fd9"/>
        <path id="Trazado_99729" data-name="Trazado 99729" d="M596,931.831v3.2a3.2,3.2,0,0,0,3.2,3.2h55.48a3.2,3.2,0,0,0,3.2-3.2v-3.2Z" transform="translate(0 -89.02)" fill="#e0e0de"/>
        <path id="Trazado_99730" data-name="Trazado 99730" d="M653.529,798H618.32a3.2,3.2,0,0,0-3.2,3.2v41.61H664.2V808.669Z" transform="translate(-12.717)" fill="#a1bee9"/>
        <path id="Trazado_99731" data-name="Trazado 99731" d="M637.424,856.588h41.61V822.446l-3.734-3.734Z" transform="translate(-27.554 -13.777)" fill="#82a9e2"/>
        <path id="Trazado_99732" data-name="Trazado 99732" d="M624.678,807.559h2.134v2.134h-2.134Z" transform="translate(-19.076 -6.358)" fill="#fff"/>
        <path id="Trazado_99733" data-name="Trazado 99733" d="M637.424,807.559h2.134v2.134h-2.134Z" transform="translate(-27.554 -6.358)" fill="#fff"/>
        <path id="Trazado_99734" data-name="Trazado 99734" d="M650.169,807.559H652.3v2.134h-2.134Z" transform="translate(-36.031 -6.358)" fill="#fff"/>
        <path id="Trazado_99735" data-name="Trazado 99735" d="M671.566,817.119h-12.8l-21.339,21.338,12.8,12.8,21.339-21.339Z" transform="translate(-27.554 -12.717)" fill="#f7a416"/>
        <path id="Trazado_99736" data-name="Trazado 99736" d="M684.473,817.119l-17.791,31.135,3.006,3.006,21.339-21.339v-12.8Z" transform="translate(-47.015 -12.717)" fill="#ffa912"/>
        <path id="Trazado_99737" data-name="Trazado 99737" d="M719.357,830.98a2.134,2.134,0,1,1,2.134-2.134A2.134,2.134,0,0,1,719.357,830.98Z" transform="translate(-80.633 -19.099)" fill="#bdd5f4"/>
        <path id="Trazado_99738" data-name="Trazado 99738" d="M654.428,876.95l1.509-1.509,7.468,7.468-1.508,1.509Z" transform="translate(-38.864 -51.511)" fill="#b97b10"/>
        <path id="Trazado_99739" data-name="Trazado 99739" d="M663.987,867.391l1.509-1.509,7.468,7.468-1.509,1.509Z" transform="translate(-45.223 -45.153)" fill="#b97b10"/>
        <path id="Trazado_99740" data-name="Trazado 99740" d="M691.761,852.247l-5.335-1.067-1.067-5.335,3.2-3.2,5.335,1.067,1.067,5.335Z" transform="translate(-59.439 -29.696)" fill="#b97b10"/>
        <g id="Grupo_53549" data-name="Grupo 53549" transform="translate(605.602 807.602)">
          <path id="Trazado_99741" data-name="Trazado 99741" d="M624.678,826.678h10.669v2.134H624.678Z" transform="translate(-624.678 -826.678)" fill="#fff"/>
          <path id="Trazado_99742" data-name="Trazado 99742" d="M624.678,839.424h10.669v2.134H624.678Z" transform="translate(-624.678 -835.156)" fill="#fff"/>
          <path id="Trazado_99743" data-name="Trazado 99743" d="M624.678,852.169h6.4V854.3h-6.4Z" transform="translate(-624.678 -843.634)" fill="#fff"/>
          <path id="Trazado_99744" data-name="Trazado 99744" d="M745.763,890.407H747.9v2.134h-2.134Z" transform="translate(-705.22 -869.068)" fill="#fff"/>
          <path id="Trazado_99745" data-name="Trazado 99745" d="M720.271,903.153H730.94v2.134H720.271Z" transform="translate(-688.263 -877.547)" fill="#fff"/>
          <path id="Trazado_99746" data-name="Trazado 99746" d="M720.271,915.9H730.94v2.134H720.271Z" transform="translate(-688.263 -886.024)" fill="#fff"/>
          <path id="Trazado_99747" data-name="Trazado 99747" d="M720.271,890.407h6.4v2.134h-6.4Z" transform="translate(-688.263 -869.068)" fill="#fff"/>
          <path id="Trazado_99748" data-name="Trazado 99748" d="M624.678,903.153h7.469v2.134h-7.469Z" transform="translate(-624.678 -877.547)" fill="#fff"/>
          <path id="Trazado_99749" data-name="Trazado 99749" d="M624.678,915.9h10.669v2.134H624.678Z" transform="translate(-624.678 -886.024)" fill="#fff"/>
        </g>
        <path id="Trazado_99750" data-name="Trazado 99750" d="M740.5,808.669h-6.4a4.267,4.267,0,0,1-4.267-4.267V798Z" transform="translate(-89.02)" fill="#bdd5f4"/>
        <path id="Trazado_99751" data-name="Trazado 99751" d="M615.119,925.458H664.2v2.134H615.119Z" transform="translate(-12.717 -84.781)" fill="#82a9e2"/>
        <path id="Trazado_99752" data-name="Trazado 99752" d="M596,925.458h6.4v2.134H596Z" transform="translate(0 -84.781)" fill="#3086cd"/>
        <path id="Trazado_99753" data-name="Trazado 99753" d="M761.7,823.492h2.134v36.276H761.7Z" transform="translate(-110.215 -16.956)" fill="#3086cd"/>
        <path id="Trazado_99754" data-name="Trazado 99754" d="M761.7,925.458h6.4v2.134h-6.4Z" transform="translate(-110.215 -84.781)" fill="#3086cd"/>
        <path id="Trazado_99755" data-name="Trazado 99755" d="M752.736,951.431l-10.007-10.007-3.2,3.2,10.007,10.007a2.263,2.263,0,1,0,3.2-3.2Z" transform="translate(-95.47 -95.401)" fill="#f35244"/>
        <path id="Trazado_99756" data-name="Trazado 99756" d="M745.917,944.612l-3.188-3.188-3.2,3.2,3.188,3.188A16.061,16.061,0,0,0,745.917,944.612Z" transform="translate(-95.47 -95.401)" fill="#de4132"/>
        <path id="Trazado_99757" data-name="Trazado 99757" d="M698.248,887.327a16,16,0,1,1-16-16A16,16,0,0,1,698.248,887.327Z" transform="translate(-46.721 -48.772)" fill="#f35244"/>
        <path id="Trazado_99758" data-name="Trazado 99758" d="M702.459,895.8a11.736,11.736,0,1,1-11.736-11.736A11.736,11.736,0,0,1,702.459,895.8Z" transform="translate(-55.199 -57.25)" fill="#82a9e2"/>
        <path id="Trazado_99759" data-name="Trazado 99759" d="M704.564,900.043a9.6,9.6,0,1,1-9.6-9.6A9.6,9.6,0,0,1,704.564,900.043Z" transform="translate(-59.439 -61.489)" fill="#bdd5f4"/>
        <path id="Trazado_99760" data-name="Trazado 99760" d="M678.986,908.521c5.676-7.113,17.8-7.113,23.473,0C696.782,915.634,684.662,915.634,678.986,908.521Z" transform="translate(-55.199 -69.966)" fill="#fff"/>
        <path id="Trazado_99761" data-name="Trazado 99761" d="M708.774,908.522a5.335,5.335,0,1,1-5.335-5.335A5.335,5.335,0,0,1,708.774,908.522Z" transform="translate(-67.917 -69.967)" fill="#348fd9"/>
        <path id="Trazado_99762" data-name="Trazado 99762" d="M709.417,906.571a16.177,16.177,0,0,1-7.214,7.744,5.316,5.316,0,1,0,7.214-7.744Z" transform="translate(-70.643 -72.218)" fill="#3086cd"/>
        <path id="Trazado_99763" data-name="Trazado 99763" d="M709.8,917.014a2.134,2.134,0,1,1,2.134-2.134A2.134,2.134,0,0,1,709.8,917.014Z" transform="translate(-74.275 -76.325)" fill="#2a71ad"/>
      </g>
    </g>
    <g id="Grupo_53846" data-name="Grupo 53846" transform="translate(-40 494)">
      <rect id="Rectángulo_5125" data-name="Rectángulo 5125" width="221.069" height="81.842" rx="21" transform="translate(498.479 3160.639)" fill="#badb4c" opacity="0.2"/>
      <g id="Elipse_3965-6" data-name="Elipse 3965" transform="translate(454 3152)" fill="#fff" stroke="#6393db" stroke-width="4">
        <ellipse cx="51.5" cy="51" rx="51.5" ry="51" stroke="none"/>
        <ellipse cx="51.5" cy="51" rx="49.5" ry="49" fill="none"/>
      </g>
      <text id="Aplicación_de_la_evaluación_final." data-name="Aplicación de la evaluación final." transform="translate(567 3179)" fill="#12263f" font-size="16" font-family="Roboto-Bold, Roboto" font-weight="700"><tspan x="0" y="17">Aplicación de la </tspan><tspan x="0" y="39">evaluación final.</tspan></text>
      <g id="Grupo_53566" data-name="Grupo 53566" transform="translate(430 2442.066)">
        <g id="Grupo_53565" data-name="Grupo 53565" transform="translate(51 725.937)">
          <path id="Trazado_99772" data-name="Trazado 99772" d="M201.275,750.374v3.767a1.926,1.926,0,0,1-1.726,1.937,1.889,1.889,0,0,1-2.081-1.9v-3.767a1.926,1.926,0,0,1,1.726-1.937A1.889,1.889,0,0,1,201.275,750.374Z" transform="translate(-147.966 -740.855)" fill="#4d6699"/>
          <path id="Trazado_99773" data-name="Trazado 99773" d="M203.1,756.086V748.47a1.885,1.885,0,0,1,1.9,1.9v3.808A1.885,1.885,0,0,1,203.1,756.086Z" transform="translate(-151.695 -740.855)" fill="#404b80"/>
          <path id="Trazado_99774" data-name="Trazado 99774" d="M201.275,897.592v3.767a1.927,1.927,0,0,1-1.726,1.937,1.889,1.889,0,0,1-2.081-1.9v-3.767a1.926,1.926,0,0,1,1.726-1.937A1.889,1.889,0,0,1,201.275,897.592Z" transform="translate(-147.966 -838.318)" fill="#4d6699"/>
          <path id="Trazado_99775" data-name="Trazado 99775" d="M205,897.592V901.4a1.885,1.885,0,0,1-1.9,1.9v-7.615A1.885,1.885,0,0,1,205,897.592Z" transform="translate(-151.695 -838.318)" fill="#404b80"/>
          <path id="Trazado_99776" data-name="Trazado 99776" d="M111.141,727.841v3.767a1.927,1.927,0,0,1-1.726,1.937,1.889,1.889,0,0,1-2.082-1.9v-3.767a1.927,1.927,0,0,1,1.727-1.937A1.889,1.889,0,0,1,111.141,727.841Z" transform="translate(-88.294 -725.937)" fill="#4d6699"/>
          <path id="Trazado_99777" data-name="Trazado 99777" d="M114.871,727.841v3.808a1.885,1.885,0,0,1-1.9,1.9v-7.615A1.885,1.885,0,0,1,114.871,727.841Z" transform="translate(-92.024 -725.937)" fill="#404b80"/>
          <path id="Trazado_99778" data-name="Trazado 99778" d="M92.885,750.4a1.9,1.9,0,0,0-1.9-1.9H52.9a1.9,1.9,0,0,0-1.9,1.9V803.96a1.9,1.9,0,0,0,1.9,1.9H90.981a1.9,1.9,0,0,0,1.9-1.9Z" transform="translate(-51 -740.871)" fill="#ffbe40"/>
          <path id="Trazado_99779" data-name="Trazado 99779" d="M133.909,803.96V750.4a1.9,1.9,0,0,0-1.9-1.9H112.967v57.37h19.039A1.9,1.9,0,0,0,133.909,803.96Z" transform="translate(-92.024 -740.871)" fill="#ff9f40"/>
          <path id="Trazado_99780" data-name="Trazado 99780" d="M85.113,756.031l-2.956-1.9h-5.5l-2.966,1.9H62.267v49.754h34.27V756.031Z" transform="translate(-58.459 -744.6)" fill="#f9f4f3"/>
          <path id="Trazado_99781" data-name="Trazado 99781" d="M130.1,756.031H118.679l-2.956-1.9h-2.755v51.658H130.1Z" transform="translate(-92.024 -744.6)" fill="#f0e6e1"/>
          <path id="Trazado_99782" data-name="Trazado 99782" d="M83.959,869.409l1.346-1.346a1.9,1.9,0,0,0-2.692-2.692l-1.346,1.346-1.346-1.346a1.9,1.9,0,0,0-2.692,2.692l1.346,1.346-1.346,1.346a1.9,1.9,0,0,0,2.692,2.692l1.346-1.346,1.346,1.346a1.9,1.9,0,1,0,2.692-2.692Z" transform="translate(-67.995 -817.878)" fill="#ff6673"/>
          <g id="Grupo_53564" data-name="Grupo 53564" transform="translate(22.791 26.789)">
            <path id="Trazado_99783" data-name="Trazado 99783" d="M135.415,809.01h-3.758a1.935,1.935,0,0,1-1.942-1.689,1.9,1.9,0,0,1,1.892-2.118h3.758a1.936,1.936,0,0,1,1.942,1.689A1.9,1.9,0,0,1,135.415,809.01Z" transform="translate(-125.896 -805.203)" fill="#b3ccff"/>
            <path id="Trazado_99784" data-name="Trazado 99784" d="M127.956,842.811H120.39a1.935,1.935,0,0,1-1.942-1.689A1.9,1.9,0,0,1,120.34,839h7.566a1.935,1.935,0,0,1,1.942,1.689A1.9,1.9,0,0,1,127.956,842.811Z" transform="translate(-118.437 -827.58)" fill="#b3ccff"/>
            <path id="Trazado_99785" data-name="Trazado 99785" d="M127.956,876.61H120.39a1.935,1.935,0,0,1-1.942-1.689,1.9,1.9,0,0,1,1.892-2.118h7.566a1.935,1.935,0,0,1,1.942,1.689A1.9,1.9,0,0,1,127.956,876.61Z" transform="translate(-118.437 -849.956)" fill="#b3ccff"/>
          </g>
          <path id="Trazado_99786" data-name="Trazado 99786" d="M77.736,793.511a1.9,1.9,0,0,0,2.692,0l6.269-6.269,1.346-1.346a1.9,1.9,0,1,0-2.692-2.692l-6.27,6.27-2.462-2.462a1.9,1.9,0,0,0-2.692,2.692Z" transform="translate(-65.81 -763.48)" fill="#7ed96c"/>
          <path id="Trazado_99787" data-name="Trazado 99787" d="M86.7,816.446a1.9,1.9,0,0,0-1.346.558l-6.27,6.27-2.462-2.462a1.9,1.9,0,0,0-2.692,2.692l3.808,3.808a1.9,1.9,0,0,0,2.692,0l6.27-6.269,1.346-1.346a1.9,1.9,0,0,0-1.346-3.25Z" transform="translate(-65.81 -785.857)" fill="#7ed96c"/>
          <path id="Trazado_99788" data-name="Trazado 99788" d="M114.479,783.393a1.9,1.9,0,0,0-1.512-.747v4.6l1.311-1.311A1.935,1.935,0,0,0,114.479,783.393Z" transform="translate(-92.024 -763.48)" fill="#48b348"/>
          <path id="Trazado_99789" data-name="Trazado 99789" d="M114.313,817a1.9,1.9,0,0,0-1.346-.558v4.6l1.346-1.346a1.9,1.9,0,0,0,0-2.692Z" transform="translate(-92.024 -785.857)" fill="#48b348"/>
          <path id="Trazado_99790" data-name="Trazado 99790" d="M105.664,741.035a3.808,3.808,0,0,0-3.808-3.808H94.241a3.808,3.808,0,0,0-3.808,3.808v1.9a1.9,1.9,0,0,0,1.9,1.9H103.76a1.9,1.9,0,0,0,1.9-1.9Z" transform="translate(-77.106 -733.411)" fill="#4d6699"/>
          <path id="Trazado_99791" data-name="Trazado 99791" d="M120.582,742.939v-1.9a3.808,3.808,0,0,0-3.808-3.808h-3.808v7.616h5.712A1.9,1.9,0,0,0,120.582,742.939Z" transform="translate(-92.024 -733.411)" fill="#404b80"/>
          <path id="Trazado_99792" data-name="Trazado 99792" d="M197.623,824.007v15.574a15.238,15.238,0,0,1-4.379,10.636,1.84,1.84,0,0,1-2.665,0,15.238,15.238,0,0,1-4.379-10.636V824.007l3.808-1.9h3.808Z" transform="translate(-140.507 -789.602)" fill="#cde2ff"/>
          <path id="Trazado_99793" data-name="Trazado 99793" d="M208.812,824.007v15.574a15.238,15.238,0,0,1-4.379,10.636,1.785,1.785,0,0,1-1.333.571V822.1H205Z" transform="translate(-151.695 -789.602)" fill="#b3ccff"/>
          <path id="Trazado_99794" data-name="Trazado 99794" d="M197.623,765.583v13.343l-3.808,1.9h-3.808l-3.808-1.9V765.6a5.713,5.713,0,1,1,11.423-.016Z" transform="translate(-140.507 -748.329)" fill="#cde2ff"/>
          <path id="Trazado_99795" data-name="Trazado 99795" d="M208.812,765.6v13.327L205,780.83h-1.9V759.761A5.813,5.813,0,0,1,208.812,765.6Z" transform="translate(-151.695 -748.33)" fill="#b3ccff"/>
          <path id="Trazado_99796" data-name="Trazado 99796" d="M186.2,816.469h11.423v3.808H186.2Z" transform="translate(-140.507 -785.872)" fill="#4d6699"/>
          <path id="Trazado_99797" data-name="Trazado 99797" d="M203.1,816.469h5.712v3.808H203.1Z" transform="translate(-151.695 -785.872)" fill="#404b80"/>
        </g>
      </g>
    </g>
    <g id="Grupo_53845" data-name="Grupo 53845" transform="translate(-40 493)">
      <rect id="Rectángulo_5126" data-name="Rectángulo 5126" width="240.79" height="81.842" rx="21" transform="translate(993.717 3161.354)" fill="#badb4c" opacity="0.2"/>
      <g id="Elipse_3965-7" data-name="Elipse 3965" transform="translate(949 3152)" fill="#fff" stroke="#6393db" stroke-width="4">
        <circle cx="51.5" cy="51.5" r="51.5" stroke="none"/>
        <circle cx="51.5" cy="51.5" r="49.5" fill="none"/>
      </g>
      <text id="Analizar_los_resultados._" data-name="Analizar los resultados. " transform="translate(1060 3192)" fill="#12263f" font-size="16" font-family="Roboto-Bold, Roboto" font-weight="700"><tspan x="0" y="17">Analizar los resultados. </tspan></text>
      <g id="Grupo_53569" data-name="Grupo 53569" transform="translate(757.871 2234.954)">
        <path id="Trazado_99798" data-name="Trazado 99798" d="M247.739,982.822a13.186,13.186,0,0,1,16.006-2.026V958.17H216v41.58a1.315,1.315,0,0,0,1.312,1.312H247.4A13.153,13.153,0,0,1,247.739,982.822Z" transform="translate(0 -12.087)" fill="#eef6ff"/>
        <path id="Trazado_99799" data-name="Trazado 99799" d="M219.372,999.749V958.17h-3.017v41.58a1.315,1.315,0,0,0,1.312,1.312H220.7A1.325,1.325,0,0,1,219.372,999.749Z" transform="translate(-0.224 -12.087)" fill="#c3ddf4"/>
        <path id="Trazado_99800" data-name="Trazado 99800" d="M263,939H216.75a.752.752,0,0,0-.75.75v6.727h47.745V939.75A.752.752,0,0,0,263,939Z" transform="translate(0 0)" fill="#293d7c"/>
        <path id="Trazado_99801" data-name="Trazado 99801" d="M220.132,939H217.1a.752.752,0,0,0-.75.75v6.727h3.017v-6.722A.76.76,0,0,1,220.132,939Z" transform="translate(-0.224 0)" fill="#1a2b63"/>
        <path id="Trazado_99802" data-name="Trazado 99802" d="M245.361,983.518a.658.658,0,0,1-.656.656h-14.56a.658.658,0,0,1-.656-.656V973.025a.658.658,0,0,1,.656-.656h14.56a.658.658,0,0,1,.656.656v10.494Z" transform="translate(-8.505 -21.039)" fill="#69cdff"/>
        <path id="Trazado_99803" data-name="Trazado 99803" d="M232.152,983.518V973.026a.663.663,0,0,1,.665-.657h-3.026a.658.658,0,0,0-.656.656v10.494a.658.658,0,0,0,.656.656h3.026A.663.663,0,0,1,232.152,983.518Z" transform="translate(-8.282 -21.039)" fill="#52bbef"/>
        <path id="Trazado_99804" data-name="Trazado 99804" d="M253.222,1039.108H230.146a.658.658,0,0,0-.656.656v6.3a.658.658,0,0,0,.656.656h22.933A13.28,13.28,0,0,1,253.222,1039.108Z" transform="translate(-8.505 -63.119)" fill="#ff9518"/>
        <path id="Trazado_99805" data-name="Trazado 99805" d="M232.152,1046.058v-6.292a.663.663,0,0,1,.665-.658h-3.026a.658.658,0,0,0-.656.656v6.3a.658.658,0,0,0,.656.656h3.026A.664.664,0,0,1,232.152,1046.058Z" transform="translate(-8.282 -63.119)" fill="#ef8318"/>
        <path id="Trazado_99806" data-name="Trazado 99806" d="M285.386,1039.108h-4.777v7.608h4.634A13.28,13.28,0,0,1,285.386,1039.108Z" transform="translate(-40.736 -63.119)" fill="#ffd00d"/>
        <g id="Grupo_53567" data-name="Grupo 53567" transform="translate(219.935 950.412)">
          <path id="Trazado_99807" data-name="Trazado 99807" d="M300.992,971.852H284.95a1.008,1.008,0,0,1-1.014-.86.984.984,0,0,1,.976-1.107h16.042a1.009,1.009,0,0,1,1.014.86A.984.984,0,0,1,300.992,971.852Z" transform="translate(-262.765 -969.885)" fill="#91e0e8"/>
          <path id="Trazado_99808" data-name="Trazado 99808" d="M300.992,982.146H284.95a1.009,1.009,0,0,1-1.014-.861.984.984,0,0,1,.976-1.107h16.042a1.009,1.009,0,0,1,1.014.861A.984.984,0,0,1,300.992,982.146Z" transform="translate(-262.765 -976.375)" fill="#91e0e8"/>
          <path id="Trazado_99809" data-name="Trazado 99809" d="M300.992,992.8H284.95a1.009,1.009,0,0,1-1.014-.86.984.984,0,0,1,.976-1.107h16.042a1.009,1.009,0,0,1,1.014.861A.984.984,0,0,1,300.992,992.8Z" transform="translate(-262.765 -983.09)" fill="#91e0e8"/>
          <path id="Trazado_99810" data-name="Trazado 99810" d="M300.992,1003.446H284.95a1.009,1.009,0,0,1-1.014-.861.984.984,0,0,1,.976-1.107h16.042a1.008,1.008,0,0,1,1.014.86A.984.984,0,0,1,300.992,1003.446Z" transform="translate(-262.765 -989.805)" fill="#91e0e8"/>
          <path id="Trazado_99811" data-name="Trazado 99811" d="M262.085,1014.614H227.672a1.008,1.008,0,0,0-1.014.86.984.984,0,0,0,.976,1.107H256.7A13,13,0,0,1,262.085,1014.614Z" transform="translate(-226.651 -998.087)" fill="#91e0e8"/>
          <path id="Trazado_99812" data-name="Trazado 99812" d="M254.248,1025.618H227.672a1.009,1.009,0,0,0-1.014.86.984.984,0,0,0,.976,1.107h25.078A13.158,13.158,0,0,1,254.248,1025.618Z" transform="translate(-226.651 -1005.025)" fill="#91e0e8"/>
        </g>
        <path id="Trazado_99813" data-name="Trazado 99813" d="M226.953,948.036a.983.983,0,1,1,.7-.287A1,1,0,0,1,226.953,948.036Z" transform="translate(-6.286 -4.457)" fill="#e26693"/>
        <path id="Trazado_99814" data-name="Trazado 99814" d="M235.684,948.036a.983.983,0,1,1,.7-.288A.988.988,0,0,1,235.684,948.036Z" transform="translate(-11.79 -4.457)" fill="#ffaf10"/>
        <path id="Trazado_99815" data-name="Trazado 99815" d="M244.418,948.036a.983.983,0,1,1,.7-.287A.991.991,0,0,1,244.418,948.036Z" transform="translate(-17.297 -4.457)" fill="#37c47a"/>
        <path id="Trazado_99816" data-name="Trazado 99816" d="M357.107,1077.274l-2.7,2.7,5.3,5.3a32.429,32.429,0,0,0,2.7-2.7Z" transform="translate(-87.269 -87.182)" fill="#445ea0"/>
        <path id="Trazado_99817" data-name="Trazado 99817" d="M351.6,1069.06l-2.234-2.234a13.216,13.216,0,0,1-5.388,5.4l2.23,2.23a.657.657,0,0,0,.927,0l4.465-4.465A.658.658,0,0,0,351.6,1069.06Z" transform="translate(-80.689 -80.595)" fill="#293d7c"/>
        <path id="Trazado_99818" data-name="Trazado 99818" d="M347.736,1080.071l-1.907-1.907a13.118,13.118,0,0,1-1.853,1.207l2.23,2.23a.658.658,0,0,0,.927,0l1.53-1.531A.657.657,0,0,1,347.736,1080.071Z" transform="translate(-80.689 -87.744)" fill="#1a2b63"/>
        <path id="Trazado_99819" data-name="Trazado 99819" d="M313.789,1017.691a13.407,13.407,0,1,1-18.96,0A13.407,13.407,0,0,1,313.789,1017.691Z" transform="translate(-47.226 -47.139)" fill="#445ea0"/>
        <path id="Trazado_99820" data-name="Trazado 99820" d="M317.793,1040.655a9.4,9.4,0,1,1,0-13.294A9.4,9.4,0,0,1,317.793,1040.655Z" transform="translate(-54.063 -53.977)" fill="#69cdff"/>
        <path id="Trazado_99821" data-name="Trazado 99821" d="M317.793,1043.8a9.467,9.467,0,0,0,.911-1.057,9.4,9.4,0,0,1-13.148-13.148,9.4,9.4,0,1,0,12.237,14.2Z" transform="translate(-54.063 -57.121)" fill="#52bbef"/>
        <path id="Trazado_99822" data-name="Trazado 99822" d="M288.959,939h-31.78v7.477h32.53V939.75A.752.752,0,0,0,288.959,939Z" transform="translate(-25.964 0)" fill="#445ea0"/>
        <g id="Grupo_53568" data-name="Grupo 53568" transform="translate(257.123 972.164)">
          <circle id="Elipse_3970" data-name="Elipse 3970" cx="1.574" cy="1.574" r="1.574" transform="translate(0)" fill="#d9eafc"/>
          <circle id="Elipse_3971" data-name="Elipse 3971" cx="1.115" cy="1.115" r="1.115" transform="translate(3.766 2.095)" fill="#d9eafc"/>
        </g>
      </g>
    </g>
  </g>
</svg>
