<svg id="Grupo_53707" data-name="Grupo 53707" xmlns="http://www.w3.org/2000/svg" xmlns:xlink="http://www.w3.org/1999/xlink" width="132.814" height="131.965" viewBox="0 0 132.814 131.965">
  <defs>
    <linearGradient id="linear-gradient" x1="5.843" y1="-34.623" x2="11.29" y2="-28.432" gradientUnits="objectBoundingBox">
      <stop offset="0" stop-color="#ce1567"/>
      <stop offset="1" stop-color="#7a1dbc"/>
    </linearGradient>
    <linearGradient id="linear-gradient-2" x1="3.113" y1="-50.416" x2="6.065" y2="-41.616" xlink:href="#linear-gradient"/>
    <linearGradient id="linear-gradient-3" x1="-29.355" y1="10.899" x2="-33.736" y2="16.503" gradientUnits="objectBoundingBox">
      <stop offset="0" stop-color="#a737d5"/>
      <stop offset="1" stop-color="#ef497a"/>
    </linearGradient>
    <linearGradient id="linear-gradient-4" x1="0.509" y1="2.145" x2="0.496" y2="-0.606" gradientUnits="objectBoundingBox">
      <stop offset="0" stop-color="#ffa66c"/>
      <stop offset="0.715" stop-color="#fe8d30"/>
    </linearGradient>
    <linearGradient id="linear-gradient-5" x1="0.519" y1="2.383" x2="0.477" y2="-0.75" gradientUnits="objectBoundingBox">
      <stop offset="0" stop-color="#e17d34"/>
      <stop offset="1" stop-color="#e9813b"/>
    </linearGradient>
    <linearGradient id="linear-gradient-6" x1="0.382" y1="-0.274" x2="1.098" y2="3.943" xlink:href="#linear-gradient-5"/>
    <linearGradient id="linear-gradient-7" x1="0.514" y1="2.023" x2="0.472" y2="-1.11" xlink:href="#linear-gradient-5"/>
    <linearGradient id="linear-gradient-8" x1="0.34" y1="-0.442" x2="1.055" y2="3.435" xlink:href="#linear-gradient-5"/>
    <linearGradient id="linear-gradient-9" x1="0.564" y1="-1.077" x2="0.482" y2="1.13" gradientUnits="objectBoundingBox">
      <stop offset="0" stop-color="#ffa66c"/>
      <stop offset="1" stop-color="#fe8d30"/>
    </linearGradient>
    <linearGradient id="linear-gradient-10" x1="0.536" y1="-0.322" x2="0.397" y2="2.901" xlink:href="#linear-gradient-9"/>
    <linearGradient id="linear-gradient-11" x1="0.68" y1="-1.393" x2="0.419" y2="1.019" xlink:href="#linear-gradient-5"/>
  </defs>
  <path id="Trazado_100055" data-name="Trazado 100055" d="M1228.575,759.316a50.8,50.8,0,0,1-8.919,7.24c-23.1,15.422-49.5,10.977-57.663,9.458-13.17-2.452-24.288-4.181-33.84-12.81-21.7-19.61-20.649-60.516-4.064-85.856,1.967-3,18.527-27.552,44.986-31.01.647-.084,1.13-.133,1.553-.178,4.093-.433,29.458-2.721,50.141,14.607a61.7,61.7,0,0,1,12.144,13.778C1249.07,699.5,1249.121,738.138,1228.575,759.316Z" transform="translate(-1111.741 -645.822)" fill="#a1bee9"/>
  <g id="Grupo_53681" data-name="Grupo 53681" transform="translate(4.451 4.357)">
    <path id="Trazado_100056" data-name="Trazado 100056" d="M1120.957,657.106a2.236,2.236,0,0,1,2.525-2.243c8.947,1.166,39.711,4.756,65.121,2.672a2.068,2.068,0,0,1,2.237,1.939l5.564,95.319a2.38,2.38,0,0,1-2.223,2.514c-10.688.688-54.7,3.363-70.417,1.8a1.886,1.886,0,0,1-1.7-1.857Z" transform="translate(-1120.957 -654.843)" fill="#91b3fa"/>
    <path id="Trazado_100057" data-name="Trazado 100057" d="M1123.163,662.133a2.152,2.152,0,0,1,2.43-2.159c8.61,1.122,38.216,4.577,62.669,2.571a1.991,1.991,0,0,1,2.153,1.866l5.354,91.73a2.291,2.291,0,0,1-2.139,2.42c-10.285.662-52.644,3.236-67.766,1.732a1.815,1.815,0,0,1-1.633-1.787Z" transform="translate(-1122.097 -657.487)" fill="#bdd0fb"/>
    <path id="Trazado_100058" data-name="Trazado 100058" d="M1139.729,677.529l1.016,19.667a1.251,1.251,0,0,0,1.22,1.187c3.643.084,15,.3,21.406-.066a1.4,1.4,0,0,0,1.316-1.357c.1-3.69.315-14.429-.549-18.913a1.577,1.577,0,0,0-1.5-1.275l-21.537-.641A1.33,1.33,0,0,0,1139.729,677.529Z" transform="translate(-1130.662 -665.85)" fill="#fff" opacity="0.78"/>
    <circle id="Elipse_3974" data-name="Elipse 3974" cx="4.229" cy="4.229" r="4.229" transform="translate(17.231 22.842) rotate(-89.528)" fill="url(#linear-gradient)"/>
    <path id="Trazado_100059" data-name="Trazado 100059" d="M1151.122,712.86l13.472-.07a1.043,1.043,0,0,0,.868-1.613,8.693,8.693,0,0,0-7.707-4.262,9.393,9.393,0,0,0-7.534,4.234A1.09,1.09,0,0,0,1151.122,712.86Z" transform="translate(-1135.986 -681.764)" fill="url(#linear-gradient-2)"/>
    <g id="Grupo_53669" data-name="Grupo 53669" transform="translate(38.739 11.48)" opacity="0.6">
      <path id="Trazado_100060" data-name="Trazado 100060" d="M1225.378,680.244a.7.7,0,0,0,.744-.664.764.764,0,0,0-.79-.67l-23.616-.3a.5.5,0,0,0-.508.713l.115.32a1.163,1.163,0,0,0,1.025.718Z" transform="translate(-1201.167 -678.613)" fill="#fff"/>
    </g>
    <g id="Grupo_53670" data-name="Grupo 53670" transform="translate(38.758 15.147)" opacity="0.6">
      <path id="Trazado_100061" data-name="Trazado 100061" d="M1201.757,686.207a.5.5,0,0,0-.509.712l.115.32a1.163,1.163,0,0,0,1.026.718l23.029-.12a.7.7,0,0,0,.745-.664.765.765,0,0,0-.79-.67Z" transform="translate(-1201.206 -686.207)" fill="#fff"/>
    </g>
    <g id="Grupo_53671" data-name="Grupo 53671" transform="translate(38.777 18.868)" opacity="0.6">
      <path id="Trazado_100062" data-name="Trazado 100062" d="M1201.8,693.91a.5.5,0,0,0-.508.712l.115.321a1.164,1.164,0,0,0,1.026.718l23.029-.12a.7.7,0,0,0,.745-.664.764.764,0,0,0-.79-.669Z" transform="translate(-1201.246 -693.91)" fill="#fff"/>
    </g>
    <g id="Grupo_53672" data-name="Grupo 53672" transform="translate(9.536 36.956)" opacity="0.6">
      <path id="Trazado_100063" data-name="Trazado 100063" d="M1196.541,732.836a.667.667,0,0,0,.72-.664.79.79,0,0,0-.814-.662l-55.322-.148c-.422,0-.551.267-.286.6l.455.566a1.81,1.81,0,0,0,1.248.594Z" transform="translate(-1140.701 -731.362)" fill="#fff"/>
    </g>
    <g id="Grupo_53673" data-name="Grupo 53673" transform="translate(9.555 40.623)" opacity="0.6">
      <path id="Trazado_100064" data-name="Trazado 100064" d="M1141.165,738.955c-.422,0-.551.267-.286.6l.455.566a1.805,1.805,0,0,0,1.248.594l54-.281a.667.667,0,0,0,.72-.664.789.789,0,0,0-.814-.662Z" transform="translate(-1140.741 -738.955)" fill="#fff"/>
    </g>
    <path id="Trazado_100065" data-name="Trazado 100065" d="M1140.3,751.426c1.33-.109,3.82-.169,5.191-.2a1.243,1.243,0,0,1,1.232.944,20.265,20.265,0,0,1,.61,5.017,1.1,1.1,0,0,1-1.108,1.086l-5.06-.029a1.215,1.215,0,0,1-1.2-1.1l-.47-4.758A.885.885,0,0,1,1140.3,751.426Z" transform="translate(-1130.537 -704.679)" fill="#fff" opacity="0.6"/>
    <g id="Grupo_53674" data-name="Grupo 53674" transform="translate(18.47 48.653)" opacity="0.6">
      <path id="Trazado_100066" data-name="Trazado 100066" d="M1159.858,755.581a.61.61,0,0,0-.649.73l.127.815a.922.922,0,0,0,.885.754l12.288-.064a.758.758,0,0,0,.754-.771l0-.208a.821.821,0,0,0-.78-.795Z" transform="translate(-1159.2 -755.581)" fill="#fff"/>
    </g>
    <path id="Trazado_100067" data-name="Trazado 100067" d="M1197.372,751.129c1.33-.109,3.82-.169,5.191-.2a1.243,1.243,0,0,1,1.232.944,20.246,20.246,0,0,1,.609,5.018,1.1,1.1,0,0,1-1.108,1.086l-5.06-.029a1.215,1.215,0,0,1-1.2-1.1l-.47-4.758A.885.885,0,0,1,1197.372,751.129Z" transform="translate(-1160.047 -704.525)" fill="#fff" opacity="0.6"/>
    <g id="Grupo_53675" data-name="Grupo 53675" transform="translate(46.035 48.509)" opacity="0.6">
      <path id="Trazado_100068" data-name="Trazado 100068" d="M1216.932,755.284a.61.61,0,0,0-.649.73l.127.815a.922.922,0,0,0,.885.754l12.288-.064a.757.757,0,0,0,.753-.771l0-.208a.821.821,0,0,0-.781-.795Z" transform="translate(-1216.274 -755.284)" fill="#fff"/>
    </g>
    <g id="Grupo_53680" data-name="Grupo 53680" transform="translate(10.594 59.203)">
      <path id="Trazado_100069" data-name="Trazado 100069" d="M1149.3,783.818h-.012l-4.669-.02a1.255,1.255,0,0,1-1.286-1.061l-.431-3.915a.852.852,0,0,1,.2-.641,1.028,1.028,0,0,1,.712-.356h0c.394-.028.947-.079,1.533-.132,1.234-.112,2.77-.25,3.635-.266a1.305,1.305,0,0,1,1.312.907,19.549,19.549,0,0,1,.2,4.414A1.153,1.153,0,0,1,1149.3,783.818Zm-5.462-5.636a.663.663,0,0,0-.463.228.491.491,0,0,0-.117.372l.431,3.915a.9.9,0,0,0,.932.742l4.669.02h.01a.8.8,0,0,0,.833-.719,19.528,19.528,0,0,0-.185-4.311.964.964,0,0,0-.96-.645c-.852.015-2.381.154-3.609.265-.588.053-1.143.1-1.539.132Z" transform="translate(-1142.892 -777.427)" fill="#fff"/>
      <path id="Trazado_100070" data-name="Trazado 100070" d="M1145.245,779.483c.98-.072,3.111-.3,4.122-.318a.9.9,0,0,1,.908.621,15.865,15.865,0,0,1,.154,3.486.777.777,0,0,1-.817.715l-3.731-.016a.862.862,0,0,1-.886-.72l-.344-3.129A.606.606,0,0,1,1145.245,779.483Z" transform="translate(-1143.799 -778.325)" fill="#fff" opacity="0.6"/>
      <g id="Grupo_53676" data-name="Grupo 53676" transform="translate(10.451 2.281)" opacity="0.6">
        <path id="Trazado_100071" data-name="Trazado 100071" d="M1164.572,783.638a1.159,1.159,0,0,0,1.135.858l43.2-.593a.877.877,0,0,0-.013-1.753l-43.2.028A1.159,1.159,0,0,0,1164.572,783.638Z" transform="translate(-1164.531 -782.149)" fill="#fff"/>
      </g>
      <path id="Trazado_100072" data-name="Trazado 100072" d="M1149.4,804.538h-.012l-4.669-.021a1.256,1.256,0,0,1-1.287-1.061l-.431-3.915a.853.853,0,0,1,.2-.641,1.026,1.026,0,0,1,.713-.356h0c.393-.029.947-.079,1.533-.132,1.234-.112,2.77-.25,3.635-.266h.019a1.3,1.3,0,0,1,1.293.908,19.565,19.565,0,0,1,.2,4.414A1.153,1.153,0,0,1,1149.4,804.538Zm-5.462-5.636a.663.663,0,0,0-.463.228.5.5,0,0,0-.117.373l.431,3.915a.9.9,0,0,0,.932.742l4.669.02h.009a.8.8,0,0,0,.834-.719,19.515,19.515,0,0,0-.185-4.311.959.959,0,0,0-.961-.645c-.852.015-2.38.154-3.609.265-.587.053-1.143.1-1.539.132Z" transform="translate(-1142.948 -788.139)" fill="#fff"/>
      <path id="Trazado_100073" data-name="Trazado 100073" d="M1145.353,800.2c.98-.072,3.111-.3,4.122-.318a.9.9,0,0,1,.908.621,15.863,15.863,0,0,1,.154,3.486.777.777,0,0,1-.818.715l-3.731-.016a.862.862,0,0,1-.886-.72l-.344-3.129A.606.606,0,0,1,1145.353,800.2Z" transform="translate(-1143.855 -789.038)" fill="#fff" opacity="0.6"/>
      <g id="Grupo_53677" data-name="Grupo 53677" transform="translate(10.503 12.287)" opacity="0.6">
        <path id="Trazado_100074" data-name="Trazado 100074" d="M1164.68,804.356a1.159,1.159,0,0,0,1.135.858l43.2-.593a.877.877,0,0,0-.013-1.753l-43.2.028A1.159,1.159,0,0,0,1164.68,804.356Z" transform="translate(-1164.639 -802.868)" fill="#fff"/>
      </g>
      <path id="Trazado_100075" data-name="Trazado 100075" d="M1149.512,825.257h-.013l-4.669-.021a1.255,1.255,0,0,1-1.287-1.061l-.431-3.915a.85.85,0,0,1,.2-.641,1.024,1.024,0,0,1,.712-.356h0c.393-.029.947-.079,1.533-.132,1.235-.112,2.771-.251,3.635-.266h.019a1.3,1.3,0,0,1,1.293.908,19.6,19.6,0,0,1,.2,4.414A1.154,1.154,0,0,1,1149.512,825.257Zm-5.462-5.637a.666.666,0,0,0-.464.228.5.5,0,0,0-.117.373l.431,3.915a.9.9,0,0,0,.932.741l4.669.02h.009a.8.8,0,0,0,.833-.719,19.486,19.486,0,0,0-.186-4.311.956.956,0,0,0-.96-.644c-.852.015-2.381.153-3.609.264-.588.053-1.143.1-1.539.132Z" transform="translate(-1143.004 -798.852)" fill="#fff"/>
      <path id="Trazado_100076" data-name="Trazado 100076" d="M1145.461,820.921c.98-.072,3.111-.3,4.122-.317a.9.9,0,0,1,.908.62,15.887,15.887,0,0,1,.153,3.486.776.776,0,0,1-.818.715l-3.731-.016a.861.861,0,0,1-.886-.72l-.344-3.129A.606.606,0,0,1,1145.461,820.921Z" transform="translate(-1143.911 -799.751)" fill="#fff" opacity="0.6"/>
      <g id="Grupo_53678" data-name="Grupo 53678" transform="translate(10.555 22.294)" opacity="0.6">
        <path id="Trazado_100077" data-name="Trazado 100077" d="M1164.787,825.077a1.159,1.159,0,0,0,1.135.858l43.2-.593a.877.877,0,0,0-.013-1.753l-43.2.027A1.159,1.159,0,0,0,1164.787,825.077Z" transform="translate(-1164.747 -823.588)" fill="#fff"/>
      </g>
      <path id="Trazado_100078" data-name="Trazado 100078" d="M1149.62,845.976h-.013l-4.669-.021a1.255,1.255,0,0,1-1.287-1.061l-.431-3.915a.85.85,0,0,1,.2-.641,1.023,1.023,0,0,1,.712-.356h0c.393-.029.947-.079,1.533-.132,1.234-.112,2.771-.251,3.635-.266h.019a1.3,1.3,0,0,1,1.293.908,19.6,19.6,0,0,1,.2,4.414A1.154,1.154,0,0,1,1149.62,845.976Zm-5.463-5.637a.668.668,0,0,0-.463.228.5.5,0,0,0-.117.373l.431,3.915a.9.9,0,0,0,.932.741l4.669.02h.009a.8.8,0,0,0,.833-.719,19.479,19.479,0,0,0-.186-4.311.955.955,0,0,0-.96-.644c-.852.015-2.381.153-3.609.264-.588.053-1.143.1-1.539.132Z" transform="translate(-1143.059 -809.564)" fill="#fff"/>
      <path id="Trazado_100079" data-name="Trazado 100079" d="M1145.569,841.64c.98-.072,3.111-.3,4.122-.317a.9.9,0,0,1,.908.62,15.9,15.9,0,0,1,.153,3.487.777.777,0,0,1-.817.715l-3.731-.016a.862.862,0,0,1-.886-.72l-.344-3.129A.606.606,0,0,1,1145.569,841.64Z" transform="translate(-1143.967 -810.463)" fill="#fff" opacity="0.6"/>
      <g id="Grupo_53679" data-name="Grupo 53679" transform="translate(10.607 32.301)" opacity="0.6">
        <path id="Trazado_100080" data-name="Trazado 100080" d="M1164.9,845.8h0a1.159,1.159,0,0,0,1.135.858l43.2-.593a.877.877,0,0,0-.012-1.753l-43.2.028A1.159,1.159,0,0,0,1164.9,845.8Z" transform="translate(-1164.855 -844.307)" fill="#fff"/>
      </g>
      <path id="Trazado_100081" data-name="Trazado 100081" d="M1146.236,839.654h0a.717.717,0,0,1,.99.264l.929,1.646a.23.23,0,0,0,.411-.02l2.257-5.1a.255.255,0,0,1,.488.107,10.04,10.04,0,0,1-2.885,7s-1.372-.525-2.488-2.942A.751.751,0,0,1,1146.236,839.654Z" transform="translate(-1144.432 -807.864)" fill="url(#linear-gradient-3)"/>
    </g>
  </g>
  <path id="Trazado_100082" data-name="Trazado 100082" d="M1132.636,669.4a2.236,2.236,0,0,1,2.524-2.244c8.948,1.166,39.712,4.756,65.122,2.672a2.068,2.068,0,0,1,2.237,1.939l5.563,95.319a2.38,2.38,0,0,1-2.223,2.514c-10.688.688-54.7,3.363-70.417,1.8a1.885,1.885,0,0,1-1.7-1.857Z" transform="translate(-1122.544 -656.842)" fill="#91b3fa"/>
  <path id="Trazado_100083" data-name="Trazado 100083" d="M1134.842,674.427a2.152,2.152,0,0,1,2.43-2.159c8.61,1.122,38.216,4.577,62.669,2.572a1.99,1.99,0,0,1,2.153,1.866l5.354,91.729a2.289,2.289,0,0,1-2.139,2.42c-10.286.663-52.645,3.237-67.766,1.732a1.815,1.815,0,0,1-1.633-1.787Z" transform="translate(-1123.685 -659.486)" fill="#bdd0fb"/>
  <g id="Grupo_53682" data-name="Grupo 53682" transform="translate(19.204 21.774)" opacity="0.6">
    <path id="Trazado_100084" data-name="Trazado 100084" d="M1204.413,692.538c.922,0,1.654-.3,1.627-.664s-.8-.664-1.726-.669l-51.606-.3c-.922-.005-1.422.315-1.111.712l.25.32a3.3,3.3,0,0,0,2.242.719Z" transform="translate(-1151.503 -690.907)" fill="#fff"/>
  </g>
  <g id="Grupo_53683" data-name="Grupo 53683" transform="translate(19.246 25.442)" opacity="0.6">
    <path id="Trazado_100085" data-name="Trazado 100085" d="M1152.793,698.5c-.922-.005-1.422.315-1.111.712l.251.32a3.3,3.3,0,0,0,2.241.719l50.325-.12c.922,0,1.654-.3,1.627-.664s-.8-.664-1.726-.669Z" transform="translate(-1151.59 -698.5)" fill="#fff"/>
  </g>
  <g id="Grupo_53684" data-name="Grupo 53684" transform="translate(19.288 29.162)" opacity="0.6">
    <path id="Trazado_100086" data-name="Trazado 100086" d="M1152.881,706.2c-.922-.006-1.422.315-1.111.712l.25.32a3.3,3.3,0,0,0,2.242.718l50.325-.12c.922,0,1.654-.3,1.627-.664s-.8-.664-1.726-.67Z" transform="translate(-1151.678 -706.204)" fill="#fff"/>
  </g>
  <g id="Grupo_53685" data-name="Grupo 53685" transform="translate(19.204 33.459)" opacity="0.6">
    <path id="Trazado_100087" data-name="Trazado 100087" d="M1204.413,716.732c.922,0,1.654-.3,1.627-.664s-.8-.664-1.726-.669l-51.606-.3c-.922-.005-1.422.315-1.111.712l.25.32a3.3,3.3,0,0,0,2.242.718Z" transform="translate(-1151.503 -715.101)" fill="#fff"/>
  </g>
  <g id="Grupo_53686" data-name="Grupo 53686" transform="translate(19.246 37.126)" opacity="0.6">
    <path id="Trazado_100088" data-name="Trazado 100088" d="M1152.793,722.694c-.922-.005-1.422.315-1.111.712l.251.32a3.3,3.3,0,0,0,2.241.718l50.325-.12c.922,0,1.654-.3,1.627-.664s-.8-.664-1.726-.669Z" transform="translate(-1151.59 -722.694)" fill="#fff"/>
  </g>
  <g id="Grupo_53687" data-name="Grupo 53687" transform="translate(19.288 40.847)" opacity="0.6">
    <path id="Trazado_100089" data-name="Trazado 100089" d="M1152.881,730.4c-.922-.005-1.422.315-1.111.713l.25.32a3.3,3.3,0,0,0,2.242.718l50.325-.12c.922,0,1.654-.3,1.627-.664s-.8-.664-1.726-.669Z" transform="translate(-1151.678 -730.397)" fill="#fff"/>
  </g>
  <g id="Grupo_53688" data-name="Grupo 53688" transform="translate(19.627 47.25)" opacity="0.6">
    <path id="Trazado_100090" data-name="Trazado 100090" d="M1208.22,745.129a.667.667,0,0,0,.72-.664.79.79,0,0,0-.814-.662l-55.322-.148c-.422,0-.551.267-.286.6l.455.565a1.805,1.805,0,0,0,1.248.594Z" transform="translate(-1152.38 -743.655)" fill="#fff"/>
  </g>
  <g id="Grupo_53689" data-name="Grupo 53689" transform="translate(19.646 50.918)" opacity="0.6">
    <path id="Trazado_100091" data-name="Trazado 100091" d="M1152.844,751.249c-.422,0-.551.267-.286.6l.455.565a1.8,1.8,0,0,0,1.248.594l54-.281a.667.667,0,0,0,.72-.664.79.79,0,0,0-.814-.662Z" transform="translate(-1152.42 -751.249)" fill="#fff"/>
  </g>
  <path id="Trazado_100092" data-name="Trazado 100092" d="M1151.977,763.72c1.33-.109,3.82-.169,5.191-.2a1.242,1.242,0,0,1,1.232.944,20.24,20.24,0,0,1,.609,5.017,1.1,1.1,0,0,1-1.107,1.086l-5.06-.028a1.215,1.215,0,0,1-1.2-1.1l-.469-4.758A.885.885,0,0,1,1151.977,763.72Z" transform="translate(-1132.125 -706.678)" fill="#fff" opacity="0.6"/>
  <g id="Grupo_53690" data-name="Grupo 53690" transform="translate(28.561 58.947)" opacity="0.6">
    <path id="Trazado_100093" data-name="Trazado 100093" d="M1171.536,767.875a.611.611,0,0,0-.649.73l.127.815a.922.922,0,0,0,.885.754l12.289-.064a.758.758,0,0,0,.753-.771l0-.208a.822.822,0,0,0-.78-.795Z" transform="translate(-1170.878 -767.874)" fill="#fff"/>
  </g>
  <path id="Trazado_100094" data-name="Trazado 100094" d="M1209.051,763.423c1.33-.109,3.82-.169,5.191-.2a1.242,1.242,0,0,1,1.232.944,20.262,20.262,0,0,1,.61,5.017,1.1,1.1,0,0,1-1.108,1.086l-5.06-.028a1.215,1.215,0,0,1-1.2-1.1l-.469-4.758A.885.885,0,0,1,1209.051,763.423Z" transform="translate(-1161.635 -706.525)" fill="#fff" opacity="0.6"/>
  <g id="Grupo_53691" data-name="Grupo 53691" transform="translate(56.126 58.803)" opacity="0.6">
    <path id="Trazado_100095" data-name="Trazado 100095" d="M1228.61,767.577a.611.611,0,0,0-.649.73l.127.815a.921.921,0,0,0,.885.754l12.288-.064a.757.757,0,0,0,.753-.771l0-.208a.822.822,0,0,0-.781-.795Z" transform="translate(-1227.952 -767.577)" fill="#fff"/>
  </g>
  <g id="Grupo_53696" data-name="Grupo 53696" transform="translate(20.686 67.637)">
    <path id="Trazado_100096" data-name="Trazado 100096" d="M1160.975,796.112h-.012l-4.669-.021a1.255,1.255,0,0,1-1.286-1.061l-.43-3.915a.849.849,0,0,1,.2-.641,1.025,1.025,0,0,1,.713-.356h0c.393-.029.947-.079,1.533-.132,1.234-.112,2.77-.251,3.635-.266a1.305,1.305,0,0,1,1.312.908,19.571,19.571,0,0,1,.2,4.414A1.153,1.153,0,0,1,1160.975,796.112Zm-5.462-5.637a.666.666,0,0,0-.463.228.5.5,0,0,0-.117.373l.431,3.915a.9.9,0,0,0,.932.742l4.669.02h.009a.8.8,0,0,0,.834-.719,19.517,19.517,0,0,0-.185-4.311.964.964,0,0,0-.96-.644c-.852.015-2.381.153-3.609.264-.588.053-1.143.1-1.539.132Z" transform="translate(-1154.571 -787.859)" fill="#fff"/>
    <path id="Trazado_100097" data-name="Trazado 100097" d="M1156.924,791.776c.98-.072,3.111-.3,4.122-.317a.9.9,0,0,1,.908.62,15.856,15.856,0,0,1,.154,3.486.777.777,0,0,1-.817.715l-3.731-.016a.863.863,0,0,1-.886-.72l-.344-3.129A.606.606,0,0,1,1156.924,791.776Z" transform="translate(-1155.478 -788.758)" fill="#fff" opacity="0.6"/>
    <g id="Grupo_53692" data-name="Grupo 53692" transform="translate(10.451 4.142)" opacity="0.6">
      <path id="Trazado_100098" data-name="Trazado 100098" d="M1176.25,795.932a1.16,1.16,0,0,0,1.136.858l43.2-.593a.877.877,0,0,0-.013-1.753l-43.2.027A1.159,1.159,0,0,0,1176.25,795.932Z" transform="translate(-1176.21 -794.443)" fill="#fff"/>
    </g>
    <path id="Trazado_100099" data-name="Trazado 100099" d="M1161.083,816.831h-.013l-4.669-.021a1.255,1.255,0,0,1-1.286-1.061l-.431-3.915a.85.85,0,0,1,.2-.641,1.024,1.024,0,0,1,.712-.357h0c.393-.029.947-.079,1.533-.132,1.234-.112,2.771-.251,3.635-.266h.019a1.3,1.3,0,0,1,1.293.908,19.6,19.6,0,0,1,.2,4.414A1.154,1.154,0,0,1,1161.083,816.831Zm-5.462-5.636a.663.663,0,0,0-.463.227.5.5,0,0,0-.117.373l.431,3.915a.9.9,0,0,0,.932.741l4.669.021h.009a.8.8,0,0,0,.834-.719,19.5,19.5,0,0,0-.186-4.311.958.958,0,0,0-.96-.644c-.851.015-2.38.153-3.609.264-.588.053-1.143.1-1.539.133Z" transform="translate(-1154.627 -798.571)" fill="#fff"/>
    <path id="Trazado_100100" data-name="Trazado 100100" d="M1157.032,812.5c.98-.072,3.111-.3,4.122-.317a.9.9,0,0,1,.908.62,15.859,15.859,0,0,1,.154,3.487.777.777,0,0,1-.818.715l-3.731-.016a.862.862,0,0,1-.886-.72l-.344-3.129A.606.606,0,0,1,1157.032,812.5Z" transform="translate(-1155.534 -799.47)" fill="#fff" opacity="0.6"/>
    <g id="Grupo_53693" data-name="Grupo 53693" transform="translate(10.503 14.149)" opacity="0.6">
      <path id="Trazado_100101" data-name="Trazado 100101" d="M1176.359,816.651a1.159,1.159,0,0,0,1.135.858l43.2-.593a.877.877,0,0,0-.013-1.753l-43.2.028A1.159,1.159,0,0,0,1176.359,816.651Z" transform="translate(-1176.318 -815.162)" fill="#fff"/>
    </g>
    <path id="Trazado_100102" data-name="Trazado 100102" d="M1161.191,837.55h-.013l-4.669-.02a1.255,1.255,0,0,1-1.287-1.061l-.431-3.915a.851.851,0,0,1,.2-.641,1.023,1.023,0,0,1,.712-.356h0c.393-.029.947-.079,1.533-.132,1.234-.112,2.771-.25,3.635-.266h.019a1.3,1.3,0,0,1,1.293.908,19.592,19.592,0,0,1,.2,4.414A1.154,1.154,0,0,1,1161.191,837.55Zm-5.463-5.636a.665.665,0,0,0-.463.228.5.5,0,0,0-.117.372l.431,3.915a.9.9,0,0,0,.932.741l4.669.021h.009a.8.8,0,0,0,.834-.719,19.489,19.489,0,0,0-.186-4.311.956.956,0,0,0-.96-.644c-.851.015-2.38.153-3.609.264-.588.053-1.143.1-1.539.133Z" transform="translate(-1154.682 -809.284)" fill="#fff"/>
    <path id="Trazado_100103" data-name="Trazado 100103" d="M1157.14,833.215c.98-.072,3.111-.3,4.122-.318a.9.9,0,0,1,.908.62,15.928,15.928,0,0,1,.153,3.487.777.777,0,0,1-.818.715l-3.731-.016a.862.862,0,0,1-.886-.72l-.344-3.129A.606.606,0,0,1,1157.14,833.215Z" transform="translate(-1155.59 -810.183)" fill="#fff" opacity="0.6"/>
    <g id="Grupo_53694" data-name="Grupo 53694" transform="translate(10.555 24.155)" opacity="0.6">
      <path id="Trazado_100104" data-name="Trazado 100104" d="M1176.467,837.37a1.159,1.159,0,0,0,1.135.858l43.2-.593a.877.877,0,0,0-.013-1.753l-43.2.028A1.159,1.159,0,0,0,1176.467,837.37Z" transform="translate(-1176.426 -835.881)" fill="#fff"/>
    </g>
    <path id="Trazado_100105" data-name="Trazado 100105" d="M1161.3,858.269h-.013l-4.669-.02a1.254,1.254,0,0,1-1.287-1.061l-.431-3.915a.852.852,0,0,1,.2-.641,1.027,1.027,0,0,1,.713-.356h0c.393-.029.947-.079,1.533-.132,1.234-.112,2.77-.25,3.635-.266H1161a1.3,1.3,0,0,1,1.293.908,19.6,19.6,0,0,1,.2,4.414A1.154,1.154,0,0,1,1161.3,858.269Zm-5.463-5.636a.663.663,0,0,0-.463.228.5.5,0,0,0-.117.373l.431,3.915a.9.9,0,0,0,.932.741l4.669.021h.01a.8.8,0,0,0,.833-.719,19.47,19.47,0,0,0-.186-4.311.955.955,0,0,0-.96-.645c-.852.015-2.38.154-3.609.265-.588.053-1.143.1-1.539.132Z" transform="translate(-1154.738 -819.996)" fill="#fff"/>
    <path id="Trazado_100106" data-name="Trazado 100106" d="M1157.248,853.934c.98-.072,3.111-.3,4.122-.318a.9.9,0,0,1,.907.621,15.851,15.851,0,0,1,.154,3.486.777.777,0,0,1-.817.715l-3.731-.016a.862.862,0,0,1-.886-.72l-.344-3.129A.606.606,0,0,1,1157.248,853.934Z" transform="translate(-1155.646 -820.895)" fill="#fff" opacity="0.6"/>
    <g id="Grupo_53695" data-name="Grupo 53695" transform="translate(10.607 34.162)" opacity="0.6">
      <path id="Trazado_100107" data-name="Trazado 100107" d="M1176.574,858.089h0a1.16,1.16,0,0,0,1.135.858l43.2-.593a.877.877,0,0,0-.013-1.753l-43.2.028A1.16,1.16,0,0,0,1176.574,858.089Z" transform="translate(-1176.533 -856.6)" fill="#fff"/>
    </g>
    <path id="Trazado_100108" data-name="Trazado 100108" d="M1157.915,851.947h0a.717.717,0,0,1,.99.264l.93,1.646a.23.23,0,0,0,.411-.02l2.258-5.1a.255.255,0,0,1,.488.108,10.041,10.041,0,0,1-2.885,7s-1.372-.526-2.488-2.941A.752.752,0,0,1,1157.915,851.947Z" transform="translate(-1156.111 -818.296)" fill="#e66f09"/>
    <path id="Trazado_100109" data-name="Trazado 100109" d="M1157.4,830.4h0a.717.717,0,0,1,.99.264l.929,1.646a.23.23,0,0,0,.411-.02l2.257-5.1a.255.255,0,0,1,.488.108,10.042,10.042,0,0,1-2.885,7s-1.373-.525-2.488-2.942A.752.752,0,0,1,1157.4,830.4Z" transform="translate(-1155.845 -807.157)" fill="#e66f09"/>
    <path id="Trazado_100110" data-name="Trazado 100110" d="M1157.4,809.728h0a.717.717,0,0,1,.99.264l.929,1.646a.23.23,0,0,0,.411-.02l2.257-5.1a.255.255,0,0,1,.488.108,10.041,10.041,0,0,1-2.885,7s-1.373-.525-2.488-2.941A.752.752,0,0,1,1157.4,809.728Z" transform="translate(-1155.845 -796.467)" fill="#e66f09"/>
    <path id="Trazado_100111" data-name="Trazado 100111" d="M1157.915,789.226h0a.716.716,0,0,1,.99.264l.93,1.646a.23.23,0,0,0,.411-.02l2.258-5.1a.255.255,0,0,1,.488.107,10.042,10.042,0,0,1-2.885,7s-1.372-.525-2.488-2.942A.751.751,0,0,1,1157.915,789.226Z" transform="translate(-1156.111 -785.867)" fill="#e66f09"/>
  </g>
  <g id="Grupo_53697" data-name="Grupo 53697" transform="translate(58.149 66.976)">
    <path id="Trazado_100112" data-name="Trazado 100112" d="M1234.68,852.638l.744,23.14a7.529,7.529,0,0,0,7.5,7.27l55.413.327a5.432,5.432,0,0,0,5.416-4.623c.866-5.843,1.97-16.3.727-26.113Z" transform="translate(-1233.454 -819.73)" fill="url(#linear-gradient-4)"/>
    <path id="Trazado_100113" data-name="Trazado 100113" d="M1298.83,881.874a.166.166,0,0,1-.006-.331,5.023,5.023,0,0,0,.951-.127.166.166,0,0,1,.075.323,5.4,5.4,0,0,1-1.013.135Zm-2.315-.009h0l-.992-.006a.165.165,0,0,1,0-.331h0l.992.006a.165.165,0,0,1,0,.331Zm-3.308-.019h0l-.992-.006a.165.165,0,0,1,0-.331h0l.992.006a.165.165,0,0,1,0,.331Zm-3.307-.02h0l-.992-.006a.165.165,0,0,1,0-.331h0l.992.006a.165.165,0,0,1,0,.331Zm-3.307-.019h0l-.992-.006a.166.166,0,0,1-.164-.167.174.174,0,0,1,.166-.164l.992.006a.165.165,0,0,1,0,.331Zm-3.307-.019h0l-.992-.006a.165.165,0,0,1,0-.331h0l.992.006a.165.165,0,0,1,0,.331Zm-3.307-.02h0l-.992-.006a.165.165,0,0,1,0-.331h0l.992.006a.165.165,0,0,1,0,.331Zm-3.307-.019h0l-.992-.006a.165.165,0,0,1,0-.331h0l.992.006a.165.165,0,0,1,0,.331Zm-3.307-.019h0l-.992-.006a.165.165,0,0,1,0-.331h0l.992.006a.165.165,0,0,1,0,.331Zm-3.307-.02h0l-.992-.006a.165.165,0,0,1,0-.331h0l.992.006a.165.165,0,0,1,0,.331Zm-3.307-.019h0l-.992-.006a.165.165,0,0,1,0-.331h0l.992.006a.165.165,0,0,1,0,.331Zm-3.307-.019h0l-.992-.006a.165.165,0,0,1,0-.33h0l.992.006a.165.165,0,0,1,0,.331Zm-3.307-.02h0l-.992-.006a.165.165,0,0,1,0-.331h0l.992.006a.165.165,0,0,1,0,.331Zm-3.307-.019h0l-.992-.006a.165.165,0,0,1,0-.331h0l.992.006a.165.165,0,0,1,0,.331Zm-3.307-.02h0l-.992-.006a.165.165,0,0,1-.164-.166.182.182,0,0,1,.166-.164l.992.006a.165.165,0,0,1,0,.33Zm-3.307-.019h0l-.992-.006a.165.165,0,0,1,0-.331h0l.992.006a.165.165,0,0,1,0,.331Zm-3.307-.019h0l-.992-.006a.165.165,0,0,1,0-.331h0l.992.006a.165.165,0,0,1,0,.331Zm-3.268-.369a.16.16,0,0,1-.052-.009,7.279,7.279,0,0,1-.938-.384.165.165,0,1,1,.146-.3,7.024,7.024,0,0,0,.9.367.166.166,0,0,1-.052.323Zm58.237-.463a.165.165,0,0,1-.1-.295,4.99,4.99,0,0,0,.688-.668.165.165,0,1,1,.252.214,5.383,5.383,0,0,1-.734.712A.167.167,0,0,1,1301.878,880.741Zm-61.03-1.25a.163.163,0,0,1-.116-.048,7.39,7.39,0,0,1-.671-.761.165.165,0,1,1,.263-.2,7.136,7.136,0,0,0,.64.727.165.165,0,0,1-.116.283Zm62.8-1.477a.175.175,0,0,1-.042,0,.166.166,0,0,1-.119-.2,4.915,4.915,0,0,0,.105-.52l.065-.438a.164.164,0,0,1,.187-.141.166.166,0,0,1,.14.187l-.065.44a5.311,5.311,0,0,1-.112.554A.165.165,0,0,1,1303.646,878.014Zm-64.541-1.3a.165.165,0,0,1-.156-.112,7.232,7.232,0,0,1-.259-.98.165.165,0,0,1,.325-.062,6.878,6.878,0,0,0,.247.936.165.165,0,0,1-.1.21A.171.171,0,0,1,1239.105,876.714Zm65.022-1.971h-.021a.165.165,0,0,1-.143-.185q.059-.479.118-.983a.165.165,0,1,1,.328.038q-.059.5-.118.987A.165.165,0,0,1,1304.127,874.743Zm-65.435-1.293a.165.165,0,0,1-.165-.16l-.032-.992a.165.165,0,0,1,.16-.171.169.169,0,0,1,.17.16l.032.992a.165.165,0,0,1-.16.171Zm65.8-2h-.016a.165.165,0,0,1-.149-.181q.046-.485.09-.987a.168.168,0,0,1,.179-.15.165.165,0,0,1,.151.179c-.03.335-.059.665-.091.99A.164.164,0,0,1,1304.489,871.455Zm-65.9-1.31a.165.165,0,0,1-.165-.16l-.032-.992a.165.165,0,0,1,.16-.171.168.168,0,0,1,.17.16l.032.992a.166.166,0,0,1-.16.17Zm66.17-1.986h-.011a.166.166,0,0,1-.154-.176q.033-.489.061-.989a.165.165,0,1,1,.33.018q-.028.5-.061.992A.166.166,0,0,1,1304.756,868.158Zm-66.277-1.319a.165.165,0,0,1-.165-.16l-.032-.992a.165.165,0,1,1,.33-.01l.032.991a.166.166,0,0,1-.16.171Zm66.443-1.984h-.006a.165.165,0,0,1-.159-.171q.016-.492.028-.99a.178.178,0,0,1,.169-.162.166.166,0,0,1,.162.169q-.012.5-.029.993A.165.165,0,0,1,1304.922,864.855Zm-66.549-1.321a.165.165,0,0,1-.165-.16l-.032-.992a.165.165,0,0,1,.16-.17.173.173,0,0,1,.17.16l.032.992a.166.166,0,0,1-.16.17Zm66.6-1.986a.165.165,0,0,1-.165-.165q0-.493-.007-.991a.166.166,0,0,1,.163-.167.174.174,0,0,1,.168.163c0,.333.006.664.007.994a.166.166,0,0,1-.165.166Zm-66.711-1.319a.165.165,0,0,1-.165-.16l-.032-.992a.166.166,0,0,1,.16-.171.175.175,0,0,1,.171.16l.032.992a.165.165,0,0,1-.16.171Zm66.641-1.986a.165.165,0,0,1-.165-.158q-.021-.494-.048-.989a.165.165,0,1,1,.33-.018c.019.331.034.662.048.993a.165.165,0,0,1-.158.172Zm-66.747-1.32a.164.164,0,0,1-.165-.16l-.032-.992a.165.165,0,0,1,.16-.171.169.169,0,0,1,.171.16l.032.991a.165.165,0,0,1-.16.171Zm66.535-1.981a.165.165,0,0,1-.164-.151c-.03-.328-.061-.657-.095-.985a.165.165,0,0,1,.329-.034q.051.495.1.99a.165.165,0,0,1-.15.179Zm-66.641-1.325a.165.165,0,0,1-.165-.16l-.032-.991a.166.166,0,0,1,.16-.171.176.176,0,0,1,.171.16l.031.991a.165.165,0,0,1-.16.171Zm65.415-.992h-.992a.165.165,0,0,1,0-.331h.992a.165.165,0,1,1,0,.331Zm-3.307,0h-.993a.165.165,0,0,1,0-.331h.993a.165.165,0,0,1,0,.331Zm-3.307,0h-.992a.165.165,0,1,1,0-.331h.992a.165.165,0,0,1,0,.331Zm-3.307,0h-.992a.165.165,0,0,1,0-.331h.992a.165.165,0,1,1,0,.331Zm-3.307,0h-.992a.165.165,0,1,1,0-.331h.992a.165.165,0,0,1,0,.331Zm-3.307,0h-.992a.165.165,0,0,1,0-.331h.992a.165.165,0,1,1,0,.331Zm-3.307,0h-.992a.165.165,0,0,1,0-.331h.992a.165.165,0,0,1,0,.331Zm-3.307,0h-.992a.165.165,0,1,1,0-.331h.992a.165.165,0,0,1,0,.331Zm-3.307,0h-.992a.165.165,0,0,1,0-.331h.992a.165.165,0,1,1,0,.331Zm-3.307,0h-.992a.165.165,0,1,1,0-.331h.992a.165.165,0,0,1,0,.331Zm-3.307,0h-.992a.165.165,0,0,1,0-.331h.992a.165.165,0,1,1,0,.331Zm-3.307,0h-.992a.165.165,0,0,1,0-.331h.992a.165.165,0,0,1,0,.331Zm-3.307,0h-.992a.165.165,0,1,1,0-.331h.992a.165.165,0,0,1,0,.331Zm-3.307,0h-.992a.165.165,0,0,1,0-.331h.992a.165.165,0,1,1,0,.331Zm-3.307,0h-.992a.165.165,0,0,1,0-.331h.992a.165.165,0,0,1,0,.331Zm-3.307,0h-.992a.165.165,0,1,1,0-.331h.992a.165.165,0,1,1,0,.331Zm-3.307,0h-.992a.165.165,0,0,1,0-.331h.992a.165.165,0,0,1,0,.331Zm-3.307,0h-.992a.165.165,0,1,1,0-.331h.992a.165.165,0,0,1,0,.331Zm-3.307,0h-.992a.165.165,0,0,1,0-.331h.992a.165.165,0,1,1,0,.331Zm-3.307,0h-.992a.165.165,0,0,1,0-.331h.992a.165.165,0,0,1,0,.331Z" transform="translate(-1235.097 -819.552)" fill="#fff"/>
    <path id="Trazado_100114" data-name="Trazado 100114" d="M1268.305,814.772l.167-1.785a1.371,1.371,0,0,1,1.041-.8c1.726-.275,6.007-.758,8.069.783l.308,2.074Z" transform="translate(-1250.839 -798.662)" fill="url(#linear-gradient-5)"/>
    <path id="Trazado_100115" data-name="Trazado 100115" d="M1277.311,807.2a2.482,2.482,0,0,1-1.2,0,1.079,1.079,0,0,1-.823-1.045v-5.588h2.844v5.584A1.083,1.083,0,0,1,1277.311,807.2Z" transform="translate(-1254.453 -792.805)" fill="url(#linear-gradient-6)"/>
    <path id="Trazado_100116" data-name="Trazado 100116" d="M1325.338,814.772l.167-1.785a1.373,1.373,0,0,1,1.041-.8c1.726-.275,6.007-.758,8.069.783l.308,2.074Z" transform="translate(-1280.328 -798.662)" fill="url(#linear-gradient-7)"/>
    <path id="Trazado_100117" data-name="Trazado 100117" d="M1334.344,806.567a2.48,2.48,0,0,1-1.194,0,1.079,1.079,0,0,1-.823-1.045v-6.177h2.844v6.173A1.084,1.084,0,0,1,1334.344,806.567Z" transform="translate(-1283.941 -792.174)" fill="url(#linear-gradient-8)"/>
    <path id="Trazado_100118" data-name="Trazado 100118" d="M1273.113,793.627l30.584-1.012a1.474,1.474,0,0,0,1.408-1.21,12.465,12.465,0,0,0,.1-3.877,3.528,3.528,0,0,0-3.419-2.986c-5.705-.136-20.231-.131-28.236,3.035a2.8,2.8,0,0,0-1.689,1.94,6.78,6.78,0,0,0-.073,3.105A1.316,1.316,0,0,0,1273.113,793.627Z" transform="translate(-1252.561 -784.5)" fill="url(#linear-gradient-9)"/>
    <path id="Trazado_100119" data-name="Trazado 100119" d="M1273.219,794.081a.331.331,0,0,1-.329-.3,7.393,7.393,0,0,1,.189-2.376,2.748,2.748,0,0,1,1.871-1.9,33.856,33.856,0,0,1,7.67-1.432.331.331,0,0,1,.018.662,33.109,33.109,0,0,0-7.5,1.406,2.08,2.08,0,0,0-1.418,1.44,6.786,6.786,0,0,0-.17,2.136.331.331,0,0,1-.3.363Z" transform="translate(-1253.197 -786.348)" fill="#fff"/>
    <path id="Trazado_100120" data-name="Trazado 100120" d="M1235.417,816.243c9.88-.127,52.624-.576,65.04.922a2.529,2.529,0,0,1,2.174,1.958,83.475,83.475,0,0,1,2.034,18.659,2.213,2.213,0,0,1-1.812,2.111l-28.342,5.362h-10.067l-30.2-6a2.361,2.361,0,0,1-1.9-2.192c-.2-3.842-.5-12.858.536-18.661A2.612,2.612,0,0,1,1235.417,816.243Z" transform="translate(-1232.142 -800.828)" fill="url(#linear-gradient-10)"/>
    <path id="Trazado_100121" data-name="Trazado 100121" d="M1267.123,845.415a.158.158,0,0,1-.033,0l-.973-.194a.165.165,0,1,1,.064-.324l.964.192h1.014a.165.165,0,1,1,0,.331h-.992l-.023,0Zm7.652,0h-.992a.165.165,0,0,1,0-.331h.992a.165.165,0,0,1,0,.331Zm-3.307,0h-.992a.165.165,0,1,1,0-.331h.992a.165.165,0,0,1,0,.331Zm5.615-.069a.165.165,0,0,1-.031-.328l.975-.184a.165.165,0,0,1,.062.325l-.975.185A.159.159,0,0,1,1277.083,845.346Zm-13.2-.576a.155.155,0,0,1-.033,0l-.973-.193a.165.165,0,0,1,.065-.325l.973.194a.165.165,0,0,1-.032.327Zm16.453-.039a.165.165,0,0,1-.031-.328l.975-.184a.165.165,0,1,1,.061.325l-.975.185Zm-19.7-.606a.153.153,0,0,1-.032,0l-.973-.194a.165.165,0,1,1,.064-.324l.973.193a.166.166,0,0,1-.032.328Zm22.947-.009a.165.165,0,0,1-.031-.328l.975-.184a.165.165,0,1,1,.061.324l-.975.185Zm3.249-.615a.165.165,0,0,1-.03-.328l.975-.184a.165.165,0,1,1,.061.325l-.974.185Zm-29.44-.021a.153.153,0,0,1-.032,0l-.973-.193a.166.166,0,1,1,.065-.325l.973.194a.165.165,0,0,1-.032.327Zm32.689-.594a.165.165,0,0,1-.03-.328l.975-.184a.165.165,0,1,1,.061.324l-.974.185Zm-35.933-.052-.032,0-.973-.193a.165.165,0,0,1,.064-.325l.973.193a.165.165,0,0,1-.032.327Zm39.182-.563a.165.165,0,0,1-.03-.328l.975-.184a.165.165,0,1,1,.061.325l-.975.185Zm-42.426-.081a.158.158,0,0,1-.033,0l-.973-.194a.165.165,0,1,1,.064-.324l.973.194a.165.165,0,0,1-.032.327Zm45.676-.533a.165.165,0,0,1-.031-.328l.975-.184a.165.165,0,0,1,.062.325l-.975.185A.159.159,0,0,1,1296.58,841.658Zm-48.92-.112a.152.152,0,0,1-.032,0l-.973-.193a.166.166,0,0,1,.065-.325l.973.194a.165.165,0,0,1-.032.327Zm52.169-.5a.165.165,0,0,1-.031-.328l.975-.184a.165.165,0,1,1,.061.325l-.975.184Zm-55.413-.141-.032,0-.973-.194a.165.165,0,1,1,.065-.324l.973.193a.165.165,0,0,1-.032.328Zm58.662-.473a.165.165,0,0,1-.03-.328l.975-.184a.165.165,0,1,1,.061.325l-.975.185A.164.164,0,0,1,1303.079,840.428Zm-61.906-.171a.148.148,0,0,1-.032,0l-.973-.194a.165.165,0,1,1,.065-.324l.973.194a.165.165,0,0,1-.032.327Zm-3.243-.645a.148.148,0,0,1-.033,0l-.841-.167-.02-.393a.165.165,0,0,1,.157-.173.158.158,0,0,1,.173.157l.006.135.588.117a.165.165,0,0,1-.032.327Zm66.742-1.177a.166.166,0,0,1-.166-.164q-.006-.5-.021-.989a.166.166,0,0,1,.161-.17.173.173,0,0,1,.17.161q.015.5.021.994a.165.165,0,0,1-.163.168Zm-67.565-1.543a.165.165,0,0,1-.165-.16c-.011-.318-.021-.65-.031-.992a.165.165,0,0,1,.161-.17.174.174,0,0,1,.169.161c.01.342.02.673.031.991a.166.166,0,0,1-.16.17Zm67.434-1.76a.165.165,0,0,1-.165-.155q-.033-.5-.071-.988a.165.165,0,0,1,.152-.178.164.164,0,0,1,.178.152c.025.328.05.66.071.993a.166.166,0,0,1-.155.176Zm-67.51-1.547a.165.165,0,0,1-.166-.163c0-.326-.006-.658-.008-.993a.166.166,0,0,1,.165-.166h0a.166.166,0,0,1,.166.165q0,.5.008.991a.165.165,0,0,1-.163.167Zm67.223-1.75a.165.165,0,0,1-.164-.148q-.054-.5-.113-.984a.166.166,0,0,1,.144-.184.163.163,0,0,1,.184.144c.039.325.077.654.113.988a.165.165,0,0,1-.146.182Zm-67.219-1.557h0a.165.165,0,0,1-.163-.168c0-.33.012-.662.02-.993a.169.169,0,0,1,.17-.161.165.165,0,0,1,.161.169c-.008.331-.015.662-.02.99A.166.166,0,0,1,1237.035,830.278Zm66.8-1.724a.165.165,0,0,1-.163-.142q-.074-.5-.15-.979a.165.165,0,1,1,.326-.052q.076.48.15.983a.166.166,0,0,1-.139.188Zm-66.692-1.582h-.009a.165.165,0,0,1-.156-.174q.026-.5.058-.992a.163.163,0,0,1,.176-.154.165.165,0,0,1,.154.176q-.033.49-.058.988A.166.166,0,0,1,1237.143,826.972Zm66.152-1.683a.165.165,0,0,1-.162-.136c-.063-.341-.124-.667-.184-.973a.165.165,0,0,1,.324-.064q.091.463.185.977a.166.166,0,0,1-.133.193Zm-65.893-1.614h-.018a.166.166,0,0,1-.146-.183c.037-.337.078-.667.121-.989a.162.162,0,0,1,.186-.142.165.165,0,0,1,.142.186q-.065.48-.12.981A.166.166,0,0,1,1237.4,823.675Zm65.1-1.5h-.019q-.459-.054-.983-.106a.166.166,0,0,1-.149-.181.168.168,0,0,1,.181-.149q.527.052.99.106a.166.166,0,0,1-.019.33Zm-3.294-.3h-.012q-.477-.035-.988-.067a.165.165,0,1,1,.021-.33q.513.033.991.067a.165.165,0,0,1-.012.33Zm-3.3-.2h-.008l-.991-.048a.165.165,0,1,1,.016-.33l.992.048a.165.165,0,0,1-.008.33Zm-3.3-.145h-.006l-.991-.036a.166.166,0,0,1-.16-.171.173.173,0,0,1,.171-.16l.992.036a.165.165,0,0,1-.006.331Zm-3.306-.11h0l-.991-.028a.166.166,0,0,1-.161-.17.161.161,0,0,1,.17-.161l.992.028a.165.165,0,0,1,0,.331Zm-3.306-.086h0l-.992-.022a.165.165,0,0,1,0-.33h0l.992.022a.165.165,0,0,1,0,.331Zm-3.307-.067h0l-.992-.017a.165.165,0,0,1,0-.331h0l.993.017a.165.165,0,0,1,0,.331Zm-43.993,0a.165.165,0,0,1,0-.331l.993-.012h0a.165.165,0,0,1,0,.331l-.992.012Zm3.309-.038a.165.165,0,0,1,0-.331l.993-.01h0a.165.165,0,0,1,0,.331l-.993.01Zm37.377-.014h0l-.992-.013a.165.165,0,0,1,0-.331h0l.992.013a.165.165,0,0,1,0,.33Zm-34.068-.018a.165.165,0,0,1,0-.331l.992-.009h0a.165.165,0,0,1,0,.331l-.993.009Zm30.762-.021h0l-.992-.01a.165.165,0,0,1,0-.331h0l.992.01a.165.165,0,0,1,0,.331Zm-27.453-.006a.165.165,0,0,1,0-.331l.993-.007h0a.165.165,0,0,1,0,.331l-.993.007Zm24.146-.023h0l-.992-.006a.165.165,0,0,1,0-.331h0l.992.007a.165.165,0,0,1,0,.33Zm-20.838,0a.165.165,0,1,1,0-.33l.992-.006h0a.165.165,0,0,1,0,.331l-.992.005Zm3.308-.016a.165.165,0,1,1,0-.33l.992,0h0a.165.165,0,1,1,0,.33l-.993,0Zm14.222,0h0l-.992,0a.165.165,0,0,1,0-.331h0l.992,0a.165.165,0,0,1,0,.331Zm-10.914-.009a.165.165,0,0,1,0-.331l.992,0a.165.165,0,0,1,0,.331l-.992,0Zm7.607,0h0l-.992,0a.165.165,0,1,1,0-.331h.992a.165.165,0,1,1,0,.331Zm-4.3,0a.165.165,0,0,1,0-.331h.989a.166.166,0,0,1,.167.166.164.164,0,0,1-.163.165h-.992Z" transform="translate(-1234.58 -803.265)" fill="#fff"/>
    <path id="Trazado_100122" data-name="Trazado 100122" d="M1304.93,871.288h-8.82a2.279,2.279,0,0,1-2.266-2l-1.019-8.487a2.276,2.276,0,0,1,2.266-2.541h10.6a2.276,2.276,0,0,1,2.273,2.473l-.756,8.487A2.279,2.279,0,0,1,1304.93,871.288Z" transform="translate(-1263.509 -822.635)" fill="url(#linear-gradient-11)"/>
  </g>
  <g id="Grupo_53706" data-name="Grupo 53706" transform="translate(64.291 0.958)">
    <g id="Grupo_53701" data-name="Grupo 53701" transform="translate(18.36)">
      <g id="Grupo_53698" data-name="Grupo 53698">
        <path id="Trazado_100123" data-name="Trazado 100123" d="M1283.513,671.712a.531.531,0,0,1-.527-.475c-.063-.6-.1-1.2-.112-1.807a.531.531,0,0,1,.521-.541h.01a.531.531,0,0,1,.531.521c.011.573.046,1.15.106,1.716a.531.531,0,0,1-.473.583Zm.034-4.624a.553.553,0,0,1-.063,0,.53.53,0,0,1-.464-.59c.07-.6.167-1.2.288-1.786a.531.531,0,0,1,1.04.213c-.115.558-.207,1.129-.274,1.7A.531.531,0,0,1,1283.547,667.087Zm1.051-4.5a.522.522,0,0,1-.178-.031.531.531,0,0,1-.322-.678c.2-.566.43-1.131.68-1.677a.531.531,0,1,1,.965.44c-.237.52-.454,1.055-.646,1.593A.531.531,0,0,1,1284.6,662.586Zm2.032-4.154a.531.531,0,0,1-.447-.816c.323-.507.673-1.006,1.038-1.483a.531.531,0,0,1,.843.645c-.347.453-.679.927-.986,1.409A.529.529,0,0,1,1286.631,658.431Zm2.907-3.6a.531.531,0,0,1-.373-.908c.426-.422.877-.831,1.34-1.216a.531.531,0,1,1,.679.815c-.439.367-.868.755-1.274,1.156A.528.528,0,0,1,1289.538,654.834Zm3.63-2.864a.531.531,0,0,1-.281-.982c.51-.317,1.04-.616,1.576-.889a.531.531,0,0,1,.482.946c-.509.259-1.013.544-1.5.845A.527.527,0,0,1,1293.169,651.971Zm19.451-1.264a.525.525,0,0,1-.219-.048c-.519-.236-1.056-.452-1.595-.643a.531.531,0,0,1,.354-1c.568.2,1.132.429,1.679.677a.531.531,0,0,1-.22,1.014Zm-15.279-.723a.531.531,0,0,1-.173-1.033c.568-.2,1.151-.369,1.734-.516a.531.531,0,1,1,.258,1.03c-.553.139-1.108.3-1.647.49A.537.537,0,0,1,1297.341,649.984Zm10.88-.7a.531.531,0,0,1-.106-.011c-.559-.113-1.131-.2-1.7-.271a.531.531,0,1,1,.123-1.054c.6.07,1.2.165,1.787.285a.531.531,0,0,1-.105,1.051Zm-6.369-.3a.531.531,0,0,1-.056-1.059c.6-.064,1.2-.1,1.806-.115h.012a.531.531,0,0,1,.011,1.061c-.572.012-1.148.049-1.716.109A.538.538,0,0,1,1301.853,648.979Z" transform="translate(-1282.874 -647.805)" fill="#bdd0fb"/>
        <path id="Trazado_100124" data-name="Trazado 100124" d="M1349.849,655.989a.527.527,0,0,1-.3-.1c-.225-.157-.456-.311-.689-.458a.531.531,0,1,1,.57-.9c.244.156.488.318.724.482a.531.531,0,0,1-.3.967Z" transform="translate(-1316.863 -651.244)" fill="#bdd0fb"/>
      </g>
      <g id="Grupo_53699" data-name="Grupo 53699" transform="translate(8.105 16.542)">
        <path id="Trazado_100125" data-name="Trazado 100125" d="M1368.3,683.953a.531.531,0,0,1-.524-.447c-.043-.27-.093-.544-.148-.814a.531.531,0,0,1,1.04-.212c.057.284.11.573.156.857a.531.531,0,0,1-.44.608A.566.566,0,0,1,1368.3,683.953Z" transform="translate(-1334.794 -682.056)" fill="#bdd0fb"/>
        <path id="Trazado_100126" data-name="Trazado 100126" d="M1316.1,711.815q-.367,0-.736-.013a.531.531,0,0,1,.036-1.061c.568.019,1.135.015,1.692-.012a.531.531,0,0,1,.052,1.061C1316.8,711.806,1316.447,711.815,1316.1,711.815Zm-3.524-.3a.566.566,0,0,1-.09-.008c-.584-.1-1.17-.226-1.742-.374a.531.531,0,0,1,.266-1.027c.543.141,1.1.26,1.655.354a.531.531,0,0,1-.089,1.054Zm7.342-.058a.531.531,0,0,1-.1-1.052c.551-.1,1.105-.232,1.647-.383a.531.531,0,1,1,.284,1.023c-.571.158-1.154.294-1.735.4A.53.53,0,0,1,1319.917,711.459Zm-11.717-1.2a.533.533,0,0,1-.2-.04c-.547-.226-1.091-.477-1.617-.748a.531.531,0,0,1,.486-.944c.5.257,1.016.5,1.536.71a.531.531,0,0,1-.2,1.021Zm16.066-.132a.531.531,0,0,1-.211-1.018c.514-.223,1.027-.47,1.523-.736a.531.531,0,1,1,.5.935c-.521.28-1.061.541-1.6.775A.524.524,0,0,1,1324.266,710.128Zm3.951-2.253a.531.531,0,0,1-.312-.96c.455-.33.9-.684,1.326-1.05a.531.531,0,0,1,.693.8c-.447.386-.917.758-1.4,1.106A.53.53,0,0,1,1328.217,707.875Zm3.366-3.061a.531.531,0,0,1-.4-.882c.372-.422.731-.864,1.066-1.315a.531.531,0,0,1,.852.634c-.353.474-.73.939-1.121,1.383A.531.531,0,0,1,1331.583,704.814Zm2.618-3.722a.525.525,0,0,1-.255-.066.531.531,0,0,1-.21-.721c.271-.493.524-1,.752-1.516a.531.531,0,1,1,.97.431c-.24.54-.507,1.077-.791,1.6A.532.532,0,0,1,1334.2,701.092Zm1.738-4.208a.537.537,0,0,1-.147-.021.531.531,0,0,1-.363-.657c.155-.539.29-1.092.4-1.643a.531.531,0,0,1,1.042.207c-.115.581-.257,1.163-.42,1.73A.532.532,0,0,1,1335.94,696.884Zm.771-4.484h-.033a.53.53,0,0,1-.5-.562c.025-.413.038-.832.038-1.245,0-.149,0-.3,0-.447a.531.531,0,0,1,.519-.542.525.525,0,0,1,.542.519c0,.156,0,.313,0,.47,0,.435-.013.875-.04,1.309A.531.531,0,0,1,1336.711,692.4Z" transform="translate(-1302.984 -685.957)" fill="#bdd0fb"/>
        <path id="Trazado_100127" data-name="Trazado 100127" d="M1300.871,726.154a.529.529,0,0,1-.3-.1c-.235-.165-.471-.339-.7-.515a.531.531,0,0,1,.646-.843c.219.168.443.332.667.489a.531.531,0,0,1-.306.965Z" transform="translate(-1299.656 -704.048)" fill="#bdd0fb"/>
      </g>
      <g id="Grupo_53700" data-name="Grupo 53700" transform="translate(5.207 5.028)">
        <path id="Trazado_100128" data-name="Trazado 100128" d="M1298.484,685.679a.249.249,0,0,0,.278.076l2.834-1.042a13.153,13.153,0,0,0,3.752,2.02l.691,2.937a.249.249,0,0,0,.217.19l3.6.365a.248.248,0,0,0,.25-.143l1.266-2.739a13.169,13.169,0,0,0,4.081-1.227l2.567,1.589a.249.249,0,0,0,.287-.019l2.806-2.29a.248.248,0,0,0,.076-.278l-1.042-2.834a13.148,13.148,0,0,0,2.02-3.752l2.937-.692a.248.248,0,0,0,.19-.216l.365-3.6a.247.247,0,0,0-.143-.25l-2.739-1.266a13.161,13.161,0,0,0-1.227-4.081l1.589-2.567a.248.248,0,0,0-.019-.287l-2.29-2.806a.248.248,0,0,0-.278-.076l-2.834,1.042a13.148,13.148,0,0,0-3.752-2.02l-.691-2.938a.248.248,0,0,0-.216-.19l-3.6-.365a.248.248,0,0,0-.25.143l-1.266,2.739a13.156,13.156,0,0,0-4.081,1.227l-2.567-1.589a.249.249,0,0,0-.287.019l-2.806,2.29a.248.248,0,0,0-.077.278l1.042,2.834a13.156,13.156,0,0,0-2.021,3.752l-2.937.691a.248.248,0,0,0-.19.216l-.365,3.6a.248.248,0,0,0,.143.25l2.739,1.266a13.143,13.143,0,0,0,1.227,4.081l-1.589,2.567a.248.248,0,0,0,.019.287Z" transform="translate(-1293.654 -658.216)" fill="#4a6ea4"/>
        <path id="Trazado_100129" data-name="Trazado 100129" d="M1322.895,691.1a3.642,3.642,0,1,1,.533-.039A3.7,3.7,0,0,1,1322.895,691.1Zm.008-6.433a2.836,2.836,0,0,0-.413.03,2.78,2.78,0,1,0,.413-.03Z" transform="translate(-1306.891 -671.453)" fill="#fff" opacity="0.56"/>
        <path id="Trazado_100130" data-name="Trazado 100130" d="M1317.343,690.615a9.039,9.039,0,0,1-.919-.046h0q-.146-.014-.29-.034a9,9,0,0,1-1.4-.3l-.019-.005-.052-.016-.1-.032a.213.213,0,0,1-.147-.2.209.209,0,0,1,.01-.066.213.213,0,0,1,.267-.137,8.534,8.534,0,0,0,11.121-7.252,8.744,8.744,0,0,0,.045-.877,8.528,8.528,0,1,0-16.251,3.636.207.207,0,0,1,.021.09.212.212,0,0,1-.4.09,8.953,8.953,0,1,1,17.06-3.817,9.176,9.176,0,0,1-.046.92,8.954,8.954,0,0,1-8.89,8.051Z" transform="translate(-1301.265 -665.71)" fill="#fff" opacity="0.56"/>
      </g>
    </g>
    <g id="Grupo_53705" data-name="Grupo 53705" transform="translate(0 19.531)">
      <g id="Grupo_53702" data-name="Grupo 53702">
        <path id="Trazado_100131" data-name="Trazado 100131" d="M1246.117,724.718a.327.327,0,0,1-.314-.236c-.078-.267-.15-.54-.212-.811a.328.328,0,1,1,.639-.147c.059.259.128.519.2.774a.328.328,0,0,1-.222.407A.324.324,0,0,1,1246.117,724.718Z" transform="translate(-1245.233 -706.354)" fill="#bdd0fb"/>
        <path id="Trazado_100132" data-name="Trazado 100132" d="M1245.258,704.134a.328.328,0,0,1-.326-.295,14.233,14.233,0,0,1-.073-1.441c0-.1,0-.2,0-.3a.339.339,0,0,1,.335-.321.328.328,0,0,1,.321.335q0,.145,0,.29a13.737,13.737,0,0,0,.069,1.374.328.328,0,0,1-.293.359Zm.072-3.4a.307.307,0,0,1-.047,0,.327.327,0,0,1-.278-.371,14.163,14.163,0,0,1,.354-1.709.328.328,0,0,1,.633.172,13.638,13.638,0,0,0-.338,1.63A.327.327,0,0,1,1245.33,700.731Zm.9-3.284a.332.332,0,0,1-.125-.025.328.328,0,0,1-.178-.428,14.089,14.089,0,0,1,.763-1.57.328.328,0,1,1,.571.323,13.411,13.411,0,0,0-.728,1.5A.328.328,0,0,1,1246.225,697.447Zm1.675-2.964a.328.328,0,0,1-.263-.523,14.185,14.185,0,0,1,1.124-1.336.328.328,0,1,1,.475.453,13.416,13.416,0,0,0-1.072,1.274A.328.328,0,0,1,1247.9,694.483Zm2.348-2.464a.328.328,0,0,1-.208-.582,14.355,14.355,0,0,1,1.414-1.021.328.328,0,1,1,.351.553,13.743,13.743,0,0,0-1.349.975A.327.327,0,0,1,1250.249,692.018Zm2.875-1.82a.328.328,0,0,1-.141-.624,14.13,14.13,0,0,1,1.621-.646.328.328,0,0,1,.2.623,13.48,13.48,0,0,0-1.545.616A.328.328,0,0,1,1253.124,690.2Zm3.231-1.062a.328.328,0,0,1-.062-.65,14.186,14.186,0,0,1,1.73-.228.328.328,0,0,1,.046.654,13.38,13.38,0,0,0-1.651.218A.346.346,0,0,1,1256.355,689.137Zm5.09-.042a.3.3,0,0,1-.058-.005,13.633,13.633,0,0,0-1.437-.176c-.073-.005-.145-.01-.217-.013a.329.329,0,0,1-.311-.344.325.325,0,0,1,.344-.311l.23.014a14.3,14.3,0,0,1,1.505.185.328.328,0,0,1-.057.651Z" transform="translate(-1244.859 -688.245)" fill="#bdd0fb"/>
      </g>
      <g id="Grupo_53703" data-name="Grupo 53703" transform="translate(5.427 20.019)">
        <path id="Trazado_100133" data-name="Trazado 100133" d="M1267.294,737.976a.328.328,0,0,1,0-.656,13.549,13.549,0,0,0,1.633-.12.328.328,0,0,1,.088.65,14.361,14.361,0,0,1-1.712.126Zm-1.676-.079-.036,0a14.342,14.342,0,0,1-1.693-.285.328.328,0,0,1,.148-.639,13.616,13.616,0,0,0,1.615.272.328.328,0,0,1-.034.654Zm4.993-.369a.328.328,0,0,1-.083-.645,13.523,13.523,0,0,0,1.556-.512.328.328,0,0,1,.242.609,14.2,14.2,0,0,1-1.631.536A.337.337,0,0,1,1270.611,737.528Zm-8.256-.387a.329.329,0,0,1-.113-.02,14.051,14.051,0,0,1-1.575-.686.328.328,0,0,1,.3-.584,13.441,13.441,0,0,0,1.5.654.328.328,0,0,1-.112.636Zm11.366-.85a.328.328,0,0,1-.158-.616,13.5,13.5,0,0,0,1.387-.87.328.328,0,0,1,.382.534,14.264,14.264,0,0,1-1.454.912A.328.328,0,0,1,1273.721,736.291Zm2.723-1.947a.328.328,0,0,1-.222-.569,13.7,13.7,0,0,0,1.139-1.177.328.328,0,1,1,.5.426,14.248,14.248,0,0,1-1.193,1.234A.329.329,0,0,1,1276.444,734.344Zm2.178-2.543a.324.324,0,0,1-.182-.055.328.328,0,0,1-.091-.454,13.407,13.407,0,0,0,.823-1.416.328.328,0,0,1,.586.295,14.233,14.233,0,0,1-.863,1.485A.328.328,0,0,1,1278.623,731.8Z" transform="translate(-1258.367 -729.694)" fill="#bdd0fb"/>
        <path id="Trazado_100134" data-name="Trazado 100134" d="M1257.087,740.729a.326.326,0,0,1-.183-.056c-.232-.158-.461-.322-.68-.49a.328.328,0,0,1,.4-.521c.209.16.427.317.649.468a.328.328,0,0,1-.184.6Z" transform="translate(-1256.095 -734.813)" fill="#bdd0fb"/>
      </g>
      <g id="Grupo_53704" data-name="Grupo 53704" transform="translate(3.46 3.322)">
        <path id="Trazado_100135" data-name="Trazado 100135" d="M1255.254,713.5a.166.166,0,0,0,.186.051l1.9-.7a8.79,8.79,0,0,0,2.511,1.352l.463,1.966a.166.166,0,0,0,.145.127l2.411.244a.166.166,0,0,0,.167-.1l.848-1.833a8.81,8.81,0,0,0,2.731-.821l1.718,1.063a.166.166,0,0,0,.192-.013l1.878-1.532a.166.166,0,0,0,.051-.186l-.7-1.9a8.79,8.79,0,0,0,1.352-2.511l1.966-.462a.166.166,0,0,0,.127-.145l.244-2.411a.167.167,0,0,0-.1-.168l-1.833-.847a8.792,8.792,0,0,0-.821-2.731l1.064-1.719a.166.166,0,0,0-.013-.192l-1.532-1.878a.165.165,0,0,0-.186-.051l-1.9.7a8.807,8.807,0,0,0-2.511-1.352l-.462-1.966a.167.167,0,0,0-.145-.127l-2.411-.244a.167.167,0,0,0-.168.1l-.847,1.833a8.806,8.806,0,0,0-2.731.821l-1.718-1.063a.167.167,0,0,0-.193.013l-1.878,1.532a.166.166,0,0,0-.051.186l.7,1.9a8.805,8.805,0,0,0-1.352,2.51l-1.965.463a.166.166,0,0,0-.128.145l-.244,2.411a.167.167,0,0,0,.1.168l1.833.847a8.8,8.8,0,0,0,.821,2.731l-1.063,1.718a.165.165,0,0,0,.013.192Z" transform="translate(-1252.022 -695.122)" fill="#4a6ea4"/>
        <path id="Trazado_100136" data-name="Trazado 100136" d="M1271.537,717.124a2.487,2.487,0,1,1,.367-.027A2.462,2.462,0,0,1,1271.537,717.124Zm.006-4.3a1.793,1.793,0,0,0-.267.02,1.824,1.824,0,1,0,.532,3.609h0a1.824,1.824,0,0,0-.265-3.629Z" transform="translate(-1260.833 -703.934)" fill="#fff" opacity="0.56"/>
        <path id="Trazado_100137" data-name="Trazado 100137" d="M1267.668,716.788a6.236,6.236,0,0,1-1.86-.284l-.054-.017a.327.327,0,0,1-.227-.311.336.336,0,0,1,.016-.1.328.328,0,0,1,.413-.211,5.553,5.553,0,0,0,1.15.241h0l.065.006a5.472,5.472,0,0,0,2.67-.423,5.545,5.545,0,0,0,1.274-.767l.01-.008.029-.024a5.52,5.52,0,1,0-8.49-1.934.323.323,0,0,1,.031.139.328.328,0,0,1-.624.14,6.176,6.176,0,1,1,5.6,3.555Z" transform="translate(-1256.916 -699.937)" fill="#fff" opacity="0.56"/>
      </g>
    </g>
  </g>
</svg>
