<svg id="Grupo_53853" data-name="Grupo 53853" xmlns="http://www.w3.org/2000/svg" width="191.926" height="114.797" viewBox="0 0 191.926 114.797">
  <g id="Grupo_53644" data-name="Grupo 53644" transform="translate(9.251 32.876)">
    <path id="Trazado_100011" data-name="Trazado 100011" d="M722.156,793.432c-.906,0-1.836-.011-2.764-.032l.039-1.634a99.9,99.9,0,0,0,13.245-.517l.188,1.624A97.5,97.5,0,0,1,722.156,793.432Zm-16.184-.983c-4.22-.48-8.69-1.145-13.285-1.976l.3-1.607c4.559.825,8.991,1.484,13.174,1.96Zm40.116-2.408-.553-1.542a32.113,32.113,0,0,0,11.227-6.307l1.133,1.2A33.761,33.761,0,0,1,746.087,790.041ZM600.37,788.665c-5.615-.223-9.021-2.432-10.72-6.95q-.1-.272-.2-.543l1.574-.541c.062.174.126.347.191.52,1.455,3.872,4.3,5.686,9.222,5.881Zm79.185-.925c-2.569-.6-5.223-1.256-7.885-1.95-1.674-.436-3.385-.829-5.084-1.167l.333-1.6c1.731.345,3.474.746,5.18,1.19,2.65.69,5.289,1.343,7.844,1.939Zm-65.726-.592-.309-1.606q1.745-.322,3.6-.678c3.043-.578,6.19-1.177,9.578-1.731l.275,1.612c-3.367.55-6.5,1.147-9.535,1.723C616.2,786.7,615,786.933,613.829,787.148Zm26.345-4.009-.123-1.63c2.748-.2,5.471-.3,8.094-.3h.011c1.8,0,3.61.047,5.376.141l-.09,1.632c-1.736-.092-3.514-.139-5.286-.139h-.011C645.562,782.845,642.88,782.944,640.173,783.14Zm124.408-11.424-1.644-.278a17.609,17.609,0,0,0,.267-3.052,18.366,18.366,0,0,0-2.426-9.079q-.3-.531-.616-1.037l1.427-.846q.327.531.645,1.086a19.979,19.979,0,0,1,2.638,9.876A19.2,19.2,0,0,1,764.582,771.716ZM588.89,768.039l-1.668-.012a42.541,42.541,0,0,1,2.247-13.12l1.586.507A40.937,40.937,0,0,0,588.89,768.039Zm162.374-18.806a34.4,34.4,0,0,0-12.2-4.283l.293-1.609a36.03,36.03,0,0,1,12.786,4.505ZM596.717,743.8l-1.408-.878a62.581,62.581,0,0,1,8.466-10.347l1.185,1.15A60.923,60.923,0,0,0,596.717,743.8Zm129.141-.075q-1.61-.074-3.248-.14c-3.3-.137-6.705-.279-10.149-.548l.133-1.629c3.414.266,6.806.408,10.088.544q1.641.068,3.256.14Zm-26.749-2.6a59.287,59.287,0,0,1-12.766-4.387l.736-1.467a57.643,57.643,0,0,0,12.406,4.261Zm-24.069-11.662c-.986-.818-1.968-1.69-2.921-2.591a40.864,40.864,0,0,0-7.346-5.549l.859-1.4a42.56,42.56,0,0,1,7.646,5.775c.927.877,1.883,1.725,2.841,2.52ZM615.147,725.5l-.926-1.359a63.624,63.624,0,0,1,11.992-6.16l.608,1.522A61.926,61.926,0,0,0,615.147,725.5Zm37.467-8.756a42.968,42.968,0,0,0-13.06-.425l-.2-1.623a44.731,44.731,0,0,1,13.578.445Z" transform="translate(-587.222 -714.377)" fill="#f7a416"/>
  </g>
  <path id="Trazado_100012" data-name="Trazado 100012" d="M760.447,809.992H586.127C591.582,770.525,628.521,740,673.287,740S754.991,770.525,760.447,809.992Z" transform="translate(-577.324 -696.653)" fill="#a1bee9"/>
  <rect id="Rectángulo_5146" data-name="Rectángulo 5146" width="75.025" height="102.916" rx="37.513" transform="translate(91.26 10.075)" fill="#4a6ea4"/>
  <g id="Grupo_53645" data-name="Grupo 53645" transform="translate(93.681 14.223)">
    <rect id="Rectángulo_5147" data-name="Rectángulo 5147" width="61.752" height="89.702" transform="translate(3.419)" fill="#f6f5f5"/>
    <path id="Trazado_100013" data-name="Trazado 100013" d="M857.4,668.725c.019,34.979,1.148,77.165-2.781,86.505-17.306,1.686-37.57,2.228-58.972,2.328L803.779,669Z" transform="translate(-792.226 -668.724)" fill="#e4e4e4"/>
    <path id="Trazado_100014" data-name="Trazado 100014" d="M846.9,752.409c-26.974,4.317-45,4.545-59.624,3.459,1.895-20.17,2.654-53.679,3.418-87.133l32.5.072,29.418,1.942C853.047,705.471,853.094,737.545,846.9,752.409Z" transform="translate(-787.278 -668.73)" fill="#fff"/>
  </g>
  <rect id="Rectángulo_5148" data-name="Rectángulo 5148" width="32.494" height="4.949" transform="translate(111.129 22.495) rotate(1.348)" fill="#708cd5"/>
  <g id="Grupo_53646" data-name="Grupo 53646" transform="translate(120.57 34.679)">
    <rect id="Rectángulo_5149" data-name="Rectángulo 5149" width="29.309" height="2.265" transform="matrix(1, 0.024, -0.024, 1, 0.17, 0)" fill="#708cd5"/>
    <rect id="Rectángulo_5150" data-name="Rectángulo 5150" width="19.922" height="2.265" transform="translate(0.053 4.938) rotate(1.348)" fill="#d3dfff"/>
  </g>
  <g id="Grupo_53647" data-name="Grupo 53647" transform="translate(102.499 33.177)">
    <rect id="Rectángulo_5151" data-name="Rectángulo 5151" width="6.939" height="6.939" transform="matrix(1, 0.024, -0.024, 1, 1.417, 1.254)" fill="#fff"/>
    <path id="Trazado_100015" data-name="Trazado 100015" d="M819.837,724.723l-9.388-.221.221-9.388,9.388.221Zm-6.879-2.615,4.486.106.106-4.486-4.486-.105Z" transform="translate(-810.449 -715.114)" fill="#708cd5"/>
  </g>
  <g id="Grupo_53648" data-name="Grupo 53648" transform="translate(105.069 32.151)">
    <path id="Trazado_100016" data-name="Trazado 100016" d="M816.665,716.709c.214.82.61,4.254,2.33,3.294a5.247,5.247,0,0,0,1.029-1.144l1.6-1.817,3.2-3.633c.273-.311-.934-1.089-1.277-.7L820.7,715.94l-1.422,1.615c-.329.373-1.09,1.578-1.578,1.685l.8.257c.188.154-.161-.937-.169-.967l-.4-1.52c-.109-.418-1.43-.921-1.268-.3Z" transform="translate(-816.651 -712.603)" fill="#f7a416"/>
  </g>
  <g id="Grupo_53649" data-name="Grupo 53649" transform="translate(120.265 47.29)">
    <rect id="Rectángulo_5152" data-name="Rectángulo 5152" width="24.136" height="2.265" transform="translate(0.17 0) rotate(1.348)" fill="#708cd5"/>
    <rect id="Rectángulo_5153" data-name="Rectángulo 5153" width="29.309" height="2.265" transform="translate(0.053 4.938) rotate(1.348)" fill="#d3dfff"/>
  </g>
  <g id="Grupo_53650" data-name="Grupo 53650" transform="translate(102.197 45.788)">
    <rect id="Rectángulo_5154" data-name="Rectángulo 5154" width="6.939" height="6.939" transform="matrix(1, 0.024, -0.024, 1, 1.417, 1.254)" fill="#fff"/>
    <path id="Trazado_100017" data-name="Trazado 100017" d="M819.11,755.589l-9.387-.221.221-9.388,9.387.221Zm-6.879-2.615,4.486.106.106-4.486-4.486-.105Z" transform="translate(-809.723 -745.98)" fill="#708cd5"/>
  </g>
  <g id="Grupo_53651" data-name="Grupo 53651" transform="translate(104.761 44.958)">
    <path id="Trazado_100018" data-name="Trazado 100018" d="M815.927,748.053c.214.82.61,4.254,2.33,3.294a5.234,5.234,0,0,0,1.029-1.144l1.6-1.817,3.2-3.633c.273-.31-.934-1.089-1.277-.7l-2.844,3.229-1.422,1.615c-.329.373-1.09,1.578-1.578,1.685l.8.257c.188.154-.161-.937-.169-.967l-.4-1.519c-.109-.419-1.43-.922-1.268-.3Z" transform="translate(-815.914 -743.948)" fill="#f7a416"/>
  </g>
  <g id="Grupo_53652" data-name="Grupo 53652" transform="translate(119.963 59.901)">
    <rect id="Rectángulo_5155" data-name="Rectángulo 5155" width="29.309" height="2.265" transform="translate(0.17 0) rotate(1.348)" fill="#708cd5"/>
    <rect id="Rectángulo_5156" data-name="Rectángulo 5156" width="13.108" height="2.265" transform="translate(0.053 4.938) rotate(1.348)" fill="#d3dfff"/>
  </g>
  <g id="Grupo_53653" data-name="Grupo 53653" transform="translate(101.894 58.399)">
    <rect id="Rectángulo_5157" data-name="Rectángulo 5157" width="6.939" height="6.939" transform="matrix(1, 0.024, -0.024, 1, 1.417, 1.254)" fill="#fff"/>
    <path id="Trazado_100019" data-name="Trazado 100019" d="M818.384,786.454,809,786.233l.221-9.388,9.388.221Zm-6.879-2.614,4.486.105.106-4.485-4.486-.106Z" transform="translate(-808.996 -776.845)" fill="#708cd5"/>
  </g>
  <g id="Grupo_53654" data-name="Grupo 53654" transform="translate(104.554 57.659)">
    <path id="Trazado_100020" data-name="Trazado 100020" d="M815.431,779.138c.214.82.61,4.254,2.33,3.294a5.233,5.233,0,0,0,1.029-1.144l1.6-1.817,3.2-3.633c.273-.31-.934-1.089-1.277-.7l-2.844,3.229-1.422,1.615c-.329.373-1.09,1.578-1.578,1.685l.8.257c.188.154-.161-.937-.169-.967l-.4-1.52c-.11-.419-1.43-.922-1.268-.3Z" transform="translate(-815.417 -775.033)" fill="#f7a416"/>
  </g>
  <g id="Grupo_53655" data-name="Grupo 53655" transform="translate(119.659 72.512)">
    <rect id="Rectángulo_5158" data-name="Rectángulo 5158" width="29.309" height="2.265" transform="translate(0.17 0) rotate(1.348)" fill="#708cd5"/>
    <rect id="Rectángulo_5159" data-name="Rectángulo 5159" width="23.153" height="2.265" transform="matrix(1, 0.024, -0.024, 1, 0.053, 4.938)" fill="#d3dfff"/>
  </g>
  <g id="Grupo_53656" data-name="Grupo 53656" transform="translate(101.59 71.011)">
    <rect id="Rectángulo_5160" data-name="Rectángulo 5160" width="6.939" height="6.939" transform="matrix(1, 0.024, -0.024, 1, 1.418, 1.254)" fill="#fff"/>
    <path id="Trazado_100021" data-name="Trazado 100021" d="M817.657,817.32l-9.388-.221.221-9.388,9.387.221Zm-6.879-2.614,4.486.105.105-4.486-4.485-.105Z" transform="translate(-808.269 -807.711)" fill="#708cd5"/>
  </g>
  <g id="Grupo_53657" data-name="Grupo 53657" transform="translate(104.254 70.187)">
    <path id="Trazado_100022" data-name="Trazado 100022" d="M814.71,809.8c.214.82.61,4.254,2.329,3.294a5.225,5.225,0,0,0,1.029-1.144l1.6-1.816,3.2-3.633c.273-.31-.934-1.088-1.277-.7l-2.845,3.229-1.422,1.615c-.329.374-1.09,1.578-1.578,1.685l.8.257c.188.154-.161-.937-.169-.967l-.4-1.52c-.109-.419-1.43-.922-1.268-.3Z" transform="translate(-814.696 -805.696)" fill="#f7a416"/>
  </g>
  <g id="Grupo_53658" data-name="Grupo 53658" transform="translate(119.356 85.028)">
    <rect id="Rectángulo_5161" data-name="Rectángulo 5161" width="11.618" height="2.265" transform="matrix(1, 0.024, -0.024, 1, 0.169, 0)" fill="#708cd5"/>
    <path id="Trazado_100023" data-name="Trazado 100023" d="M879.532,854.794l-29.3-.69-.053,2.265c11.336.266,25.771.8,28.716.345A2.542,2.542,0,0,0,879.532,854.794Z" transform="translate(-850.178 -849.166)" fill="#d3dfff"/>
  </g>
  <g id="Grupo_53659" data-name="Grupo 53659" transform="translate(101.389 83.529)">
    <rect id="Rectángulo_5162" data-name="Rectángulo 5162" width="6.939" height="6.939" transform="translate(1.418 1.254) rotate(1.348)" fill="#fff"/>
    <path id="Trazado_100024" data-name="Trazado 100024" d="M817.174,847.957l-9.388-.221.221-9.388,9.388.221Zm-6.879-2.614,4.486.106.106-4.486-4.486-.106Z" transform="translate(-807.786 -838.349)" fill="#708cd5"/>
  </g>
  <g id="Grupo_53660" data-name="Grupo 53660" transform="translate(103.955 82.606)">
    <path id="Trazado_100025" data-name="Trazado 100025" d="M813.994,840.2c.214.82.61,4.255,2.33,3.294a5.232,5.232,0,0,0,1.029-1.144l1.6-1.817,3.2-3.633c.273-.31-.934-1.089-1.277-.7l-2.844,3.23-1.422,1.615c-.329.374-1.09,1.578-1.578,1.685l.8.257c.188.154-.161-.937-.169-.967l-.4-1.52c-.11-.418-1.43-.921-1.268-.3Z" transform="translate(-813.98 -836.09)" fill="#f7a416"/>
  </g>
  <path id="Trazado_100026" data-name="Trazado 100026" d="M864.638,644.612v6.924H836.822v-6.924a4,4,0,0,1,1.171-2.828,3.312,3.312,0,0,1,.283-.253,3.968,3.968,0,0,1,2.545-.918,4.714,4.714,0,0,0,2.045-.466,4.905,4.905,0,0,0,.769-.463,4.706,4.706,0,0,0,1.707-2.42,4.728,4.728,0,0,1,4.521-3.35H851.6a4.727,4.727,0,0,1,4.52,3.35,4.71,4.71,0,0,0,1.707,2.42,4.889,4.889,0,0,0,.769.463,4.71,4.71,0,0,0,2.044.466,4,4,0,0,1,4,4Z" transform="translate(-723.072 -633.914)" fill="#f7a416"/>
  <path id="Trazado_100027" data-name="Trazado 100027" d="M863.628,668.724v5.147H831.3v-5.147h2.257v3.4H861.37v-3.4Z" transform="translate(-719.784 -654.501)" fill="#e4e4e4"/>
  <ellipse id="Elipse_3973" data-name="Elipse 3973" cx="2.467" cy="2.345" rx="2.467" ry="2.345" transform="translate(125.104 1.805)" fill="#fff"/>
  <g id="Grupo_53661" data-name="Grupo 53661" transform="translate(37.84 104.568)">
    <path id="Trazado_100028" data-name="Trazado 100028" d="M660.556,898.849l-.446,1.392c-3.055,1-4.837,2.154-4.951,3.5h8.835l.708-4.663A6.854,6.854,0,0,1,660.556,898.849Z" transform="translate(-655.159 -895.168)" fill="#171e26"/>
    <path id="Trazado_100029" data-name="Trazado 100029" d="M669.477,890.376l-1.108,3.462a6.853,6.853,0,0,0,4.146.225l.457-3.008Z" transform="translate(-662.972 -890.157)" fill="#171e26"/>
    <path id="Trazado_100030" data-name="Trazado 100030" d="M702.089,893.367l.259-3.526-4.15.219-.227,3.251A6.789,6.789,0,0,0,702.089,893.367Z" transform="translate(-680.479 -889.841)" fill="#171e26"/>
    <path id="Trazado_100031" data-name="Trazado 100031" d="M706.566,903.431c-.114-1.342-1.675-3.18-5.1-3.617l.1-1.426a6.788,6.788,0,0,1-4.118-.057l-.356,5.1Z" transform="translate(-679.964 -894.863)" fill="#171e26"/>
  </g>
  <path id="Trazado_100032" data-name="Trazado 100032" d="M692.568,714.707l-5.007.035v-7.573h4.855l0,.463.023,2.4.035,3.854Z" transform="translate(-636.318 -677.238)" fill="#eeb399"/>
  <path id="Trazado_100033" data-name="Trazado 100033" d="M693.375,711.593c-.9.947-3.247-.122-4.238-1.165l4.215-1.235Z" transform="translate(-637.241 -678.435)" fill="#e28b6d"/>
  <path id="Trazado_100034" data-name="Trazado 100034" d="M704.352,792.232l-2.767,44H695.08l1.626-42.7,1-.485Z" transform="translate(-640.679 -727.546)" fill="#093047"/>
  <path id="Trazado_100035" data-name="Trazado 100035" d="M669.7,773.853l-4.563,49.6h7.088l6.748-41.2,7.67-2.429.34-8.806-17.088-.4Z" transform="translate(-623.157 -714.761)" fill="#0a3759"/>
  <path id="Trazado_100036" data-name="Trazado 100036" d="M676.714,771.5c3.871,1.39,12.954-.2,14.84-2.134l-1.34-2.68-14.939,1.985Z" transform="translate(-629.093 -712.439)" fill="#102048" opacity="0.6"/>
  <path id="Trazado_100037" data-name="Trazado 100037" d="M694.581,740.584c-.125.052-.253.108-.384.157a26.284,26.284,0,0,1-4.853,1.445,22.258,22.258,0,0,1-3.253.4,18.8,18.8,0,0,1-5.109-.414l2.17-20.231.265-2.467s2.84,3.5,5.971-.364Z" transform="translate(-632.434 -684.3)" fill="#e54c64"/>
  <rect id="Rectángulo_5163" data-name="Rectángulo 5163" width="191.926" height="3.269" transform="translate(0 111.528)" fill="#102048"/>
  <path id="Trazado_100038" data-name="Trazado 100038" d="M672.572,723.22l1.386,18.515a19.042,19.042,0,0,0,10.314,1.549c6.044-.712,7.378-3.325,7.378-3.325s-.967-18.169-1.142-18.348-.864-6.148-9.61-4.892S672.572,723.22,672.572,723.22Z" transform="translate(-627.5 -682.783)" fill="#e54c64"/>
  <g id="Grupo_53662" data-name="Grupo 53662" transform="translate(29.824 38.569)">
    <path id="Trazado_100039" data-name="Trazado 100039" d="M636.86,742.594l9.522-2.105a2.282,2.282,0,0,0,1.3-.853l5.439-7.269a2.281,2.281,0,1,0-3.653-2.733l-4.943,6.606-8.472,2.647A8.429,8.429,0,0,1,636.86,742.594Z" transform="translate(-636.053 -728.551)" fill="#eeb399"/>
    <path id="Trazado_100040" data-name="Trazado 100040" d="M666.576,728.782a2.366,2.366,0,0,0-3.313.477l-3.854,5.15a19.113,19.113,0,0,0,3.589,3.1l4.055-5.419A2.367,2.367,0,0,0,666.576,728.782Z" transform="translate(-649.867 -728.31)" fill="#e54c64"/>
    <path id="Trazado_100041" data-name="Trazado 100041" d="M659.221,735.7a.08.08,0,0,1,.008-.083l3.854-5.15a.081.081,0,1,1,.129.1l-3.814,5.1a18.994,18.994,0,0,0,3.465,3l4.01-5.359a.081.081,0,0,1,.129.1l-4.055,5.419a.08.08,0,0,1-.107.02,19.109,19.109,0,0,1-3.605-3.119A.077.077,0,0,1,659.221,735.7Z" transform="translate(-649.75 -729.567)" fill="#8e263a"/>
  </g>
  <g id="Grupo_53663" data-name="Grupo 53663" transform="translate(20.808 23.872)">
    <path id="Trazado_100042" data-name="Trazado 100042" d="M622.095,696.5s.26-4.354.7-4.149,1.332,3.992,1.332,3.992l-.95,1.533Z" transform="translate(-619.404 -692.341)" fill="#6f3428"/>
    <path id="Trazado_100043" data-name="Trazado 100043" d="M640.3,894.95l.129,1.433a4.6,4.6,0,0,1-4.169,4.992l-.369.033a4.6,4.6,0,0,1-4.992-4.169l-.129-1.433Z" transform="translate(-624.535 -812.167)" fill="#ee6f57"/>
    <rect id="Rectángulo_5164" data-name="Rectángulo 5164" width="9.568" height="69.671" transform="translate(0.001 14.248) rotate(-5.134)" fill="#fbc343"/>
    <path id="Trazado_100044" data-name="Trazado 100044" d="M624.14,782.72l-5.757-64.08,6.64-.6,5.757,64.079Zm-2.21-61.117,5.173,57.569.129-.012-5.172-57.568Z" transform="translate(-617.209 -707.542)" fill="#6f3428" opacity="0.3"/>
    <path id="Trazado_100045" data-name="Trazado 100045" d="M638.906,879.451l-9.527.856-.25-2.8-.175-1.943-.539-5.971,9.53-.856.536,5.971.175,1.943Z" transform="translate(-623.141 -796.666)" fill="#102048"/>
    <rect id="Rectángulo_5165" data-name="Rectángulo 5165" width="9.566" height="1.951" transform="translate(5.812 78.901) rotate(-5.136)" fill="#fbc343"/>
    <path id="Trazado_100046" data-name="Trazado 100046" d="M615.509,711.452l2.647-10.609a2.276,2.276,0,0,0,2.022-.279L625.04,710.6Z" transform="translate(-615.509 -697.204)" fill="#ee6f57"/>
  </g>
  <path id="Trazado_100047" data-name="Trazado 100047" d="M617.638,753.892a1.3,1.3,0,0,0-1.655-.855c-1.084.374-2.029,1.009-2.174,2.09-.133.984.359,4.126,2.556,4.53l-.179-1.615s1.345-.314,1.614-.9A6.761,6.761,0,0,0,617.638,753.892Z" transform="translate(-593.683 -704.324)" fill="#f9b384"/>
  <g id="Grupo_53666" data-name="Grupo 53666" transform="translate(58.927 21.318)">
    <g id="Grupo_53664" data-name="Grupo 53664" transform="translate(0 7.566)">
      <path id="Trazado_100048" data-name="Trazado 100048" d="M726.04,707.348l-7.067,6.719a2.283,2.283,0,0,1-1.435.6l-9.067.448a2.281,2.281,0,1,1-.225-4.557l8.241-.407,6.93-5.546A8.433,8.433,0,0,0,726.04,707.348Z" transform="translate(-705.896 -704.606)" fill="#eeb399"/>
      <path id="Trazado_100049" data-name="Trazado 100049" d="M705.638,720.98a2.367,2.367,0,0,1,2.247-2.481l6.424-.317a19.1,19.1,0,0,1,.569,4.711l-6.76.334A2.368,2.368,0,0,1,705.638,720.98Z" transform="translate(-705.635 -712.635)" fill="#e54c64"/>
      <path id="Trazado_100050" data-name="Trazado 100050" d="M717.519,718.024a.081.081,0,0,0-.073-.039l-6.424.317a.081.081,0,1,0,.008.161l6.357-.314a18.989,18.989,0,0,1,.554,4.551l-6.685.33a.081.081,0,1,0,.008.161l6.76-.334a.081.081,0,0,0,.076-.078,19.106,19.106,0,0,0-.571-4.733A.08.08,0,0,0,717.519,718.024Z" transform="translate(-708.775 -712.518)" fill="#8e263a"/>
    </g>
    <g id="Grupo_53665" data-name="Grupo 53665" transform="translate(16.41 0)">
      <path id="Trazado_100051" data-name="Trazado 100051" d="M752.365,692.76c-.74-.679-.653-2.566-.592-3.272a.785.785,0,0,1,.2-.463l1.432-1.561a1.154,1.154,0,0,1-.008,1.6.889.889,0,0,0-.14.345l-.184.954,1.29-.133.36-1.646a2.733,2.733,0,0,1-1.013-.532c-.543-.637.673-.614.989-.5s1.074.278,1.058.93-.022,1.038-.022,1.038a12.447,12.447,0,0,0,2.245-3.395c.057-.113.325.056.353.18.083.371.008,1.3-1.3,3.439,0,0,1.581-2.46,2.165-2.451.482.007-.1,1.333-1.624,3.241,0,0,1.567-1.5,1.9-1.3.557.339-2.954,4.772-5.229,5.33Z" transform="translate(-749.308 -686.089)" fill="#eeb399"/>
      <path id="Trazado_100052" data-name="Trazado 100052" d="M751.935,702.157q-.258.333-.51.64l0,0a23.5,23.5,0,0,1-1.674,1.878c-.026.025-.048.049-.072.072-1.5,1.472-2.1,2.272-3.408,1.148l-.436-2.616,0-.027-.032-.191.855-.7.112-.092.625-.51.08-.067,1.074-.879.435-.357Z" transform="translate(-745.797 -694.585)" fill="#eeb399"/>
    </g>
  </g>
  <g id="Grupo_53667" data-name="Grupo 53667" transform="translate(47.749 20.107)">
    <rect id="Rectángulo_5166" data-name="Rectángulo 5166" width="8.081" height="11.554" rx="4.04" transform="translate(10.032 12.792) rotate(180)" fill="#eeb399"/>
    <path id="Trazado_100053" data-name="Trazado 100053" d="M690.22,685.346a1.178,1.178,0,0,1-.246,1.39,2.338,2.338,0,0,1-1.374.586,8.018,8.018,0,0,1-4.12-.814.769.769,0,0,1-.022,1.057,1.229,1.229,0,0,1-1.092.3c-.055.152.137.275.192.427.093.255-.221.476-.492.506s-.579-.008-.778.177a.731.731,0,0,0-.137.7,2.768,2.768,0,0,1,.14.729c-.014.248-.2.514-.449.5-.265-.019-.476-.345-.729-.264a.379.379,0,0,0-.226.33c-.068.56.544,1.062.41,1.611-.108.447-.644.633-1.1.651a1.29,1.29,0,0,1-.92-.248.515.515,0,0,1-.168-.263.861.861,0,0,1,.2-.6,6.632,6.632,0,0,0,.685-3.584,11.077,11.077,0,0,1,.278-3.67,1.848,1.848,0,0,1,.648-.989.851.851,0,0,1,1.1.078,3.5,3.5,0,0,1,1.879-.651,13.416,13.416,0,0,1,1.829-.172,6.73,6.73,0,0,1,3.212.811,3.068,3.068,0,0,1,.9.685,1.481,1.481,0,0,1,.377,1.045" transform="translate(-679.097 -683.125)" fill="#441f04"/>
    <path id="Trazado_100054" data-name="Trazado 100054" d="M681.566,701.035a.991.991,0,1,0,.991-.99A.991.991,0,0,0,681.566,701.035Z" transform="translate(-680.557 -693.132)" fill="#eeb399"/>
  </g>
</svg>
