<svg id="Grupo_53625" data-name="Grupo 53625" xmlns="http://www.w3.org/2000/svg" width="161.863" height="136.434" viewBox="0 0 161.863 136.434">
  <g id="Grupo_53613" data-name="Grupo 53613">
    <path id="Trazado_99894" data-name="Trazado 99894" d="M238.523,307.687c-3.8-10.315-11.427-18.9-22.234-21.943-5.177-1.456-10.583-1.856-15.933-2.408-8.412-.868-17.093-2.244-24.145-6.911-2.627-1.738-3.411-4.158-6.639-5.913a56.913,56.913,0,0,0-8.519-3.937c-9.788-3.386-20.747-2.467-30.415,1.25s-18.141,10.075-25.5,17.365c-6.352,6.294-12.053,13.481-15.2,21.852A54.508,54.508,0,0,0,86.771,323.4,71.237,71.237,0,0,0,96.3,363.1a64.29,64.29,0,0,0,30.653,26.764,93.989,93.989,0,0,0,21.454,5.43,120.769,120.769,0,0,0,21.766,1.6,90.126,90.126,0,0,0,25.322-4.5,77.022,77.022,0,0,0,15.666-7.021,64.553,64.553,0,0,0,27.364-77.685Z" transform="translate(-86.674 -264.475)" fill="#a1bee9"/>
    <path id="Trazado_99895" data-name="Trazado 99895" d="M438.68,288.619a4.913,4.913,0,0,0,2-.309c1.276-.588,1.8-2.114,2.023-3.5a8.186,8.186,0,0,0-.557-5.238,5.192,5.192,0,0,0-9.661,3.442,3.408,3.408,0,0,0-6.38.991c-1.713-.261-3.541-1.872-4.905-.8-.822.644-.856,1.947-1.654,2.619-1.739,1.463-4.156-1.135-5.889.01-3.079,2.035.539,3.188,2.221,3.253C423.4,289.372,431.139,288.724,438.68,288.619Z" transform="translate(-282.473 -271.938)" fill="#a1bee9"/>
    <path id="Trazado_99896" data-name="Trazado 99896" d="M169.455,310.008c1.772.176,3.688.351,5.214-.566s2.163-3.416.711-4.447a2.748,2.748,0,0,0-2.87.033,8.082,8.082,0,0,0-2.176,2.081,5.531,5.531,0,0,0-2.6-2.934c-1.236-.512-2.969.051-3.237,1.361a15.629,15.629,0,0,0-1.717-5.025,5.3,5.3,0,0,0-4.335-2.7c-1.779.029-3.518,1.663-3.234,3.42a3.818,3.818,0,0,0-4.6-.878,7.059,7.059,0,0,0-3.24,3.752c-2.321,5.434,2.539,5.136,6.09,5.091A144.167,144.167,0,0,1,169.455,310.008Z" transform="translate(-122.792 -284.512)" fill="#fff"/>
  </g>
  <g id="Grupo_53615" data-name="Grupo 53615" transform="translate(6.255 49.632)">
    <path id="Trazado_99897" data-name="Trazado 99897" d="M154.427,470.943a164.7,164.7,0,0,0-3.369,16.6c-1.313,8.927,3.124,23.14,3.124,23.14s5.412,1.466,8.521-.384c0,0-6.108-23.987,0-36.4,0,0,7.748,11.092,10.033,13.644,3.85,4.3,17.732,10.835,17.732,10.835s2.931-3.944,2.3-8.2c0,0-14.81-4.338-20.03-19.939,0,0-1.889-9.009-6.516-10.546Z" transform="translate(-131.478 -431.434)" fill="#171e26"/>
    <path id="Trazado_99898" data-name="Trazado 99898" d="M154.747,586.913l-2.991,2.432s7.13,1.458,12.447-.274l-.936-2.542Z" transform="translate(-132.043 -507.663)" fill="#171e26"/>
    <path id="Trazado_99899" data-name="Trazado 99899" d="M250.2,544.3l1.892,3.828s3.18-6.2,3.121-11.722l-2.714-.307Z" transform="translate(-191.206 -477.354)" fill="#171e26"/>
    <path id="Trazado_99900" data-name="Trazado 99900" d="M104.785,407.157a6.761,6.761,0,0,1-.205,4.118c-.6,1.308-1.865,2.293-2.162,3.7-.361,1.716.852,3.4.783,5.156a2.79,2.79,0,0,0,.082,1.347,2.006,2.006,0,0,0,.648.668c1.272.953,2.744,1.959,4.312,1.691.945-.162,1.859-.784,2.786-.542a4.653,4.653,0,0,1,.955.454,3.668,3.668,0,0,0,4.574-.764c.5-.689.661-1.567,1.09-2.3.5-.861,1.346-1.479,1.881-2.321a6.757,6.757,0,0,0,.832-3.362,7.691,7.691,0,0,0-.412-3.288c-.757-1.829-2.605-2.987-3.555-4.723-1.282-2.341-.8-5.482-2.53-7.517-1.967-2.319-5.793-2-8.19-.559C102.882,400.592,104.285,404.665,104.785,407.157Z" transform="translate(-102.35 -394.224)" fill="#4d355d"/>
    <path id="Trazado_99901" data-name="Trazado 99901" d="M159.254,409.09l-9.611-1.5a3.159,3.159,0,1,0-.973,6.242L161,415.756a3.158,3.158,0,0,0,3.512-2.214l3.136-10.465-6.052-1.814Z" transform="translate(-128.583 -396.317)" fill="#4a6ea4"/>
    <path id="Trazado_99902" data-name="Trazado 99902" d="M150.528,417.2l-.884-.138a3.159,3.159,0,1,0-.973,6.242l8.48,1.322A57.5,57.5,0,0,1,150.528,417.2Z" transform="translate(-128.583 -405.793)" fill="#0e4c7a"/>
    <path id="Trazado_99903" data-name="Trazado 99903" d="M138.061,418.533a6.505,6.505,0,0,1,1.056,1.712,30.916,30.916,0,0,0,4.647,7.433,23.408,23.408,0,0,0,4.812,4.177c1.1.732,2.1,1.378,1.975,2.845-.246,2.918-3.63,6.115-5.729,7.806-1.339,1.08-5.971,4.466-8.006,2.991-.66-.478-1.04-2.411-1.424-3.166a22.5,22.5,0,0,0-1.815-2.968,22.262,22.262,0,0,0-4.7-4.785c-2.534-1.893-5.618-3.064-6.2-6.434-.6-3.43,1.771-6.328,4.335-8.285s6.166-3.814,9.422-2.443A4.447,4.447,0,0,1,138.061,418.533Z" transform="translate(-114.509 -405.741)" fill="#4a6ea4"/>
    <path id="Trazado_99904" data-name="Trazado 99904" d="M145.925,450.226l-1.124-.787-1.914,1.474a19.252,19.252,0,0,1-9.19-9.141l-2.889,5.684c.969.686,2.032,1.312,3.014,2.045a22.261,22.261,0,0,1,4.7,4.785,22.547,22.547,0,0,1,1.531,2.435A44.872,44.872,0,0,1,145.925,450.226Z" transform="translate(-119.454 -420.664)" fill="#324a6e"/>
    <path id="Trazado_99905" data-name="Trazado 99905" d="M128.941,441.644l-4.354,2.174-.29.887c1.141,2.1,3.5,3.16,5.525,4.657A28.7,28.7,0,0,1,128.941,441.644Z" transform="translate(-115.54 -420.587)" fill="#324a6e"/>
    <g id="Grupo_53614" data-name="Grupo 53614" transform="translate(1.015 0)">
      <path id="Trazado_99906" data-name="Trazado 99906" d="M125.181,416.988l2.309,2.39s1.092,1.164-.732,2.8a2.479,2.479,0,0,1-3.442.1l-3.839-3.974Z" transform="translate(-113.659 -405.768)" fill="#eeb399"/>
      <path id="Trazado_99907" data-name="Trazado 99907" d="M125.573,421.14l4.11-1.977,1.229,1.272C128.95,421.881,125.573,421.14,125.573,421.14Z" transform="translate(-117.322 -407.075)" fill="#cc957f"/>
      <rect id="Rect치ngulo_5129" data-name="Rect치ngulo 5129" width="9.38" height="13.411" rx="4.69" transform="translate(16.064 9.645) rotate(135.987)" fill="#eeb399"/>
    </g>
    <path id="Trazado_99908" data-name="Trazado 99908" d="M117.618,394.713a4.95,4.95,0,0,1-3.756-.954,10.141,10.141,0,0,1-2.084,8.763s-6.9-3.575-1.833-8.646C109.946,393.876,113.679,389.582,117.618,394.713Z" transform="translate(-105.799 -390.866)" fill="#4d355d"/>
    <path id="Trazado_99909" data-name="Trazado 99909" d="M115.912,418.118a1.15,1.15,0,1,0,.028-1.625A1.15,1.15,0,0,0,115.912,418.118Z" transform="translate(-110.307 -405.276)" fill="#eeb399"/>
    <path id="Trazado_99910" data-name="Trazado 99910" d="M175.116,484.04a.106.106,0,0,1-.063-.021c-2.55-1.92-3.271-5.717-3.278-5.756a.1.1,0,0,1,.084-.122.1.1,0,0,1,.122.084,10.549,10.549,0,0,0,2.949,5.427c-.267-1.024-1.015-4.292-.29-6.386a.105.105,0,0,1,.2.069c-.829,2.393.366,6.528.379,6.57a.105.105,0,0,1-.1.134Z" transform="translate(-144.074 -441.954)" fill="#2481d3"/>
    <path id="Trazado_99911" data-name="Trazado 99911" d="M170.46,495.322a.1.1,0,0,1-.051-.2c.136-.075,3.367-1.838,5.495-1.044a.1.1,0,0,1-.073.2c-2.036-.76-5.288,1.013-5.32,1.031A.1.1,0,0,1,170.46,495.322Z" transform="translate(-143.221 -451.979)" fill="#2481d3"/>
  </g>
  <path id="Trazado_99912" data-name="Trazado 99912" d="M247.517,471.894l-6.676-65.186a5.788,5.788,0,0,0-5.758-5.2H225.52l-.749-4.024H211.806l-1.872,4.024H166.243a5.161,5.161,0,0,0-5.141,5.61l5.663,64.828a4.142,4.142,0,0,0,4.126,3.782h73.164A3.48,3.48,0,0,0,247.517,471.894Z" transform="translate(-131.393 -344.415)" fill="#f97f40"/>
  <path id="Trazado_99913" data-name="Trazado 99913" d="M175.677,475.185l-6.98-63.172,83.415-4.188-4.59,67.361Z" transform="translate(-135.97 -350.629)" fill="#8edaf6"/>
  <path id="Trazado_99914" data-name="Trazado 99914" d="M181.578,485.681l-3.063-64.568,82.29-2.792-1.4,62.823Z" transform="translate(-141.871 -356.937)" fill="#bbeafd"/>
  <path id="Trazado_99915" data-name="Trazado 99915" d="M188.816,487.11c.168-.444,0-47.8,0-47.8h86.208l-12.216,54.447Z" transform="translate(-148.062 -369.555)" fill="#dcf7ff"/>
  <path id="Trazado_99916" data-name="Trazado 99916" d="M280.846,437.9l-20.4,55.195a7.6,7.6,0,0,1-7.13,4.966H181.632a3.114,3.114,0,0,1-2.912-4.215l21.027-55.591a7.6,7.6,0,0,1,7.11-4.912h70.815A3.384,3.384,0,0,1,280.846,437.9Z" transform="translate(-141.871 -365.966)" fill="#faaf41"/>
  <path id="Trazado_99917" data-name="Trazado 99917" d="M288.889,460.707a29.965,29.965,0,0,0,26.279-11.3s8.874,7.794,17.62,7.474L340.145,463l2.862-8.132-31.674-11.441S305.7,456.87,288.889,460.707Z" transform="translate(-208.206 -372.025)" fill="#bcbec0" style="mix-blend-mode: multiply;isolation: isolate"/>
  <g id="Grupo_53616" data-name="Grupo 53616" transform="translate(14.326 53.293)">
    <path id="Trazado_99918" data-name="Trazado 99918" d="M135.817,441.806l-4.876,4.078-2.189-7.532a3.148,3.148,0,0,0-6.046,1.757l3.534,12.161a3.148,3.148,0,0,0,5.043,1.536l8.574-7.169C139.037,443.981,135.817,441.806,135.817,441.806Z" transform="translate(-122.58 -420.905)" fill="#4a6ea4"/>
    <path id="Trazado_99919" data-name="Trazado 99919" d="M160.313,452.334a2.4,2.4,0,0,0,.61-.978.838.838,0,0,0-.418-.981c-.188-.072-.421-.057-.562-.2-.178-.181-.092-.48-.122-.732a.973.973,0,0,0-1.015-.766.774.774,0,0,1-.451-.048c-.287-.184-.112-.724-.4-.9-.222-.137-.539.061-.765-.071-.122-.071-.177-.219-.279-.317a.6.6,0,0,0-.667-.061,1.773,1.773,0,0,0-.535.463l-.742.841a1.745,1.745,0,0,0-.369.544,1.679,1.679,0,0,0,.3,1.345,7.566,7.566,0,0,0,1.688,2.123,3.773,3.773,0,0,0,2.062.9C159.333,453.534,159.895,452.809,160.313,452.334Z" transform="translate(-141.789 -427.59)" fill="#eeb399"/>
    <path id="Trazado_99920" data-name="Trazado 99920" d="M186.429,398.165a2.986,2.986,0,0,0-2.877.581,4.076,4.076,0,0,0-1.321,2.267,1.964,1.964,0,0,0,.037,1.091.9.9,0,0,0,.842.6c.478-.037.766-.531.97-.964a.923.923,0,0,0,.972.958,1.446,1.446,0,0,0,1.175-.9.608.608,0,0,0,.594.772.905.905,0,0,0,.792-.729c-.092.439.409.832.853.766a1.377,1.377,0,0,0,.964-.856,2.231,2.231,0,0,0,.134-1.514,2.565,2.565,0,0,0-1.256-1.466A6.15,6.15,0,0,0,186.429,398.165Z" transform="translate(-158.395 -398.044)" fill="#eeb399"/>
  </g>
  <g id="Grupo_53618" data-name="Grupo 53618" transform="translate(73.668 19.992)">
    <g id="Grupo_53617" data-name="Grupo 53617" transform="translate(36.267 5.623)">
      <path id="Trazado_99921" data-name="Trazado 99921" d="M385.192,328.674l-22.986,6.687,5.363,1.68Z" transform="translate(-362.205 -328.674)" fill="#1f74c2"/>
      <path id="Trazado_99922" data-name="Trazado 99922" d="M375.648,337.041l1.51,4.106,16.113-12.473Z" transform="translate(-370.284 -328.674)" fill="#0d4772"/>
      <path id="Trazado_99923" data-name="Trazado 99923" d="M376.676,337.263l17.213-8.589-8.32,9.963Z" transform="translate(-370.902 -328.674)" fill="#1f74c2"/>
    </g>
    <path id="Trazado_99924" data-name="Trazado 99924" d="M274.2,358.032a.156.156,0,0,1-.122-.059.053.053,0,0,1-.011-.015s0,0-.008,0a.164.164,0,0,1-.033-.1.157.157,0,0,1,.059-.122.163.163,0,0,1,.222.026l0,0,.011.011a.162.162,0,0,1-.026.222A.154.154,0,0,1,274.2,358.032Zm-.633-.866a.157.157,0,0,1-.134-.071c-.192-.292-.377-.6-.544-.911a.156.156,0,0,1-.022-.078.165.165,0,0,1,.081-.137.161.161,0,0,1,.215.063c.163.3.337.592.526.881,0,0,0,0,.007.008v0a.142.142,0,0,1,.026.085.156.156,0,0,1-.07.13A.176.176,0,0,1,273.571,357.166Zm-1-1.844a.16.16,0,0,1-.144-.093c-.14-.329-.27-.659-.381-.988a0,0,0,0,0,0,0,.2.2,0,0,1-.007-.048.163.163,0,0,1,.107-.152.157.157,0,0,1,.2.1c.111.326.233.648.367.955,0,0,0,.008.007.011v0a.145.145,0,0,1,.011.055.164.164,0,0,1-.093.148A.184.184,0,0,1,272.571,355.322Zm-.673-1.984a.159.159,0,0,1-.156-.118c-.085-.348-.163-.7-.218-1.037a.105.105,0,0,1,0-.033.157.157,0,0,1,.311-.022c.059.337.133.677.218,1.014a.143.143,0,0,1,0,.041.158.158,0,0,1-.119.152A.139.139,0,0,1,271.9,353.338Zm-.363-2.066a.154.154,0,0,1-.156-.141c-.037-.344-.059-.7-.071-1.059v-.008a.162.162,0,0,1,.152-.156h.007a.156.156,0,0,1,.156.156c.011.344.033.692.067,1.033v.018a.154.154,0,0,1-.14.156Zm-.063-2.1h-.008a.155.155,0,0,1-.152-.156v-.007c.011-.344.037-.7.074-1.059a.157.157,0,0,1,.17-.14.16.16,0,0,1,.141.159v.014c-.034.345-.059.693-.07,1.037A.158.158,0,0,1,271.472,349.177Zm.211-2.088h-.026a.162.162,0,0,1-.133-.159.049.049,0,0,1,0-.022c.055-.348.126-.7.2-1.04l0,0a.156.156,0,0,1,.307.044.085.085,0,0,1,0,.03c-.077.337-.144.681-.2,1.021A.155.155,0,0,1,271.683,347.089Zm.47-2.044a.1.1,0,0,1-.044-.007.151.151,0,0,1-.111-.148.216.216,0,0,1,0-.048c.1-.341.215-.677.337-1a.157.157,0,0,1,.3.056.208.208,0,0,1-.008.052c-.122.326-.229.659-.33.988A.155.155,0,0,1,272.153,345.046Zm.722-1.969a.187.187,0,0,1-.063-.011.164.164,0,0,1-.093-.148.146.146,0,0,1,.012-.055v0c0-.008,0-.011.007-.015.141-.318.292-.633.452-.94a.159.159,0,0,1,.211-.07.156.156,0,0,1,.085.137.151.151,0,0,1-.018.078c-.159.311-.311.626-.448.937A.155.155,0,0,1,272.875,343.076Zm.966-1.862a.159.159,0,0,1-.159-.155.128.128,0,0,1,.026-.082l.037-.063c.174-.289.355-.567.533-.829a.159.159,0,0,1,.289.093.147.147,0,0,1-.03.085c-.189.281-.363.548-.522.814l-.022.034-.018.029A.148.148,0,0,1,273.841,341.214Zm1.181-1.732a.163.163,0,0,1-.093-.03.158.158,0,0,1-.063-.13.149.149,0,0,1,.034-.093c.2-.267.425-.544.662-.822a.166.166,0,0,1,.222-.018.152.152,0,0,1,.055.122.159.159,0,0,1-.037.1c-.222.262-.44.533-.648.8,0,0,0,.007-.008.011l0,0A.153.153,0,0,1,275.022,339.482Zm1.362-1.6a.148.148,0,0,1-.107-.044.154.154,0,0,1-.052-.115.165.165,0,0,1,.045-.107c.237-.248.485-.5.744-.748a.157.157,0,0,1,.222,0,.155.155,0,0,1,.045.111.182.182,0,0,1-.048.111c-.244.233-.489.481-.733.74A.164.164,0,0,1,276.385,337.886Zm25.037-.752c-.189,0-.359,0-.529-.007h0a.161.161,0,0,1-.152-.156v-.007a.163.163,0,0,1,.163-.152c.345.008.692.008,1.041,0h.007a.158.158,0,0,1,.156.152.16.16,0,0,1-.152.163h0C301.781,337.131,301.6,337.134,301.421,337.134Zm1.57-.067a.157.157,0,0,1-.156-.144v-.015a.151.151,0,0,1,.144-.152c.351-.03.7-.07,1.033-.115a.156.156,0,0,1,.178.134c0,.007,0,.014,0,.026a.159.159,0,0,1-.137.152c-.352.048-.707.089-1.051.114Zm-3.143,0h-.011c-.363-.029-.715-.067-1.055-.114a.159.159,0,0,1-.133-.156v-.022a.161.161,0,0,1,.178-.137c.344.048.692.089,1.033.115a.157.157,0,0,1,.144.156v.015A.156.156,0,0,1,299.848,337.068Zm5.224-.285a.155.155,0,0,1-.155-.126.1.1,0,0,1,0-.033.157.157,0,0,1,.129-.152c.337-.067.677-.141,1.015-.226a.159.159,0,0,1,.192.115c0,.011,0,.026,0,.037a.155.155,0,0,1-.119.152c-.344.089-.692.167-1.033.233Zm-7.3,0a.106.106,0,0,1-.033,0q-.511-.1-1.033-.233a.16.16,0,0,1-.115-.156.133.133,0,0,1,0-.037.158.158,0,0,1,.193-.115c.344.089.685.166,1.014.233a.155.155,0,0,1,.126.152.1.1,0,0,1,0,.033A.154.154,0,0,1,297.771,336.779Zm-19.876-.348a.148.148,0,0,1-.119-.055.154.154,0,0,1,.015-.222c.259-.226.529-.456.807-.678a.162.162,0,0,1,.222.022.171.171,0,0,1,.034.1.156.156,0,0,1-.059.122c-.278.226-.548.452-.8.67A.162.162,0,0,1,277.9,336.431Zm29.209-.16a.159.159,0,0,1-.152-.111.192.192,0,0,1-.008-.048.155.155,0,0,1,.111-.148c.341-.107.67-.218.981-.337l0,0a.164.164,0,0,1,.2.093.153.153,0,0,1,.011.055.161.161,0,0,1-.1.148c-.33.122-.666.241-1,.344A.22.22,0,0,1,307.1,336.272Zm-11.365-.018a.225.225,0,0,1-.048-.007c-.333-.107-.67-.23-1-.355a.16.16,0,0,1-.1-.144.176.176,0,0,1,.011-.059.16.16,0,0,1,.2-.093c.329.13.659.248.977.352a.159.159,0,0,1,.111.152.188.188,0,0,1-.007.044A.159.159,0,0,1,295.739,336.253Zm13.331-.722a.165.165,0,0,1-.148-.093.163.163,0,0,1-.011-.059.156.156,0,0,1,.089-.144l0,0s.007,0,.011,0c.311-.14.626-.289.926-.444a.163.163,0,0,1,.214.067.124.124,0,0,1,.015.074.155.155,0,0,1-.081.137c-.311.16-.633.315-.955.459A.2.2,0,0,1,309.07,335.532Zm-15.286-.044a.124.124,0,0,1-.063-.015c-.322-.148-.64-.308-.948-.474a.159.159,0,0,1-.082-.141.165.165,0,0,1,.019-.074.161.161,0,0,1,.215-.063c.307.167.622.326.926.466a.158.158,0,0,1,.093.141.166.166,0,0,1-.015.07A.157.157,0,0,1,293.784,335.487Zm-14.256-.37a.16.16,0,0,1-.126-.067.164.164,0,0,1-.03-.093.15.15,0,0,1,.063-.126c.289-.215.581-.418.863-.611a.166.166,0,0,1,.218.041.161.161,0,0,1-.041.218c-.288.2-.574.4-.851.6A.153.153,0,0,1,279.528,335.117Zm31.4-.548a.157.157,0,0,1-.137-.074.169.169,0,0,1-.022-.081.161.161,0,0,1,.077-.137c.292-.17.585-.359.877-.555a.16.16,0,0,1,.219.041.144.144,0,0,1,.026.085.157.157,0,0,1-.063.13,0,0,0,0,0,0,0l-.011.008c-.285.192-.577.381-.873.555l0,0a.011.011,0,0,0-.007,0h0A.184.184,0,0,1,310.932,334.569Zm-18.988-.085a.179.179,0,0,1-.085-.022l-.007-.008v0a0,0,0,0,0,0,0c-.3-.189-.592-.385-.866-.585a.155.155,0,0,1-.067-.126.145.145,0,0,1,.033-.093.159.159,0,0,1,.219-.037c.27.2.559.389.851.574h0a.013.013,0,0,0,.007,0,.161.161,0,0,1,.074.141.159.159,0,0,1-.022.081A.163.163,0,0,1,291.944,334.484Zm-10.68-.548a.156.156,0,0,1-.134-.074.149.149,0,0,1-.022-.081.152.152,0,0,1,.074-.133c.3-.189.607-.374.9-.544a.161.161,0,0,1,.215.059.149.149,0,0,1,.022.081.156.156,0,0,1-.078.133c-.319.181-.611.359-.9.537A.172.172,0,0,1,281.264,333.936Zm31.4-.548a.163.163,0,0,1-.126-.059.177.177,0,0,1-.033-.1.155.155,0,0,1,.063-.126c.274-.215.544-.44.8-.667a.162.162,0,0,1,.222.015.146.146,0,0,1,.041.107.152.152,0,0,1-.052.115c-.259.23-.533.459-.815.677A.157.157,0,0,1,312.664,333.388Zm-22.423-.13a.137.137,0,0,1-.1-.037c-.278-.226-.544-.459-.8-.7a.176.176,0,0,1-.052-.122.146.146,0,0,1,.044-.1.166.166,0,0,1,.223-.008c.251.241.514.47.777.685a0,0,0,0,1,0,0,.166.166,0,0,1,.055.122.174.174,0,0,1-.037.1A.164.164,0,0,1,290.242,333.258Zm-7.16-.37a.157.157,0,0,1-.137-.085.174.174,0,0,1-.018-.074.152.152,0,0,1,.085-.137c.289-.156.6-.311.936-.481a.16.16,0,0,1,.211.074.151.151,0,0,1,.018.067.163.163,0,0,1-.089.144c-.307.148-.622.311-.93.474A.2.2,0,0,1,283.081,332.888Zm1.885-.925a.158.158,0,0,1-.141-.093.146.146,0,0,1-.015-.067.155.155,0,0,1,.093-.141c.315-.141.641-.285.966-.422h0a.158.158,0,0,1,.2.089.1.1,0,0,1,.015.059.159.159,0,0,1-.093.144h0c-.008,0-.011,0-.015.008-.3.126-.622.263-.944.407A.152.152,0,0,1,284.966,331.963Zm3.75-.141a.151.151,0,0,1-.115-.052c-.245-.263-.478-.533-.692-.8a.168.168,0,0,1-.034-.1.172.172,0,0,1,.011-.063c-.3.1-.607.219-.925.341a.16.16,0,0,1-.2-.089.138.138,0,0,1-.012-.055.158.158,0,0,1,.1-.148c.352-.133.677-.255.989-.367a.168.168,0,0,1,.2.1.291.291,0,0,1,.007.055.166.166,0,0,1-.018.074.132.132,0,0,1,.126.059c.211.263.441.529.678.785a.185.185,0,0,1,.044.107.152.152,0,0,1-.051.115A.149.149,0,0,1,288.716,331.822Zm.166-1.366a.16.16,0,0,1-.152-.107.2.2,0,0,1-.008-.048.159.159,0,0,1,.111-.152c.337-.111.677-.222,1-.326a.161.161,0,0,1,.2.1.171.171,0,0,1,.008.048.164.164,0,0,1-.108.152c-.333.1-.67.211-1,.322A.223.223,0,0,1,288.883,330.456Zm-1.474-.274a.155.155,0,0,1-.129-.07c-.2-.285-.385-.589-.563-.9a.156.156,0,0,1-.022-.078.152.152,0,0,1,.081-.137.157.157,0,0,1,.215.059c.17.3.352.593.548.881a.142.142,0,0,1,.026.085.169.169,0,0,1-.067.133A.19.19,0,0,1,287.409,330.182Zm3.472-.37a.161.161,0,0,1-.152-.107.271.271,0,0,1-.007-.048.158.158,0,0,1,.111-.152c.274-.089.633-.2,1-.326a.163.163,0,0,1,.2.1.174.174,0,0,1,.008.048.164.164,0,0,1-.107.152c-.3.1-.614.2-1,.326A.224.224,0,0,1,290.882,329.812Zm1.988-.666a.16.16,0,0,1-.148-.108.119.119,0,0,1-.007-.051.156.156,0,0,1,.1-.148c.366-.133.689-.251.978-.366a.157.157,0,0,1,.2.085.146.146,0,0,1,.011.056.161.161,0,0,1-.1.152c-.311.122-.644.248-.985.37A.155.155,0,0,1,292.87,329.146Zm1.951-.778a.159.159,0,0,1-.144-.093.179.179,0,0,1-.015-.059.161.161,0,0,1,.092-.148c.334-.148.641-.3.94-.452a.16.16,0,0,1,.211.07.168.168,0,0,1,.019.074.163.163,0,0,1-.081.133s0,0-.008,0-.007,0-.011,0c-.292.156-.6.3-.94.452A.121.121,0,0,1,294.821,328.368Zm-8.444-.011h0a.159.159,0,0,1-.144-.093c-.115-.248-.219-.5-.315-.755l-.018-.048c-.022-.059-.045-.118-.067-.182a.114.114,0,0,1-.008-.051.156.156,0,0,1,.3-.052c.033.089.056.155.081.222.1.252.2.5.311.737a.2.2,0,0,1,.011.067.152.152,0,0,1-.089.14A.142.142,0,0,1,286.377,328.357Zm10.3-.955a.166.166,0,0,1-.133-.074.169.169,0,0,1-.022-.081.162.162,0,0,1,.078-.137c.3-.181.592-.373.863-.57l0,0a.158.158,0,0,1,.244.133.158.158,0,0,1-.059.123,0,0,0,0,0,0,0s-.008,0-.011.007q-.417.3-.877.578A.148.148,0,0,1,296.679,327.4Zm-11-1.021a.152.152,0,0,1-.152-.111s0,0,0-.007a.023.023,0,0,0,0-.015c-.082-.33-.148-.677-.2-1.029V325.2a.156.156,0,0,1,.311-.026c.052.337.118.677.2,1.018a.13.13,0,0,1,0,.037.158.158,0,0,1-.119.152A.129.129,0,0,1,285.68,326.38Zm12.694-.207a.164.164,0,0,1-.119-.055.158.158,0,0,1,.018-.222c.2-.174.393-.355.574-.54.059-.059.114-.118.166-.174a.162.162,0,0,1,.222-.011.16.16,0,0,1,.051.118.17.17,0,0,1-.041.1s0,0,0,0,0,.007-.007.011c-.048.052-.107.111-.163.17-.189.192-.389.381-.6.559A.146.146,0,0,1,298.375,326.173Zm1.414-1.547a.147.147,0,0,1-.089-.026.154.154,0,0,1-.067-.133.127.127,0,0,1,.026-.081v-.008l.011-.011a7.808,7.808,0,0,0,.522-.866,0,0,0,0,1,0,0,.159.159,0,0,1,.207-.063.147.147,0,0,1,.085.144.116.116,0,0,1-.015.059v.008l-.008.011a7.866,7.866,0,0,1-.541.892s0,.007-.007.011a0,0,0,0,1,0,0A.156.156,0,0,1,299.789,324.625Zm-14.419-.318a.156.156,0,0,1-.159-.148c-.008-.2-.015-.389-.015-.574q0-.227.011-.488a.159.159,0,0,1,.156-.152h.011a.158.158,0,0,1,.148.156v.007c-.008.16-.011.322-.011.478,0,.2.007.381.015.555v.011a.153.153,0,0,1-.148.156Zm15.367-1.544a.264.264,0,0,1-.048-.008.16.16,0,0,1-.107-.152.222.222,0,0,1,.007-.048,5.44,5.44,0,0,0,.229-.992.156.156,0,0,1,.311.019c0,.008,0,.015,0,.022a5.855,5.855,0,0,1-.241,1.051A.161.161,0,0,1,300.736,322.763Zm-15.271-.548h-.022a.166.166,0,0,1-.137-.156c0-.008,0-.019,0-.026.051-.352.126-.7.211-1.044a.16.16,0,0,1,.192-.111.158.158,0,0,1,.118.152.141.141,0,0,1,0,.041,10.146,10.146,0,0,0-.207,1.011A.159.159,0,0,1,285.466,322.216ZM301,320.694a.153.153,0,0,1-.155-.141,4.233,4.233,0,0,0-.219-.984.122.122,0,0,1-.011-.052.156.156,0,0,1,.1-.148.16.16,0,0,1,.2.089s0,0,0,0,0,.011,0,.015a4.285,4.285,0,0,1,.23,1.047v.015a.154.154,0,0,1-.141.156Zm-15-.5a.152.152,0,0,1-.055-.011.162.162,0,0,1-.1-.148.135.135,0,0,1,.011-.056,9.648,9.648,0,0,1,.44-.97.16.16,0,0,1,.215-.067.153.153,0,0,1,.082.137.107.107,0,0,1-.019.074,9.681,9.681,0,0,0-.426.937A.156.156,0,0,1,286,320.19Zm14.3-1.451a.156.156,0,0,1-.133-.07,6.066,6.066,0,0,0-.633-.8.162.162,0,0,1-.041-.107.179.179,0,0,1,.048-.118.162.162,0,0,1,.222.011,6.165,6.165,0,0,1,.666.841.165.165,0,0,1,.026.089.146.146,0,0,1-.07.129A.143.143,0,0,1,300.3,318.739Zm-13.316-.4a.152.152,0,0,1-.089-.03.155.155,0,0,1-.067-.126.152.152,0,0,1,.026-.1,8.885,8.885,0,0,1,.674-.829.161.161,0,0,1,.222-.007.152.152,0,0,1,.051.115.161.161,0,0,1-.041.107,7.46,7.46,0,0,0-.648.8A.155.155,0,0,1,286.98,318.343Zm11.909-1.152a.163.163,0,0,1-.1-.041c-.263-.23-.536-.448-.81-.644a.15.15,0,0,1-.063-.126.138.138,0,0,1,.03-.093.159.159,0,0,1,.219-.037c.285.207.567.429.833.663a.151.151,0,0,1,.052.115.143.143,0,0,1-.037.108A.165.165,0,0,1,298.889,317.192ZM288.4,316.8a.164.164,0,0,1-.119-.056.154.154,0,0,1-.037-.1.152.152,0,0,1,.055-.122,7.994,7.994,0,0,1,.859-.637.164.164,0,0,1,.219.048.178.178,0,0,1,.026.089.155.155,0,0,1-.074.126,8.553,8.553,0,0,0-.825.615A.18.18,0,0,1,288.4,316.8Zm8.789-.837a.166.166,0,0,1-.074-.018,0,0,0,0,1,0,0s0,0-.008,0a8.744,8.744,0,0,0-.914-.456.153.153,0,0,1-.093-.144.168.168,0,0,1,.011-.063.161.161,0,0,1,.207-.081,8.5,8.5,0,0,1,.955.478.159.159,0,0,1,.077.14.154.154,0,0,1-.022.074A.152.152,0,0,1,297.187,315.966Zm-7.03-.3a.155.155,0,0,1-.141-.089.137.137,0,0,1-.018-.067.158.158,0,0,1,.093-.14,8.251,8.251,0,0,1,.988-.4.161.161,0,0,1,.2.1.22.22,0,0,1,.008.048.165.165,0,0,1-.108.152,8.435,8.435,0,0,0-.955.385A.136.136,0,0,1,290.156,315.663Zm5.105-.515a.073.073,0,0,1-.041-.008c-.24-.066-.488-.118-.74-.163-.081-.011-.17-.026-.267-.037a.155.155,0,0,1-.137-.159v-.015a.159.159,0,0,1,.178-.137c.089.011.181.022.278.037a7.406,7.406,0,0,1,.759.17h.011s0,0,.007,0a.155.155,0,0,1,.111.152c0,.015,0,.03-.007.041A.159.159,0,0,1,295.261,315.148Zm-3.117-.137a.159.159,0,0,1-.155-.13c0-.011,0-.022,0-.033a.161.161,0,0,1,.129-.152,8.126,8.126,0,0,1,1.066-.115h.008a.158.158,0,0,1,.156.152v.008a.156.156,0,0,1-.152.155,6.942,6.942,0,0,0-1.018.111h0A.077.077,0,0,1,292.144,315.011Z" transform="translate(-271.309 -314.582)" fill="#1f74c2"/>
  </g>
  <g id="Grupo_53620" data-name="Grupo 53620" transform="translate(0.448 85.539)">
    <g id="Grupo_53619" data-name="Grupo 53619" transform="translate(0 10.231)">
      <path id="Trazado_99925" data-name="Trazado 99925" d="M87.8,505.63l16.193-1.126-3.02,2.325Z" transform="translate(-87.796 -504.504)" fill="#1f74c2"/>
      <path id="Trazado_99926" data-name="Trazado 99926" d="M100.97,508.525v2.966L87.8,507.326Z" transform="translate(-87.796 -506.2)" fill="#0d4772"/>
      <path id="Trazado_99927" data-name="Trazado 99927" d="M100.76,508.762,87.8,507.326l7.627,4.393Z" transform="translate(-87.796 -506.2)" fill="#1f74c2"/>
    </g>
    <path id="Trazado_99928" data-name="Trazado 99928" d="M132.645,495.5c-.185,0-.355,0-.518-.007h0a.157.157,0,0,1,.007-.315c.322.008.726.008,1.044,0h0a.157.157,0,0,1,.159.155.154.154,0,0,1-.152.16C133.023,495.5,132.845,495.5,132.645,495.5Zm-1.573-.052h-.019c-.337-.022-.685-.048-1.037-.085a.159.159,0,0,1-.14-.155v-.018a.155.155,0,0,1,.17-.137,0,0,0,0,1,0,0,.028.028,0,0,0,.018,0c.337.033.677.063,1.007.081h.015s0,0,.008,0a.156.156,0,0,1,.14.156v.011a.164.164,0,0,1-.163.144Zm3.154,0a.154.154,0,0,1-.156-.144.036.036,0,0,1,0-.011.161.161,0,0,1,.148-.16c.367-.026.707-.059,1.037-.1a.166.166,0,0,1,.178.14v.015a.16.16,0,0,1-.14.159c-.337.041-.689.074-1.048.1h-.015Zm-5.235-.2h-.018c-.008,0-.011,0-.019,0-.344-.048-.692-.1-1.025-.159a.149.149,0,0,1-.129-.155V494.9a.154.154,0,0,1,.181-.126c.348.06.7.111,1.033.156a.162.162,0,0,1,.137.155.05.05,0,0,1,0,.023A.159.159,0,0,1,128.991,495.244Zm7.319-.048a.159.159,0,0,1-.156-.13.059.059,0,0,1,0-.026.157.157,0,0,1,.13-.156c.352-.063.7-.133,1.022-.211a.16.16,0,0,1,.189.118c0,.012,0,.023,0,.033a.158.158,0,0,1-.122.155c-.333.078-.681.148-1.037.211A.063.063,0,0,1,136.31,495.2Zm-9.388-.3a.088.088,0,0,1-.03,0c-.329-.066-.666-.14-1.025-.222h0a.158.158,0,0,1-.122-.152.128.128,0,0,1,0-.037.157.157,0,0,1,.189-.118c.344.078.688.156,1.021.222a.154.154,0,0,1,.126.152.1.1,0,0,1,0,.033A.155.155,0,0,1,126.922,494.892Zm11.428-.178a.159.159,0,0,1-.152-.111.2.2,0,0,1,0-.048.152.152,0,0,1,.111-.148c.333-.1.666-.211.985-.329a.162.162,0,0,1,.2.093.144.144,0,0,1,.011.055.166.166,0,0,1-.1.148c-.33.122-.67.233-1.007.334A.088.088,0,0,1,138.35,494.715Zm1.966-.729a.157.157,0,0,1-.144-.093.2.2,0,0,1-.011-.067.154.154,0,0,1,.093-.14c.307-.14.618-.292.929-.463a.158.158,0,0,1,.211.063.135.135,0,0,1,.022.074.162.162,0,0,1-.085.14c-.315.174-.637.334-.948.474A.206.206,0,0,1,140.316,493.985Zm1.843-1a.161.161,0,0,1-.133-.074.177.177,0,0,1-.026-.089.175.175,0,0,1,.07-.126,0,0,0,0,0,0,0s0,0,.007,0c.293-.189.578-.385.844-.589a.167.167,0,0,1,.222.033.162.162,0,0,1,.03.093.157.157,0,0,1-.063.129c-.281.211-.574.415-.87.6,0,0,0,0,0,0A.165.165,0,0,1,142.159,492.986Zm1.677-1.259a.151.151,0,0,1-.118-.055.143.143,0,0,1-.037-.107.159.159,0,0,1,.048-.111s0,0,0,0l.007,0c.267-.233.519-.47.748-.707a.167.167,0,0,1,.226,0,.162.162,0,0,1,0,.223c-.252.255-.511.5-.774.725A.158.158,0,0,1,143.837,491.727Zm1.473-1.5a.139.139,0,0,1-.1-.037.157.157,0,0,1-.059-.122.161.161,0,0,1,.041-.1c.229-.274.44-.551.633-.822a.166.166,0,0,1,.222-.037.159.159,0,0,1,.063.133.147.147,0,0,1-.026.089c-.2.285-.422.566-.655.837A.146.146,0,0,1,145.31,490.231Zm1.215-1.706a.146.146,0,0,1-.078-.022.15.15,0,0,1-.078-.133.161.161,0,0,1,.022-.082q.15-.256.289-.522l-.171-.023a.162.162,0,0,1-.133-.155.075.075,0,0,1,0-.026.158.158,0,0,1,.178-.13c.093.011.185.026.274.037.015-.03.029-.059.041-.089,0,0,0,0,0-.008s0,0,0,0a.166.166,0,0,1,.208-.07.155.155,0,0,1,.089.14.219.219,0,0,1-.011.067s0,0,0,0v0c.155.018.3.037.429.048a.16.16,0,0,1,.141.159v.015a.159.159,0,0,1-.174.141c-.181-.018-.363-.041-.544-.063-.111.211-.226.426-.348.63a0,0,0,0,1,0,0A.153.153,0,0,1,146.524,488.525Zm4.2-.507h0a.162.162,0,0,1-.159-.155.167.167,0,0,1,.044-.115.158.158,0,0,1,.111-.044c.329-.008.666-.019,1.029-.041h.026a.157.157,0,0,1,.156.148l-.019.008h.019a.164.164,0,0,1-.148.159c-.352.018-.707.033-1.055.041Zm-1.055,0h0c-.333-.008-.689-.022-1.055-.048a.153.153,0,0,1-.144-.16V487.8a.159.159,0,0,1,.166-.145c.341.023.692.038,1.04.045a.154.154,0,0,1,.111.048.158.158,0,0,1,.044.112A.162.162,0,0,1,149.667,488.014Zm3.158-.122h-.011a.16.16,0,0,1-.159-.141v-.019a.159.159,0,0,1,.14-.155c.344-.033.7-.078,1.037-.126a.158.158,0,0,1,.178.134v.026a.152.152,0,0,1-.133.152c-.348.052-.7.093-1.048.13Zm2.066-.3a.159.159,0,0,1-.156-.13.1.1,0,0,1,0-.033.154.154,0,0,1,.13-.148c.333-.063.678-.137,1.022-.215a.165.165,0,0,1,.189.119c0,.011,0,.022,0,.033a.159.159,0,0,1-.119.156h0l-.011-.015,0,.015c-.363.085-.7.155-1.029.215C154.909,487.592,154.9,487.6,154.891,487.6Zm-9.392-.03h-.029c-.119-.026-.233-.048-.352-.074-.241-.048-.47-.1-.681-.159,0,0,0,0-.008,0a.154.154,0,0,1-.111-.148.138.138,0,0,1,.007-.041.151.151,0,0,1,.185-.111h.008l.015,0c.215.056.433.107.648.152.118.026.233.048.348.07a.159.159,0,0,1,.13.152.1.1,0,0,1,0,.033A.156.156,0,0,1,145.5,487.566Zm11.436-.44a.148.148,0,0,1-.156-.156.15.15,0,0,1,.115-.152c.329-.092.666-.192,1-.3a.153.153,0,0,1,.2.1.1.1,0,0,1,.008.048.154.154,0,0,1-.107.152c-.359.111-.692.211-1.015.3A.151.151,0,0,1,156.934,487.125Zm-13.453-.119a.159.159,0,0,1-.059-.011,5.277,5.277,0,0,1-.955-.508.155.155,0,0,1-.07-.13.148.148,0,0,1,.03-.089.159.159,0,0,1,.218-.041,4.971,4.971,0,0,0,.9.478.147.147,0,0,1,.1.14.177.177,0,0,1-.011.063A.157.157,0,0,1,143.481,487.007Zm3.942-.374a.117.117,0,0,1-.052-.011.156.156,0,0,1-.1-.148.121.121,0,0,1,.007-.052,10.32,10.32,0,0,0,.3-.989.164.164,0,0,1,.192-.115.157.157,0,0,1,.119.152c0,.015,0,.026,0,.04a10.512,10.512,0,0,1-.315,1.015A.159.159,0,0,1,147.424,486.633Zm-5.631-.829a.15.15,0,0,1-.126-.063,2.94,2.94,0,0,1-.215-.315,3.118,3.118,0,0,1-.289-.659v0a.163.163,0,0,1-.007-.044.156.156,0,0,1,.111-.152.159.159,0,0,1,.2.1,2.852,2.852,0,0,0,.259.593c.059.1.126.2.192.289a.141.141,0,0,1,.034.093.164.164,0,0,1-.059.126A.159.159,0,0,1,141.793,485.8Zm6.145-1.2h-.022a.159.159,0,0,1-.137-.156v-.022c.033-.226.059-.456.074-.689.011-.118.015-.23.018-.337a.157.157,0,0,1,.315,0c0,.118-.011.237-.019.355q-.022.344-.078.711A.149.149,0,0,1,147.938,484.6Zm-6.779-.759h0a.158.158,0,0,1-.159-.148v-.1a5.4,5.4,0,0,1,.1-.984.155.155,0,0,1,.185-.126.158.158,0,0,1,.126.152v.034a4.664,4.664,0,0,0-.093.925v.089a.156.156,0,0,1-.152.156Zm6.8-1.333a.156.156,0,0,1-.156-.133,5.455,5.455,0,0,0-.229-.992.265.265,0,0,1-.011-.048.159.159,0,0,1,.308-.056v0s0,0,0,.008a6.108,6.108,0,0,1,.241,1.04c0,.008,0,.015,0,.022a.162.162,0,0,1-.137.156Zm-6.408-.711a.147.147,0,0,1-.063-.015.161.161,0,0,1-.093-.145.124.124,0,0,1,.015-.063,5.1,5.1,0,0,1,.533-.936s0,0,0,0a.157.157,0,0,1,.215-.034.154.154,0,0,1,.067.122.166.166,0,0,1-.03.1,4.817,4.817,0,0,0-.5.885A.156.156,0,0,1,141.556,481.8Zm5.727-1.259a.158.158,0,0,1-.133-.07,3.059,3.059,0,0,0-.655-.745.156.156,0,0,1-.059-.122.15.15,0,0,1,.033-.1.162.162,0,0,1,.222-.026,3.367,3.367,0,0,1,.722.818,0,0,0,0,0,0,0,.158.158,0,0,1,.022.081.154.154,0,0,1-.071.137A.168.168,0,0,1,147.283,480.54Zm-4.509-.437a.157.157,0,0,1-.107-.274,4.187,4.187,0,0,1,.9-.618.16.16,0,0,1,.211.071.133.133,0,0,1,.015.066.154.154,0,0,1-.085.144,3.8,3.8,0,0,0-.826.574A.156.156,0,0,1,142.774,480.1Zm2.891-.826a.131.131,0,0,1-.037,0h0l-.015-.008a2.355,2.355,0,0,0-.962-.07.158.158,0,0,1-.174-.137.056.056,0,0,1,0-.026.165.165,0,0,1,.141-.152,2.773,2.773,0,0,1,1.1.089s0,0,.007,0a.151.151,0,0,1,.107.144.193.193,0,0,1-.007.048A.156.156,0,0,1,145.665,479.277Z" transform="translate(-110.601 -478.861)" fill="#1f74c2"/>
  </g>
  <g id="Grupo_53624" data-name="Grupo 53624" transform="translate(54.404 36.126)">
    <path id="Trazado_99929" data-name="Trazado 99929" d="M409.445,600.506l-1.795,1.523a29.644,29.644,0,0,0,9.735.272l-.49-2.23Z" transform="translate(-333.986 -502.297)" fill="#171e26"/>
    <path id="Trazado_99930" data-name="Trazado 99930" d="M454.292,599.825l-1.795,1.523a29.654,29.654,0,0,0,9.735.272l-.49-2.23Z" transform="translate(-360.94 -501.887)" fill="#171e26"/>
    <path id="Trazado_99931" data-name="Trazado 99931" d="M400.731,430.774a2.971,2.971,0,0,0-3.767,1.859l-3.4,10.039-11.225-2.785a12.2,12.2,0,0,1-1.43,5.767L394.78,449.1a2.97,2.97,0,0,0,3.528-1.93l4.282-12.626A2.97,2.97,0,0,0,400.731,430.774Z" transform="translate(-317.912 -400.453)" fill="#eeb399"/>
    <path id="Trazado_99932" data-name="Trazado 99932" d="M420.458,430.774a2.971,2.971,0,0,0-3.767,1.859l-2.964,8.739,5.485,2.327,3.105-9.158A2.97,2.97,0,0,0,420.458,430.774Z" transform="translate(-337.639 -400.453)" fill="#af374e"/>
    <path id="Trazado_99933" data-name="Trazado 99933" d="M414.793,485.523s-6.7,30.329-4.767,45.565c0,0,4.724,1.793,8.374,0,0,0,.9-29.741,5.623-39.127l4.255,38.679s2.5,2.24,7.872-.449L432.213,483.8Z" transform="translate(-335.204 -432.417)" fill="#0a3759"/>
    <path id="Trazado_99934" data-name="Trazado 99934" d="M443.177,496.782h-.015l-.495-.078a.1.1,0,0,1-.074-.056,14.738,14.738,0,0,1-1.047-4.89.1.1,0,0,1,.1-.1.1.1,0,0,1,.1.1,14.632,14.632,0,0,0,1.006,4.764l.315.05a25.677,25.677,0,0,1-.111-4.827.1.1,0,0,1,.113-.083.1.1,0,0,1,.083.113,27.385,27.385,0,0,0,.125,4.9.1.1,0,0,1-.1.11Z" transform="translate(-354.358 -437.138)" fill="#06263a"/>
    <path id="Trazado_99935" data-name="Trazado 99935" d="M418.867,431.074l1.448,18.73a18.535,18.535,0,0,0,10.2,1.609c5.97-.694,7.277-3.332,7.277-3.332s-1.031-18.378-1.2-18.56-.88-6.221-9.518-4.987S418.867,431.074,418.867,431.074Z" transform="translate(-340.726 -396.698)" fill="#e54c64"/>
    <path id="Trazado_99936" data-name="Trazado 99936" d="M422.069,482.539l18.455,10.677-.235-2.77Z" transform="translate(-342.652 -431.659)" fill="#bcbec0" style="mix-blend-mode: multiply;isolation: isolate"/>
    <path id="Trazado_99937" data-name="Trazado 99937" d="M448.8,440.008s3.162,10.75.958,17.434l3.544.584,2.481-12.268-4.755-6.8Z" transform="translate(-358.717 -405.469)" fill="#af374e"/>
    <path id="Trazado_99938" data-name="Trazado 99938" d="M424.856,449.113a3.806,3.806,0,0,1-1.694-.389.1.1,0,0,1-.053-.085l-.244-3.763a.1.1,0,0,1,.1-.111.1.1,0,0,1,.112.1l.239,3.7a3.608,3.608,0,0,0,3.344-.161l-.326-3.916a.1.1,0,1,1,.209-.017l.331,3.981a.105.105,0,0,1-.05.1A3.728,3.728,0,0,1,424.856,449.113Z" transform="translate(-343.13 -408.723)" fill="#8e263a"/>
    <g id="Grupo_53621" data-name="Grupo 53621" transform="translate(83.619 22.577)">
      <path id="Trazado_99939" data-name="Trazado 99939" d="M437.322,411.6v5.2l-2.394,2.18-2.326-1.417v-3.125Z" transform="translate(-432.602 -411.603)" fill="#eeb399"/>
    </g>
    <path id="Trazado_99940" data-name="Trazado 99940" d="M436.673,418.171,432.6,419.52v1.663C434.874,420.88,436.673,418.171,436.673,418.171Z" transform="translate(-348.983 -392.974)" fill="#cc957f"/>
    <path id="Trazado_99941" data-name="Trazado 99941" d="M432.294,428.861a.1.1,0,0,1-.078-.038l-2.038-2.606a.1.1,0,0,1-.014-.1,2.863,2.863,0,0,1,.916-1.218.1.1,0,1,1,.1.168,2.6,2.6,0,0,0-.815,1.072l1.907,2.438,1.093-2.122a.1.1,0,0,1,.072-.052.094.094,0,0,1,.085.026l1.964,1.868,1.283-3.089a1.746,1.746,0,0,0-.954-.9.1.1,0,0,1,.065-.187,1.925,1.925,0,0,1,1.088,1.049.1.1,0,0,1,0,.073l-1.354,3.261a.1.1,0,0,1-.071.059.1.1,0,0,1-.089-.025l-1.973-1.877-1.1,2.142a.1.1,0,0,1-.079.053Z" transform="translate(-347.513 -396.549)" fill="#8e263a"/>
    <path id="Trazado_99942" data-name="Trazado 99942" d="M423.207,444.517a.089.089,0,0,1-.079-.092.094.094,0,0,1,.073-.106l3.057-.282c.047-.012.082.037.086.091a.1.1,0,0,1-.074.106l-3.057.282Z" transform="translate(-343.288 -408.518)" fill="#8e263a"/>
    <path id="Rect치ngulo_5130" data-name="Rect치ngulo 5130" d="M4.411,0h0A4.411,4.411,0,0,1,8.821,4.411V8.2a4.411,4.411,0,0,1-4.411,4.411h0A4.411,4.411,0,0,1,0,8.2V4.411A4.411,4.411,0,0,1,4.411,0Z" transform="translate(79.518 14.701)" fill="#eeb399"/>
    <path id="Trazado_99943" data-name="Trazado 99943" d="M442.921,504.709a.1.1,0,0,1-.057-.018c-1.651-1.168-5.133-.883-5.167-.88a.1.1,0,0,1-.107-.09.1.1,0,0,1,.09-.107c.146-.013,3.589-.3,5.3.915a.1.1,0,0,1-.057.18Z" transform="translate(-351.98 -444.303)" fill="#06263a"/>
    <path id="Trazado_99944" data-name="Trazado 99944" d="M419.117,390.9a1.286,1.286,0,0,0,.268,1.517,2.553,2.553,0,0,0,1.5.64,8.752,8.752,0,0,0,4.5-.889.839.839,0,0,0,.024,1.154,1.342,1.342,0,0,0,1.192.326c.06.166-.149.3-.21.466-.1.279.241.519.536.552s.632-.008.849.193a.8.8,0,0,1,.15.762,2.989,2.989,0,0,0-.153.8c.015.271.219.561.49.542.289-.021.519-.376.8-.288a.414.414,0,0,1,.247.36c.074.612-.594,1.16-.448,1.759.118.487.7.691,1.2.71a1.406,1.406,0,0,0,1-.271.559.559,0,0,0,.183-.287.939.939,0,0,0-.217-.654,7.241,7.241,0,0,1-.747-3.913,12.107,12.107,0,0,0-.3-4.006,2.015,2.015,0,0,0-.708-1.08.928.928,0,0,0-1.2.085,3.818,3.818,0,0,0-2.052-.711,14.65,14.65,0,0,0-2-.188,7.349,7.349,0,0,0-3.506.885,3.353,3.353,0,0,0-.985.748,1.616,1.616,0,0,0-.411,1.141" transform="translate(-340.79 -375.128)" fill="#441f04"/>
    <path id="Trazado_99945" data-name="Trazado 99945" d="M443.752,408.475a1.081,1.081,0,1,1-1.081-1.081A1.081,1.081,0,0,1,443.752,408.475Z" transform="translate(-354.384 -386.497)" fill="#eeb399"/>
    <path id="Trazado_99946" data-name="Trazado 99946" d="M439.4,435.42h-1.3a.1.1,0,0,1-.1-.1l-.3-3.922a.1.1,0,0,1,.1-.113.106.106,0,0,1,.113.1l.291,3.825h1.2a.1.1,0,0,1,0,.21Z" transform="translate(-352.044 -400.857)" fill="#8e263a"/>
    <g id="Grupo_53622" data-name="Grupo 53622" transform="translate(0)">
      <circle id="Elipse_3972" data-name="Elipse 3972" cx="24.179" cy="24.179" r="24.179" transform="translate(2.1 2.099)" fill="#fff" opacity="0.6"/>
      <path id="Trazado_99947" data-name="Trazado 99947" d="M270.607,362.765a24.287,24.287,0,0,0-4.13-1.237l-22.972,39.7a24.068,24.068,0,0,0,9.114,6.423c.274.11.549.207.825.307l23.142-41.736A24.16,24.16,0,0,0,270.607,362.765Z" transform="translate(-235.334 -358.931)" fill="#fff" opacity="0.6"/>
      <path id="Trazado_99948" data-name="Trazado 99948" d="M301.576,379.784l-21.152,40.34a24.015,24.015,0,0,0,3.311.236l20.2-37.569A24.165,24.165,0,0,0,301.576,379.784Z" transform="translate(-257.523 -369.903)" fill="#fff" opacity="0.6"/>
      <path id="Trazado_99949" data-name="Trazado 99949" d="M273.7,391.073A26.278,26.278,0,1,1,259.08,356.9,26.308,26.308,0,0,1,273.7,391.073Zm-44.888-17.989a22.08,22.08,0,1,0,28.71-12.283A22.106,22.106,0,0,0,228.809,373.084Z" transform="translate(-223.026 -355.019)" fill="#3d2b4f"/>
      <path id="Trazado_99950" data-name="Trazado 99950" d="M342.841,438.348l55.485,20.434a3.772,3.772,0,0,1-2.607,7.08c-.063-.024-.137-.053-.2-.079L341.28,442.244a2.1,2.1,0,0,1,1.562-3.9Z" transform="translate(-293.338 -405.023)" fill="#3d2b4f"/>
    </g>
    <g id="Grupo_53623" data-name="Grupo 53623" transform="translate(88.955 28.578)">
      <path id="Trazado_99951" data-name="Trazado 99951" d="M459.118,491.614a2.265,2.265,0,0,1-.4,1.008.789.789,0,0,1-.976.232c-.16-.1-.278-.287-.466-.313-.236-.033-.415.2-.622.317a.916.916,0,0,1-1.146-.34c-.082-.119-.153-.263-.288-.315-.3-.114-.61.32-.909.2-.228-.091-.256-.442-.482-.539a1.7,1.7,0,0,0-.4-.034.569.569,0,0,1-.42-.47,1.676,1.676,0,0,1,.052-.664l.221-1.031a1.648,1.648,0,0,1,.206-.583,1.579,1.579,0,0,1,1.186-.523,7.105,7.105,0,0,1,2.55.091,3.546,3.546,0,0,1,1.83,1.058C459.478,490.2,459.244,491.033,459.118,491.614Z" transform="translate(-450.197 -463.813)" fill="#eeb399"/>
      <path id="Trazado_99952" data-name="Trazado 99952" d="M455.291,453.619l2.587-12.433a2.973,2.973,0,0,0-.288-2.005l-5.572-10.426a2.971,2.971,0,0,0-5.24,2.8l5.064,9.475-2.367,11.379A15.852,15.852,0,0,1,455.291,453.619Z" transform="translate(-446.246 -426.969)" fill="#eeb399"/>
      <path id="Trazado_99953" data-name="Trazado 99953" d="M447.605,427.009a3.082,3.082,0,0,0-1.265,4.171l3.948,7.387a24.88,24.88,0,0,0,5.642-2.52l-4.154-7.772A3.083,3.083,0,0,0,447.605,427.009Z" transform="translate(-445.975 -426.645)" fill="#e54c64"/>
      <path id="Trazado_99954" data-name="Trazado 99954" d="M450.679,440.967a.105.105,0,0,1-.093-.055l-3.948-7.387a.1.1,0,1,1,.185-.1l3.906,7.31a24.756,24.756,0,0,0,5.453-2.429l-4.109-7.687a.1.1,0,0,1,.185-.1l4.154,7.772a.1.1,0,0,1-.036.138,24.883,24.883,0,0,1-5.667,2.532A.111.111,0,0,1,450.679,440.967Z" transform="translate(-446.366 -428.941)" fill="#8e263a"/>
    </g>
    <path id="Trazado_99955" data-name="Trazado 99955" d="M374.9,461.345a3.837,3.837,0,0,1-.615-.312,2.318,2.318,0,0,1-.922-2.141,1.745,1.745,0,0,1,.188-.666,1,1,0,0,1,.5-.463.4.4,0,0,1,.4.032.422.422,0,0,1,.116.211,2.236,2.236,0,0,1-.013.942,1.668,1.668,0,0,1,.838-.924.5.5,0,0,1,.418.028.481.481,0,0,1,.2.361,1.411,1.411,0,0,1-.039.424l-.068.347a1.563,1.563,0,0,1,.344-.448.63.63,0,0,1,.527-.149.773.773,0,0,1,.5.656,1.806,1.806,0,0,1,0,.647c-.033.187-.093.368-.116.556a.976.976,0,0,0,.089.454.786.786,0,0,1-.353.836,1.277,1.277,0,0,1-.281.161,1.154,1.154,0,0,1-.855-.176Z" transform="translate(-313.373 -416.746)" fill="#eeb399"/>
  </g>
</svg>
