<svg id="Grupo_53643" data-name="Grupo 53643" xmlns="http://www.w3.org/2000/svg" width="217.821" height="113.688" viewBox="0 0 217.821 113.688">
  <path id="Trazado_99956" data-name="Trazado 99956" d="M251.5,763.592s15.644,3.709,23.344-13.1c9.991-21.805-4.032-42.519-28.22-44.011-34.887-2.152-15.553-57.85-70.6-42.738-15.479,4.25-49.148-17.687-68.968,19.482-3.37,6.32-13.445,6.01-26.867,16.793-23.678,19.02-15.154,63.775,4.8,63.978S251.5,763.592,251.5,763.592Z" transform="translate(-63.559 -650.373)" fill="#a1bee9"/>
  <path id="Trazado_99957" data-name="Trazado 99957" d="M112.568,856.1s.727-4.765,10.006-6.047,17.907-11.56,33.209-10.068,28,10.852,45.418,7.984,28.326.788,32.232,3.671,20.076-.677,21.271,4.606Z" transform="translate(-87.657 -742.56)" fill="#324a6e"/>
  <path id="Trazado_99958" data-name="Trazado 99958" d="M184.377,638.921s-10.473-.512-4.917,31.406c0,0,3.737,10.834-.981,17.818h69.453V638.921Z" transform="translate(-121.324 -638.92)" fill="#c0dffc"/>
  <g id="Grupo_53627" data-name="Grupo 53627" transform="translate(61.986 71.246)">
    <path id="Trazado_99959" data-name="Trazado 99959" d="M203.685,797.807s-4.852-5.661-.3-9.256c0,0,3.326-2.014,6.038-1.85,0,0-3.842,6.443-2.6,7.084s3.764-7.489,3.764-7.489,7.568-.734,10,.437c0,0-6.469,5.294-5.107,5.61s8.351-4.881,8.351-4.881,7.044,1.2,6.668,5.5-2.8,5.624-3.869,5.509-7.307-2.5-7.443-1.622,3.62,3.73,6.251,3.864c0,0-4.966,5.477-8.266,3.9s-3.582-4.086-5.64-5.026-3.814-.937-2.964.021,4.573,1.89,5.749,3.971,2.233,3.485-1.182,2.97-8.965-3.012-9.209-5.874Z" transform="translate(-195.484 -786.07)" fill="#06c"/>
    <g id="Grupo_53626" data-name="Grupo 53626" transform="translate(0 6.97)">
      <path id="Trazado_99960" data-name="Trazado 99960" d="M224.9,800.5s-19.131-.737-23.356,4.734a13.839,13.839,0,0,1-3.809,5.347l-.448,1.221s3.316-3.5,4.5-3.707C201.787,808.094,199.932,801.316,224.9,800.5Z" transform="translate(-193.343 -800.466)" fill="#06c"/>
      <path id="Trazado_99961" data-name="Trazado 99961" d="M193.533,820.842a12.013,12.013,0,0,0-4.391,8.463l.745.066s1.312-5.611,3.682-7.8S193.533,820.842,193.533,820.842Z" transform="translate(-189.142 -810.728)" fill="#06c"/>
    </g>
  </g>
  <g id="Grupo_53629" data-name="Grupo 53629" transform="translate(24.911 55.877)">
    <path id="Trazado_99962" data-name="Trazado 99962" d="M140.879,774.315s7.718-4.322,4.116-10.188c0,0-2.882-3.6-5.969-4.528,0,0,1.647,8.747,0,8.953s-1.132-9.88-1.132-9.88-8.13-3.911-11.32-3.6c0,0,5.043,8.542,3.4,8.336s-7.307-8.85-7.307-8.85-8.336-1.544-9.674,3.4.824,7.41,2.059,7.719,9.159.206,8.953,1.234-5.557,2.676-8.542,1.75c0,0,3.293,8.13,7.616,7.718s5.66-3.087,8.336-3.293,4.631.515,3.293,1.235-5.866.236-8.028,2.073-3.911,2.969.1,3.793,11.217.308,12.658-2.779Z" transform="translate(-112.567 -754.327)" fill="#4a6ea4"/>
    <g id="Grupo_53628" data-name="Grupo 53628" transform="translate(4.23 5.168)">
      <path id="Trazado_99963" data-name="Trazado 99963" d="M121.3,765s21.612,7,24.082,14.82a16.416,16.416,0,0,0,2.058,7.513v1.544s-2.264-5.248-3.5-5.969C143.945,782.908,148.782,776.116,121.3,765Z" transform="translate(-121.304 -765.001)" fill="#4a6ea4"/>
      <path id="Trazado_99964" data-name="Trazado 99964" d="M174.193,810.1a14.255,14.255,0,0,1,1.433,11.222l-.857-.23s.832-6.786-.911-10.2S174.193,810.1,174.193,810.1Z" transform="translate(-148.053 -787.77)" fill="#4a6ea4"/>
    </g>
  </g>
  <path id="Trazado_99965" data-name="Trazado 99965" d="M189.278,755.227s-10.174-5.7-5.427-13.43c0,0,3.8-4.748,7.868-5.969,0,0-2.171,11.531,0,11.8s1.492-13.023,1.492-13.023,10.717-5.155,14.922-4.748c0,0-6.647,11.26-4.477,10.988s9.632-11.667,9.632-11.667,10.988-2.035,12.752,4.477-1.085,9.767-2.713,10.174-12.073.271-11.8,1.628,7.326,3.527,11.26,2.306c0,0-4.341,10.717-10.039,10.174s-7.461-4.07-10.988-4.341-6.1.678-4.341,1.628,7.732.311,10.581,2.733,5.155,3.914-.136,5-14.787.407-16.686-3.663Z" transform="translate(-123.776 -685.323)" fill="#324a6e"/>
  <g id="Grupo_53630" data-name="Grupo 53630" transform="translate(60.128 50.368)">
    <path id="Trazado_99966" data-name="Trazado 99966" d="M225.257,742.95s-28.488,9.225-31.744,19.535a21.643,21.643,0,0,1-2.713,9.9v2.035s2.984-6.919,4.612-7.868C195.412,766.555,189.036,757.6,225.257,742.95Z" transform="translate(-188.14 -742.95)" fill="#5f89d3"/>
    <path id="Trazado_99967" data-name="Trazado 99967" d="M187.966,802.4a18.789,18.789,0,0,0-1.889,14.792l1.13-.3s-1.1-8.945,1.2-13.444S187.966,802.4,187.966,802.4Z" transform="translate(-185.305 -772.964)" fill="#5f89d3"/>
  </g>
  <path id="Trazado_99968" data-name="Trazado 99968" d="M174.462,849.444a19.93,19.93,0,0,0,19.93-19.93h-39.86A19.93,19.93,0,0,0,174.462,849.444Z" transform="translate(-109.303 -737.234)" fill="#f7a416"/>
  <path id="Trazado_99969" data-name="Trazado 99969" d="M181.954,849.291a19.944,19.944,0,0,1-22.405-19.778H164.5A19.934,19.934,0,0,0,181.954,849.291Z" transform="translate(-111.891 -737.233)" fill="#b97b10"/>
  <path id="Trazado_99970" data-name="Trazado 99970" d="M194.374,870.152h-40.41a2.459,2.459,0,0,1,2.459-2.459h35.493a2.459,2.459,0,0,1,2.459,2.459Z" transform="translate(-109.01 -756.928)" fill="#f7a416"/>
  <rect id="Rectángulo_5131" data-name="Rectángulo 5131" width="40.969" height="0.611" transform="translate(44.574 92.28)" fill="#b97b10"/>
  <rect id="Rectángulo_5132" data-name="Rectángulo 5132" width="72.511" height="94.564" transform="translate(67.458 18.893)" fill="#c0dffc"/>
  <rect id="Rectángulo_5133" data-name="Rectángulo 5133" width="71.292" height="94.564" transform="translate(69.828 18.893)" fill="#f6faff"/>
  <path id="Trazado_99971" data-name="Trazado 99971" d="M440.86,855.785H426.493c-.77-.653.533-2.136,1.894-2.236a8.4,8.4,0,0,1,2.192.259c.2-2.626,1.327-14.43,5.582-13.955,4.784.531,0,5.2-1.352,7.962a65.733,65.733,0,0,0-2.541,6.366c.388.084.79.167,1.2.243.634-1.947,2.994-8.5,5.994-8.114,3.523.446,2.107,3.073-.39,4.631-1.832,1.146-4.082,2.775-5.151,3.563a15.287,15.287,0,0,0,2.81.225A6.054,6.054,0,0,1,440.86,855.785Z" transform="translate(-249.47 -742.56)" fill="#324a6e"/>
  <path id="Trazado_99972" data-name="Trazado 99972" d="M270.1,657.811H198.807a30.811,30.811,0,0,0-1.152-12.121c-1.829-5.413-4.98-6.771-4.98-6.771h67.235c5.738,0,10.188,3.457,11.4,8.045.045.173.087.345.124.517A17.523,17.523,0,0,1,270.1,657.811Z" transform="translate(-128.978 -638.92)" fill="#f6faff"/>
  <path id="Trazado_99973" data-name="Trazado 99973" d="M275.4,665.025H204.112a30.81,30.81,0,0,0-1.152-12.121,230.148,230.148,0,0,0,44.645,3.7c12.5-.31,22.369-1.146,29.134-1.907A17.523,17.523,0,0,1,275.4,665.025Z" transform="translate(-134.284 -646.134)" fill="#f6faff"/>
  <g id="Grupo_53632" data-name="Grupo 53632" transform="translate(79.083 38.924)">
    <rect id="Rectángulo_5134" data-name="Rectángulo 5134" width="39.219" height="1.773" rx="0.349" transform="translate(4.692)" fill="#b0d5fd"/>
    <rect id="Rectángulo_5135" data-name="Rectángulo 5135" width="24.437" height="1.773" rx="0.349" transform="translate(4.692 2.984)" fill="#b0d5fd"/>
    <g id="Grupo_53631" data-name="Grupo 53631" transform="translate(0 0)">
      <path id="Trazado_99974" data-name="Trazado 99974" d="M225.5,723.784v-3.623h-.478q-.435,0-.435-.362,0-.261.341-.369a2.51,2.51,0,0,1,.554-.087q.381-.028.612-.029t.282.091a1.075,1.075,0,0,1,.058.46v3.919h.493q.478,0,.478.413,0,.434-.478.434h-1.986a.547.547,0,0,1-.351-.112.38.38,0,0,1-.141-.315q0-.421.485-.42Z" transform="translate(-224.454 -719.314)" fill="#b0d5fd"/>
    </g>
  </g>
  <g id="Grupo_53634" data-name="Grupo 53634" transform="translate(79.053 57.601)">
    <rect id="Rectángulo_5136" data-name="Rectángulo 5136" width="39.219" height="1.773" rx="0.349" transform="translate(4.722 0)" fill="#cbe4fd"/>
    <rect id="Rectángulo_5137" data-name="Rectángulo 5137" width="24.437" height="1.773" rx="0.349" transform="translate(4.722 2.984)" fill="#cbe4fd"/>
    <g id="Grupo_53633" data-name="Grupo 53633" transform="translate(0 0)">
      <path id="Trazado_99975" data-name="Trazado 99975" d="M227.452,762.282c0,.242-.169.362-.505.362h-2.1q-.455,0-.455-.365a.462.462,0,0,1,.122-.269q.179-.2.525-.614.525-.659.877-1.14.121-.16.346-.487a1.18,1.18,0,0,0,.185-.55.566.566,0,0,0-.16-.413.549.549,0,0,0-.41-.163.628.628,0,0,0-.423.154.731.731,0,0,0-.192.384q-.09.365-.115.423a.325.325,0,0,1-.314.205.361.361,0,0,1-.3-.141.481.481,0,0,1-.1-.321,1.551,1.551,0,0,1,.07-.455,1.367,1.367,0,0,1,.544-.755,1.58,1.58,0,0,1,.9-.25,1.4,1.4,0,0,1,.973.353,1.234,1.234,0,0,1,.4.949,1.655,1.655,0,0,1-.288.885q-.161.25-.659.885-.256.327-.807.949h1.383Q227.453,761.908,227.452,762.282Z" transform="translate(-224.392 -757.887)" fill="#cbe4fd"/>
    </g>
  </g>
  <g id="Grupo_53636" data-name="Grupo 53636" transform="translate(78.972 72.983)">
    <rect id="Rectángulo_5138" data-name="Rectángulo 5138" width="39.219" height="1.773" rx="0.349" transform="translate(4.803 0.197)" fill="#cbe4fd"/>
    <rect id="Rectángulo_5139" data-name="Rectángulo 5139" width="24.437" height="1.773" rx="0.349" transform="translate(4.803 3.181)" fill="#cbe4fd"/>
    <g id="Grupo_53635" data-name="Grupo 53635">
      <path id="Trazado_99976" data-name="Trazado 99976" d="M227.366,793.127a1.373,1.373,0,0,1-.477,1.093,1.685,1.685,0,0,1-1.146.393,1.6,1.6,0,0,1-.916-.255,1.167,1.167,0,0,1-.6-.975.408.408,0,0,1,.105-.282.342.342,0,0,1,.268-.118.41.41,0,0,1,.321.229,4.922,4.922,0,0,0,.281.419.73.73,0,0,0,.556.229.7.7,0,0,0,.655-.34.908.908,0,0,0,.092-.432q0-.641-.752-.713-.426-.039-.426-.36a.343.343,0,0,1,.247-.334q.462-.17.468-.177a.631.631,0,0,0,.247-.569.512.512,0,0,0-.143-.382.526.526,0,0,0-.385-.141.7.7,0,0,0-.47.144.942.942,0,0,0-.241.426.3.3,0,0,1-.3.229.308.308,0,0,1-.258-.137.5.5,0,0,1-.1-.3.84.84,0,0,1,.111-.406,1.255,1.255,0,0,1,.563-.53,1.651,1.651,0,0,1,.759-.176,1.324,1.324,0,0,1,.926.337,1.143,1.143,0,0,1,.37.887,1.215,1.215,0,0,1-.55,1.047A1.186,1.186,0,0,1,227.366,793.127Z" transform="translate(-224.225 -789.658)" fill="#cbe4fd"/>
    </g>
  </g>
  <g id="Grupo_53637" data-name="Grupo 53637" transform="translate(87.291 23.113)">
    <rect id="Rectángulo_5140" data-name="Rectángulo 5140" width="25.018" height="2.06" rx="0.405" transform="translate(6.308 0)" fill="#b0d5fd"/>
    <path id="Rectángulo_5141" data-name="Rectángulo 5141" d="M.405,0H37.229a.4.4,0,0,1,.4.4V1.655a.405.405,0,0,1-.405.405H.405A.405.405,0,0,1,0,1.655V.405A.405.405,0,0,1,.405,0Z" transform="translate(0 3.176)" fill="#b0d5fd"/>
  </g>
  <path id="Trazado_99977" data-name="Trazado 99977" d="M139.083,843.058s-7.232-18.517-12.3-15.569S139.083,843.058,139.083,843.058Z" transform="translate(-94.509 -736.025)" fill="#324a6e"/>
  <path id="Trazado_99978" data-name="Trazado 99978" d="M130.25,852.618s-9.553-8.256-13.917-6.723S130.25,852.618,130.25,852.618Z" transform="translate(-89.252 -745.586)" fill="#324a6e"/>
  <path id="Trazado_99979" data-name="Trazado 99979" d="M354.717,858.219s2.2-7.655,4.784-6.752S354.717,858.219,354.717,858.219Z" transform="translate(-212.564 -748.52)" fill="#2e49d2"/>
  <path id="Trazado_99980" data-name="Trazado 99980" d="M358.866,861.68s5.62-3.689,6.855-2.549S358.866,861.68,358.866,861.68Z" transform="translate(-214.704 -752.398)" fill="#2e49d2"/>
  <path id="Trazado_99981" data-name="Trazado 99981" d="M271.925,829.64H228.087a.535.535,0,0,1-.534-.534h0a.535.535,0,0,1,.534-.533h43.838a.535.535,0,0,1,.534.533h0A.535.535,0,0,1,271.925,829.64Z" transform="translate(-146.969 -736.748)" fill="#cbe4fd"/>
  <path id="Trazado_99982" data-name="Trazado 99982" d="M271.925,834.05H228.087a.535.535,0,0,1-.534-.534h0a.535.535,0,0,1,.534-.534h43.838a.535.535,0,0,1,.534.534h0A.535.535,0,0,1,271.925,834.05Z" transform="translate(-146.969 -739.023)" fill="#cbe4fd"/>
  <path id="Trazado_99983" data-name="Trazado 99983" d="M271.925,838.937H228.087a.535.535,0,0,1-.534-.534h0a.535.535,0,0,1,.534-.533h43.838a.535.535,0,0,1,.534.533h0A.535.535,0,0,1,271.925,838.937Z" transform="translate(-146.969 -741.544)" fill="#cbe4fd"/>
  <rect id="Rectángulo_5142" data-name="Rectángulo 5142" width="39.115" height="1.067" rx="0.21" transform="translate(80.583 98.693)" fill="#cbe4fd"/>
  <path id="Rectángulo_5143" data-name="Rectángulo 5143" d="M.092,0H217.729a.092.092,0,0,1,.092.092v.28a.091.091,0,0,1-.091.091H.09A.09.09,0,0,1,0,.373V.092A.092.092,0,0,1,.092,0Z" transform="translate(0 113.225)" fill="#00448c"/>
  <g id="Grupo_53638" data-name="Grupo 53638" transform="translate(112.439 79.486)">
    <path id="Trazado_99984" data-name="Trazado 99984" d="M325.018,818.926a15.836,15.836,0,1,1-15.836-15.836A15.836,15.836,0,0,1,325.018,818.926Z" transform="translate(-293.346 -803.09)" fill="#badb4c"/>
    <path id="Trazado_99985" data-name="Trazado 99985" d="M314.377,837.216l-3.41-3.412a1.759,1.759,0,1,1,2.488-2.488l1.14,1.139,7.969-6.642a1.76,1.76,0,1,1,2.254,2.7Z" transform="translate(-302.17 -814.6)" fill="#fff"/>
  </g>
  <g id="Grupo_53641" data-name="Grupo 53641" transform="translate(134.434 34.335)">
    <path id="Trazado_99986" data-name="Trazado 99986" d="M366.13,868.914,364.5,870.3a26.982,26.982,0,0,0,8.86.247l-.445-2.029Z" transform="translate(-352.043 -791.688)" fill="#171e26"/>
    <path id="Trazado_99987" data-name="Trazado 99987" d="M399.763,868.4l-1.633,1.386a26.988,26.988,0,0,0,8.86.247l-.445-2.03Z" transform="translate(-369.392 -791.424)" fill="#171e26"/>
    <path id="Trazado_99988" data-name="Trazado 99988" d="M362.482,741.58a2.7,2.7,0,0,0-3.428,1.692l-3.1,9.136-10.215-2.534a11.108,11.108,0,0,1-1.3,5.248l12.628,3.133a2.7,2.7,0,0,0,3.212-1.756l3.9-11.49A2.7,2.7,0,0,0,362.482,741.58Z" transform="translate(-341.696 -726.135)" fill="#eeb399"/>
    <path id="Trazado_99989" data-name="Trazado 99989" d="M375.18,741.579a2.7,2.7,0,0,0-3.428,1.692l-2.7,7.953,4.991,2.118,2.826-8.335A2.7,2.7,0,0,0,375.18,741.579Z" transform="translate(-354.394 -726.135)" fill="#af374e"/>
    <path id="Trazado_99990" data-name="Trazado 99990" d="M370.673,782.888s-6.1,27.6-4.338,41.467c0,0,4.3,1.631,7.621,0,0,0,.818-27.066,5.117-35.607l3.872,35.2s2.279,2.038,7.164-.409l-3.583-42.219Z" transform="translate(-352.827 -746.708)" fill="#0a3759"/>
    <path id="Trazado_99991" data-name="Trazado 99991" d="M391.4,791.877h-.014l-.45-.071a.089.089,0,0,1-.068-.051,13.412,13.412,0,0,1-.952-4.45.09.09,0,1,1,.18-.005,13.309,13.309,0,0,0,.916,4.336l.287.045a23.38,23.38,0,0,1-.1-4.392.094.094,0,0,1,.1-.075.09.09,0,0,1,.076.1,24.939,24.939,0,0,0,.114,4.462.092.092,0,0,1-.028.075A.09.09,0,0,1,391.4,791.877Z" transform="translate(-365.156 -749.747)" fill="#06263a"/>
    <path id="Trazado_99992" data-name="Trazado 99992" d="M372.91,742.853l1.317,17.045a16.867,16.867,0,0,0,9.282,1.464c5.433-.631,6.623-3.032,6.623-3.032s-.938-16.725-1.1-16.89-.8-5.661-8.661-4.539S372.91,742.853,372.91,742.853Z" transform="translate(-356.381 -723.718)" fill="#e54c64"/>
    <path id="Trazado_99993" data-name="Trazado 99993" d="M375.311,780.375l16.8,9.716-.214-2.521Z" transform="translate(-357.621 -746.221)" fill="#bcbec0" style="mix-blend-mode: multiply;isolation: isolate"/>
    <path id="Trazado_99994" data-name="Trazado 99994" d="M395.357,748.647s2.877,9.783.872,15.866l3.226.532,2.258-11.165-4.328-6.184Z" transform="translate(-367.962 -729.364)" fill="#af374e"/>
    <path id="Trazado_99995" data-name="Trazado 99995" d="M377.72,756.065a3.469,3.469,0,0,1-1.542-.354.1.1,0,0,1-.048-.077l-.222-3.424a.1.1,0,0,1,.089-.1.091.091,0,0,1,.1.089l.218,3.37a3.283,3.283,0,0,0,3.043-.147l-.3-3.563a.1.1,0,0,1,.087-.1.1.1,0,0,1,.1.087l.3,3.623a.1.1,0,0,1-.045.09A3.392,3.392,0,0,1,377.72,756.065Z" transform="translate(-357.929 -731.458)" fill="#8e263a"/>
    <g id="Grupo_53639" data-name="Grupo 53639" transform="translate(21.514 8.397)">
      <path id="Trazado_99996" data-name="Trazado 99996" d="M387.505,727.177v4.729l-2.179,1.984-2.117-1.29v-2.844Z" transform="translate(-383.21 -727.177)" fill="#eeb399"/>
    </g>
    <path id="Trazado_99997" data-name="Trazado 99997" d="M386.915,732.1l-3.7,1.227v1.514C385.277,734.567,386.915,732.1,386.915,732.1Z" transform="translate(-361.696 -721.32)" fill="#cc957f"/>
    <path id="Trazado_99998" data-name="Trazado 99998" d="M383.321,740.879a.089.089,0,0,1-.071-.034l-1.855-2.372a.091.091,0,0,1-.013-.089,2.606,2.606,0,0,1,.834-1.109.09.09,0,0,1,.1.153,2.363,2.363,0,0,0-.742.975l1.736,2.219.995-1.931a.091.091,0,0,1,.065-.047.085.085,0,0,1,.077.024l1.788,1.7,1.167-2.812a1.587,1.587,0,0,0-.868-.817.09.09,0,1,1,.06-.17,1.751,1.751,0,0,1,.99.955.087.087,0,0,1,0,.066l-1.232,2.968a.089.089,0,0,1-.064.054.093.093,0,0,1-.081-.023l-1.8-1.709-1,1.95a.091.091,0,0,1-.072.048Z" transform="translate(-360.75 -723.622)" fill="#8e263a"/>
    <path id="Trazado_99999" data-name="Trazado 99999" d="M376.177,751.938a.081.081,0,0,1-.072-.083.085.085,0,0,1,.067-.1l2.782-.256c.043-.011.075.033.078.083a.085.085,0,0,1-.067.1l-2.782.257Z" transform="translate(-358.031 -731.326)" fill="#8e263a"/>
    <rect id="Rectángulo_5144" data-name="Rectángulo 5144" width="8.028" height="11.478" rx="4.014" transform="translate(17.782 1.23)" fill="#eeb399"/>
    <path id="Trazado_100000" data-name="Trazado 100000" d="M391.8,797.182a.09.09,0,0,1-.052-.016c-1.5-1.063-4.671-.8-4.7-.8a.088.088,0,0,1-.1-.082.09.09,0,0,1,.082-.1c.133-.011,3.266-.269,4.822.833a.09.09,0,0,1-.052.164Z" transform="translate(-363.625 -754.359)" fill="#06263a"/>
    <path id="Trazado_100001" data-name="Trazado 100001" d="M373.12,712.041a1.17,1.17,0,0,0,.244,1.381,2.329,2.329,0,0,0,1.365.582,7.971,7.971,0,0,0,4.094-.809.764.764,0,0,0,.022,1.05,1.222,1.222,0,0,0,1.085.3c.055.152-.136.273-.191.424-.093.253.22.473.488.5s.575-.008.773.175a.728.728,0,0,1,.136.694,2.721,2.721,0,0,0-.139.725c.014.246.2.511.446.493.263-.019.473-.342.724-.262a.377.377,0,0,1,.225.327c.067.557-.541,1.055-.408,1.6.108.444.641.628,1.1.646a1.283,1.283,0,0,0,.914-.246.508.508,0,0,0,.167-.261.853.853,0,0,0-.2-.6,6.589,6.589,0,0,1-.68-3.561,11,11,0,0,0-.276-3.646,1.835,1.835,0,0,0-.644-.983.846.846,0,0,0-1.089.078,3.472,3.472,0,0,0-1.867-.646,13.306,13.306,0,0,0-1.817-.171,6.7,6.7,0,0,0-3.191.806,3.041,3.041,0,0,0-.9.681,1.472,1.472,0,0,0-.374,1.038" transform="translate(-356.423 -709.834)" fill="#441f04"/>
    <path id="Trazado_100002" data-name="Trazado 100002" d="M391.918,725a.984.984,0,1,1-.984-.984A.984.984,0,0,1,391.918,725Z" transform="translate(-365.173 -717.151)" fill="#eeb399"/>
    <path id="Trazado_100003" data-name="Trazado 100003" d="M388.581,745.7H387.4a.1.1,0,0,1-.095-.088l-.272-3.569a.1.1,0,0,1,.088-.1.1.1,0,0,1,.1.088l.265,3.48h1.1a.1.1,0,0,1,0,.191Z" transform="translate(-363.667 -726.395)" fill="#8e263a"/>
    <g id="Grupo_53640" data-name="Grupo 53640" transform="translate(26.37 13.859)">
      <path id="Trazado_100004" data-name="Trazado 100004" d="M404.075,787.681a2.057,2.057,0,0,1-.363.918.718.718,0,0,1-.888.211c-.145-.093-.253-.261-.424-.285-.215-.03-.377.18-.566.288a.833.833,0,0,1-1.043-.309c-.075-.109-.139-.24-.262-.287-.273-.1-.555.291-.827.183-.208-.083-.232-.4-.438-.491a1.547,1.547,0,0,0-.36-.031.518.518,0,0,1-.382-.427,1.523,1.523,0,0,1,.047-.6l.2-.939a1.491,1.491,0,0,1,.187-.531,1.437,1.437,0,0,1,1.08-.475,6.474,6.474,0,0,1,2.32.082,3.229,3.229,0,0,1,1.666.963C404.4,786.4,404.189,787.152,404.075,787.681Z" transform="translate(-395.956 -762.381)" fill="#eeb399"/>
      <path id="Trazado_100005" data-name="Trazado 100005" d="M401.645,762.919,404,751.6a2.7,2.7,0,0,0-.262-1.825l-5.071-9.488a2.7,2.7,0,1,0-4.769,2.549l4.609,8.623-2.154,10.355A14.428,14.428,0,0,1,401.645,762.919Z" transform="translate(-393.413 -738.666)" fill="#eeb399"/>
      <path id="Trazado_100006" data-name="Trazado 100006" d="M394.722,738.788a2.805,2.805,0,0,0-1.151,3.8l3.593,6.722a22.641,22.641,0,0,0,5.135-2.294l-3.78-7.073A2.806,2.806,0,0,0,394.722,738.788Z" transform="translate(-393.239 -738.457)" fill="#e54c64"/>
      <path id="Trazado_100007" data-name="Trazado 100007" d="M397.416,750.879a.1.1,0,0,1-.084-.05l-3.593-6.722a.1.1,0,1,1,.168-.09l3.555,6.652a22.5,22.5,0,0,0,4.963-2.211l-3.739-7a.1.1,0,0,1,.169-.09l3.78,7.073a.1.1,0,0,1-.032.125,22.63,22.63,0,0,1-5.158,2.3A.1.1,0,0,1,397.416,750.879Z" transform="translate(-393.491 -739.935)" fill="#8e263a"/>
    </g>
    <path id="Trazado_100008" data-name="Trazado 100008" d="M340.185,765.06a3.461,3.461,0,0,1-.559-.284,2.108,2.108,0,0,1-.839-1.948,1.58,1.58,0,0,1,.171-.606.911.911,0,0,1,.456-.421.366.366,0,0,1,.369.029.383.383,0,0,1,.105.192,2.026,2.026,0,0,1-.012.857,1.519,1.519,0,0,1,.763-.84.458.458,0,0,1,.38.025.439.439,0,0,1,.183.328,1.3,1.3,0,0,1-.036.385l-.062.316a1.414,1.414,0,0,1,.313-.408.572.572,0,0,1,.48-.136.705.705,0,0,1,.452.6,1.648,1.648,0,0,1,0,.589c-.03.17-.085.335-.107.506a.888.888,0,0,0,.082.414.716.716,0,0,1-.322.761,1.149,1.149,0,0,1-.255.147,1.051,1.051,0,0,1-.779-.161Z" transform="translate(-338.775 -736.622)" fill="#eeb399"/>
  </g>
  <g id="Grupo_53642" data-name="Grupo 53642" transform="translate(129.65 57.736)">
    <rect id="Rectángulo_5145" data-name="Rectángulo 5145" width="2.125" height="10.688" transform="matrix(-0.073, -0.997, 0.997, -0.073, 2.556, 2.943)" fill="#ff7469"/>
    <path id="Trazado_100009" data-name="Trazado 100009" d="M328.895,761.108l2.556.878-.156-2.119Z" transform="translate(-328.895 -759.043)" fill="#ff9490"/>
    <path id="Trazado_100010" data-name="Trazado 100010" d="M357.159,758.819l.049.67a.748.748,0,0,1-.691.8l-.493.036-.156-2.119.536-.039A.705.705,0,0,1,357.159,758.819Z" transform="translate(-342.808 -758.166)" fill="#ff9490"/>
  </g>
</svg>
