<svg xmlns="http://www.w3.org/2000/svg" width="472.979" height="222.246" viewBox="0 0 472.979 222.246">
  <g id="Grupo_53413" data-name="Grupo 53413" transform="translate(-194.313 -336.93)">
    <path id="Trazado_99370" data-name="Trazado 99370" d="M593.723,558.044s51.545,9.466,67.954-26.346c21.288-46.462-22.448-81.69-55.99-75.127-73.091,14.3-55.491-143.48-172.792-111.278-32.984,9.055-122.1-44.734-146.955,41.512-5.91,20.509-26.85,22.767-57.248,35.781C169.2,448.053,196.4,558.473,238.91,558.907S593.723,558.044,593.723,558.044Z" transform="translate(0 0)" fill="#ebf2f9"/>
    <path id="Trazado_99371" data-name="Trazado 99371" d="M1081.194,1061.149c-10.627-7.965-20.83,2.438-35.708-4.363s15.729-40.385,3.4-50.587-32.733,11.478-32.733,11.478,35.709-44.636,22.105-50.2-99.641-19.8-99.641-19.8l-15.546,89.672c-3.18-4.113-9.916-9.417-15.751-2.725-7.761,8.9,18.261,28.076,14.152,31.957s-13.924-12.555-22.228-6.127,2.347,17.456,2.347,17.456l23.3.324s0-.289.01-.814h164.372S1091.822,1069.114,1081.194,1061.149Z" transform="translate(-596.536 -519.162)" fill="#a8d29f"/>
    <g id="Grupo_53424" data-name="Grupo 53424" transform="translate(257.267 354.362)">
      <g id="Grupo_53413-2" data-name="Grupo 53413" transform="translate(0 0)">
        <path id="Trazado_99372" data-name="Trazado 99372" d="M1328.066,908.206l-10.7,127.267s-1.121,7.714,4.617,7.728c9.435.022,46.962,0,46.962,0s-7.1-1.606-7.015-5.219c.1-4.259,12.51-130.98,12.51-130.98Z" transform="translate(-1211.84 -838.953)" fill="#d86713"/>
        <path id="Trazado_99373" data-name="Trazado 99373" d="M1389.472,1027.8c-1.856.006-37.7.118-46.887,0-4-.05-4.706-3.56-4.739-5.832a11.36,11.36,0,0,1,.122-1.894l.278-3.308.709-8.431.627-7.449.805-9.571.678-8.079,7.605-90.432,46.37-1.2s-5.226,53.032-8.923,91.635c-.413,4.3-.805,8.425-1.168,12.275q-.177,1.844-.341,3.6c-.343,3.653-.656,7.006-.929,9.968-.144,1.561-.276,3.011-.4,4.34-.472,5.206-.748,8.531-.752,9.163a5.358,5.358,0,0,0,.09,1.03C1383.383,1027.67,1388.775,1027.8,1389.472,1027.8Z" transform="translate(-1229.326 -825.863)" fill="#ee9849"/>
        <path id="Trazado_99374" data-name="Trazado 99374" d="M860.868,453.188H638.244l26.072,104.725,3.57,14.343,12.143,48.778h225.6Z" transform="translate(-634.63 -453.187)" fill="#f1a34f"/>
        <path id="Trazado_99375" data-name="Trazado 99375" d="M617.758,453.187l-3.613,1.2,40.594,170.284,4.8-3.643Z" transform="translate(-614.145 -453.187)" fill="#ee9849"/>
        <path id="Trazado_99376" data-name="Trazado 99376" d="M884.864,1576.175h224.208l6.192-3.643h-225.6Z" transform="translate(-844.27 -1404.687)" fill="#d86713"/>
        <rect id="Rectángulo_5061" data-name="Rectángulo 5061" width="48.544" height="2.307" transform="translate(167.874 204.298) rotate(180)" fill="#f1a34f"/>
        <path id="Trazado_99377" data-name="Trazado 99377" d="M1391.156,1596.82l-.251,1.764-45.654,9.223.627-7.449.3-3.538Z" transform="translate(-1235.622 -1425.333)" fill="#d86713"/>
        <path id="Trazado_99378" data-name="Trazado 99378" d="M1389.479,1718.377c-1.856.005-37.7.118-46.887,0-4-.05-4.706-3.56-4.74-5.832l45.438-8.549c-.472,5.206-.748,8.531-.752,9.163a5.357,5.357,0,0,0,.09,1.03C1383.391,1718.245,1388.783,1718.377,1389.479,1718.377Z" transform="translate(-1229.333 -1516.437)" fill="#d86713" opacity="0.4"/>
        <path id="Trazado_99379" data-name="Trazado 99379" d="M966.512,1352.52l-96.169,32.974L862.13,1352.5Z" transform="translate(-824.945 -1217.648)" fill="#d86713" opacity="0.4"/>
        <path id="Trazado_99380" data-name="Trazado 99380" d="M860.866,453.187H638.241l33.553,134.852,225.193.043Z" transform="translate(-634.628 -453.187)" fill="#699dee"/>
      </g>
      <path id="Trazado_99381" data-name="Trazado 99381" d="M1640.468,1432.55a7.629,7.629,0,0,0-7.155-5.99,4.793,4.793,0,0,0-4.825,5.99,7.629,7.629,0,0,0,7.154,5.99A4.794,4.794,0,0,0,1640.468,1432.55Z" transform="translate(-1476.291 -1280.603)" fill="#d86713"/>
      <path id="Trazado_99382" data-name="Trazado 99382" d="M938.765,623.2H730.321L706.715,529.16l-1.809-7.212-1.545-6.151-3.62-14.423h205.44l3.976,14.423,1.7,6.151,1.988,7.212Z" transform="translate(-686.906 -494.148)" fill="#e9f3fe"/>
      <path id="Trazado_99383" data-name="Trazado 99383" d="M905.181,501.374H699.741l3.62,14.423h205.8Z" transform="translate(-686.906 -494.148)" fill="#afcdfb"/>
      <path id="Trazado_99384" data-name="Trazado 99384" d="M1189.722,750.161H1210.5l2.7,10.417h-20.781Z" transform="translate(-1103.414 -705.63)" fill="#a8d29f"/>
      <path id="Trazado_99385" data-name="Trazado 99385" d="M932.187,819.63h20.781l2.573,9.941H934.814Z" transform="translate(-884.496 -764.682)" fill="#a8d29f"/>
      <path id="Trazado_99386" data-name="Trazado 99386" d="M1606.881,750.161h20.781l2.7,10.417h-20.781Z" transform="translate(-1458.021 -705.63)" fill="#a8d29f"/>
      <path id="Trazado_99387" data-name="Trazado 99387" d="M1642.03,890.684h20.781l2.573,9.941h-20.727Z" transform="translate(-1487.898 -825.081)" fill="#a8d29f"/>
      <path id="Trazado_99388" data-name="Trazado 99388" d="M1538.816,1028.034h41.675l2.583,10.417h-41.562Z" transform="translate(-1400.162 -941.836)" fill="#a8d29f"/>
      <g id="Grupo_53422" data-name="Grupo 53422" transform="translate(21.891 44.229)">
        <g id="Grupo_53414" data-name="Grupo 53414">
          <rect id="Rectángulo_5062" data-name="Rectángulo 5062" width="206.982" height="0.605" fill="#afcdfb"/>
        </g>
        <g id="Grupo_53415" data-name="Grupo 53415" transform="translate(2.971 10.417)">
          <rect id="Rectángulo_5063" data-name="Rectángulo 5063" width="206.823" height="0.605" fill="#afcdfb"/>
        </g>
        <g id="Grupo_53416" data-name="Grupo 53416" transform="translate(5.024 20.834)">
          <rect id="Rectángulo_5064" data-name="Rectángulo 5064" width="207.583" height="0.605" fill="#afcdfb"/>
        </g>
        <g id="Grupo_53417" data-name="Grupo 53417" transform="translate(8.082 31.25)">
          <rect id="Rectángulo_5065" data-name="Rectángulo 5065" width="207.337" height="0.605" fill="#afcdfb"/>
        </g>
        <g id="Grupo_53418" data-name="Grupo 53418" transform="translate(10.715 41.667)">
          <rect id="Rectángulo_5066" data-name="Rectángulo 5066" width="207.516" height="0.605" fill="#afcdfb"/>
        </g>
        <g id="Grupo_53419" data-name="Grupo 53419" transform="translate(13.193 52.084)">
          <rect id="Rectángulo_5067" data-name="Rectángulo 5067" width="207.851" height="0.605" fill="#afcdfb"/>
        </g>
        <g id="Grupo_53420" data-name="Grupo 53420" transform="translate(15.749 62.501)">
          <rect id="Rectángulo_5068" data-name="Rectángulo 5068" width="208.108" height="0.605" fill="#afcdfb"/>
        </g>
        <g id="Grupo_53421" data-name="Grupo 53421" transform="translate(18.548 72.917)">
          <rect id="Rectángulo_5069" data-name="Rectángulo 5069" width="208.121" height="0.605" fill="#afcdfb"/>
        </g>
      </g>
      <g id="Grupo_53423" data-name="Grupo 53423" transform="translate(21.278 11.941)">
        <path id="Trazado_99389" data-name="Trazado 99389" d="M757.457,532.819a1.362,1.362,0,0,0-1.354,1.8,2.463,2.463,0,0,0,2.253,1.8,1.362,1.362,0,0,0,1.353-1.8A2.463,2.463,0,0,0,757.457,532.819Z" transform="translate(-756.048 -532.819)" fill="#e9f3fe"/>
        <path id="Trazado_99390" data-name="Trazado 99390" d="M797.409,532.819a1.362,1.362,0,0,0-1.353,1.8,2.463,2.463,0,0,0,2.253,1.8,1.362,1.362,0,0,0,1.353-1.8A2.463,2.463,0,0,0,797.409,532.819Z" transform="translate(-790.009 -532.819)" fill="#e9f3fe"/>
        <path id="Trazado_99391" data-name="Trazado 99391" d="M842.681,534.622a2.463,2.463,0,0,0-2.252-1.8,1.362,1.362,0,0,0-1.353,1.8,2.463,2.463,0,0,0,2.253,1.8A1.362,1.362,0,0,0,842.681,534.622Z" transform="translate(-826.578 -532.819)" fill="#e9f3fe"/>
      </g>
      <path id="Trazado_99392" data-name="Trazado 99392" d="M948.761,739.477l.586-.152-24.319-93.962h17.091l-1.988-7.212H923.161l-.02-.076-.293.076H902.38l-.02-.076-.293.076H881.6l-.02-.076-.293.076H860.818l-.02-.076-.293.076H840.037l-.02-.076-.293.076H819.255l-.02-.076-.293.076H798.474l-.02-.076-.293.076H777.693l-.02-.076-.293.076H756.912l-.02-.076-.293.076H734.184l1.809,7.212h22.16l24.358,94.114.586-.152-24.319-93.962h20.156l24.358,94.114.586-.152-24.319-93.962h20.156l24.359,94.114.586-.152-24.319-93.962H820.5l24.358,94.114.586-.152-24.319-93.962h20.156l24.358,94.114.586-.152L841.9,645.363h20.156l24.359,94.114.586-.152-24.319-93.962H882.84L907.2,739.477l.586-.152-24.319-93.962h20.156l24.359,94.114.586-.152-24.319-93.962H924.4Z" transform="translate(-716.184 -610.352)" fill="#afcdfb"/>
    </g>
    <g id="Grupo_53427" data-name="Grupo 53427" transform="translate(589.464 443.416)">
      <g id="Grupo_53425" data-name="Grupo 53425" transform="translate(0 0)">
        <rect id="Rectángulo_5070" data-name="Rectángulo 5070" width="43.495" height="43.495" fill="#d86713"/>
        <rect id="Rectángulo_5071" data-name="Rectángulo 5071" width="43.495" height="43.495" transform="translate(13.411)" fill="#ee9849"/>
      </g>
      <g id="Grupo_53426" data-name="Grupo 53426" transform="translate(21.967 7.65)">
        <path id="Trazado_99393" data-name="Trazado 99393" d="M3049.15,1240.513a3.177,3.177,0,0,0-3.164,3.19h0a3.177,3.177,0,0,0,3.19,3.163h0a3.176,3.176,0,0,0,3.163-3.19h0A3.177,3.177,0,0,0,3049.15,1240.513Z" transform="translate(-3035.495 -1219.157)" fill="#ebf2f9"/>
        <path id="Trazado_99394" data-name="Trazado 99394" d="M3049.176,1104.445h0a3.176,3.176,0,0,0,3.163-3.19h0a3.177,3.177,0,1,0-3.163,3.19Z" transform="translate(-3035.495 -1098.092)" fill="#ebf2f9"/>
        <rect id="Rectángulo_5072" data-name="Rectángulo 5072" width="27.223" height="6.353" transform="translate(0 10.978) rotate(-0.238)" fill="#ebf2f9"/>
      </g>
    </g>
    <g id="Grupo_53429" data-name="Grupo 53429" transform="translate(216.699 473.552)">
      <g id="Grupo_53428" data-name="Grupo 53428" transform="translate(0)">
        <rect id="Rectángulo_5073" data-name="Rectángulo 5073" width="37.182" height="37.182" fill="#4a75cb"/>
        <rect id="Rectángulo_5074" data-name="Rectángulo 5074" width="37.182" height="37.182" transform="translate(11.465)" fill="#699dee"/>
      </g>
      <rect id="Rectángulo_5075" data-name="Rectángulo 5075" width="23.272" height="5.431" transform="translate(18.789 15.876)" fill="#ebf2f9"/>
    </g>
    <g id="Grupo_53430" data-name="Grupo 53430" transform="translate(296.243 421.205)">
      <path id="Trazado_99395" data-name="Trazado 99395" d="M995.5,1706.581l2.17,9.138,3.25-.018.119-9.12Z" transform="translate(-977.294 -1585.478)" fill="#e49963"/>
      <path id="Trazado_99396" data-name="Trazado 99396" d="M1177.814,1702.36l6.174,8.749,2.406-3.089-3.716-6.862Z" transform="translate(-1132.268 -1580.867)" fill="#e49963"/>
      <path id="Trazado_99397" data-name="Trazado 99397" d="M903.567,899.973a6.294,6.294,0,0,0-3.407-.652,1.593,1.593,0,0,1,.719-.341,5.28,5.28,0,0,0-1.885.492c-8.112-3.126-9.387,8.818-9.216,11.594s-2.726,3.681-6.946,5.867c-8.052,4.172-8.76,9.758-8.76,9.758.063.037.128.079.2.127.4-.677,1.222-1.948,1.916-2.14a28.77,28.77,0,0,0-1.116,2.718c2.376,1.807,6.82,5.811,9.917,8.65a4.55,4.55,0,0,1,.211-1.759l.383,2.3c1.657,1.524,2.8,2.6,2.8,2.6-.2-2.242,10.142-14.076,15.54-17.62a15.6,15.6,0,0,0,1.816-5.621,14.753,14.753,0,0,1-1.1,5.086C909.2,916.824,906.541,901.663,903.567,899.973Z" transform="translate(-874.071 -898.955)" fill="#163560"/>
      <path id="Trazado_99398" data-name="Trazado 99398" d="M1027.672,1005.62c.027.012-2.606,1.379-4.587.838-1.863-.508-3.081-2.924-3.055-2.929.789-.157,1.016-1.241,1-5.9l.357.07,6,1.188s-.136,1.887-.14,3.665C1027.24,1004.045,1027.33,1005.461,1027.672,1005.62Z" transform="translate(-998.143 -982.832)" fill="#e49963"/>
      <path id="Trazado_99399" data-name="Trazado 99399" d="M1025.764,910.576a4.794,4.794,0,0,1,6.673-.161A26,26,0,0,0,1025.764,910.576Z" transform="translate(-1003.018 -907.602)" fill="#e37970"/>
      <path id="Trazado_99400" data-name="Trazado 99400" d="M1035.077,999.285s-.136,1.887-.14,3.665c-3.356-.095-5.13-3.156-5.857-4.853Z" transform="translate(-1005.836 -983.231)" fill="#d68d5d"/>
      <path id="Trazado_99401" data-name="Trazado 99401" d="M1012.292,923.882a17.64,17.64,0,0,1-2.181-5.155c-.3-1.7.563-7.985,6.882-7.079a8.584,8.584,0,0,1,3.561,1.346c1.372.927,3.352,2.927,1.138,8.415l-.575,1.854Z" transform="translate(-989.668 -909.669)" fill="#163560"/>
      <path id="Trazado_99402" data-name="Trazado 99402" d="M1035.5,1340.954l-3.179.1-3.441.105a67.928,67.928,0,0,1-12.408-23.037q-.156-.495-.329-1c-2.44-7.115-7.5-16.046-10.165-24.13-.424-1.287-.805-2.5-1.147-3.647-.109-.367-.216-.728-.317-1.083a85.745,85.745,0,0,1-3.058-16.1l19.25.154A358.857,358.857,0,0,0,1035.5,1340.954Z" transform="translate(-982.356 -1216.199)" fill="#2b478b"/>
      <path id="Trazado_99403" data-name="Trazado 99403" d="M971.245,1058c-.048,9.16,1.344,13.09,1.344,13.09a25.867,25.867,0,0,1-18.038,1.105c-.115-.036-8.111-1.861-8.111-1.861.164-.371,1.622-6.544,1.781-6.884,2.068-4.442,3.638-6.389,3.884-7.754a29.034,29.034,0,0,0,.238-7.674,61.565,61.565,0,0,0-2.375-12.052,62.607,62.607,0,0,0,7.946-2.716,6.209,6.209,0,0,0,4.287,1.59c1.951-.043,2.584-.878,2.483-1.79,2.079,1.157,3.739,2.25,3.739,2.25,1.767,3.07,5.351,6.051,5.611,10.76C974.1,1047.225,971.246,1057.747,971.245,1058Z" transform="translate(-935.588 -1012.948)" fill="#e7f1fd"/>
      <path id="Trazado_99404" data-name="Trazado 99404" d="M1086.038,1044.4c-2.826-3.3-10.148-10.46-17.7-11.338l6.52,12.7a5.62,5.62,0,0,0,2.3,3.445,37.832,37.832,0,0,0,10.742,4.481,56.44,56.44,0,0,0,9.638-5.855c1.747-1.28,4.817-6.163,4.817-6.163l-.828-2.771s-5.212,2.914-7.074,3.755c-1.061.479-3.5,1.623-5.225,2.431A2.686,2.686,0,0,1,1086.038,1044.4Z" transform="translate(-1039.205 -1012.948)" fill="#c65447"/>
      <path id="Trazado_99405" data-name="Trazado 99405" d="M1031,941.287s-7.941.131-7.947-4.815-1.034-8.261,4.036-8.554,6.057,1.594,6.46,3.244S1033.065,941.126,1031,941.287Z" transform="translate(-1000.638 -923.55)" fill="#e49963"/>
      <path id="Trazado_99406" data-name="Trazado 99406" d="M1016.232,921.583s-2.174,5.8-5.511,6.661-4.784-.036-4.784-.036a9.449,9.449,0,0,0,3.09-5.582S1014.592,918.821,1016.232,921.583Z" transform="translate(-986.164 -917.335)" fill="#163560"/>
      <path id="Trazado_99407" data-name="Trazado 99407" d="M1071,925.06a7.013,7.013,0,0,1,2.02,2.555c.4,1.26.574,3.852,1.33,3.764,0,0,1.638-3.944-.2-6.176C1072.193,922.838,1071,925.06,1071,925.06Z" transform="translate(-1041.469 -920.341)" fill="#163560"/>
      <path id="Trazado_99408" data-name="Trazado 99408" d="M1289.645,1052.042a4.956,4.956,0,0,1,5.555-3.465c.509.159,2,.753,1.046,2.345-.7,1.174-1,.568-2.107,2.146a3.513,3.513,0,0,1-3.666,1.745Z" transform="translate(-1227.33 -1026.094)" fill="#e49963"/>
      <path id="Trazado_99409" data-name="Trazado 99409" d="M1006.611,1764.117a8.808,8.808,0,0,1-.414,3.747s-.532,2.423,1.855,2.469,2.973-.18,2.7-1.666-.785-4.057-.785-4.057Z" transform="translate(-986.342 -1634.386)" fill="#e49963"/>
      <path id="Trazado_99410" data-name="Trazado 99410" d="M1009.8,1792.256s-.051.031-.15.08h-4.673a1.127,1.127,0,0,1-.132-.08,11.725,11.725,0,0,1,.171-3.5c2.7,2.477,4.4-.061,4.4-.061A12.679,12.679,0,0,1,1009.8,1792.256Z" transform="translate(-985.16 -1655.274)" fill="#c45446"/>
      <path id="Trazado_99411" data-name="Trazado 99411" d="M1222.232,1754.291s-4.4-4.884-5.752-7.37l-3.273,1.677,7.315,6.87,1.711-.225Z" transform="translate(-1162.354 -1619.769)" fill="#e49963"/>
      <path id="Trazado_99412" data-name="Trazado 99412" d="M1220.261,1766.333h-6.022a8.559,8.559,0,0,1-1.795-2.783,2.951,2.951,0,0,0-1.993-1.332v4.068H1209.2l-1.183-4.325c-.778-1.432-.061-2.73.487-3.861.637,0,2.353.435,5.6,4.1a4.261,4.261,0,0,0,3.42,1.6.3.3,0,0,0,.048.026C1219.54,1764.7,1220.1,1765.8,1220.261,1766.333Z" transform="translate(-1157.652 -1629.271)" fill="#c45446"/>
      <path id="Trazado_99413" data-name="Trazado 99413" d="M1068.11,1033.057s4.594,11.35,4.729,13.647.54,37.562.54,37.562-.27,1.621,2.837.946,3.918-1.351,3.918-1.351-2.972-21.753-2.162-29.32-6.215-19.907-6.215-19.907Z" transform="translate(-1039.014 -1012.948)" fill="#c65447"/>
      <path id="Trazado_99414" data-name="Trazado 99414" d="M1049.658,1420.1l-3.441.106a67.928,67.928,0,0,1-12.408-23.037q-.156-.495-.33-1c-2.44-7.115-7.5-16.046-10.165-24.13-.424-1.288-.805-2.5-1.147-3.647-.109-.367-.216-.728-.317-1.083l2.835-2.151s8.511,13.782,11.146,26.751C1038.119,1403.177,1047.285,1416.733,1049.658,1420.1Z" transform="translate(-999.691 -1295.253)" fill="#233862"/>
      <path id="Trazado_99415" data-name="Trazado 99415" d="M1095.164,1145.865l-.167.514-8.909-2.9a.345.345,0,0,1-.057-.317.253.253,0,0,1,.224-.2Z" transform="translate(-1054.233 -1106.379)" fill="#163560"/>
      <path id="Trazado_99416" data-name="Trazado 99416" d="M959.152,1372.386c.049,6.307-.27,20.808-1.092,26.811h-3.048c-1.685,0-2.525-.024-2.525-.024-2.06-10.437-3.527-19.074-4.594-26.516-.875-6.107-1.654-11.343-2.252-15.85-.6-4.536-1.021-8.334-1.171-11.543-.023-.505-.04-1-.05-1.474s-.012-.946-.008-1.4l16.633-1.621C960.834,1351.82,959.125,1368.72,959.152,1372.386Z" transform="translate(-933.862 -1274.519)" fill="#2b478b"/>
      <path id="Trazado_99417" data-name="Trazado 99417" d="M955.352,1424.672c-1.685,0-2.525-.024-2.525-.024-2.06-10.438-3.527-19.074-4.594-26.516-.876-6.107-1.654-11.343-2.253-15.85-.6-4.536-1.021-8.334-1.171-11.543l6.1,3.59s-3.9,1.374-2.409,11.778S953.283,1423.2,955.352,1424.672Z" transform="translate(-934.202 -1299.994)" fill="#233862"/>
      <path id="Trazado_99418" data-name="Trazado 99418" d="M935.083,1084.9s-1.171,4.233-5.225,3.693a48.848,48.848,0,0,1-9.818-2.972s1.732-5.474,3.886-12.664c2.608-8.705,5.836-19.928,7.357-27.007a43.83,43.83,0,0,0,.827-4.826l3.363-6.525s5.014,11.254,5.284,14.091S935.083,1084.9,935.083,1084.9Z" transform="translate(-913.148 -1014.26)" fill="#c65447"/>
      <path id="Trazado_99419" data-name="Trazado 99419" d="M953.2,1048.268l4.438-13.668a68.441,68.441,0,0,0-8.42,3.086s-1.759,2.267-2.847,7.5c0,0-1.15,12.559,1.417,17.153,0,0,8.107,1.621,21.078-2.838v-2.973s-14.187.743-17.092,1.081Z" transform="translate(-935.315 -1014.26)" fill="#e49963"/>
      <path id="Trazado_99420" data-name="Trazado 99420" d="M956.933,1118.982c-.181,4.594-1.262,13.511-10.9,18.285-.026.012-.052.026-.077.036,2.608-8.705,5.836-19.928,7.357-27.006C955.083,1112.943,957.031,1116.453,956.933,1118.982Z" transform="translate(-935.177 -1078.606)" fill="#aa413e"/>
      <path id="Trazado_99421" data-name="Trazado 99421" d="M955.2,1034.6s-8.228.58-10.209,4.993-2.612,19.1-.09,23.42c0,0,3.472.989,9.614-.159l.227-.043s1.959-4.8.2-5.742c0,0-5.179.27-4.639-1.441S955.2,1034.6,955.2,1034.6Z" transform="translate(-932.872 -1014.26)" fill="#c65447"/>
      <path id="Trazado_99422" data-name="Trazado 99422" d="M1088.146,1154.153a7.094,7.094,0,0,0,1.371-2.768,3.01,3.01,0,0,1,2.94-2.692c1.951-.256,2.789-.284,2.784.266a14.558,14.558,0,0,1-4.393,6.681C1088.049,1157.933,1088.146,1154.153,1088.146,1154.153Z" transform="translate(-1056.045 -1111.095)" fill="#e49963"/>
      <path id="Trazado_99423" data-name="Trazado 99423" d="M1146.729,1162.776l-.641-.5-.167.514Z" transform="translate(-1105.157 -1122.795)" fill="#163560"/>
    </g>
    <g id="Grupo_53433" data-name="Grupo 53433" transform="translate(545.818 486.911)">
      <g id="Grupo_53432" data-name="Grupo 53432" transform="translate(0 0)">
        <g id="Grupo_53431" data-name="Grupo 53431">
          <rect id="Rectángulo_5076" data-name="Rectángulo 5076" width="72.022" height="72.022" transform="translate(94.229 72.022) rotate(180)" fill="#d86713"/>
          <rect id="Rectángulo_5077" data-name="Rectángulo 5077" width="72.022" height="72.022" fill="#f1a34f"/>
        </g>
        <path id="Trazado_99424" data-name="Trazado 99424" d="M2668.613,1444.267h-17.279v-17.279h-10.52v17.279h-17.279v10.52h17.279v17.279h10.52v-17.279h17.279Z" transform="translate(-2610.779 -1413.516)" fill="#ebf2f9"/>
      </g>
      <path id="Trazado_99425" data-name="Trazado 99425" d="M3018.771,1337.142l22.207,10.814v-10.814Z" transform="translate(-2946.749 -1337.142)" fill="#c95c12"/>
    </g>
    <g id="Grupo_53437" data-name="Grupo 53437" transform="translate(502.645 407.486)">
      <g id="Grupo_53434" data-name="Grupo 53434" transform="translate(0 0)">
        <path id="Trazado_99426" data-name="Trazado 99426" d="M2528.514,1469.259a1.285,1.285,0,0,1,.229,1.374.018.018,0,0,1,0,.007,8.549,8.549,0,0,1-2.7,2.961c-.163.131-.308.25-.433.361-.033.029-.066.058-.1.087l-.075.068c-1.187,1.094-.74,1.344-2.871,3.563-2.431,2.529-4.1,2.574-4.58,2.344-.4-.2.416-1.538,1.322-3.045l.132-.22c.121-.2.241-.4.361-.605,1.062-1.814.789-2.665.537-5.365-.2-2.194-3.413-12.257-3.413-12.257l4.658-.8s1.4,8.014,2.948,9.248c.826.658,1.751.666,2.545,1.154.056.034.111.069.165.1A6.1,6.1,0,0,1,2528.514,1469.259Z" transform="translate(-2476.979 -1360.221)" fill="#e49963"/>
        <path id="Trazado_99427" data-name="Trazado 99427" d="M2533.93,1528.223a1.285,1.285,0,0,1,.229,1.374.013.013,0,0,1,0,.007,9.9,9.9,0,0,1-2.7,2.952c-.161.133-.3.256-.429.37l-.1.087-.074.068c-1.187,1.094-.74,1.344-2.872,3.563-2.43,2.529-4.1,2.574-4.58,2.344-.4-.2.416-1.538,1.322-3.045a10.35,10.35,0,0,0,4.332-3.192c1.464-1.867,2.44-4.267,3.436-5.657q.084.051.165.1A6.1,6.1,0,0,1,2533.93,1528.223Z" transform="translate(-2482.396 -1419.185)" fill="#c65447"/>
        <path id="Trazado_99428" data-name="Trazado 99428" d="M2264.522,1458.315c-.287,1.438-2.336,1.2-4.626.638s-1.746.106-5-.255-4.246-1.576-4.345-2.06c-.088-.43,1.521-.581,3.249-.78.217-.024.435-.051.653-.078,1.95-.245,3.377-1.5,5.149-2.536,1.677-.979,4.181-4.966,4.181-4.966l4.468.354s-2.344,3.562-3.251,5.111a5.4,5.4,0,0,0-.439,3.045A5.709,5.709,0,0,1,2264.522,1458.315Z" transform="translate(-2250.544 -1352.187)" fill="#e49963"/>
        <path id="Trazado_99429" data-name="Trazado 99429" d="M2259.9,1501.928c-2.29-.56-1.746.105-5-.255s-4.246-1.576-4.345-2.06c-.088-.43,1.521-.581,3.249-.78l.016.033a9.186,9.186,0,0,0,4.667,1.45c2.21.054,4.552-.58,6.079-.555a5.708,5.708,0,0,1-.034,1.529C2264.235,1502.727,2262.186,1502.487,2259.9,1501.928Z" transform="translate(-2250.544 -1395.161)" fill="#c65447"/>
        <path id="Trazado_99430" data-name="Trazado 99430" d="M2367.564,1059.963s-1.064-2.609-2.236-2.715-4.9-.692-5.164-.16a3.683,3.683,0,0,0,.8,3.141c.8.692,5.749,1.81,5.749,1.81Z" transform="translate(-2343.642 -1019.469)" fill="#e49963"/>
        <path id="Trazado_99431" data-name="Trazado 99431" d="M2457.975,1284.052l9.631,25.919a8.817,8.817,0,0,0,2.9-.266,12.484,12.484,0,0,0,2.8-1.364s-2.39-24.887-6.77-30.063S2457.975,1284.052,2457.975,1284.052Z" transform="translate(-2426.871 -1206.498)" fill="#aa413e"/>
        <path id="Trazado_99432" data-name="Trazado 99432" d="M2380.108,1211.4s-27.674-9.357-33.846-7.366-24.7,38.86-24.7,38.86a3.577,3.577,0,0,0,1.56.984,14.719,14.719,0,0,0,3.632.373s16.723-14.335,18.714-18.516,2.788-8.163,4.779-7.765,25.683,9.755,31.058,4.181a15.517,15.517,0,0,0,3.969-12.818Z" transform="translate(-2310.911 -1144.33)" fill="#c65447"/>
        <path id="Trazado_99433" data-name="Trazado 99433" d="M2584.371,831a15.727,15.727,0,0,1-1.178-5.422,16.632,16.632,0,0,0,1.936,5.993c5.755,3.779,16.786,16.4,16.568,18.787,0,0,3.886-6.591,3.953-6.63,0,0,7.167-9.115-1.327-14.335-4.317-2.654-4.3-6.059-4.115-9.017s-1.178-15.693-9.826-12.361a5.63,5.63,0,0,0-2.01-.524,1.7,1.7,0,0,1,.766.363,6.711,6.711,0,0,0-3.632.7C2582.335,810.348,2579.5,826.512,2584.371,831Z" transform="translate(-2532.085 -807.46)" fill="#b5453c"/>
        <path id="Trazado_99434" data-name="Trazado 99434" d="M2606.559,921.186c-.029.013,2.779,1.471,4.891.893,1.986-.542,3.284-3.117,3.257-3.123-.841-.167-1.084-1.323-1.066-6.291l-.38.075-6.395,1.266s.146,2.012.15,3.908C2607.02,919.506,2606.923,921.016,2606.559,921.186Z" transform="translate(-2553.174 -896.89)" fill="#e49963"/>
        <path id="Trazado_99435" data-name="Trazado 99435" d="M2608.606,914.431s.146,2.012.149,3.908c3.579-.1,5.47-3.365,6.245-5.174Z" transform="translate(-2554.915 -897.315)" fill="#d68d5d"/>
        <path id="Trazado_99436" data-name="Trazado 99436" d="M2592.832,834.037a18.811,18.811,0,0,0,2.325-5.5c.321-1.809-.6-8.514-7.338-7.548a9.151,9.151,0,0,0-3.8,1.435c-1.463.988-3.574,3.121-1.214,8.972l.614,1.976Z" transform="translate(-2532.085 -818.883)" fill="#b5453c"/>
        <path id="Trazado_99437" data-name="Trazado 99437" d="M2584.653,852.595s8.466.139,8.472-5.134,1.1-8.807-4.3-9.12-6.458,1.7-6.888,3.459S2582.451,852.423,2584.653,852.595Z" transform="translate(-2532.156 -833.683)" fill="#e49963"/>
        <path id="Trazado_99438" data-name="Trazado 99438" d="M2589.364,832.7s-5.782-3.954-7.612-1.22c-.555-.476-1.543-.82-2.849.764-1.963,2.379-.217,6.584-.217,6.584.806.094,1-2.671,1.418-4.014a6.72,6.72,0,0,1,1.884-2.495c.739,1.665,2.771,5.65,5.57,6.37,3.558.915,5.1-.038,5.1-.038A10.074,10.074,0,0,1,2589.364,832.7Z" transform="translate(-2528.873 -827.061)" fill="#b5453c"/>
        <path id="Trazado_99439" data-name="Trazado 99439" d="M2595.072,999.766c-.456,1.268-1.857,1.594-3.734,1.374-3.578-.418-8.894-2.82-12.725-4.482-5.84-2.531-8.495-.153-10.353-1.764s2.124-5.194-1.328-21.83c-1.17-5.641,6.242-17.745,6.242-17.745s.513,3.279,7.741-.7a66.4,66.4,0,0,1,5.734,9.086c2.966,5.625,5.806,12.42,4.971,15.922C2590.028,986.3,2596.4,996.083,2595.072,999.766Z" transform="translate(-2519.383 -932.551)" fill="#699dee"/>
        <path id="Trazado_99440" data-name="Trazado 99440" d="M2429.629,959.294l-4.371,17.955s-.544.969-1.4,2.348c-2,3.239-5.71,8.741-8.083,9.3-1.171.276-3.661-.7-6.417-2.09a130.314,130.314,0,0,1-11.37-6.758c-.4-2.389,1.681-4.336,1.681-4.336s12.477,4.69,13.717,4.778c2.7.193,5.45-12.845,7.975-17.189C2423.187,960.159,2429.629,959.294,2429.629,959.294Z" transform="translate(-2375.837 -936.527)" fill="#699dee"/>
        <path id="Trazado_99441" data-name="Trazado 99441" d="M2595.151,909.833s-.158.67-1.825.567c0,0-1.4-.086-1.357-.823A4.5,4.5,0,0,1,2595.151,909.833Z" transform="translate(-2540.772 -894.118)" fill="#fff"/>
        <path id="Trazado_99442" data-name="Trazado 99442" d="M2660.112,1088.284c-.457,1.268-1.857,1.594-3.734,1.374-2.477-1.079-13.176-5.225-13.057-8.033.178-4.159,2.057-4.291.73-9.424-1.066-4.121,8.821-11.785,10.4-13.45,2.965,5.625,3.047,5.891,2.212,9.393C2655.068,1074.818,2661.439,1084.6,2660.112,1088.284Z" transform="translate(-2584.423 -1021.069)" fill="#4a75cb"/>
        <path id="Trazado_99443" data-name="Trazado 99443" d="M2488.6,1090.636c-2,3.239-5.71,8.741-8.084,9.3-1.17.276-3.661-.7-6.417-2.09a16.669,16.669,0,0,0,5.863.321c2.057-.2,2.655-2.721,5.907-6.5C2487.983,1089.21,2488.5,1089.827,2488.6,1090.636Z" transform="translate(-2440.581 -1047.566)" fill="#4a75cb"/>
        <path id="Trazado_99444" data-name="Trazado 99444" d="M2603.215,1141.476a5.1,5.1,0,0,0-3.484-1.062c-1.692.332-2.522,1.493-2.456,2.024a3.018,3.018,0,0,0,2.257,2.157,24.432,24.432,0,0,0,4.978-.8Z" transform="translate(-2545.28 -1090.445)" fill="#e49963"/>
        <path id="Trazado_99445" data-name="Trazado 99445" d="M2636.681,954.619s6.9.425,9.29,3.757c3.362,4.69,11.433,25.551,7.61,28.217-4.305,3-20.995-.089-20.995-.089s-.509-2.378.2-3.529,12.211-3.009,12.742-3.54-6.637-10.353-6.637-11.946S2636.681,954.619,2636.681,954.619Z" transform="translate(-2575.149 -932.553)" fill="#699dee"/>
      </g>
      <g id="Grupo_53436" data-name="Grupo 53436" transform="translate(26.136 44.427)">
        <g id="Grupo_53435" data-name="Grupo 53435">
          <path id="Trazado_99446" data-name="Trazado 99446" d="M2454.839,1119.721h-25.417l-4.582-15.978h25.378Z" transform="translate(-2424.84 -1103.742)" fill="#1c468a"/>
          <rect id="Rectángulo_5078" data-name="Rectángulo 5078" width="33.228" height="0.623" transform="translate(4.669 15.356)" fill="#163560"/>
        </g>
        <path id="Trazado_99447" data-name="Trazado 99447" d="M2508.987,1149.526a.74.74,0,0,1,.725-1.017,1.457,1.457,0,0,1,1.309,1.017.74.74,0,0,1-.725,1.017A1.457,1.457,0,0,1,2508.987,1149.526Z" transform="translate(-2496.333 -1141.796)" fill="#163560"/>
      </g>
    </g>
    <path id="Trazado_99448" data-name="Trazado 99448" d="M703.275,1813.725H246.7a.409.409,0,0,1-.407-.407h0a.409.409,0,0,1,.407-.407H703.275a.409.409,0,0,1,.407.407h0A.408.408,0,0,1,703.275,1813.725Z" transform="translate(-44.185 -1254.657)" fill="#283250"/>
    <g id="Grupo_53439" data-name="Grupo 53439" transform="translate(220.838 510.734)">
      <g id="Grupo_53438" data-name="Grupo 53438" transform="translate(0)">
        <rect id="Rectángulo_5079" data-name="Rectángulo 5079" width="47.519" height="47.519" fill="#d86713"/>
        <rect id="Rectángulo_5080" data-name="Rectángulo 5080" width="47.519" height="47.519" transform="translate(14.652)" fill="#f1a34f"/>
        <path id="Trazado_99449" data-name="Trazado 99449" d="M569.359,1588.052l-8.192-7.928,7.928-8.192-4.988-4.827-7.928,8.192-8.192-7.928-4.827,4.988,8.192,7.928-7.928,8.192,4.988,4.827,7.928-8.192,8.192,7.928Z" transform="translate(-517.376 -1556.444)" fill="#ebf2f9"/>
      </g>
      <path id="Trazado_99450" data-name="Trazado 99450" d="M385.86,1496.012l-14.652,8.883v-8.883Z" transform="translate(-371.209 -1496.012)" fill="#c95c12"/>
    </g>
    <g id="Grupo_53440" data-name="Grupo 53440" transform="translate(451.3 410.944)">
      <path id="Trazado_99451" data-name="Trazado 99451" d="M2077.167,984.833s11.077,11.281,11.609,15.6-5.274,11.066-5.274,11.066Z" transform="translate(-2051.82 -961.695)" fill="#e58638"/>
      <path id="Trazado_99452" data-name="Trazado 99452" d="M1961.789,1765.315a24,24,0,0,1-.917,5.437H1947.02a2.519,2.519,0,0,1,2.041-1.464c2.17-.379,5.8-1.9,7.114-4.77C1957.557,1761.5,1961.789,1765.315,1961.789,1765.315Z" transform="translate(-1941.189 -1623.479)" fill="#163560"/>
      <path id="Trazado_99453" data-name="Trazado 99453" d="M2072.017,1765.315a24.061,24.061,0,0,1-.916,5.437H2057.25a2.514,2.514,0,0,1,2.041-1.464c2.168-.379,5.8-1.9,7.114-4.77C2067.787,1761.5,2072.017,1765.315,2072.017,1765.315Z" transform="translate(-2034.89 -1623.479)" fill="#163560"/>
      <path id="Trazado_99454" data-name="Trazado 99454" d="M1990.7,1287.645s1.941,12.413,9.181,34.448,8.227,31.577,8.227,31.577l7.767-.218s.066-24.081-3.271-35.162-.72-39.946-.72-39.946Z" transform="translate(-1978.318 -1211.193)" fill="#163560"/>
      <path id="Trazado_99455" data-name="Trazado 99455" d="M1965.461,1282.877a301.294,301.294,0,0,0,2.961,41.672c3.237,22.967,2.139,32.716,2.139,32.716l7.751.258s4.632-22.975,3.3-34.471,6.343-39.446,6.343-39.446Z" transform="translate(-1956.86 -1215.047)" fill="#1c468a"/>
      <path id="Trazado_99456" data-name="Trazado 99456" d="M2008.317,938.536l-4.13,2.708-5.969-1.112c.083-.482.477-2.479.835-4.288.022-.107.043-.213.064-.318.307-1.539.573-2.861.573-2.861l5.575-2.46,2.078-.917c-.005.032-.161,1.708-.183,1.953A14.211,14.211,0,0,0,2008.317,938.536Z" transform="translate(-1984.709 -914.478)" fill="#ffb27d"/>
      <path id="Trazado_99457" data-name="Trazado 99457" d="M1983.42,1028.146c-1.2,5.468-21.148,6.116-26.29,1.153-.584-.566-.614-3.2-.393-6.747.432-6.934,1.817-17.365,1.871-22.694a42.21,42.21,0,0,1,.851-7.6,61.734,61.734,0,0,1,2.53-9.092s9.744-3.15,11.567-2.614C1982.34,983.136,1984.619,1022.677,1983.42,1028.146Z" transform="translate(-1949.34 -958.006)" fill="#ee9849"/>
      <path id="Trazado_99458" data-name="Trazado 99458" d="M1957.456,1083.4c.432-6.934,1.817-17.365,1.871-22.694a42.2,42.2,0,0,1,.851-7.6l5.862-1.035S1971.771,1075.479,1957.456,1083.4Z" transform="translate(-1950.06 -1018.85)" fill="#e58638"/>
      <path id="Trazado_99459" data-name="Trazado 99459" d="M1969.162,1191.348a1.379,1.379,0,0,1-.44,1.6,2.675,2.675,0,0,0-1.191,2.439c.192.759,2.033,2,2.671,1.8s1.936-1.2,1.8-1.6.873-3.514-.682-4.713A1.255,1.255,0,0,0,1969.162,1191.348Z" transform="translate(-1958.591 -1136.468)" fill="#ffb27d"/>
      <path id="Trazado_99460" data-name="Trazado 99460" d="M1925.256,988.981s-5.717,1.07-10.271,7.782-7.551,11.7-6.713,14.122,8.487,10.81,9.806,10.81a3.535,3.535,0,0,0,3.566-3.116s-5.385-8.07-4.324-9.279c.453-.517,6.991-5.824,7.924-3.427C1926.789,1009.84,1925.256,988.981,1925.256,988.981Z" transform="translate(-1908.131 -965.221)" fill="#ee9849"/>
      <path id="Trazado_99461" data-name="Trazado 99461" d="M2011.478,936.511c-1.224,2.074-5.786,3.867-7.688,4.526.022-.107.043-.213.064-.318.307-1.539.573-2.861.573-2.861L2010,935.4C2011.232,935.382,2011.982,935.658,2011.478,936.511Z" transform="translate(-1989.445 -919.672)" fill="#fca56b"/>
      <path id="Trazado_99462" data-name="Trazado 99462" d="M1987.657,865.764s8.98,2.8,10.638-2.818,3.934-9.042-1.729-11.068-7.415-.212-8.425,1.529S1985.364,864.89,1987.657,865.764Z" transform="translate(-1974.778 -847.916)" fill="#ffb27d"/>
      <path id="Trazado_99463" data-name="Trazado 99463" d="M1994.816,835.473s.573,6.539,1.925,6.255,2.579-.494,2.381,1.477-2.073,4.247,2.094,4.6,10.158-10.4,9.014-12.433C2006.926,829.5,1990.042,828.311,1994.816,835.473Z" transform="translate(-1981.1 -830.524)" fill="#163560"/>
      <path id="Trazado_99464" data-name="Trazado 99464" d="M1994.874,971.059c.116-.049,7.187-2.136,7.956-1.882s1.223,1.74,1.223,1.74l-11.567,2.615A5.744,5.744,0,0,1,1994.874,971.059Z" transform="translate(-1979.837 -948.368)" fill="#e58638"/>
    </g>
    <g id="Grupo_53447" data-name="Grupo 53447" transform="translate(207.861 419.727)">
      <g id="Grupo_53442" data-name="Grupo 53442" transform="translate(28.644 21.393)">
        <path id="Trazado_99465" data-name="Trazado 99465" d="M508.1,1040.832s-3.749-4.373-.231-7.151a9.976,9.976,0,0,1,4.664-1.429s-2.969,4.978-2.008,5.473,2.908-5.786,2.908-5.786,5.847-.567,7.728.337c0,0-5,4.09-3.946,4.334s6.452-3.771,6.452-3.771,5.442.926,5.151,4.246-2.165,4.345-2.989,4.256-5.645-1.929-5.75-1.253,2.8,2.882,4.829,2.985c0,0-3.837,4.231-6.386,3.01s-2.768-3.157-4.357-3.883-2.946-.724-2.29.016,3.533,1.46,4.442,3.068,1.725,2.692-.914,2.3-6.926-2.327-7.115-4.538Z" transform="translate(-501.759 -1031.764)" fill="#82b378"/>
        <g id="Grupo_53441" data-name="Grupo 53441" transform="translate(0 5.385)">
          <path id="Trazado_99466" data-name="Trazado 99466" d="M517.337,1067.7s-14.78-.569-18.045,3.657a10.691,10.691,0,0,1-2.943,4.131l-.346.944s2.561-2.7,3.478-2.864C499.481,1073.57,498.048,1068.333,517.337,1067.7Z" transform="translate(-492.957 -1067.677)" fill="#82b378"/>
          <path id="Trazado_99467" data-name="Trazado 99467" d="M479.079,1117.676a9.281,9.281,0,0,0-3.393,6.538l.576.052s1.013-4.334,2.845-6.03S479.079,1117.676,479.079,1117.676Z" transform="translate(-475.686 -1109.863)" fill="#82b378"/>
        </g>
      </g>
      <g id="Grupo_53444" data-name="Grupo 53444" transform="translate(0 9.519)">
        <path id="Trazado_99468" data-name="Trazado 99468" d="M306.538,968.021s5.963-3.339,3.18-7.872c0,0-2.226-2.783-4.611-3.5,0,0,1.272,6.758,0,6.917s-.875-7.633-.875-7.633-6.281-3.021-8.746-2.783c0,0,3.9,6.6,2.624,6.44s-5.645-6.838-5.645-6.838-6.44-1.193-7.474,2.624.636,5.725,1.59,5.963,7.076.159,6.917.954-4.294,2.067-6.6,1.352c0,0,2.544,6.281,5.884,5.963s4.373-2.385,6.44-2.544,3.578.4,2.544.954-4.532.182-6.2,1.6-3.021,2.294.079,2.93,8.667.238,9.78-2.147Z" transform="translate(-284.665 -952.578)" fill="#a8d29f"/>
        <g id="Grupo_53443" data-name="Grupo 53443" transform="translate(3.268 3.993)">
          <path id="Trazado_99469" data-name="Trazado 99469" d="M306.459,979.206s16.7,5.406,18.605,11.449a12.684,12.684,0,0,0,1.59,5.8v1.193s-1.749-4.055-2.7-4.612C323.951,993.041,327.688,987.793,306.459,979.206Z" transform="translate(-306.459 -979.206)" fill="#82b378"/>
          <path id="Trazado_99470" data-name="Trazado 99470" d="M436.616,1090.06a11.013,11.013,0,0,1,1.107,8.67l-.662-.178s.643-5.243-.7-7.879S436.616,1090.06,436.616,1090.06Z" transform="translate(-416.421 -1072.806)" fill="#82b378"/>
        </g>
      </g>
      <g id="Grupo_53446" data-name="Grupo 53446" transform="translate(26.192)">
        <path id="Trazado_99471" data-name="Trazado 99471" d="M464.506,909.454s-7.861-4.4-4.192-10.376c0,0,2.935-3.668,6.079-4.611,0,0-1.677,8.909,0,9.118s1.153-10.062,1.153-10.062,8.28-3.982,11.529-3.668c0,0-5.136,8.7-3.459,8.489s7.441-9.013,7.441-9.013,8.489-1.572,9.852,3.459-.839,7.546-2.1,7.861-9.328.21-9.118,1.258,5.659,2.725,8.7,1.782c0,0-3.354,8.28-7.756,7.861s-5.764-3.144-8.489-3.354-4.716.524-3.354,1.258,5.974.24,8.175,2.112,3.983,3.024-.1,3.862-11.424.314-12.891-2.83Z" transform="translate(-459.339 -889.098)" fill="#a8d29f"/>
        <g id="Grupo_53445" data-name="Grupo 53445" transform="translate(1.016 5.263)">
          <path id="Trazado_99472" data-name="Trazado 99472" d="M506.443,924.2s-22.009,7.127-24.525,15.092a16.72,16.72,0,0,1-2.1,7.651v1.572s2.306-5.345,3.563-6.079C483.385,942.435,478.46,935.517,506.443,924.2Z" transform="translate(-477.767 -924.198)" fill="#82b378"/>
          <path id="Trazado_99473" data-name="Trazado 99473" d="M468.17,1070.323a14.516,14.516,0,0,0-1.459,11.429l.873-.234s-.848-6.911.928-10.386S468.17,1070.323,468.17,1070.323Z" transform="translate(-466.115 -1047.58)" fill="#82b378"/>
        </g>
      </g>
      <path id="Trazado_99474" data-name="Trazado 99474" d="M404.748,1155.536a15.4,15.4,0,0,0,15.4-15.4h-30.8A15.4,15.4,0,0,0,404.748,1155.536Z" transform="translate(-373.653 -1102.495)" fill="#f1a34f"/>
      <path id="Trazado_99475" data-name="Trazado 99475" d="M419.175,1155.417a15.408,15.408,0,0,1-17.31-15.28h3.825A15.4,15.4,0,0,0,419.175,1155.417Z" transform="translate(-384.291 -1102.494)" fill="#ffb973"/>
      <path id="Trazado_99476" data-name="Trazado 99476" d="M417.253,1235.379H389.832a1.9,1.9,0,0,0-1.9,1.9h31.22A1.9,1.9,0,0,0,417.253,1235.379Z" transform="translate(-372.447 -1183.454)" fill="#f1a34f"/>
      <rect id="Rectángulo_5081" data-name="Rectángulo 5081" width="31.652" height="0.472" transform="translate(15.191 37.643)" fill="#d86713"/>
    </g>
  </g>
</svg>
