<svg xmlns="http://www.w3.org/2000/svg" xmlns:xlink="http://www.w3.org/1999/xlink" width="415.504" height="335.999" viewBox="0 0 415.504 335.999">
  <defs>
    <linearGradient id="linear-gradient" x1="-0.087" y1="0.034" x2="0.988" y2="0.705" gradientUnits="objectBoundingBox">
      <stop offset="0" stop-color="#cb8720"/>
      <stop offset="1" stop-color="#ad5d32"/>
    </linearGradient>
    <linearGradient id="linear-gradient-2" x1="-66.533" y1="0.212" x2="-72.238" y2="1.858" xlink:href="#linear-gradient"/>
    <linearGradient id="linear-gradient-3" x1="0.497" y1="0.55" x2="0.551" y2="-0.078" gradientUnits="objectBoundingBox">
      <stop offset="0" stop-color="#d57830"/>
      <stop offset="1" stop-color="#efad36"/>
    </linearGradient>
    <linearGradient id="linear-gradient-4" x1="-66.934" y1="0.114" x2="-70.175" y2="2.456" xlink:href="#linear-gradient"/>
    <linearGradient id="linear-gradient-5" x1="0.867" y1="0.198" x2="-0.218" y2="1.115" gradientUnits="objectBoundingBox">
      <stop offset="0" stop-color="#a1bee9"/>
      <stop offset="1" stop-color="#4b77ab"/>
    </linearGradient>
    <linearGradient id="linear-gradient-6" x1="-0.113" y1="1.858" x2="4.293" y2="-7.9" gradientUnits="objectBoundingBox">
      <stop offset="0" stop-color="#9ed4ee"/>
      <stop offset="1" stop-color="#8ebdfd"/>
    </linearGradient>
    <linearGradient id="linear-gradient-7" x1="-0.054" y1="2.37" x2="4.356" y2="-12.512" xlink:href="#linear-gradient-6"/>
    <linearGradient id="linear-gradient-8" x1="-0.26" y1="1.618" x2="4.143" y2="-4.858" xlink:href="#linear-gradient-6"/>
    <linearGradient id="linear-gradient-9" x1="-0.024" y1="3.707" x2="4.396" y2="-23.351" xlink:href="#linear-gradient-6"/>
    <linearGradient id="linear-gradient-10" x1="-0.25" y1="1.773" x2="4.154" y2="-5.704" xlink:href="#linear-gradient-6"/>
    <linearGradient id="linear-gradient-11" x1="-0.217" y1="1.972" x2="4.189" y2="-7.074" xlink:href="#linear-gradient-6"/>
    <linearGradient id="linear-gradient-12" x1="-0.179" y1="2.306" x2="4.228" y2="-9.411" xlink:href="#linear-gradient-6"/>
    <linearGradient id="linear-gradient-13" x1="-0.414" y1="1.618" x2="3.988" y2="-3.768" xlink:href="#linear-gradient-6"/>
    <linearGradient id="linear-gradient-14" x1="-0.389" y1="1.716" x2="4.015" y2="-4.309" xlink:href="#linear-gradient-6"/>
    <linearGradient id="linear-gradient-15" x1="-0.341" y1="1.902" x2="4.063" y2="-5.437" xlink:href="#linear-gradient-6"/>
    <linearGradient id="linear-gradient-16" x1="-0.137" y1="4.801" x2="4.284" y2="-25.039" xlink:href="#linear-gradient-6"/>
    <linearGradient id="linear-gradient-17" x1="-0.295" y1="2.323" x2="4.112" y2="-7.783" xlink:href="#linear-gradient-6"/>
    <linearGradient id="linear-gradient-18" x1="1.499" y1="-0.235" x2="-3.09" y2="3.143" xlink:href="#linear-gradient-6"/>
    <linearGradient id="linear-gradient-19" x1="-0.329" y1="1.271" x2="2.942" y2="-1.736" xlink:href="#linear-gradient-6"/>
    <linearGradient id="linear-gradient-20" x1="0.879" y1="-0.739" x2="-0.512" y2="3.803" xlink:href="#linear-gradient-6"/>
    <linearGradient id="linear-gradient-21" x1="0.948" y1="-1.673" x2="-0.009" y2="3.291" gradientUnits="objectBoundingBox">
      <stop offset="0" stop-color="#fdf53f"/>
      <stop offset="1" stop-color="#d93c65"/>
    </linearGradient>
    <linearGradient id="linear-gradient-22" x1="3.854" y1="-5.189" x2="-0.737" y2="2.245" xlink:href="#linear-gradient-21"/>
    <linearGradient id="linear-gradient-23" x1="-136.147" y1="-0.02" x2="-133.628" y2="-0.02" gradientUnits="objectBoundingBox">
      <stop offset="0" stop-color="#4a6ea4"/>
      <stop offset="1" stop-color="#324a6e"/>
    </linearGradient>
    <linearGradient id="linear-gradient-24" x1="-61.933" y1="0.772" x2="-60.528" y2="-0.87" xlink:href="#linear-gradient-23"/>
  </defs>
  <g id="Grupo_55289" data-name="Grupo 55289" transform="translate(-1348.689 -1113.374)">
    <g id="Grupo_55276" data-name="Grupo 55276" transform="translate(1348.689 1113.374)">
      <path id="Trazado_100296" data-name="Trazado 100296" d="M1734.253,1411.7a66.105,66.105,0,0,0,14.968-41.479c0-39.581-36.536-71.971-81.191-71.971-8.96,0-16.294-6.5-16.294-14.443s7.332-14.444,16.294-14.444h42.483c21.786,0,39.609-15.8,39.609-35.11,0-19.29-17.786-35.072-39.532-35.11h-38.65c-18.839,0-34.253-13.665-34.253-30.366h0c0-30.472-28.123-55.4-62.5-55.4H1430.781c-44.655,0-81.189,32.384-81.189,71.97s36.534,71.971,81.189,71.971c8.962,0,16.295,6.5,16.295,14.444h0c0,7.943-7.332,14.444-16.295,14.444H1388.3c-21.784,0-39.607,15.8-39.607,35.109s17.823,35.109,39.607,35.109c18.841,0,34.255,13.665,34.255,30.367,0,30.472,28.125,55.4,62.5,55.4H1664.67C1691.026,1442.33,1702.865,1444.5,1734.253,1411.7Z" transform="translate(-1348.689 -1113.374)" fill="#fff" fill-rule="evenodd" opacity="0.22" style="isolation: isolate"/>
      <path id="Trazado_100298" data-name="Trazado 100298" d="M1540.824,1227.333a1.246,1.246,0,1,1,2.491-.079.777.777,0,0,1,0,.079v2.5h2.505a1.246,1.246,0,0,1,0,2.492h-2.505v2.505a1.246,1.246,0,0,1-2.491,0v-2.505h-2.505a1.246,1.246,0,0,1,0-2.492h2.505Z" transform="translate(-1401.959 -1145.235)" fill="#fff" fill-rule="evenodd"/>
      <path id="Trazado_100299" data-name="Trazado 100299" d="M1613.859,1118.417a1.246,1.246,0,0,1,2.492-.008v2.513h2.505a1.246,1.246,0,0,1,.008,2.492h-2.513v2.505a1.246,1.246,0,1,1-2.492.008v-2.513h-2.505a1.246,1.246,0,0,1,0-2.492h2.505Z" transform="translate(-1422.613 -1114.447)" fill="#fff" fill-rule="evenodd"/>
      <path id="Trazado_100300" data-name="Trazado 100300" d="M1914.249,1312.252a1.246,1.246,0,0,1,2.492-.078c0,.027,0,.052,0,.078v2.505h2.505a1.247,1.247,0,0,1,.008,2.493h-2.513v2.5a1.246,1.246,0,0,1-2.492,0v-2.5h-2.5a1.247,1.247,0,0,1,0-2.493h2.5Z" transform="translate(-1507.555 -1169.248)" fill="#fff" fill-rule="evenodd"/>
      <path id="Trazado_100301" data-name="Trazado 100301" d="M1382.4,1195.554a.626.626,0,0,1,1.245-.138.65.65,0,0,1,0,.138v1.253h1.252a.626.626,0,1,1,0,1.245h-1.252v1.252a.626.626,0,0,1-1.245.138.64.64,0,0,1,0-.138v-1.252h-1.252a.626.626,0,0,1,0-1.245h1.252Z" transform="translate(-1357.709 -1136.416)" fill="#fff" fill-rule="evenodd"/>
      <path id="Trazado_100302" data-name="Trazado 100302" d="M1701.867,1322.093a.626.626,0,1,1,1.252,0v1.253h1.253a.626.626,0,1,1,.125,1.246.592.592,0,0,1-.125,0h-1.253v1.253a.626.626,0,1,1-1.252,0v-1.253h-1.252a.626.626,0,0,1,0-1.246h1.252Z" transform="translate(-1448.045 -1172.217)" fill="#fff" fill-rule="evenodd"/>
      <path id="Trazado_100303" data-name="Trazado 100303" d="M1922.848,1445.876a.626.626,0,0,1,1.247-.123.578.578,0,0,1,0,.123v1.252h1.253a.626.626,0,0,1,.125,1.247.609.609,0,0,1-.125,0h-1.253v1.252a.626.626,0,0,1-1.247,0v-1.252H1921.6a.626.626,0,0,1,0-1.247h1.252Z" transform="translate(-1510.533 -1207.202)" fill="#fff" fill-rule="evenodd"/>
    </g>
    <g id="Grupo_55279" data-name="Grupo 55279" transform="translate(1378.711 1132.883)">
      <g id="Grupo_55277" data-name="Grupo 55277" transform="translate(10.818)">
        <path id="Trazado_101073" data-name="Trazado 101073" d="M1481.795,1329.316s.973-40.941-17.884-51.9-54.712-17.809-56.055-76.6c-.787-34.418-1.639-49.465-2.21-56.027a3.876,3.876,0,0,1,4.577-4.15c17.86,3.365,75.877,17.213,88.041,56.812C1512.683,1244.4,1481.795,1329.316,1481.795,1329.316Z" transform="translate(-1405.631 -1140.575)" fill="url(#linear-gradient)"/>
        <path id="Trazado_101074" data-name="Trazado 101074" d="M1430.792,1163.4c19.6,17.484,42.272,48.428,54.355,79.371,1.551,5.1,6.088,15.945,8.058,35.214,1.76,16.07.885,33.052-1.249,44.293a1.31,1.31,0,0,1-1.531,1.043,1.328,1.328,0,0,1-1.048-1.5,179.605,179.605,0,0,0-4.158-64.679c-7.134-26.484-23.044-52.162-39.5-73.939l-1.694-2.145c-12.749-16.374-15.433-16.494-14.242-17.635A.746.746,0,0,1,1430.792,1163.4Z" transform="translate(-1412.389 -1146.976)" fill="url(#linear-gradient-2)"/>
      </g>
      <g id="Grupo_55278" data-name="Grupo 55278" transform="translate(0 108.932)">
        <path id="Trazado_101075" data-name="Trazado 101075" d="M1507.834,1450.979c2.551,1.251-24.153-32.33-32.519-85.072-3.942-24.853-3.993-55.992-18.151-67.992-11.783-9.988-51.878-3.682-65-1.286a1.967,1.967,0,0,0-.915,3.442c6.292,5.284,19.75,17.747,23.256,30.307,4.622,16.556,20.362,27.085,34.453,29.936s21.929,5.615,28.794,28.15S1500.584,1447.424,1507.834,1450.979Z" transform="translate(-1390.548 -1292.455)" fill="url(#linear-gradient-3)"/>
        <path id="Trazado_101076" data-name="Trazado 101076" d="M1418.383,1308.028c16.738.7,34.7,8.336,43.823,22.659l.861,1.367c1.988,3.2,13.252,25.985,19.508,44.87a.449.449,0,0,1-.285.567.458.458,0,0,1-.562-.269c-4.358-10.668-10.619-24.193-15.605-34.308-5.347-11.037-9.089-18.511-21.286-25.671a67.905,67.905,0,0,0-26.505-8.5.36.36,0,0,1,.052-.718Z" transform="translate(-1398.313 -1296.858)" fill="url(#linear-gradient-4)"/>
      </g>
    </g>
    <path id="Trazado_101077" data-name="Trazado 101077" d="M1710.766,1444.657H1493.092a13.157,13.157,0,0,1-13.006-13.053l-5.431-282.581a13.18,13.18,0,0,1,12.723-13.574l223.105-4.983a13.156,13.156,0,0,1,13.293,13.312v287.565A13.165,13.165,0,0,1,1710.766,1444.657Z" transform="translate(-35.619 -4.832)" fill="url(#linear-gradient-5)"/>
    <rect id="Rectángulo_5288" data-name="Rectángulo 5288" width="215.73" height="260.757" rx="19.804" transform="translate(1457.582 1165.214)" fill="#fff" opacity="0.8"/>
    <g id="Grupo_55280" data-name="Grupo 55280" transform="translate(1545.655 1176.594)">
      <rect id="Rectángulo_5289" data-name="Rectángulo 5289" width="119.245" height="9.401" fill="#fff"/>
      <rect id="Rectángulo_5290" data-name="Rectángulo 5290" width="119.245" height="5.443" transform="translate(0 13.36)" fill="#fff"/>
      <rect id="Rectángulo_5291" data-name="Rectángulo 5291" width="119.245" height="5.443" transform="translate(0 22.761)" fill="#fff"/>
      <rect id="Rectángulo_5292" data-name="Rectángulo 5292" width="119.245" height="5.443" transform="translate(0 32.162)" fill="#fff"/>
    </g>
    <g id="Grupo_55281" data-name="Grupo 55281" transform="translate(1472.921 1294.355)">
      <rect id="Rectángulo_5293" data-name="Rectángulo 5293" width="68.282" height="9.401" fill="#fff"/>
      <rect id="Rectángulo_5294" data-name="Rectángulo 5294" width="68.282" height="5.443" transform="translate(0 13.359)" fill="#fff"/>
      <rect id="Rectángulo_5295" data-name="Rectángulo 5295" width="68.282" height="5.443" transform="translate(0 22.761)" fill="#fff"/>
      <rect id="Rectángulo_5296" data-name="Rectángulo 5296" width="68.282" height="5.443" transform="translate(0 32.162)" fill="#fff"/>
    </g>
    <g id="Grupo_55282" data-name="Grupo 55282" transform="translate(1535.934 1224.247)">
      <rect id="Rectángulo_5297" data-name="Rectángulo 5297" width="6.655" height="28.344" transform="translate(0 22.962)" fill="url(#linear-gradient-6)"/>
      <rect id="Rectángulo_5298" data-name="Rectángulo 5298" width="6.655" height="18.603" transform="translate(11.119 32.703)" fill="url(#linear-gradient-7)"/>
      <rect id="Rectángulo_5299" data-name="Rectángulo 5299" width="6.655" height="42.678" transform="translate(22.239 8.628)" fill="url(#linear-gradient-8)"/>
      <rect id="Rectángulo_5300" data-name="Rectángulo 5300" width="6.655" height="10.253" transform="translate(33.358 41.053)" fill="url(#linear-gradient-9)"/>
      <rect id="Rectángulo_5301" data-name="Rectángulo 5301" width="6.655" height="36.972" transform="translate(44.477 14.334)" fill="url(#linear-gradient-10)"/>
      <rect id="Rectángulo_5302" data-name="Rectángulo 5302" width="6.655" height="30.571" transform="translate(55.597 20.735)" fill="url(#linear-gradient-11)"/>
      <rect id="Rectángulo_5303" data-name="Rectángulo 5303" width="6.655" height="23.612" transform="translate(66.716 27.693)" fill="url(#linear-gradient-12)"/>
      <rect id="Rectángulo_5304" data-name="Rectángulo 5304" width="6.655" height="51.306" transform="translate(77.835)" fill="url(#linear-gradient-13)"/>
      <rect id="Rectángulo_5305" data-name="Rectángulo 5305" width="6.655" height="45.879" transform="translate(88.955 5.427)" fill="url(#linear-gradient-14)"/>
      <rect id="Rectángulo_5306" data-name="Rectángulo 5306" width="6.655" height="37.668" transform="translate(100.074 13.638)" fill="url(#linear-gradient-15)"/>
      <rect id="Rectángulo_5307" data-name="Rectángulo 5307" width="6.655" height="9.301" transform="translate(111.193 42.005)" fill="url(#linear-gradient-16)"/>
      <rect id="Rectángulo_5308" data-name="Rectángulo 5308" width="6.655" height="27.37" transform="translate(122.313 23.936)" fill="url(#linear-gradient-17)"/>
    </g>
    <rect id="Rectángulo_5309" data-name="Rectángulo 5309" width="191.98" height="5.443" transform="translate(1472.921 1408.652)" fill="#fff"/>
    <rect id="Rectángulo_5310" data-name="Rectángulo 5310" width="54.446" height="98.959" rx="19.547" transform="translate(1472.921 1176.594)" fill="url(#linear-gradient-18)"/>
    <rect id="Rectángulo_5311" data-name="Rectángulo 5311" width="67.787" height="58.386" rx="17" transform="translate(1473.416 1341.855)" fill="#fff" opacity="0.57"/>
    <g id="Grupo_55283" data-name="Grupo 55283" transform="translate(1554.697 1294.355)">
      <path id="Trazado_101078" data-name="Trazado 101078" d="M1710.458,1418.358a2.813,2.813,0,0,1-2.769-3.313l8.49-47.023a2.814,2.814,0,0,1,3.289-2.265,51.166,51.166,0,0,1,41.085,42.507,2.814,2.814,0,0,1-2.378,3.209l-47.314,6.857A2.719,2.719,0,0,1,1710.458,1418.358Z" transform="translate(-1656.2 -1365.708)" fill="url(#linear-gradient-19)"/>
      <path id="Trazado_101079" data-name="Trazado 101079" d="M1677.716,1479a41.8,41.8,0,1,1,7.765-82.864,2.813,2.813,0,0,1,2.248,3.265l-6.149,34.055,34.268-4.966a2.818,2.818,0,0,1,3.184,2.36,42.267,42.267,0,0,1,.481,6.353A41.845,41.845,0,0,1,1677.716,1479Z" transform="translate(-1635.918 -1374.106)" fill="url(#linear-gradient-20)"/>
    </g>
    <g id="Grupo_55284" data-name="Grupo 55284" transform="translate(1616.814 1358.313)">
      <path id="Trazado_101080" data-name="Trazado 101080" d="M1725.521,1545.612c.564,0,1.021-.33,1.021-.736v-87.982c0-.406-.457-.736-1.021-.736s-1.021.33-1.021.736v87.982C1724.5,1545.282,1724.958,1545.612,1725.521,1545.612Z" transform="translate(-1723.084 -1455.244)" fill="#4a6ea4"/>
      <path id="Trazado_101081" data-name="Trazado 101081" d="M1751.508,1545.356c.564,0,1.021-.332,1.021-.742V1456c0-.41-.457-.742-1.021-.742s-1.021.332-1.021.742v88.619C1750.487,1545.024,1750.944,1545.356,1751.508,1545.356Z" transform="translate(-1730.432 -1454.988)" fill="#4a6ea4"/>
      <path id="Trazado_101082" data-name="Trazado 101082" d="M1829.406,1546.031a1.126,1.126,0,0,0,.4-.073.88.88,0,0,0,.54-1.2l-42.506-89.361s-2.439-.464-2.218,0l42.846,90.074A1.031,1.031,0,0,0,1829.406,1546.031Z" transform="translate(-1740.363 -1454.971)" fill="#4a6ea4"/>
      <path id="Trazado_101083" data-name="Trazado 101083" d="M1784.51,1546.123a1.119,1.119,0,0,0,.4-.073.879.879,0,0,0,.54-1.2l-42.3-88.937c-.221-.464-2.482-.554-2.261-.09l42.687,89.74A1.031,1.031,0,0,0,1784.51,1546.123Z" transform="translate(-1727.712 -1455.063)" fill="#4a6ea4"/>
      <rect id="Rectángulo_5312" data-name="Rectángulo 5312" width="62.634" height="2.572" rx="1.286" transform="translate(62.634 2.572) rotate(180)" fill="#4a6ea4"/>
      <rect id="Rectángulo_5313" data-name="Rectángulo 5313" width="32.341" height="1.825" transform="translate(22.404 17.026)" fill="#4a6ea4"/>
      <rect id="Rectángulo_5314" data-name="Rectángulo 5314" width="32.341" height="1.825" transform="translate(32.011 37.781)" fill="#4a6ea4"/>
      <path id="Trazado_101084" data-name="Trazado 101084" d="M1780.8,1538.323h32.34a.918.918,0,1,0,0-1.824H1780.8a.918.918,0,1,0,0,1.824Z" transform="translate(-1738.716 -1477.962)" fill="#4a6ea4"/>
      <path id="Trazado_101085" data-name="Trazado 101085" d="M1794.38,1567.263h32.341a.918.918,0,1,0,0-1.825H1794.38a.918.918,0,1,0,0,1.825Z" transform="translate(-1742.556 -1486.145)" fill="#4a6ea4"/>
    </g>
    <g id="Grupo_55285" data-name="Grupo 55285" transform="translate(1608.326 1137.873)">
      <path id="Trazado_101086" data-name="Trazado 101086" d="M1712.984,1158.817l11.827-9.82a6.354,6.354,0,0,1,4.058-1.465h57.261a6.352,6.352,0,0,1,6.352,6.352v19.639a6.353,6.353,0,0,1-6.352,6.353h-57.261a6.353,6.353,0,0,1-4.058-1.465l-11.827-9.819A6.353,6.353,0,0,1,1712.984,1158.817Z" transform="translate(-1710.69 -1147.532)" fill="url(#linear-gradient-21)"/>
      <rect id="Rectángulo_5315" data-name="Rectángulo 5315" width="19.931" height="19.931" rx="6.774" transform="translate(53.204 5.572)" fill="#fff"/>
      <path id="Trazado_101087" data-name="Trazado 101087" d="M1791.019,1163.821l5.346,9.725,5.766-14.364-6.292,7.57Z" transform="translate(-1733.405 -1150.826)" fill="url(#linear-gradient-22)"/>
    </g>
    <g id="Grupo_55287" data-name="Grupo 55287" transform="translate(1526.17 1117.56)">
      <g id="Grupo_55286" data-name="Grupo 55286" transform="translate(0 0)">
        <path id="Trazado_101088" data-name="Trazado 101088" d="M1678.577,1241.611l26.733,74.319a5.683,5.683,0,0,1-3.845,7.4l-.525.144a5.282,5.282,0,0,1-6.5-3.731l-20.495-76.712Z" transform="translate(-1618.145 -1153.823)" fill="url(#linear-gradient-23)"/>
        <ellipse id="Elipse_4015" data-name="Elipse 4015" cx="35.977" cy="36.637" rx="35.977" ry="36.637" transform="translate(0 46.041) rotate(-39.783)" fill="#3fa9f5" opacity="0.16"/>
        <path id="Trazado_101089" data-name="Trazado 101089" d="M1625.388,1143.279c-16.99,14.147-19.084,39.642-4.677,56.945s39.86,19.86,56.85,5.713,19.085-39.642,4.677-56.945S1642.379,1129.132,1625.388,1143.279Zm3.832,4.6c14.494-12.069,36.208-9.887,48.5,4.874s10.505,36.511-3.989,48.58-36.209,9.888-48.5-4.873S1614.726,1159.95,1629.22,1147.881Z" transform="translate(-1600.384 -1123.432)" fill="url(#linear-gradient-24)"/>
        <path id="Trazado_101090" data-name="Trazado 101090" d="M1692.049,1208.442a.129.129,0,0,1-.014-.019.189.189,0,0,1,.057-.259c.8-.508,1.584-1.053,2.339-1.622a.181.181,0,0,1,.262.037.188.188,0,0,1-.036.263c-.764.574-1.559,1.125-2.363,1.638A.187.187,0,0,1,1692.049,1208.442Zm8.423-7.378a.187.187,0,0,1,0-.24,36.374,36.374,0,0,0,4.322-6.426,37.639,37.639,0,0,0-4.6-41.756,38.166,38.166,0,0,0-17.437-11.881.188.188,0,0,1,.117-.357,38.541,38.541,0,0,1,17.608,12,38.013,38.013,0,0,1,4.644,42.172h0a36.752,36.752,0,0,1-4.367,6.49.188.188,0,0,1-.288,0Z" transform="translate(-1620.6 -1125.201)" fill="#fff"/>
        <path id="Trazado_101091" data-name="Trazado 101091" d="M1705.991,1346.87a.187.187,0,0,1,.241-.281c1.93,1.166,3.565,1.258,4.859.272a3.952,3.952,0,0,0,1.269-4.421l-3.032-9.072a.187.187,0,0,1,.356-.118l3.032,9.071a4.327,4.327,0,0,1-1.4,4.838c-1.429,1.089-3.205,1-5.28-.249A.2.2,0,0,1,1705.991,1346.87Z" transform="translate(-1627.193 -1179.699)" fill="#fff"/>
        <path id="Trazado_101092" data-name="Trazado 101092" d="M1709.232,1329.067a.191.191,0,0,1-.034-.06l-.392-1.175a.188.188,0,0,1,.356-.119l.392,1.176a.187.187,0,0,1-.322.179Z" transform="translate(-1627.999 -1178.134)" fill="#fff"/>
      </g>
      <g id="Grupo_54302" data-name="Grupo 54302" transform="translate(95.619 223.832)">
        <path id="Trazado_100327" data-name="Trazado 100327" d="M1755.307,1431.291l-.219,4.195-.64,12.406h-24.965c-.593-10.8,11.727-8.823,11.727-8.823l.126-3.49.136-3.755Z" transform="translate(-1729.462 -1431.291)" fill="#df673f"/>
        <path id="Trazado_100328" data-name="Trazado 100328" d="M1759.988,1431.291l-.219,4.195-13.751.093.136-3.756Z" transform="translate(-1734.143 -1431.291)" fill="#bc3f3f" opacity="0.31" style="isolation: isolate"/>
      </g>
      <g id="Grupo_54303" data-name="Grupo 54303" transform="translate(128.148 220.059)">
        <path id="Trazado_100329" data-name="Trazado 100329" d="M1796.064,1426.031l.869,4.11,2.58,12.151-24.122,6.434c-3.357-10.284,9.056-11.547,9.056-11.547l-.778-3.4-.839-3.663Z" transform="translate(-1774.815 -1426.031)" fill="#df673f"/>
        <path id="Trazado_100330" data-name="Trazado 100330" d="M1799.224,1426.031l.869,4.11-13.262,3.634-.839-3.663Z" transform="translate(-1777.975 -1426.031)" fill="#bc3f3f" opacity="0.31" style="isolation: isolate"/>
      </g>
      <g id="Grupo_54305" data-name="Grupo 54305" transform="translate(66.326 111.268)">
        <path id="Trazado_100331" data-name="Trazado 100331" d="M1731.9,1277.45a12.061,12.061,0,0,1,2.744,4.67c2.864,8.2-1.042,14.041-14.2,13.371-9.024-.461-20.636-4.727-27.042-7.367-2.928-1.211-4.772-2.075-4.772-2.075l4.455-7.1s-2.9-2.238-3.162-2.9.452-2.395,2.609-1.392,4.222,4.564,4.59,4.576,23.076,4.28,23.076,4.28l-.38-1.065-.778-2.171,6.959-4.671A6.325,6.325,0,0,1,1731.9,1277.45Z" transform="translate(-1688.621 -1274.347)" fill="#e9a98b"/>
        <g id="Grupo_54304" data-name="Grupo 54304" transform="translate(31.228 8.825)">
          <path id="Trazado_100332" data-name="Trazado 100332" d="M1735.705,1287.406a.333.333,0,0,1-.28.119l-2.956-.207a.334.334,0,1,1,.047-.666l2.955.207a.333.333,0,0,1,.23.548Z" transform="translate(-1732.16 -1286.652)" fill="#ce8365"/>
        </g>
        <path id="Trazado_100333" data-name="Trazado 100333" d="M1743.882,1277.891c-.147.143-.312.295-.479.441-4.784,4.176-9.135,4.7-11.608,4.55l-.778-2.171,6.962-4.669A6.324,6.324,0,0,1,1743.882,1277.891Z" transform="translate(-1700.609 -1274.788)" fill="#e9a98b" opacity="0.42" style="isolation: isolate"/>
        <path id="Trazado_100334" data-name="Trazado 100334" d="M1696.517,1282.973c-.407,1.839-2.114,4.416-3.125,5.823-2.928-1.211-4.771-2.076-4.771-2.076l4.455-7.1s-2.9-2.239-3.162-2.9C1692.97,1277.169,1697.1,1280.331,1696.517,1282.973Z" transform="translate(-1688.62 -1275.017)" fill="#e9a98b" opacity="0.42" style="isolation: isolate"/>
      </g>
      <g id="Grupo_54313" data-name="Grupo 54313" transform="translate(98.588 85.042)">
        <g id="Grupo_54311" data-name="Grupo 54311">
          <g id="Grupo_54309" data-name="Grupo 54309">
            <path id="Trazado_100347" data-name="Trazado 100347" d="M1750.844,1252.723l-5.237,3.3s-8.178,4.841-11.128,1.811,2.91-8.65,2.91-8.65-3.237.645-3.736-1.732c-.526-2.484,3.076-5.554,5.947-7.565,1.811-1.264,3.336-2.108,3.336-2.108s7.55,7.2,7.705,7.272a25.406,25.406,0,0,1,.146,3.269C1750.83,1250.41,1750.844,1252.723,1750.844,1252.723Z" transform="translate(-1733.602 -1237.782)" fill="#324a6e"/>
            <path id="Trazado_100348" data-name="Trazado 100348" d="M1753.157,1248.323c-.259.014-.519.014-.792.007-8.238-.2-10.023-6.28-10.4-8.438,1.811-1.265,3.337-2.108,3.337-2.108s7.549,7.2,7.7,7.272A25.35,25.35,0,0,1,1753.157,1248.323Z" transform="translate(-1735.968 -1237.783)" fill="#324a6e" opacity="0.31" style="isolation: isolate"/>
          </g>
          <g id="Grupo_54310" data-name="Grupo 54310" transform="translate(20.285)">
            <path id="Trazado_100349" data-name="Trazado 100349" d="M1761.884,1252.723l5.237,3.3s8.177,4.841,11.128,1.811-2.911-8.65-2.911-8.65,3.236.645,3.736-1.732c.525-2.484-3.076-5.554-5.946-7.565-1.812-1.264-3.337-2.108-3.337-2.108s-7.55,7.2-7.7,7.272a25.145,25.145,0,0,0-.146,3.269C1761.9,1250.41,1761.884,1252.723,1761.884,1252.723Z" transform="translate(-1761.884 -1237.782)" fill="#324a6e"/>
            <path id="Trazado_100350" data-name="Trazado 100350" d="M1761.956,1248.323c.26.014.519.014.793.007,8.238-.2,10.022-6.28,10.395-8.438-1.812-1.265-3.337-2.108-3.337-2.108s-7.55,7.2-7.7,7.272A25.351,25.351,0,0,0,1761.956,1248.323Z" transform="translate(-1761.903 -1237.783)" fill="#324a6e" opacity="0.31" style="isolation: isolate"/>
          </g>
        </g>
        <g id="Grupo_54312" data-name="Grupo 54312" transform="translate(15.311 4.297)">
          <rect id="Rectángulo_5250" data-name="Rectángulo 5250" width="9.283" height="10.754" transform="translate(0)" fill="#e9a98b"/>
          <path id="Trazado_100351" data-name="Trazado 100351" d="M1764.233,1243.773v4.855a12.139,12.139,0,0,1-9.283.892v-5.747Z" transform="translate(-1754.95 -1243.773)" fill="#e9a98b" opacity="0.42" style="isolation: isolate"/>
        </g>
      </g>
      <g id="Grupo_54315" data-name="Grupo 54315" transform="translate(95.846 96.299)">
        <path id="Trazado_100352" data-name="Trazado 100352" d="M1763.934,1278.406l1.8,11.64a13.124,13.124,0,0,1-11.807,2.118c-.1-.027-.2-.053-.307-.088-3.333-1.012-6.559-3.443-9.069-5.786a45.509,45.509,0,0,1-4.975-5.461s-1.021-.213-2.438-.673c-2.3-.732-5.653-2.084-7.359-4.129,0,0,3.89-15.809,12.307-20.178a9.5,9.5,0,0,1,2.837-.978l.748-.287,2.144-.815a4.919,4.919,0,0,0,3.916,2.8c2.831.233,5.275-3.029,5.275-3.029a15.564,15.564,0,0,1,3.635.106,13.6,13.6,0,0,1,2.691.659,9.818,9.818,0,0,1,3.463,2.064c3.735,3.543,7.711,15.809,8.891,19.312l-11.534,2.677Z" transform="translate(-1729.778 -1253.476)" fill="#f7a416"/>
        <path id="Trazado_100353" data-name="Trazado 100353" d="M1775.253,1290.109a13.124,13.124,0,0,1-11.807,2.118l3.869-21.157s-.8-10.635,2.842-17.368a13.681,13.681,0,0,1,2.691.659c-.472,2.644-1.751,10.822-.706,16.4.706,3.735,1.212,6.206,1.525,7.659l-.213.053Z" transform="translate(-1739.299 -1253.54)" fill="#3f6353" opacity="0.24" style="isolation: isolate"/>
        <path id="Trazado_100354" data-name="Trazado 100354" d="M1746.28,1268.88c.079.579.705,10.468,1.172,17.847a45.553,45.553,0,0,1-4.975-5.461s-1.021-.214-2.438-.673c1.312-14.589,3.476-21.3,4.948-24.306a9.485,9.485,0,0,1,2.837-.978l.748-.287C1747.77,1259.358,1746.179,1268.181,1746.28,1268.88Z" transform="translate(-1732.68 -1253.913)" fill="#3f6353" opacity="0.24" style="isolation: isolate"/>
        <g id="Grupo_54314" data-name="Grupo 54314" transform="translate(32.097 15.812)">
          <path id="Trazado_100355" data-name="Trazado 100355" d="M1776.562,1284.848a.333.333,0,0,1-.326-.269l-1.7-8.66a.332.332,0,1,1,.653-.128l1.7,8.659a.332.332,0,0,1-.262.391A.322.322,0,0,1,1776.562,1284.848Z" transform="translate(-1774.529 -1275.522)" fill="#b97b10"/>
        </g>
      </g>
      <g id="Grupo_54321" data-name="Grupo 54321" transform="translate(104.11 95.834)">
        <path id="Trazado_100356" data-name="Trazado 100356" d="M1786.63,1379.161c-1.112.32-13.212,3.55-14.583,3.775s-2-1.259-2.284-2.343c-.04-.146-.2-.793-.453-1.785-1.6-6.313-6.8-26.923-6.8-26.923l-.073,1.046c-.267,4.122-1.272,19.351-1.725,25.292-.093,1.239-.167,2.071-.2,2.317-.232,1.6-.113,1.768-2,1.945-.627.06-2.21.113-4.116.16-3.836.093-9,.14-10.3.068-1.945-.113-1.485-1.371-1.658-2.516-.014-.107-.026-.566-.04-1.325-.08-7.339.127-42.645-.706-56.431a301.592,301.592,0,0,1,.806-41.234c.779-9.3,3.463-22.668,4.821-26.124a2.74,2.74,0,0,1,.379-.752,2.354,2.354,0,0,1,2.764-.506c-.113.307-.227.633-.332.98-1.572,5.014-2.485,13.764-2.485,13.764a30.019,30.019,0,0,0,11.72.459c-.347-7.345,1.284-12.126,2.364-14.437a11.412,11.412,0,0,1,.9-1.632,2.989,2.989,0,0,1,2.918.686c-.26.476-.5.979-.72,1.492-2.91,6.619-3.023,15.522-1.8,25.557.539,4.421,1.632,6.726,2.743,7.911a3.009,3.009,0,0,0,3.2,1.065s4.648,19.938,8.63,35.163c1.3,4.961,2.517,9.422,3.49,12.532,3.5,11.214,5.454,30.013,6.213,36.485.1.826.173,1.445.233,1.831C1787.822,1377.47,1787.776,1378.839,1786.63,1379.161Z" transform="translate(-1741.3 -1252.829)" fill="#6393db"/>
        <path id="Trazado_100357" data-name="Trazado 100357" d="M1787.256,1338.934a17.838,17.838,0,0,1-2.543-.3c-3.316-.627-7.652-26.138-9.289-35.927a3.006,3.006,0,0,0,3.2,1.065S1783.274,1323.711,1787.256,1338.934Z" transform="translate(-1750.949 -1266.933)" fill="#3f6353" opacity="0.24" style="isolation: isolate"/>
        <path id="Trazado_100358" data-name="Trazado 100358" d="M1742.829,1428.306l18.313-.646c-.093,1.239-.167,2.071-.2,2.317-.232,1.6-.113,1.768-2,1.944s-12.466.34-14.41.227-1.485-1.372-1.658-2.517C1742.859,1429.524,1742.846,1429.065,1742.829,1428.306Z" transform="translate(-1741.733 -1302.267)" fill="#4a6ea4"/>
        <path id="Trazado_100359" data-name="Trazado 100359" d="M1797.673,1426.874c-1.111.32-13.211,3.55-14.583,3.775s-2-1.259-2.284-2.343c-.04-.146-.2-.793-.453-1.785l18-4.961c.1.826.174,1.446.233,1.831C1798.862,1425.183,1798.819,1426.548,1797.673,1426.874Z" transform="translate(-1752.343 -1300.542)" fill="#4a6ea4"/>
        <path id="Trazado_100360" data-name="Trazado 100360" d="M1766.6,1378.6c-.266,4.122-1.272,19.352-1.724,25.292-.093,1.239-.167,2.071-.2,2.317-.232,1.6-.113,1.768-2,1.945-.626.06-2.21.113-4.115.16-.519-13.338-2.544-64.515-2.544-64.515l3.209-.193Z" transform="translate(-1745.46 -1278.499)" fill="#3f6353" opacity="0.24" style="isolation: isolate"/>
        <g id="Grupo_54318" data-name="Grupo 54318" transform="translate(8.662 62.993)">
          <g id="Grupo_54316" data-name="Grupo 54316" transform="translate(5.089 1.713)">
            <path id="Trazado_100361" data-name="Trazado 100361" d="M1767.935,1377.733a.336.336,0,0,1-.326-.265l-7.129-34.022a.333.333,0,1,1,.652-.135l7.129,34.021a.334.334,0,0,1-.258.394A.313.313,0,0,1,1767.935,1377.733Z" transform="translate(-1760.473 -1343.046)" fill="#324a6e"/>
          </g>
          <g id="Grupo_54317" data-name="Grupo 54317">
            <path id="Trazado_100362" data-name="Trazado 100362" d="M1755.267,1342.966c-.977,0-1.564-.03-1.585-.031a.333.333,0,0,1,.036-.666,45.721,45.721,0,0,0,13.815-1.6.333.333,0,0,1,.2.636A44.809,44.809,0,0,1,1755.267,1342.966Z" transform="translate(-1753.377 -1340.658)" fill="#324a6e"/>
          </g>
        </g>
        <g id="Grupo_54320" data-name="Grupo 54320" transform="translate(6.497 23.686)">
          <g id="Grupo_54319" data-name="Grupo 54319">
            <path id="Trazado_100363" data-name="Trazado 100363" d="M1761.713,1288.2c-.068,3.163-.892,8.577-5.794,8.577a4.6,4.6,0,0,1-4.069-2.117c-1.245-1.852-1.5-4.542-1.492-6.461a19.092,19.092,0,0,1,.135-2.344l8.29.087,2.857.026A19.406,19.406,0,0,1,1761.713,1288.2Z" transform="translate(-1750.359 -1285.854)" fill="#6393db"/>
            <path id="Trazado_100364" data-name="Trazado 100364" d="M1761.714,1288.2h-11.352a19.3,19.3,0,0,1,.136-2.344l8.291.087,2.856.027A19.239,19.239,0,0,1,1761.714,1288.2Z" transform="translate(-1750.36 -1285.854)" fill="#3f6353" opacity="0.24" style="isolation: isolate"/>
          </g>
          <path id="Trazado_100365" data-name="Trazado 100365" d="M1762.306,1288.235c-.068,3.163-.892,8.577-5.795,8.577a4.6,4.6,0,0,1-4.068-2.117h.353c5.354.113,6.566-3.537,6.679-6.461a13.729,13.729,0,0,0-.1-2.257l2.857.026A19.625,19.625,0,0,1,1762.306,1288.235Z" transform="translate(-1750.948 -1285.889)" fill="#50a578" opacity="0.22" style="isolation: isolate"/>
        </g>
      </g>
      <g id="Grupo_54322" data-name="Grupo 54322" transform="translate(130.002 118.681)">
        <path id="Trazado_100366" data-name="Trazado 100366" d="M1790.626,1314.145c.007,1-.006,1.957-.033,2.877l-7.626.606-.593-2.95-3.176-15.808-1.439-9.318-.359-2.324.213-.053,10.728-2.492c.059.493.153,1.219.26,2.132A269.56,269.56,0,0,1,1790.626,1314.145Z" transform="translate(-1777.4 -1284.683)" fill="#e9a98b"/>
        <path id="Trazado_100367" data-name="Trazado 100367" d="M1788.6,1286.818l-10.841,2.737-.36-2.324.214-.053,10.728-2.492C1788.4,1285.179,1788.493,1285.9,1788.6,1286.818Z" transform="translate(-1777.4 -1284.684)" fill="#e9a98b" opacity="0.42" style="isolation: isolate"/>
        <path id="Trazado_100368" data-name="Trazado 100368" d="M1792.587,1325.49c.007,1-.006,1.957-.033,2.877l-7.625.606-.593-2.95A9.6,9.6,0,0,1,1792.587,1325.49Z" transform="translate(-1779.361 -1296.028)" fill="#e9a98b" opacity="0.42" style="isolation: isolate"/>
      </g>
      <g id="Grupo_54334" data-name="Grupo 54334" transform="translate(103.127 65.059)">
        <path id="Trazado_100372" data-name="Trazado 100372" d="M1745.689,1222.685s-2.208,18.032,10.542,18.032c12.3,0,10.52-16.47,9.48-20.371s-7.021-5.98-11.7-5.114S1745.689,1222.685,1745.689,1222.685Z" transform="translate(-1741.517 -1211.367)" fill="#e9a98b"/>
        <g id="Grupo_54325" data-name="Grupo 54325" transform="translate(1.379)">
          <path id="Trazado_100373" data-name="Trazado 100373" d="M1765.841,1225.5s-.708,1.535-2.6-2.2c0,0-.2,1.612-2.281.237s-5.324-6.355-5.324-6.355-1.751,4.257-3.97,4.6a1.322,1.322,0,0,1-1.609-.952,1.257,1.257,0,0,1-.031-.165s-2.245,5.468-5.7,6.49-2.281.039-2.281.039a17.978,17.978,0,0,1,1.337-9.675c2.2-4.483,9.99-4.761,9.99-4.761s-.668-2.2.039-2.4,1.415,2.084,1.415,2.084.354-2.635,1.181-2.516.393,2.124.393,2.124,7.709,1.062,9.243,4.562S1767.335,1224.634,1765.841,1225.5Z" transform="translate(-1741.853 -1209.92)" fill="#324a6e"/>
          <g id="Grupo_54324" data-name="Grupo 54324" transform="translate(7.834 6.934)">
            <path id="Trazado_100374" data-name="Trazado 100374" d="M1754.542,1225.8a1.719,1.719,0,0,1-1.418-.567c-.736-.915-.092-2.5-.016-2.683l.612.261c-.162.383-.492,1.492-.076,2.005.314.39,1.028.349,1.57.248,2.911-.544,3.286-5.424,3.289-5.473l.666.046c-.015.222-.414,5.441-3.83,6.081A4.428,4.428,0,0,1,1754.542,1225.8Z" transform="translate(-1752.775 -1219.588)" fill="#324a6e"/>
          </g>
        </g>
        <g id="Grupo_54330" data-name="Grupo 54330" transform="translate(0 14.707)">
          <g id="Grupo_54327" data-name="Grupo 54327" transform="translate(22.035)">
            <path id="Trazado_100375" data-name="Trazado 100375" d="M1772.964,1231.6s1.857-2.6,3.849-.068-1.148,6.618-4.761,5.741S1772.964,1231.6,1772.964,1231.6Z" transform="translate(-1770.653 -1230.426)" fill="#e9a98b"/>
            <g id="Grupo_54326" data-name="Grupo 54326" transform="translate(3.228 1.288)">
              <path id="Trazado_100376" data-name="Trazado 100376" d="M1775.487,1236.224a.333.333,0,0,1-.17-.62c.366-.218,1.334-.953,1.413-1.725a1.29,1.29,0,0,0-.522-1.089.333.333,0,0,1,.448-.493,1.922,1.922,0,0,1,.736,1.647c-.13,1.266-1.67,2.19-1.736,2.228A.335.335,0,0,1,1775.487,1236.224Z" transform="translate(-1775.154 -1232.221)" fill="#d38667"/>
            </g>
          </g>
          <g id="Grupo_54329" data-name="Grupo 54329">
            <path id="Trazado_100377" data-name="Trazado 100377" d="M1744.4,1231.6s-1.856-2.6-3.849-.068,1.148,6.618,4.761,5.741S1744.4,1231.6,1744.4,1231.6Z" transform="translate(-1739.93 -1230.426)" fill="#e9a98b"/>
            <g id="Grupo_54328" data-name="Grupo 54328" transform="translate(1.311 1.288)">
              <path id="Trazado_100378" data-name="Trazado 100378" d="M1743.667,1236.224a.333.333,0,0,0,.17-.62c-.367-.218-1.334-.953-1.412-1.725a1.29,1.29,0,0,1,.521-1.089.333.333,0,0,0-.448-.493,1.925,1.925,0,0,0-.736,1.647c.13,1.266,1.67,2.19,1.736,2.228A.336.336,0,0,0,1743.667,1236.224Z" transform="translate(-1741.758 -1232.221)" fill="#d38667"/>
            </g>
          </g>
        </g>
        <g id="Grupo_54333" data-name="Grupo 54333" transform="translate(7.853 14.15)">
          <path id="Trazado_100379" data-name="Trazado 100379" d="M1753.316,1233.114h0a.976.976,0,0,1,.991.952l.024,1.268a.977.977,0,0,1-.952.991h0a.974.974,0,0,1-.99-.952l-.024-1.267A.975.975,0,0,1,1753.316,1233.114Z" transform="translate(-1751.3 -1230.628)" fill="#2e130f" fill-rule="evenodd"/>
          <path id="Trazado_100380" data-name="Trazado 100380" d="M1765.958,1232.82h0a.975.975,0,0,1,.99.953l.024,1.268a.974.974,0,0,1-.952.991h0a.975.975,0,0,1-.991-.953l-.024-1.267A.975.975,0,0,1,1765.958,1232.82Z" transform="translate(-1754.874 -1230.545)" fill="#2e130f" fill-rule="evenodd"/>
          <g id="Grupo_54331" data-name="Grupo 54331" transform="translate(0.045 6.098)">
            <path id="Trazado_100381" data-name="Trazado 100381" d="M1752.352,1238.48a1.437,1.437,0,1,1-1.409,1.464A1.436,1.436,0,0,1,1752.352,1238.48Z" transform="translate(-1750.943 -1238.244)" fill="#e89777" fill-rule="evenodd"/>
            <path id="Trazado_100382" data-name="Trazado 100382" d="M1766.763,1238.151a1.438,1.438,0,1,1-1.411,1.465A1.439,1.439,0,0,1,1766.763,1238.151Z" transform="translate(-1755.017 -1238.151)" fill="#e89777" fill-rule="evenodd"/>
          </g>
          <g id="Grupo_54332" data-name="Grupo 54332" transform="translate(4.728 8.754)">
            <path id="Trazado_100383" data-name="Trazado 100383" d="M1762.379,1242.261a2.456,2.456,0,0,1-4.906.243l0-.051h0a.427.427,0,0,1,.409-.44l4.052-.159a.426.426,0,0,1,.442.408Z" transform="translate(-1757.471 -1241.854)" fill="#2e130f" fill-rule="evenodd"/>
            <path id="Trazado_100384" data-name="Trazado 100384" d="M1762.03,1244.864a2.455,2.455,0,0,1-2.83.285,1.526,1.526,0,0,1,1.366-.96A1.548,1.548,0,0,1,1762.03,1244.864Z" transform="translate(-1757.96 -1242.511)" fill="#d64341" fill-rule="evenodd"/>
            <path id="Trazado_100385" data-name="Trazado 100385" d="M1757.966,1242.025l3.809-.151a.865.865,0,0,1-.38.957,10.851,10.851,0,0,1-3.3-.047A1.475,1.475,0,0,1,1757.966,1242.025Z" transform="translate(-1757.609 -1241.859)" fill="#fff" fill-rule="evenodd"/>
          </g>
          <path id="Trazado_100386" data-name="Trazado 100386" d="M1751.307,1230.569a.295.295,0,1,1-.264-.527h0a3.657,3.657,0,0,1,3.322.011.3.3,0,0,1-.3.506A3.049,3.049,0,0,0,1751.307,1230.569Z" transform="translate(-1750.879 -1229.648)" fill="#324a6e" fill-rule="evenodd"/>
          <path id="Trazado_100387" data-name="Trazado 100387" d="M1766.959,1230.569a.295.295,0,0,0,.262-.527,3.659,3.659,0,0,0-3.323.011.3.3,0,0,0,.3.506A3.053,3.053,0,0,1,1766.959,1230.569Z" transform="translate(-1754.523 -1229.648)" fill="#324a6e" fill-rule="evenodd"/>
          <path id="Trazado_100388" data-name="Trazado 100388" d="M1759.925,1237.5s-1.024.552-1.148,1.132.476.892,1.059.617S1760.435,1237.207,1759.925,1237.5Z" transform="translate(-1753.108 -1231.859)" fill="#d38667" fill-rule="evenodd"/>
        </g>
      </g>
      <path id="Trazado_100389" data-name="Trazado 100389" d="M1752.838,1254.119c-.113.306-.227.633-.333.979a4.452,4.452,0,0,0-2.811.28,2.724,2.724,0,0,1,.38-.752A2.354,2.354,0,0,1,1752.838,1254.119Z" transform="translate(-1639.564 -1157.291)" fill="#6cb792" opacity="0.3" style="isolation: isolate"/>
      <path id="Trazado_100390" data-name="Trazado 100390" d="M1773.6,1253.643c-.26.476-.5.979-.719,1.492a5.238,5.238,0,0,0-3.1-.544,11.379,11.379,0,0,1,.9-1.632A2.988,2.988,0,0,1,1773.6,1253.643Z" transform="translate(-1645.245 -1156.995)" fill="#6cb792" opacity="0.3" style="isolation: isolate"/>
      <g id="Grupo_54340" data-name="Grupo 54340" transform="translate(134.979 148.674)">
        <g id="Grupo_54339" data-name="Grupo 54339">
          <path id="Trazado_100397" data-name="Trazado 100397" d="M1791.077,1330.184c0,2.032-.663,3.681-1.481,3.681s-1.481-1.648-1.481-3.681.662-3.682,1.481-3.682S1791.077,1328.15,1791.077,1330.184Z" transform="translate(-1785.408 -1326.502)" fill="#e9a98b"/>
          <path id="Trazado_100398" data-name="Trazado 100398" d="M1794.916,1330.312c0,1.995-.651,3.612-1.453,3.612s-1.453-1.617-1.453-3.612.651-3.611,1.453-3.611S1794.916,1328.315,1794.916,1330.312Z" transform="translate(-1786.509 -1326.558)" fill="#e9a98b"/>
          <path id="Trazado_100399" data-name="Trazado 100399" d="M1787.257,1330.285c0,2-.653,3.624-1.458,3.624s-1.459-1.622-1.459-3.624.653-3.624,1.459-3.624S1787.257,1328.283,1787.257,1330.285Z" transform="translate(-1784.34 -1326.547)" fill="#e9a98b"/>
        </g>
      </g>
      <path id="Trazado_101093" data-name="Trazado 101093" d="M1692.372,1277.26l1.6,2.409v2.737l-3.625,4.238-3.827-1.773v-3.943l.887-2.188Z" transform="translate(-1621.699 -1163.903)" fill="#e9a98b"/>
      <g id="Grupo_54323" data-name="Grupo 54323" transform="translate(60.262 112.362)">
        <path id="Trazado_100369" data-name="Trazado 100369" d="M1685.211,1280.622c4-.069,4.848.977,4.836,2.118s-2.292,1.685-4.975,1.646c-3.443-.047-4.754-.613-4.74-1.753S1680.985,1280.695,1685.211,1280.622Z" transform="translate(-1680.212 -1277.215)" fill="#e9a98b"/>
        <path id="Trazado_100370" data-name="Trazado 100370" d="M1685.045,1275.877c4-.07,4.849.978,4.835,2.118s-2.292,1.685-4.975,1.645c-3.443-.047-4.753-.611-4.741-1.752S1680.819,1275.95,1685.045,1275.877Z" transform="translate(-1680.165 -1275.874)" fill="#e9a98b"/>
        <path id="Trazado_100371" data-name="Trazado 100371" d="M1685.5,1285.559c4-.069,4.848.977,4.835,2.119s-2.292,1.685-4.975,1.645c-3.443-.047-4.753-.612-4.741-1.753S1681.271,1285.632,1685.5,1285.559Z" transform="translate(-1680.293 -1278.611)" fill="#e9a98b"/>
      </g>
    </g>
    <g id="Grupo_55288" data-name="Grupo 55288" transform="translate(1369.594 1243.591)">
      <g id="Grupo_54384" data-name="Grupo 54384" transform="translate(0 47.894)">
        <g id="Grupo_54373" data-name="Grupo 54373">
          <g id="Grupo_54372" data-name="Grupo 54372">
            <g id="Grupo_54371" data-name="Grupo 54371">
              <path id="Trazado_100507" data-name="Trazado 100507" d="M1412.564,1394.386a11.605,11.605,0,0,1-.354,2.051c-1.8,7.146-9.265,12.47-9.265,12.47l.119-8.6.224-16.535s-8.137.8-10.478,8.1a31.661,31.661,0,0,0-1,12.122,35.224,35.224,0,0,0,.548,3.782l-12.633,4.21a35.083,35.083,0,0,1-.874-3.569c-1.2-5.933-2.54-18.172,3.729-28.1,6.452-10.217,17.609-15.567,22.81-17.615,1.751-.678,2.823-1,2.823-1s1.478,7.15,2.722,15.017C1411.988,1383.422,1412.882,1390.643,1412.564,1394.386Z" transform="translate(-1377.835 -1361.707)" fill="#fefefe"/>
              <path id="Trazado_100508" data-name="Trazado 100508" d="M1422.113,1396.437c-1.8,7.146-9.266,12.47-9.266,12.47l.12-8.6c6.032-8.719,3.362-30.631,2.32-37.6,1.75-.678,2.823-1,2.823-1s1.477,7.15,2.722,15.017Z" transform="translate(-1387.736 -1361.708)" fill="#ead6d0" opacity="0.32" style="isolation: isolate"/>
            </g>
          </g>
        </g>
        <g id="Grupo_54376" data-name="Grupo 54376" transform="translate(2.321 45.209)">
          <path id="Trazado_100509" data-name="Trazado 100509" d="M1392.963,1424.74s-.831,7.682,4.649,9.782c0,0,.945,2.259-.94,2.984,0,0-.558,3.14-3.146,3.656,0,0-.242,2.164-3.489,2.092s-8.832-2.115-8.967-14.165Z" transform="translate(-1381.071 -1424.74)" fill="#e9a98b"/>
          <g id="Grupo_54374" data-name="Grupo 54374" transform="translate(9.601 8.82)">
            <path id="Trazado_100510" data-name="Trazado 100510" d="M1400.465,1441.383h-.017a7.066,7.066,0,0,1-5.956-3.783.4.4,0,0,1,.726-.35,6.26,6.26,0,0,0,5.26,3.331.4.4,0,0,1-.009.8Z" transform="translate(-1394.458 -1437.037)" fill="#d3805f"/>
          </g>
          <g id="Grupo_54375" data-name="Grupo 54375" transform="translate(6.125 12.254)">
            <path id="Trazado_100511" data-name="Trazado 100511" d="M1395.949,1446.395h-.036c-5.022-.395-6.233-3.9-6.283-4.044a.4.4,0,0,1,.762-.253c.043.129,1.115,3.146,5.584,3.5a.4.4,0,0,1-.026.8Z" transform="translate(-1389.611 -1441.825)" fill="#d3805f"/>
          </g>
        </g>
        <path id="Trazado_100519" data-name="Trazado 100519" d="M1392.754,1424.447l-12.632,4.21a35.017,35.017,0,0,1-.874-3.569l12.959-4.423A7.624,7.624,0,0,1,1392.754,1424.447Z" transform="translate(-1378.235 -1378.379)" fill="#ead6d0"/>
      </g>
      <g id="Grupo_54391" data-name="Grupo 54391" transform="translate(58.736 47.531)">
        <g id="Grupo_54390" data-name="Grupo 54390">
          <g id="Grupo_54389" data-name="Grupo 54389">
            <path id="Trazado_100526" data-name="Trazado 100526" d="M1459.842,1393.97a11.486,11.486,0,0,0,.4,2.042c1.958,7.1,9.543,12.26,9.543,12.26l-.313-8.6-.6-16.525s7.661-16.444,1.923-19.132c-1.736-.813-3.28-1.434-4.5-1.883-1.764-.639-2.844-.931-2.844-.931s-1.315,7.179-2.382,15.074C1460.167,1383,1459.439,1390.236,1459.842,1393.97Z" transform="translate(-1459.728 -1361.201)" fill="#fefefe"/>
            <path id="Trazado_100527" data-name="Trazado 100527" d="M1460.445,1396.014c1.957,7.1,9.543,12.26,9.543,12.26l-.313-8.6c-6.228-8.581-4.052-30.547-3.167-37.538-1.765-.639-2.844-.931-2.844-.931s-1.315,7.179-2.381,15.075Z" transform="translate(-1459.931 -1361.202)" fill="#ead6d0" opacity="0.32" style="isolation: isolate"/>
          </g>
        </g>
      </g>
      <g id="Grupo_54394" data-name="Grupo 54394" transform="translate(115.466 29.179)">
        <path id="Trazado_100528" data-name="Trazado 100528" d="M1538.825,1345.79s7.011-3.252,5.979-9.031c0,0,1.449-1.975,3.04-.735,0,0,2.978-1.143,4.754.807,0,0,1.98-.907,3.6,1.907s2.746,8.656-7.5,14.991Z" transform="translate(-1538.825 -1335.614)" fill="#e9a98b"/>
        <g id="Grupo_54392" data-name="Grupo 54392" transform="translate(8.484 0.035)">
          <path id="Trazado_100529" data-name="Trazado 100529" d="M1551.53,1335.826l.009.014a7.064,7.064,0,0,1-.168,7.055.4.4,0,0,1-.672-.438,6.26,6.26,0,0,0,.141-6.223.4.4,0,0,1,.691-.408Z" transform="translate(-1550.655 -1335.662)" fill="#d3805f"/>
        </g>
        <g id="Grupo_54393" data-name="Grupo 54393" transform="translate(13.233 0.838)">
          <path id="Trazado_100530" data-name="Trazado 100530" d="M1558.16,1336.951l.019.03c2.254,4.505-.118,7.348-.222,7.469a.4.4,0,0,1-.609-.521c.088-.1,2.12-2.578.113-6.588a.4.4,0,0,1,.7-.391Z" transform="translate(-1557.276 -1336.782)" fill="#d3805f"/>
        </g>
      </g>
      <path id="Trazado_100538" data-name="Trazado 100538" d="M1535.619,1352.287l9.714,7.863a3.956,3.956,0,0,0,2.8-2.592l-10.217-7.757C1536.387,1350.06,1535.948,1351.026,1535.619,1352.287Z" transform="translate(-1422.453 -1310.446)" fill="#ead6d0"/>
      <g id="Grupo_54404" data-name="Grupo 54404" transform="translate(40.536 38.196)">
        <rect id="Rectángulo_5267" data-name="Rectángulo 5267" width="12.39" height="11.989" transform="matrix(1, -0.011, 0.011, 1, 0, 0.139)" fill="#e9a98b"/>
        <path id="Trazado_100539" data-name="Trazado 100539" d="M1446.743,1348.185l.024,2.223c-4.2,3.651-9.533,2.948-12.366,2.194l-.049-4.275Z" transform="translate(-1434.353 -1348.185)" fill="#e9a98b" opacity="0.42" style="isolation: isolate"/>
      </g>
      <g id="Grupo_54405" data-name="Grupo 54405" transform="translate(35.063 44.598)">
        <path id="Trazado_100540" data-name="Trazado 100540" d="M1449.775,1383.93a.794.794,0,0,1-.3.2c-3.339,1.371-20.384.053-20.384.053s-2.538-24.529-2.365-24.875a5.506,5.506,0,0,1,1.637-.75,17.5,17.5,0,0,1,3.912-1.04s.791,4.028,5.823,3.972a7.047,7.047,0,0,0,6.571-4.384s4.1.211,4.4.841C1449.361,1358.568,1452.609,1381.266,1449.775,1383.93Z" transform="translate(-1426.722 -1357.111)" fill="#fefefe"/>
        <path id="Trazado_100541" data-name="Trazado 100541" d="M1450.92,1377.26l-1.145,7.244a.8.8,0,0,1-.3.2c-3.339,1.372-20.384.053-20.384.053s-2.538-24.529-2.365-24.875a5.507,5.507,0,0,1,1.637-.75C1429.862,1364.377,1435.956,1380.318,1450.92,1377.26Z" transform="translate(-1426.722 -1357.684)" fill="#ead6d0" opacity="0.32" style="isolation: isolate"/>
      </g>
      <g id="Grupo_54418" data-name="Grupo 54418" transform="translate(17.947)">
        <g id="Grupo_54406" data-name="Grupo 54406" transform="translate(14.644)">
          <path id="Trazado_100542" data-name="Trazado 100542" d="M1447.843,1305.535s-15.219,6.022-24.5,3.686a22.434,22.434,0,0,1,.016-3.635c.26-3.174,1.279-7.479,4.811-8.881a24.834,24.834,0,0,1,8.985-1.774c2.849.016,5.217.726,6.21,2.281A68.11,68.11,0,0,1,1447.843,1305.535Z" transform="translate(-1423.277 -1294.93)" fill="#c67e36"/>
          <path id="Trazado_100543" data-name="Trazado 100543" d="M1447.843,1305.536s-15.219,6.022-24.5,3.686a22.432,22.432,0,0,1,.016-3.635,69.016,69.016,0,0,1,17.137-3.194,29.328,29.328,0,0,0-3.341-7.458c2.849.017,5.217.726,6.21,2.281A68.117,68.117,0,0,1,1447.843,1305.536Z" transform="translate(-1423.277 -1294.931)" fill="#c67e36" opacity="0.28" style="isolation: isolate"/>
        </g>
        <g id="Grupo_54407" data-name="Grupo 54407" transform="translate(0 8.482)">
          <path id="Trazado_100544" data-name="Trazado 100544" d="M1458.432,1318.927c-1.922,6.081-12.521,11.889-25.891,13.734-15.4,2.115-28.663-1.844-29.625-8.839a5.9,5.9,0,0,1,.066-2.023c1.238-6.225,11.754-12.323,25.294-14.357,1,1.376,2.419,3.327,2.419,3.327l1.034-3.752c14.239-1.332,26.053,2.563,26.963,9.15A6.231,6.231,0,0,1,1458.432,1318.927Z" transform="translate(-1402.859 -1306.756)" fill="#c67e36"/>
          <path id="Trazado_100545" data-name="Trazado 100545" d="M1458.432,1321.91c-1.922,6.081-12.521,11.89-25.891,13.734-15.4,2.115-28.663-1.843-29.625-8.839a5.9,5.9,0,0,1,.066-2.023c3.11-2.4,9.769-5.551,23.909-7C1444.7,1315.957,1454.552,1319.811,1458.432,1321.91Z" transform="translate(-1402.859 -1309.739)" fill="#c67e36" opacity="0.28" style="isolation: isolate"/>
        </g>
        <g id="Grupo_54417" data-name="Grupo 54417" transform="translate(9.013 15.606)">
          <g id="Grupo_54415" data-name="Grupo 54415" transform="translate(0.293 0.387)">
            <path id="Trazado_100546" data-name="Trazado 100546" d="M1435.634,1342.957c-12.825.145-13.615-16.1-13.33-23.557,5.781-1.108,16.085-2.684,25.161-1.984C1448.221,1323.294,1449.684,1342.8,1435.634,1342.957Z" transform="translate(-1417.651 -1317.232)" fill="#e9a98b"/>
            <g id="Grupo_54409" data-name="Grupo 54409" transform="translate(29.154 3.114)">
              <path id="Trazado_100547" data-name="Trazado 100547" d="M1456.8,1323.184s2.918-3.161,4.974-.635,1.321,9.31-5.294,8.227Z" transform="translate(-1456.482 -1321.57)" fill="#e9a98b"/>
              <g id="Grupo_54408" data-name="Grupo 54408" transform="translate(1.84 1.968)">
                <path id="Trazado_100548" data-name="Trazado 100548" d="M1459.441,1329.319a.4.4,0,0,1-.1-.791,2.712,2.712,0,0,0,1.635-1.252,2.84,2.84,0,0,0-.214-2.436.4.4,0,0,1,.726-.337,3.58,3.58,0,0,1,.207,3.128,3.484,3.484,0,0,1-2.167,1.678A.349.349,0,0,1,1459.441,1329.319Z" transform="translate(-1459.048 -1324.313)" fill="#d3805f"/>
              </g>
            </g>
            <g id="Grupo_54411" data-name="Grupo 54411" transform="translate(0 4.636)">
              <path id="Trazado_100549" data-name="Trazado 100549" d="M1421.764,1325.236s-2.989-3.094-4.987-.524-1.111,9.337,5.478,8.105Z" transform="translate(-1415.834 -1323.692)" fill="#e9a98b"/>
              <g id="Grupo_54410" data-name="Grupo 54410" transform="translate(1.547 1.961)">
                <path id="Trazado_100550" data-name="Trazado 100550" d="M1420.582,1331.411a.4.4,0,0,0,.08-.792A2.712,2.712,0,0,1,1419,1329.4a2.838,2.838,0,0,1,.161-2.441.4.4,0,0,0-.737-.323,3.584,3.584,0,0,0-.136,3.132,3.483,3.483,0,0,0,2.2,1.629A.368.368,0,0,0,1420.582,1331.411Z" transform="translate(-1417.991 -1326.426)" fill="#d3805f"/>
              </g>
            </g>
            <path id="Trazado_100551" data-name="Trazado 100551" d="M1457.221,1321.6s-1.482.513-2.469-4.376l3.477.271S1458.454,1320.971,1457.221,1321.6Z" transform="translate(-1426.839 -1317.228)" fill="#7c520b"/>
            <path id="Trazado_100552" data-name="Trazado 100552" d="M1422.067,1323.929s1.495.479,2.369-4.432l-3.469.351S1420.818,1323.322,1422.067,1323.929Z" transform="translate(-1417.284 -1317.87)" fill="#7c520b"/>
            <g id="Grupo_54414" data-name="Grupo 54414" transform="translate(10.207 4.155)">
              <path id="Trazado_100553" data-name="Trazado 100553" d="M1449.485,1327.518h0a1.26,1.26,0,0,0-1.235,1.279l.028,1.64a1.263,1.263,0,0,0,1.28,1.235h0a1.259,1.259,0,0,0,1.234-1.28l-.028-1.639A1.258,1.258,0,0,0,1449.485,1327.518Z" transform="translate(-1435.208 -1324.293)" fill="#2e130f" fill-rule="evenodd"/>
              <path id="Trazado_100554" data-name="Trazado 100554" d="M1433.136,1327.733h0a1.26,1.26,0,0,0-1.235,1.278l.029,1.64a1.26,1.26,0,0,0,1.278,1.234h0a1.26,1.26,0,0,0,1.235-1.279l-.029-1.64A1.259,1.259,0,0,0,1433.136,1327.733Z" transform="translate(-1430.584 -1324.354)" fill="#2e130f" fill-rule="evenodd"/>
              <g id="Grupo_54412" data-name="Grupo 54412" transform="translate(0 8.169)">
                <path id="Trazado_100555" data-name="Trazado 100555" d="M1450.516,1334.412a1.889,1.889,0,1,0,.006,0Z" transform="translate(-1435.334 -1334.411)" fill="#e89777" fill-rule="evenodd"/>
                <path id="Trazado_100556" data-name="Trazado 100556" d="M1431.883,1334.669a1.855,1.855,0,1,0,1.893,1.826A1.856,1.856,0,0,0,1431.883,1334.669Z" transform="translate(-1430.066 -1334.484)" fill="#e89777" fill-rule="evenodd"/>
              </g>
              <g id="Grupo_54413" data-name="Grupo 54413" transform="translate(4.745 11.659)">
                <path id="Trazado_100557" data-name="Trazado 100557" d="M1436.682,1339.824a3.176,3.176,0,0,0,6.35.019h-.005a.552.552,0,0,0-.546-.55l-5.243-.016a.551.551,0,0,0-.551.546Z" transform="translate(-1436.682 -1339.277)" fill="#2e130f" fill-rule="evenodd"/>
                <path id="Trazado_100558" data-name="Trazado 100558" d="M1438.32,1343.117a3.176,3.176,0,0,0,3.67.235,1.974,1.974,0,0,0-1.812-1.177A2,2,0,0,0,1438.32,1343.117Z" transform="translate(-1437.145 -1340.095)" fill="#d64341" fill-rule="evenodd"/>
                <path id="Trazado_100559" data-name="Trazado 100559" d="M1442.91,1339.3l-4.927-.014a1.116,1.116,0,0,0,.536,1.217,14.044,14.044,0,0,0,4.266-.215A1.9,1.9,0,0,0,1442.91,1339.3Z" transform="translate(-1437.042 -1339.28)" fill="#fff" fill-rule="evenodd"/>
              </g>
              <path id="Trazado_100560" data-name="Trazado 100560" d="M1451.1,1324.15a.381.381,0,1,0,.316-.693,4.725,4.725,0,0,0-4.293.17.382.382,0,0,0,.415.64A3.942,3.942,0,0,1,1451.1,1324.15Z" transform="translate(-1434.843 -1323.022)" fill="#a35c1c" fill-rule="evenodd"/>
              <path id="Trazado_100561" data-name="Trazado 100561" d="M1430.876,1324.885a.381.381,0,0,1-.365-.668h0a4.721,4.721,0,0,1,4.293-.143.381.381,0,0,1-.367.668A3.949,3.949,0,0,0,1430.876,1324.885Z" transform="translate(-1430.136 -1323.193)" fill="#a35c1c" fill-rule="evenodd"/>
              <path id="Trazado_100562" data-name="Trazado 100562" d="M1441.354,1333.5s1.35.666,1.537,1.409-.57,1.174-1.338.846S1440.681,1333.144,1441.354,1333.5Z" transform="translate(-1433.131 -1325.973)" fill="#d38667" fill-rule="evenodd"/>
            </g>
          </g>
          <g id="Grupo_54416" data-name="Grupo 54416">
            <path id="Trazado_100563" data-name="Trazado 100563" d="M1415.819,1320.611a.4.4,0,0,1-.1-.791c.019-.005,1.789-.438,4.577-.968,5.474-1.049,16.038-2.7,25.267-1.99,1.538.118,2.984.3,4.29.526a.4.4,0,1,1-.062.8.38.38,0,0,1-.078-.014c-1.283-.227-2.7-.4-4.212-.517-9.14-.707-19.621.937-25.054,1.979-2.768.529-4.517.958-4.537.962A.479.479,0,0,1,1415.819,1320.611Z" transform="translate(-1415.425 -1316.688)" fill="#a35c1c"/>
          </g>
        </g>
      </g>
      <g id="Grupo_54427" data-name="Grupo 54427" transform="translate(13.606 44.861)">
        <g id="Grupo_54420" data-name="Grupo 54420" transform="translate(8.238)">
          <path id="Trazado_100564" data-name="Trazado 100564" d="M1455.423,1449.2c-1.192,12.469-2.586,32.645-2.586,32.645l-9.477.74-6.142.478s-2.535-31.912-2.157-51.249v-.1c.006-.12.013-.242.011-.354l-5.565-.17s-.007.12-.028.361v.065c-.316,4.056-2.816,36.394-3.7,49.363l-5.211.524-12.265,1.237s-.161-39.731.62-58.326,2.349-17.986,2.748-18.16,7.676-7.5,6.6-20.756c-.857-10.519-1.888-19.48-2.274-23.079-.107-.93-.161-1.5-.161-1.644-.008-.689,3.376-2.381,6.39-1.837a14.244,14.244,0,0,1,.4,2.074c.6,3.636,1.658,11.1,1.96,14.456.4,4.516.231,5.559,1.508,5.544s15.185.118,16.106-.061.713-1.461.78-2.794c.085-1.686.171-12.642.053-18.089a11.1,11.1,0,0,1,.067-2.577c.4-.126,5.974.269,6.331,1.309a16.109,16.109,0,0,1,.039,2.721c-.133,5.9-.432,20.067-.306,31.334a16.536,16.536,0,0,0,6.462,12.969S1456.615,1436.745,1455.423,1449.2Z" transform="translate(-1408.292 -1357.478)" fill="#324a6e"/>
          <g id="Grupo_54419" data-name="Grupo 54419" transform="translate(17.442 72.876)">
            <path id="Trazado_100565" data-name="Trazado 100565" d="M1448,1459.884a28.115,28.115,0,0,1-6.068.669h-.28c-1.918.022-3.791-.08-5.3-.2-1.6-.127-2.8-.273-3.226-.334l-.169-.021a.4.4,0,0,1-.344-.443l0-.011a.4.4,0,0,1,.453-.334c.087.007,9.2,1.261,14.741-.118a.409.409,0,0,1,.484.292A.418.418,0,0,1,1448,1459.884Z" transform="translate(-1432.61 -1459.086)" fill="#324a6e"/>
          </g>
          <path id="Trazado_100566" data-name="Trazado 100566" d="M1425.212,1359.488a14.234,14.234,0,0,1,.4,2.073,13.562,13.562,0,0,0-6.629,1.406c-.107-.929-.161-1.5-.161-1.644C1418.813,1360.636,1422.2,1358.944,1425.212,1359.488Z" transform="translate(-1411.27 -1358.016)" fill="#324a6e" opacity="0.37" style="isolation: isolate"/>
          <path id="Trazado_100567" data-name="Trazado 100567" d="M1463.16,1361.537a17.254,17.254,0,0,0-6.437-1.452,11.078,11.078,0,0,1,.067-2.577c.4-.126,5.974.269,6.331,1.309A16.254,16.254,0,0,1,1463.16,1361.537Z" transform="translate(-1421.974 -1357.48)" fill="#324a6e" opacity="0.37" style="isolation: isolate"/>
        </g>
        <path id="Trazado_100568" data-name="Trazado 100568" d="M1448.207,1511.633l-6.142.478s-2.535-31.912-2.158-51.248h-.28c-1.918.021-3.791-.081-5.3-.2-.316,4.057-2.816,36.393-3.7,49.363l-5.21.524,5.509-50.243.169.022c.418.043,1.622.161,3.227.268s3.581.185,5.58.161a29.99,29.99,0,0,0,6.068-.573Z" transform="translate(-1404.897 -1386.521)" fill="#579abf" opacity="0.32" style="isolation: isolate"/>
        <g id="Grupo_54423" data-name="Grupo 54423" transform="translate(0 122.749)">
          <g id="Grupo_54421" data-name="Grupo 54421" transform="translate(0 3.259)">
            <path id="Trazado_100569" data-name="Trazado 100569" d="M1424.39,1561.329l-27.505.31c-1.039-13.254,8.5-11.932,8.5-11.932s-.645-7.761-1.073-12.653c-.185-2.14-.331-3.727-.356-3.887l18.781.229.217,3.626Z" transform="translate(-1396.806 -1533.166)" fill="#b97b10"/>
            <path id="Trazado_100570" data-name="Trazado 100570" d="M1425.77,1537.021c-5.786.008-14.629.029-18.642.033-.184-2.14-.331-3.727-.356-3.887l18.781.229Z" transform="translate(-1399.624 -1533.166)" fill="#c67e36" opacity="0.32" style="isolation: isolate"/>
          </g>
          <g id="Grupo_54422" data-name="Grupo 54422" transform="translate(5.958 0)">
            <rect id="Rectángulo_5268" data-name="Rectángulo 5268" width="21.185" height="4.895" transform="matrix(1, -0.011, 0.011, 1, 0, 0.238)" fill="#247193"/>
            <rect id="Rectángulo_5269" data-name="Rectángulo 5269" width="5.954" height="4.895" transform="matrix(1, -0.011, 0.011, 1, 15.23, 0.067)" fill="#579abf" opacity="0.32" style="isolation: isolate"/>
          </g>
        </g>
        <g id="Grupo_54426" data-name="Grupo 54426" transform="translate(34.973 122.423)">
          <g id="Grupo_54424" data-name="Grupo 54424" transform="translate(0.036 3.048)">
            <path id="Trazado_100571" data-name="Trazado 100571" d="M1445.618,1561.033l27.5-.31c.741-13.274-8.768-11.738-8.768-11.738s.475-7.774.788-12.672c.136-2.145.247-3.735.27-3.9l-18.772.653-.135,3.629Z" transform="translate(-1445.618 -1532.417)" fill="#b97b10"/>
            <path id="Trazado_100572" data-name="Trazado 100572" d="M1446.859,1536.7c5.784-.122,14.626-.3,18.637-.387.136-2.144.247-3.734.27-3.895l-18.772.653Z" transform="translate(-1445.969 -1532.417)" fill="#c67e36" opacity="0.32" style="isolation: isolate"/>
          </g>
          <g id="Grupo_54425" data-name="Grupo 54425" transform="translate(0 0)">
            <rect id="Rectángulo_5270" data-name="Rectángulo 5270" width="21.177" height="4.895" transform="matrix(1, -0.011, 0.011, 1, 0, 0.238)" fill="#247193"/>
            <rect id="Rectángulo_5271" data-name="Rectángulo 5271" width="7.864" height="4.895" transform="matrix(1, -0.011, 0.011, 1, 0, 0.238)" fill="#579abf" opacity="0.32" style="isolation: isolate"/>
          </g>
        </g>
      </g>
      <path id="Trazado_101094" data-name="Trazado 101094" d="M1468.935,1379.92s12.443,9.313,30.749,3c0,0,20.919-6.212,26.793-21.79l-9.714-7.863s-16.868,27.494-43.356,8.5Z" transform="translate(-1403.596 -1311.427)" fill="#fefefe"/>
    </g>
  </g>
</svg>
