<svg id="Capa_1" data-name="Capa 1" xmlns="http://www.w3.org/2000/svg" viewBox="0 0 846.69 458.84"><defs><style>.cls-1{fill:#f9b645;}.cls-2{fill:#badb4c;}.cls-3{fill:#7c520b;}.cls-4{fill:#8ba439;}.cls-5{isolation:isolate;}.cls-6{fill:#12263f;}.cls-7{fill:#d47d08;}.cls-8{fill:#95af3d;}</style></defs><g id="Grupo_53907" data-name="Grupo 53907"><g id="Grupo_53735" data-name="Grupo 53735"><rect id="Rectángulo_5167" data-name="Rectángulo 5167" class="cls-1" x="26.56" width="764.89" height="52.06" rx="3.91"/><rect id="Rectángulo_5168" data-name="Rectángulo 5168" class="cls-1" x="138.1" y="160.88" width="196.53" height="71.11" rx="3.91"/><rect id="Rectángulo_5169" data-name="Rectángulo 5169" class="cls-2" x="558.53" y="225.75" width="288.16" height="99.86" rx="3.91"/><rect id="Rectángulo_5170" data-name="Rectángulo 5170" class="cls-1" x="138.1" y="270.9" width="196.53" height="67.86" rx="3.91"/><rect id="Rectángulo_5171" data-name="Rectángulo 5171" class="cls-1" x="138.1" y="390.98" width="196.53" height="67.86" rx="3.91"/><rect id="Rectángulo_5172" data-name="Rectángulo 5172" class="cls-1" y="390.98" width="117.92" height="67.86" rx="3.91"/><g id="Grupo_53724" data-name="Grupo 53724"><rect id="Rectángulo_5173" data-name="Rectángulo 5173" class="cls-3" x="78.05" y="52.06" width="1.53" height="330.05"/><g id="Grupo_53723" data-name="Grupo 53723"><path id="Trazado_100138" data-name="Trazado 100138" class="cls-3" d="M73.07,381.82a5.74,5.74,0,1,0,5.74-5.75A5.74,5.74,0,0,0,73.07,381.82Z"/></g></g><g id="Grupo_53726" data-name="Grupo 53726"><rect id="Rectángulo_5174" data-name="Rectángulo 5174" class="cls-3" x="230.83" y="52.99" width="1.53" height="102.43"/><g id="Grupo_53725" data-name="Grupo 53725"><path id="Trazado_100139" data-name="Trazado 100139" class="cls-3" d="M225.85,155.14a5.74,5.74,0,1,0,5.74-5.74h0A5.74,5.74,0,0,0,225.85,155.14Z"/></g></g><g id="Grupo_53728" data-name="Grupo 53728"><path id="Trazado_100140" data-name="Trazado 100140" class="cls-4" d="M703.37,214.35h-1.53V140.53l-293.6-.07V53h1.53v85.94l293.6.07Z"/><g id="Grupo_53727" data-name="Grupo 53727"><path id="Trazado_100141" data-name="Trazado 100141" class="cls-4" d="M696.87,214.06a5.74,5.74,0,1,0,5.74-5.74h0A5.74,5.74,0,0,0,696.87,214.06Z"/></g></g><g id="Grupo_53730" data-name="Grupo 53730"><rect id="Rectángulo_5175" data-name="Rectángulo 5175" class="cls-4" x="334.64" y="308.43" width="215.73" height="1.53" transform="translate(-3.07 4.44) rotate(-0.57)"/><g id="Grupo_53729" data-name="Grupo 53729"><path id="Trazado_100142" data-name="Trazado 100142" class="cls-4" d="M550.12,314a5.74,5.74,0,1,0-5.8-5.68,5.73,5.73,0,0,0,5.8,5.68Z"/></g></g><g id="Grupo_53732" data-name="Grupo 53732"><rect id="Rectángulo_5176" data-name="Rectángulo 5176" class="cls-3" x="230.83" y="231.99" width="1.53" height="33.45"/><g id="Grupo_53731" data-name="Grupo 53731"><path id="Trazado_100143" data-name="Trazado 100143" class="cls-3" d="M225.85,265.15a5.74,5.74,0,1,0,5.74-5.74h0A5.75,5.75,0,0,0,225.85,265.15Z"/></g></g><g id="Grupo_53734" data-name="Grupo 53734"><rect id="Rectángulo_5177" data-name="Rectángulo 5177" class="cls-3" x="230.83" y="338.95" width="1.53" height="46.57"/><g id="Grupo_53733" data-name="Grupo 53733"><path id="Trazado_100144" data-name="Trazado 100144" class="cls-3" d="M225.85,385.24a5.74,5.74,0,1,0,5.74-5.74h0A5.74,5.74,0,0,0,225.85,385.24Z"/></g></g></g><g id="What_are_the_two_mea" data-name="What are the two mea" class="cls-5"><g class="cls-5"><path class="cls-6" d="M179.06,25.85l2.26-7.49h2.28l-3.47,10H178l-3.46-10h2.28Z"/><path class="cls-6" d="M190.53,24h-3.94v2.67h4.62v1.65h-6.67v-10h6.66V20h-4.61V22.4h3.94Z"/><path class="cls-6" d="M196.1,24.67h-1.64v3.65h-2.05v-10h3.7a4.2,4.2,0,0,1,2.72.79,2.72,2.72,0,0,1,1,2.22,3.09,3.09,0,0,1-.44,1.7A3,3,0,0,1,198,24.15l2.15,4.07v.1H198ZM194.46,23h1.66a1.69,1.69,0,0,0,1.19-.39,1.37,1.37,0,0,0,.43-1.08,1.54,1.54,0,0,0-.4-1.11,1.67,1.67,0,0,0-1.23-.4h-1.65Z"/><path class="cls-6" d="M203.53,28.32h-2.05v-10h2.05Z"/><path class="cls-6" d="M211.42,24.25h-3.94v4.07h-2v-10h6.48V20h-4.43V22.6h3.94Z"/><path class="cls-6" d="M215.28,28.32h-2.05v-10h2.05Z"/><path class="cls-6" d="M225,25a3.53,3.53,0,0,1-1.18,2.53,4.16,4.16,0,0,1-2.82.92,3.76,3.76,0,0,1-3-1.28,5.25,5.25,0,0,1-1.1-3.54V23a6.08,6.08,0,0,1,.5-2.53,3.8,3.8,0,0,1,1.45-1.68,4,4,0,0,1,2.18-.58,4.09,4.09,0,0,1,2.78.92A3.81,3.81,0,0,1,225,21.74h-2a2.13,2.13,0,0,0-.54-1.4,2,2,0,0,0-1.41-.43,1.74,1.74,0,0,0-1.53.73,4.13,4.13,0,0,0-.52,2.28v.76a4.44,4.44,0,0,0,.48,2.35,1.72,1.72,0,0,0,1.55.75,2,2,0,0,0,1.41-.43,1.91,1.91,0,0,0,.54-1.35Z"/><path class="cls-6" d="M232,26.27h-3.6l-.68,2.05H225.5l3.7-10h1.9l3.73,10h-2.18Zm-3-1.66h2.48l-1.25-3.73Z"/><path class="cls-6" d="M243.57,25a3.53,3.53,0,0,1-1.18,2.53,4.16,4.16,0,0,1-2.82.92,3.76,3.76,0,0,1-3-1.28,5.25,5.25,0,0,1-1.1-3.54V23a6.08,6.08,0,0,1,.5-2.53,3.8,3.8,0,0,1,1.45-1.68,4,4,0,0,1,2.18-.58,4.09,4.09,0,0,1,2.78.92,3.81,3.81,0,0,1,1.22,2.59h-2.05a2.13,2.13,0,0,0-.54-1.4,2,2,0,0,0-1.41-.43,1.74,1.74,0,0,0-1.53.73,4.13,4.13,0,0,0-.52,2.28v.76A4.44,4.44,0,0,0,238,26a1.72,1.72,0,0,0,1.55.75,2,2,0,0,0,1.41-.43,1.91,1.91,0,0,0,.54-1.35Z"/><path class="cls-6" d="M247.1,28.32h-2v-10h2Z"/><path class="cls-6" d="M257.18,23.57a6,6,0,0,1-.52,2.57,4,4,0,0,1-1.49,1.71,4.42,4.42,0,0,1-4.43,0,4,4,0,0,1-1.5-1.7,5.68,5.68,0,0,1-.54-2.54v-.49a6.05,6.05,0,0,1,.53-2.59,3.92,3.92,0,0,1,1.5-1.71,4.37,4.37,0,0,1,4.42,0,4,4,0,0,1,1.5,1.71,6,6,0,0,1,.53,2.58Zm-2.08-.45a4.2,4.2,0,0,0-.56-2.38,2,2,0,0,0-3.2,0,4.12,4.12,0,0,0-.56,2.35v.49a4.18,4.18,0,0,0,.56,2.36,2,2,0,0,0,3.2,0,4.24,4.24,0,0,0,.56-2.36Zm-1.77-7.42h2.16l-1.9,2.12H252Z"/><path class="cls-6" d="M266.76,28.32h-2.05l-4-6.55v6.55h-2.05v-10h2.05l4,6.57V18.36h2Z"/><path class="cls-6" d="M274.22,28.32h-2.05v-10h2.05Z"/><path class="cls-6" d="M278.8,18.36l2.55,7.22,2.55-7.22h2.69v10h-2.06V25.6l.21-4.7-2.69,7.42h-1.41L278,20.91l.21,4.69v2.72h-2.05v-10Z"/><path class="cls-6" d="M290.43,24.81v3.51h-2.05v-10h3.88a4.58,4.58,0,0,1,2,.41,3.17,3.17,0,0,1,1.31,1.17,3.29,3.29,0,0,1,.45,1.72A2.86,2.86,0,0,1,295,24a4.18,4.18,0,0,1-2.77.84Zm0-1.66h1.83a1.85,1.85,0,0,0,1.25-.38,1.42,1.42,0,0,0,.42-1.1,1.63,1.63,0,0,0-.43-1.18,1.57,1.57,0,0,0-1.19-.46h-1.88Z"/><path class="cls-6" d="M299.46,26.67h4.36v1.65h-6.41v-10h2Z"/><path class="cls-6" d="M311,24H307v2.67h4.63v1.65H305v-10h6.66V20H307V22.4H311Z"/><path class="cls-6" d="M315.55,18.36l2.55,7.22,2.55-7.22h2.69v10h-2.06V25.6l.21-4.7-2.69,7.42h-1.41l-2.68-7.41.21,4.69v2.72h-2.05v-10Z"/><path class="cls-6" d="M331.12,24h-3.94v2.67h4.62v1.65h-6.67v-10h6.66V20h-4.61V22.4h3.94Z"/><path class="cls-6" d="M341.1,28.32h-2.05l-4-6.55v6.55H333v-10h2.05l4,6.57V18.36h2Z"/><path class="cls-6" d="M350.38,20h-3.05v8.29h-2.05V20h-3V18.36h8.1Z"/><path class="cls-6" d="M356.35,26.27h-3.59l-.69,2.05h-2.18l3.71-10h1.9l3.72,10H357Zm-3-1.66h2.49l-1.25-3.73Z"/><path class="cls-6" d="M368,25a3.54,3.54,0,0,1-1.19,2.53,4.13,4.13,0,0,1-2.82.92,3.76,3.76,0,0,1-3-1.28,5.3,5.3,0,0,1-1.1-3.54V23a5.92,5.92,0,0,1,.51-2.53,3.78,3.78,0,0,1,1.44-1.68,4.54,4.54,0,0,1,5,.34A3.81,3.81,0,0,1,368,21.74h-2.05a2.08,2.08,0,0,0-.54-1.4,2,2,0,0,0-1.4-.43,1.74,1.74,0,0,0-1.54.73,4.13,4.13,0,0,0-.52,2.28v.76a4.33,4.33,0,0,0,.49,2.35,1.7,1.7,0,0,0,1.54.75,2,2,0,0,0,1.42-.43,2,2,0,0,0,.54-1.35Z"/><path class="cls-6" d="M371.49,28.32h-2.05v-10h2.05Z"/><path class="cls-6" d="M381.57,23.57a5.9,5.9,0,0,1-.52,2.57,3.9,3.9,0,0,1-1.49,1.71,4.4,4.4,0,0,1-4.42,0,4,4,0,0,1-1.51-1.7,6,6,0,0,1-.54-2.54v-.49a6.05,6.05,0,0,1,.53-2.59,4,4,0,0,1,1.5-1.71,4.37,4.37,0,0,1,4.42,0,3.92,3.92,0,0,1,1.5,1.71,6,6,0,0,1,.53,2.58Zm-2.08-.45a4.2,4.2,0,0,0-.56-2.38,2,2,0,0,0-3.19,0,4.11,4.11,0,0,0-.57,2.35v.49a4.27,4.27,0,0,0,.56,2.36,2,2,0,0,0,3.2,0,4.15,4.15,0,0,0,.56-2.36Zm-1.76-7.42h2.15L378,17.82h-1.61Z"/><path class="cls-6" d="M391.15,28.32h-2l-4-6.55v6.55h-2.05v-10h2.05l4,6.57V18.36h2Z"/><path class="cls-6" d="M402.42,24h-3.94v2.67h4.62v1.65h-6.67v-10h6.66V20h-4.61V22.4h3.94Z"/><path class="cls-6" d="M410.29,24.25h-3.93v4.07h-2.05v-10h6.48V20h-4.43V22.6h3.93Z"/><path class="cls-6" d="M414.16,28.32h-2.05v-10h2.05Z"/><path class="cls-6" d="M423.87,25a3.5,3.5,0,0,1-1.19,2.53,4.13,4.13,0,0,1-2.82.92,3.77,3.77,0,0,1-3-1.28,5.3,5.3,0,0,1-1.09-3.54V23a5.92,5.92,0,0,1,.5-2.53,3.8,3.8,0,0,1,1.45-1.68,4,4,0,0,1,2.18-.58,4.09,4.09,0,0,1,2.78.92,3.8,3.8,0,0,1,1.21,2.59h-2.05a2.13,2.13,0,0,0-.53-1.4,2,2,0,0,0-1.41-.43,1.74,1.74,0,0,0-1.53.73,4.12,4.12,0,0,0-.53,2.28v.76a4.43,4.43,0,0,0,.49,2.35,1.71,1.71,0,0,0,1.54.75,1.7,1.7,0,0,0,2-1.78Z"/><path class="cls-6" d="M430.84,26.27h-3.6l-.68,2.05h-2.18l3.7-10H430l3.73,10h-2.18Zm-3-1.66h2.49L429,20.88Z"/><path class="cls-6" d="M436.81,26.67h5v1.65h-7.58V27.11L439.17,20h-4.92V18.36h7.47v1.18Z"/><path class="cls-6" d="M446.61,28.32v-10h3.06A4.62,4.62,0,0,1,452,19a4,4,0,0,1,1.61,1.68,5.13,5.13,0,0,1,.58,2.48v.45a5.2,5.2,0,0,1-.57,2.47A4.07,4.07,0,0,1,452,27.72a4.79,4.79,0,0,1-2.34.6ZM448.66,20v6.64h1a2.23,2.23,0,0,0,1.84-.79,3.56,3.56,0,0,0,.65-2.24v-.53a3.6,3.6,0,0,0-.63-2.3,2.22,2.22,0,0,0-1.84-.78Z"/><path class="cls-6" d="M461.69,24h-3.93v2.67h4.62v1.65h-6.67v-10h6.65V20h-4.6V22.4h3.93Z"/><path class="cls-6" d="M472.69,26.27h-3.6l-.68,2.05h-2.18l3.7-10h1.9l3.73,10h-2.18Zm-3.05-1.66h2.49l-1.25-3.73Z"/><path class="cls-6" d="M484.3,25a3.5,3.5,0,0,1-1.19,2.53,4.13,4.13,0,0,1-2.82.92,3.77,3.77,0,0,1-3-1.28,5.3,5.3,0,0,1-1.09-3.54V23a5.92,5.92,0,0,1,.5-2.53,3.8,3.8,0,0,1,1.45-1.68,4,4,0,0,1,2.18-.58,4.11,4.11,0,0,1,2.78.92,3.8,3.8,0,0,1,1.21,2.59h-2.05a2.13,2.13,0,0,0-.53-1.4,2,2,0,0,0-1.41-.43,1.74,1.74,0,0,0-1.53.73,4.12,4.12,0,0,0-.53,2.28v.76a4.43,4.43,0,0,0,.49,2.35,1.71,1.71,0,0,0,1.54.75,1.7,1.7,0,0,0,2-1.78Z"/><path class="cls-6" d="M493.46,25a3.5,3.5,0,0,1-1.19,2.53,4.13,4.13,0,0,1-2.82.92,3.77,3.77,0,0,1-3-1.28,5.3,5.3,0,0,1-1.09-3.54V23a5.92,5.92,0,0,1,.5-2.53,3.8,3.8,0,0,1,1.45-1.68,4,4,0,0,1,2.18-.58,4.11,4.11,0,0,1,2.78.92,3.8,3.8,0,0,1,1.21,2.59h-2.05a2.13,2.13,0,0,0-.53-1.4,2,2,0,0,0-1.41-.43,1.74,1.74,0,0,0-1.53.73,4.12,4.12,0,0,0-.53,2.28v.76a4.43,4.43,0,0,0,.49,2.35,1.71,1.71,0,0,0,1.54.75,1.7,1.7,0,0,0,2-1.78Z"/><path class="cls-6" d="M497,28.32h-2.05v-10H497Z"/><path class="cls-6" d="M507.06,23.57a5.9,5.9,0,0,1-.52,2.57,3.88,3.88,0,0,1-1.48,1.71,4.15,4.15,0,0,1-2.22.6,4.11,4.11,0,0,1-2.21-.59,3.89,3.89,0,0,1-1.5-1.7,5.68,5.68,0,0,1-.54-2.54v-.49a5.91,5.91,0,0,1,.53-2.59,4,4,0,0,1,1.49-1.71,4.39,4.39,0,0,1,4.43,0,4,4,0,0,1,1.49,1.71,5.89,5.89,0,0,1,.53,2.58ZM505,23.12a4.12,4.12,0,0,0-.57-2.38,1.8,1.8,0,0,0-1.59-.82,1.84,1.84,0,0,0-1.6.81,4.12,4.12,0,0,0-.56,2.35v.49a4.18,4.18,0,0,0,.56,2.36,1.81,1.81,0,0,0,1.61.84,1.78,1.78,0,0,0,1.58-.81A4.23,4.23,0,0,0,505,23.6Z"/><path class="cls-6" d="M516.65,28.32h-2l-4-6.55v6.55h-2.05v-10h2.05l4,6.57V18.36h2Z"/><path class="cls-6" d="M524.43,24h-3.94v2.67h4.62v1.65h-6.67v-10h6.66V20h-4.61V22.4h3.94Z"/><path class="cls-6" d="M531.47,25.71a1.05,1.05,0,0,0-.41-.9,5.54,5.54,0,0,0-1.47-.65,10.64,10.64,0,0,1-1.69-.68A2.77,2.77,0,0,1,526.2,21a2.42,2.42,0,0,1,.46-1.44,3,3,0,0,1,1.3-1,5.09,5.09,0,0,1,1.92-.35,4.6,4.6,0,0,1,1.9.38,3.07,3.07,0,0,1,1.29,1.09,2.85,2.85,0,0,1,.46,1.6h-2a1.33,1.33,0,0,0-.43-1.06,1.79,1.79,0,0,0-1.21-.38,1.91,1.91,0,0,0-1.17.32,1,1,0,0,0-.42.84,1,1,0,0,0,.49.81,5.91,5.91,0,0,0,1.44.62,6.16,6.16,0,0,1,2.55,1.3,2.58,2.58,0,0,1,.8,1.94,2.38,2.38,0,0,1-1,2,4.25,4.25,0,0,1-2.63.73,5.1,5.1,0,0,1-2.09-.42,3.28,3.28,0,0,1-1.44-1.15,2.92,2.92,0,0,1-.49-1.69H528c0,1.1.66,1.64,2,1.64a1.89,1.89,0,0,0,1.14-.29A1,1,0,0,0,531.47,25.71Z"/><path class="cls-6" d="M546.22,25A3.5,3.5,0,0,1,545,27.53a4.13,4.13,0,0,1-2.82.92,3.77,3.77,0,0,1-3-1.28,5.3,5.3,0,0,1-1.09-3.54V23a5.92,5.92,0,0,1,.5-2.53,3.8,3.8,0,0,1,1.45-1.68,4,4,0,0,1,2.18-.58,4.11,4.11,0,0,1,2.78.92,3.8,3.8,0,0,1,1.21,2.59h-2.05a2.13,2.13,0,0,0-.53-1.4,2,2,0,0,0-1.41-.43,1.74,1.74,0,0,0-1.53.73,4.12,4.12,0,0,0-.53,2.28v.76a4.43,4.43,0,0,0,.49,2.35,1.71,1.71,0,0,0,1.54.75,1.7,1.7,0,0,0,2-1.78Z"/><path class="cls-6" d="M555.74,23.57a5.9,5.9,0,0,1-.52,2.57,3.88,3.88,0,0,1-1.48,1.71,4.15,4.15,0,0,1-2.22.6,4.11,4.11,0,0,1-2.21-.59,3.89,3.89,0,0,1-1.5-1.7,5.68,5.68,0,0,1-.54-2.54v-.49a6,6,0,0,1,.52-2.59,4,4,0,0,1,1.5-1.71,4.37,4.37,0,0,1,4.42,0,3.92,3.92,0,0,1,1.5,1.71,5.89,5.89,0,0,1,.53,2.58Zm-2.08-.45a4.12,4.12,0,0,0-.56-2.38,1.8,1.8,0,0,0-1.6-.82,1.82,1.82,0,0,0-1.59.81,4.19,4.19,0,0,0-.57,2.35v.49a4.27,4.27,0,0,0,.56,2.36,1.84,1.84,0,0,0,1.62.84A1.79,1.79,0,0,0,553.1,26a4.15,4.15,0,0,0,.56-2.36Z"/><path class="cls-6" d="M560.92,24.67h-1.64v3.65h-2v-10h3.7a4.2,4.2,0,0,1,2.72.79,2.72,2.72,0,0,1,1,2.22,3.09,3.09,0,0,1-.44,1.7,3,3,0,0,1-1.34,1.08L565,28.22v.1h-2.2ZM559.28,23h1.66a1.69,1.69,0,0,0,1.19-.39,1.37,1.37,0,0,0,.43-1.08,1.54,1.54,0,0,0-.4-1.11,1.67,1.67,0,0,0-1.23-.4h-1.65Z"/><path class="cls-6" d="M569.85,24.67h-1.63v3.65h-2.05v-10h3.7a4.22,4.22,0,0,1,2.72.79,2.75,2.75,0,0,1,.95,2.22,3,3,0,0,1-.44,1.7,3,3,0,0,1-1.33,1.08l2.15,4.07v.1h-2.2ZM568.22,23h1.65a1.7,1.7,0,0,0,1.2-.39,1.4,1.4,0,0,0,.42-1.08,1.5,1.5,0,0,0-.4-1.11,1.63,1.63,0,0,0-1.22-.4h-1.65Z"/><path class="cls-6" d="M581.09,24h-3.94v2.67h4.62v1.65H575.1v-10h6.66V20h-4.61V22.4h3.94Z"/><path class="cls-6" d="M590.61,20h-3.05v8.29h-2V20h-3V18.36h8.11Z"/><path class="cls-6" d="M594,28.32H591.9v-10H594Z"/><path class="cls-6" d="M599.53,25.85l2.26-7.49h2.28l-3.46,10h-2.14l-3.46-10h2.28Z"/><path class="cls-6" d="M610.12,26.27h-3.6l-.68,2.05h-2.18l3.7-10h1.9l3.73,10h-2.18Zm-3-1.66h2.49l-1.25-3.73Z"/><path class="cls-6" d="M619.08,25.71a1.08,1.08,0,0,0-.41-.9,5.81,5.81,0,0,0-1.48-.65,11.05,11.05,0,0,1-1.69-.68A2.76,2.76,0,0,1,613.81,21a2.42,2.42,0,0,1,.45-1.44,3,3,0,0,1,1.31-1,5,5,0,0,1,1.91-.35,4.6,4.6,0,0,1,1.9.38,3,3,0,0,1,1.29,1.09,2.85,2.85,0,0,1,.46,1.6h-2a1.33,1.33,0,0,0-.43-1.06,1.77,1.77,0,0,0-1.21-.38,1.91,1.91,0,0,0-1.17.32,1,1,0,0,0-.41.84,1,1,0,0,0,.49.81,5.58,5.58,0,0,0,1.44.62,6.18,6.18,0,0,1,2.54,1.3,2.58,2.58,0,0,1,.8,1.94,2.4,2.4,0,0,1-1,2,4.29,4.29,0,0,1-2.63.73,5.11,5.11,0,0,1-2.1-.42A3.34,3.34,0,0,1,614,26.88a2.92,2.92,0,0,1-.49-1.69h2.06c0,1.1.65,1.64,2,1.64a1.93,1.93,0,0,0,1.14-.29A1,1,0,0,0,619.08,25.71Z"/></g></g><g id="What_are_the_two_mea-2" data-name="What are the two mea-2" class="cls-5"><g class="cls-5"><path class="cls-6" d="M174.37,186h-3.94v2.67h4.62v1.65h-6.67v-10H175V182h-4.61v2.37h3.94Z"/><path class="cls-6" d="M181.42,187.71a1.08,1.08,0,0,0-.41-.9,5.81,5.81,0,0,0-1.48-.65,10.64,10.64,0,0,1-1.69-.68,2.76,2.76,0,0,1-1.69-2.47,2.42,2.42,0,0,1,.45-1.44,3,3,0,0,1,1.31-1,5,5,0,0,1,1.91-.35,4.6,4.6,0,0,1,1.9.38A3.07,3.07,0,0,1,183,181.7a2.85,2.85,0,0,1,.46,1.6h-2.05a1.33,1.33,0,0,0-.43-1.06,1.77,1.77,0,0,0-1.21-.38,1.91,1.91,0,0,0-1.17.32,1,1,0,0,0-.41.84,1,1,0,0,0,.48.81,5.91,5.91,0,0,0,1.44.62,6.16,6.16,0,0,1,2.55,1.3,2.58,2.58,0,0,1,.8,1.94,2.4,2.4,0,0,1-1,2,4.31,4.31,0,0,1-2.64.73,5.1,5.1,0,0,1-2.09-.42,3.28,3.28,0,0,1-1.44-1.15,2.92,2.92,0,0,1-.49-1.69h2.06c0,1.1.65,1.64,2,1.64a1.94,1.94,0,0,0,1.15-.29A1,1,0,0,0,181.42,187.71Z"/><path class="cls-6" d="M192.35,182h-3v8.29h-2.05V182h-3v-1.67h8.1Z"/><path class="cls-6" d="M198.32,188.27h-3.59l-.69,2h-2.18l3.71-10h1.9l3.72,10H199Zm-3-1.66h2.49l-1.25-3.73Z"/><path class="cls-6" d="M202.12,190.32v-10h3.49a4.61,4.61,0,0,1,2.75.7,2.37,2.37,0,0,1,.93,2,2.25,2.25,0,0,1-.37,1.29,2.22,2.22,0,0,1-1,.82,2.13,2.13,0,0,1,1.21.77,2.31,2.31,0,0,1,.44,1.42,2.65,2.65,0,0,1-.92,2.18,4.14,4.14,0,0,1-2.61.75Zm2-5.79h1.52c1,0,1.55-.43,1.55-1.23a1.16,1.16,0,0,0-.39-1,2.06,2.06,0,0,0-1.24-.29h-1.44Zm0,1.45v2.69h1.76a1.69,1.69,0,0,0,1.13-.34,1.2,1.2,0,0,0,.41-1c0-.91-.47-1.37-1.42-1.39Z"/><path class="cls-6" d="M213.11,188.67h4.35v1.65h-6.4v-10h2.05Z"/><path class="cls-6" d="M224.63,186h-3.94v2.67h4.62v1.65h-6.67v-10h6.66V182h-4.61v2.37h3.94Z"/><path class="cls-6" d="M228.69,188.67h5v1.65h-7.58v-1.21L231,182h-4.91v-1.67h7.46v1.18Z"/><path class="cls-6" d="M242.81,187a3.5,3.5,0,0,1-1.19,2.53,4.13,4.13,0,0,1-2.82.92,3.77,3.77,0,0,1-3-1.28,5.3,5.3,0,0,1-1.09-3.54V185a5.92,5.92,0,0,1,.5-2.53,3.8,3.8,0,0,1,1.45-1.68,4,4,0,0,1,2.18-.58,4.11,4.11,0,0,1,2.78.92,3.8,3.8,0,0,1,1.21,2.59h-2a2.13,2.13,0,0,0-.53-1.4,2,2,0,0,0-1.41-.43,1.74,1.74,0,0,0-1.53.73,4.12,4.12,0,0,0-.53,2.28v.76a4.43,4.43,0,0,0,.49,2.35,1.71,1.71,0,0,0,1.54.75,1.7,1.7,0,0,0,2-1.78Z"/><path class="cls-6" d="M249.78,188.27h-3.6l-.68,2h-2.18l3.7-10h1.9l3.73,10h-2.18Zm-3.05-1.66h2.49L248,182.88Z"/><path class="cls-6" d="M264.6,180.36v6.56a3.35,3.35,0,0,1-1,2.58,3.9,3.9,0,0,1-2.79.95,4,4,0,0,1-2.77-.92,3.28,3.28,0,0,1-1-2.53v-6.64h2v6.57a1.87,1.87,0,0,0,.47,1.43,1.78,1.78,0,0,0,1.29.45c1.15,0,1.74-.61,1.76-1.82v-6.63Z"/><path class="cls-6" d="M274.37,190.32h-2.05l-4-6.55v6.55h-2.05v-10h2.05l4,6.57v-6.57h2Z"/><path class="cls-6" d="M281.78,188.27h-3.59l-.69,2h-2.18l3.71-10h1.9l3.72,10h-2.18Zm-3-1.66h2.49L280,182.88Z"/></g><g class="cls-5"><path class="cls-6" d="M189,211.32H187l-4-6.55v6.55h-2v-10h2l4,6.57v-6.57H189Z"/><path class="cls-6" d="M198.35,201.36v6.56a3.34,3.34,0,0,1-1,2.58,3.9,3.9,0,0,1-2.79.95,4,4,0,0,1-2.77-.92,3.29,3.29,0,0,1-1.05-2.53v-6.64h2.05v6.57a1.91,1.91,0,0,0,.47,1.43,1.8,1.8,0,0,0,1.3.45c1.15,0,1.74-.61,1.75-1.82v-6.63Z"/><path class="cls-6" d="M206,207h-3.94v2.67h4.63v1.65H200v-10h6.66V203h-4.61v2.37H206Z"/><path class="cls-6" d="M211.59,208.85l2.25-7.49h2.28l-3.46,10h-2.14l-3.45-10h2.27Z"/><path class="cls-6" d="M222.17,209.27h-3.6l-.68,2h-2.18l3.7-10h1.9l3.73,10h-2.18Zm-3-1.66h2.48l-1.25-3.73Z"/><path class="cls-6" d="M235.44,207.25h-3.93v4.07h-2v-10h6.48V203h-4.43v2.57h3.93Z"/><path class="cls-6" d="M243.11,207h-3.93v2.67h4.62v1.65h-6.68v-10h6.66V203h-4.6v2.37h3.93Z"/><path class="cls-6" d="M252.81,208a3.49,3.49,0,0,1-1.18,2.53,4.16,4.16,0,0,1-2.82.92,3.76,3.76,0,0,1-3-1.28,5.25,5.25,0,0,1-1.1-3.54V206a5.92,5.92,0,0,1,.51-2.53,3.72,3.72,0,0,1,1.44-1.68,4.54,4.54,0,0,1,5,.34,3.81,3.81,0,0,1,1.22,2.59h-2.05a2.08,2.08,0,0,0-.54-1.4,2,2,0,0,0-1.41-.43,1.74,1.74,0,0,0-1.53.73,4.13,4.13,0,0,0-.52,2.28v.76a4.33,4.33,0,0,0,.49,2.35,1.7,1.7,0,0,0,1.54.75,2,2,0,0,0,1.42-.43,2,2,0,0,0,.53-1.35Z"/><path class="cls-6" d="M262.26,211.32h-2.05v-4.27h-4v4.27h-2v-10h2v4h4v-4h2.05Z"/><path class="cls-6" d="M269.79,209.27H266.2l-.69,2h-2.18l3.71-10h1.9l3.73,10h-2.19Zm-3-1.66h2.49L268,203.88Z"/></g></g><g id="What_are_the_two_mea-3" data-name="What are the two mea-3" class="cls-5"><g class="cls-5"><path class="cls-7" d="M257.78,105.32h-1.9l-3.71-6.08v6.08h-1.9V96.08h1.9l3.72,6.09V96.08h1.89Z"/><path class="cls-7" d="M267,100.91a5.6,5.6,0,0,1-.48,2.39,3.91,3.91,0,0,1-5.49,1.59,3.6,3.6,0,0,1-1.4-1.58,5.31,5.31,0,0,1-.5-2.35v-.46a5.5,5.5,0,0,1,.49-2.4,3.7,3.7,0,0,1,1.39-1.6,4.11,4.11,0,0,1,4.11,0,3.7,3.7,0,0,1,1.39,1.6,5.63,5.63,0,0,1,.49,2.39Zm-1.93-.42a3.86,3.86,0,0,0-.52-2.21,1.84,1.84,0,0,0-3,0,3.87,3.87,0,0,0-.52,2.19v.45a3.9,3.9,0,0,0,.52,2.19,1.82,1.82,0,0,0,3,0,4,4,0,0,0,.52-2.19Z"/></g></g><g id="What_are_the_two_mea-4" data-name="What are the two mea-4" class="cls-5"><g class="cls-5"><path class="cls-8" d="M431.08,102.89a1,1,0,0,0-.38-.83,4.94,4.94,0,0,0-1.37-.6,10.23,10.23,0,0,1-1.57-.64,2.55,2.55,0,0,1-1.57-2.29,2.22,2.22,0,0,1,.42-1.33,2.72,2.72,0,0,1,1.21-.92A4.59,4.59,0,0,1,429.6,96a4.1,4.1,0,0,1,1.76.36,2.72,2.72,0,0,1,1.2,1,2.63,2.63,0,0,1,.43,1.49h-1.9a1.23,1.23,0,0,0-.4-1,1.62,1.62,0,0,0-1.12-.35,1.74,1.74,0,0,0-1.09.29.94.94,0,0,0-.39.78.87.87,0,0,0,.46.75,4.57,4.57,0,0,0,1.33.57,5.79,5.79,0,0,1,2.37,1.22,2.38,2.38,0,0,1,.74,1.8,2.22,2.22,0,0,1-.9,1.88,4,4,0,0,1-2.45.68,4.7,4.7,0,0,1-1.94-.39,3.07,3.07,0,0,1-1.34-1.07,2.76,2.76,0,0,1-.46-1.57h1.91q0,1.53,1.83,1.53a1.73,1.73,0,0,0,1.06-.28A.88.88,0,0,0,431.08,102.89Z"/><path class="cls-8" d="M436.31,105.32H434.4V96.08h1.91Z"/></g></g><g id="What_are_the_two_mea-5" data-name="What are the two mea-5" class="cls-5"><g class="cls-5"><path class="cls-8" d="M431.08,287.89a.94.94,0,0,0-.38-.82,4.62,4.62,0,0,0-1.37-.61,10.23,10.23,0,0,1-1.57-.64,2.55,2.55,0,0,1-1.57-2.29,2.22,2.22,0,0,1,.42-1.33,2.72,2.72,0,0,1,1.21-.92,4.59,4.59,0,0,1,1.78-.33,4.1,4.1,0,0,1,1.76.36,2.72,2.72,0,0,1,1.2,1,2.63,2.63,0,0,1,.43,1.49h-1.9a1.23,1.23,0,0,0-.4-1,1.62,1.62,0,0,0-1.12-.35,1.74,1.74,0,0,0-1.09.29.94.94,0,0,0-.39.78.87.87,0,0,0,.46.75,4.84,4.84,0,0,0,1.33.58,5.67,5.67,0,0,1,2.37,1.21,2.38,2.38,0,0,1,.74,1.8,2.22,2.22,0,0,1-.9,1.88,4,4,0,0,1-2.45.69,4.55,4.55,0,0,1-1.94-.4,3.13,3.13,0,0,1-1.34-1.06,2.82,2.82,0,0,1-.46-1.58h1.91q0,1.53,1.83,1.53a1.81,1.81,0,0,0,1.06-.27A.91.91,0,0,0,431.08,287.89Z"/><path class="cls-8" d="M436.31,290.32H434.4v-9.24h1.91Z"/></g></g><g id="What_are_the_two_mea-6" data-name="What are the two mea-6" class="cls-5"><g class="cls-5"><path class="cls-7" d="M267.78,366.32h-1.9l-3.71-6.08v6.08h-1.9v-9.24h1.9l3.72,6.09v-6.09h1.89Z"/><path class="cls-7" d="M277,361.91a5.6,5.6,0,0,1-.48,2.39,3.77,3.77,0,0,1-1.38,1.59,4.05,4.05,0,0,1-4.11,0,3.57,3.57,0,0,1-1.4-1.57,5.39,5.39,0,0,1-.5-2.36v-.46a5.5,5.5,0,0,1,.49-2.4,3.75,3.75,0,0,1,1.39-1.6,4.11,4.11,0,0,1,4.11,0,3.75,3.75,0,0,1,1.39,1.6,5.63,5.63,0,0,1,.49,2.39Zm-1.93-.42a3.86,3.86,0,0,0-.52-2.21,1.84,1.84,0,0,0-3,0,3.89,3.89,0,0,0-.52,2.19v.45a3.9,3.9,0,0,0,.52,2.19,1.82,1.82,0,0,0,3,0,4,4,0,0,0,.52-2.19Z"/></g></g><g id="What_are_the_two_mea-7" data-name="What are the two mea-7" class="cls-5"><g class="cls-5"><path class="cls-6" d="M589.9,265H586v2.67h4.62v1.65h-6.67v-9.95h6.66V261H586v2.37h3.94Z"/><path class="cls-6" d="M595.46,266.85l2.26-7.48H600l-3.47,9.95h-2.14l-3.45-9.95h2.28Z"/><path class="cls-6" d="M603.12,269.32h-2v-9.95h2Z"/><path class="cls-6" d="M605,269.32v-9.95h3.06a4.58,4.58,0,0,1,2.35.59,4,4,0,0,1,1.61,1.68,5.16,5.16,0,0,1,.58,2.48v.45a5.09,5.09,0,0,1-.57,2.47,4.11,4.11,0,0,1-1.6,1.68,4.85,4.85,0,0,1-2.35.6Zm2.05-8.29v6.64h1a2.23,2.23,0,0,0,1.84-.79,3.56,3.56,0,0,0,.65-2.24v-.53a3.6,3.6,0,0,0-.63-2.3,2.22,2.22,0,0,0-1.84-.78Z"/><path class="cls-6" d="M620.1,265h-3.93v2.67h4.62v1.65h-6.67v-9.95h6.65V261h-4.6v2.37h3.93Z"/><path class="cls-6" d="M630.08,269.32H628l-4-6.55v6.55h-2v-9.95h2l4,6.56v-6.56h2Z"/><path class="cls-6" d="M639.69,266a3.5,3.5,0,0,1-1.19,2.53,4.13,4.13,0,0,1-2.82.93,3.75,3.75,0,0,1-3-1.29,5.3,5.3,0,0,1-1.1-3.54V264a5.92,5.92,0,0,1,.51-2.53,3.8,3.8,0,0,1,1.45-1.68,4,4,0,0,1,2.18-.58,4.11,4.11,0,0,1,2.78.92,3.8,3.8,0,0,1,1.21,2.59h-2.05a2.13,2.13,0,0,0-.53-1.4,2,2,0,0,0-1.41-.43,1.76,1.76,0,0,0-1.53.73,4.12,4.12,0,0,0-.53,2.28v.76a4.49,4.49,0,0,0,.49,2.36,1.73,1.73,0,0,0,1.54.74,1.7,1.7,0,0,0,2-1.78Z"/><path class="cls-6" d="M643.22,269.32h-2.05v-9.95h2.05Z"/><path class="cls-6" d="M650.74,267.27h-3.6l-.68,2.05h-2.18l3.7-9.95h1.9l3.73,9.95h-2.18Zm-3-1.66h2.49l-1.25-3.73Z"/><path class="cls-6" d="M658,265.27a10.42,10.42,0,0,1,.42-3,7.89,7.89,0,0,1,1.23-2.5,4.57,4.57,0,0,1,1.76-1.52l.39,1.07a4.68,4.68,0,0,0-1.56,2.28,10.41,10.41,0,0,0-.56,3.61v.21a10.82,10.82,0,0,0,.55,3.63,4.82,4.82,0,0,0,1.57,2.31l-.39,1.05a4.67,4.67,0,0,1-1.73-1.47,7.89,7.89,0,0,1-1.23-2.44,10.58,10.58,0,0,1-.45-2.89Z"/><path class="cls-6" d="M664.74,262.73a2.45,2.45,0,0,1,2-.94c1.61,0,2.42.93,2.44,2.79v4.74h-2v-4.68a1.37,1.37,0,0,0-.28-.94,1.14,1.14,0,0,0-.91-.31,1.35,1.35,0,0,0-1.25.67v5.26h-2v-10.5h2Z"/><path class="cls-6" d="M674.05,269.46a3.65,3.65,0,0,1-2.65-1,3.56,3.56,0,0,1-1-2.66v-.19a4.45,4.45,0,0,1,.43-2,3.13,3.13,0,0,1,1.22-1.35,3.36,3.36,0,0,1,1.8-.47,3.06,3.06,0,0,1,2.39.95,3.92,3.92,0,0,1,.87,2.72v.8h-4.71a1.75,1.75,0,0,0,.58,1.16,1.7,1.7,0,0,0,1.22.44A2.13,2.13,0,0,0,676,267l1,1.08a3,3,0,0,1-1.2,1A3.9,3.9,0,0,1,674.05,269.46Zm-.23-6.08a1.21,1.21,0,0,0-1,.4,2,2,0,0,0-.47,1.14h2.75v-.16a1.47,1.47,0,0,0-.36-1A1.28,1.28,0,0,0,673.82,263.38Z"/><path class="cls-6" d="M681.29,267.86a1.27,1.27,0,0,0,.88-.3,1.06,1.06,0,0,0,.36-.8h1.85a2.51,2.51,0,0,1-.41,1.38,2.66,2.66,0,0,1-1.1,1,3.49,3.49,0,0,1-1.55.35,3.21,3.21,0,0,1-2.5-1,4,4,0,0,1-.92-2.79v-.13a4,4,0,0,1,.91-2.73,3.18,3.18,0,0,1,2.5-1,3.13,3.13,0,0,1,2.22.78,2.81,2.81,0,0,1,.85,2.11h-1.85a1.35,1.35,0,0,0-.36-.94,1.16,1.16,0,0,0-.9-.36,1.19,1.19,0,0,0-1,.5,2.88,2.88,0,0,0-.35,1.63v.21a2.87,2.87,0,0,0,.35,1.64A1.18,1.18,0,0,0,681.29,267.86Z"/><path class="cls-6" d="M687.44,262.73a2.45,2.45,0,0,1,2-.94c1.61,0,2.42.93,2.44,2.79v4.74h-2v-4.68a1.37,1.37,0,0,0-.27-.94,1.17,1.17,0,0,0-.91-.31,1.36,1.36,0,0,0-1.26.67v5.26h-2v-10.5h2Z"/><path class="cls-6" d="M693,265.55a4.41,4.41,0,0,1,.42-2,3.08,3.08,0,0,1,1.22-1.33,3.51,3.51,0,0,1,1.85-.47,3.35,3.35,0,0,1,2.44.91,3.63,3.63,0,0,1,1.06,2.49v.51a3.85,3.85,0,0,1-.95,2.73,3.67,3.67,0,0,1-5.1,0,3.9,3.9,0,0,1-1-2.79Zm2,.14a2.72,2.72,0,0,0,.4,1.61,1.42,1.42,0,0,0,2.25,0,3,3,0,0,0,.41-1.76,2.72,2.72,0,0,0-.41-1.6,1.4,1.4,0,0,0-2.25,0A3,3,0,0,0,695,265.69Z"/><path class="cls-6" d="M705.27,267.27a.64.64,0,0,0-.36-.57,4.17,4.17,0,0,0-1.15-.37c-1.76-.37-2.64-1.12-2.64-2.24a2,2,0,0,1,.81-1.64,3.26,3.26,0,0,1,2.14-.66,3.54,3.54,0,0,1,2.25.66,2.09,2.09,0,0,1,.85,1.72h-2a1,1,0,0,0-.27-.7,1.43,1.43,0,0,0-1.63-.05.71.71,0,0,0-.27.57.6.6,0,0,0,.31.53,3.08,3.08,0,0,0,1,.35,9.43,9.43,0,0,1,1.24.33,2.05,2.05,0,0,1,1.57,2,1.93,1.93,0,0,1-.87,1.64,3.73,3.73,0,0,1-2.24.63,3.92,3.92,0,0,1-1.65-.34,2.8,2.8,0,0,1-1.14-.91,2.12,2.12,0,0,1-.41-1.24h1.88a1,1,0,0,0,.39.8,1.51,1.51,0,0,0,1,.28,1.48,1.48,0,0,0,.86-.21A.68.68,0,0,0,705.27,267.27Z"/><path class="cls-6" d="M711.86,265.43a10.12,10.12,0,0,1-.44,3,8,8,0,0,1-1.28,2.52,4.63,4.63,0,0,1-1.78,1.51l-.39-1.05a4.73,4.73,0,0,0,1.53-2.25,10.48,10.48,0,0,0,.59-3.51v-.36a10.67,10.67,0,0,0-.56-3.6,5,5,0,0,0-1.56-2.34l.39-1.05a4.66,4.66,0,0,1,1.75,1.46,8.14,8.14,0,0,1,1.28,2.47,9.86,9.86,0,0,1,.47,2.92Z"/><path class="cls-6" d="M724.82,266a3.49,3.49,0,0,1-1.18,2.53,4.17,4.17,0,0,1-2.82.93,3.73,3.73,0,0,1-3-1.29,5.3,5.3,0,0,1-1.1-3.54V264a6.08,6.08,0,0,1,.5-2.53,3.86,3.86,0,0,1,1.45-1.68,4.54,4.54,0,0,1,5,.34,3.81,3.81,0,0,1,1.22,2.59h-2.05a2.08,2.08,0,0,0-.54-1.4,2,2,0,0,0-1.4-.43,1.76,1.76,0,0,0-1.54.73,4.13,4.13,0,0,0-.52,2.28v.76a4.39,4.39,0,0,0,.49,2.36,1.71,1.71,0,0,0,1.54.74,2,2,0,0,0,1.42-.43,2,2,0,0,0,.53-1.35Z"/><path class="cls-6" d="M728.35,269.32H726.3v-9.95h2.05Z"/><path class="cls-6" d="M736.24,265H732.3v2.67h4.62v1.65h-6.67v-9.95h6.66V261H732.3v2.37h3.94Z"/><path class="cls-6" d="M741.81,265.67h-1.63v3.65h-2v-9.95h3.69a4.18,4.18,0,0,1,2.72.78,2.72,2.72,0,0,1,1,2.22,3,3,0,0,1-.44,1.7,3,3,0,0,1-1.34,1.09l2.16,4.06v.1h-2.2ZM740.18,264h1.65a1.7,1.7,0,0,0,1.2-.39,1.4,1.4,0,0,0,.42-1.08,1.5,1.5,0,0,0-.4-1.11,1.64,1.64,0,0,0-1.23-.4h-1.64Z"/><path class="cls-6" d="M750.75,265.67h-1.64v3.65h-2.05v-9.95h3.7a4.2,4.2,0,0,1,2.72.78,2.72,2.72,0,0,1,1,2.22,3.09,3.09,0,0,1-.44,1.7,3,3,0,0,1-1.34,1.09l2.15,4.06v.1h-2.2ZM749.11,264h1.66a1.69,1.69,0,0,0,1.19-.39,1.37,1.37,0,0,0,.43-1.08,1.54,1.54,0,0,0-.4-1.11,1.67,1.67,0,0,0-1.23-.4h-1.65Z"/><path class="cls-6" d="M762,265h-3.93v2.67h4.62v1.65H756v-9.95h6.65V261h-4.6v2.37H762Z"/><path class="cls-6" d="M773.35,265h-3.94v2.67H774v1.65h-6.67v-9.95H774V261h-4.61v2.37h3.94Z"/><path class="cls-6" d="M783.33,269.32h-2.05l-4-6.55v6.55h-2v-9.95h2l4,6.56v-6.56h2.05Z"/><path class="cls-6" d="M794.59,265h-3.94v2.67h4.63v1.65H788.6v-9.95h6.66V261h-4.61v2.37h3.94Z"/><path class="cls-6" d="M798.53,267.67h4.35v1.65h-6.4v-9.95h2Z"/></g><g class="cls-5"><path class="cls-6" d="M594.42,286.67h-1.64v3.65h-2v-9.95h3.7a4.22,4.22,0,0,1,2.72.78,2.72,2.72,0,0,1,1,2.22,3.09,3.09,0,0,1-.44,1.7,3,3,0,0,1-1.34,1.09l2.15,4.06v.1h-2.2ZM592.78,285h1.66a1.69,1.69,0,0,0,1.19-.39,1.37,1.37,0,0,0,.43-1.08,1.54,1.54,0,0,0-.4-1.11,1.67,1.67,0,0,0-1.23-.4h-1.65Z"/><path class="cls-6" d="M605.65,286h-3.93v2.67h4.62v1.65h-6.67v-9.95h6.65V282h-4.6v2.37h3.93Z"/><path class="cls-6" d="M609.59,286.81v3.51h-2.05v-9.95h3.88a4.44,4.44,0,0,1,2,.41,3,3,0,0,1,1.3,1.16,3.21,3.21,0,0,1,.46,1.72,2.86,2.86,0,0,1-1,2.31,4.18,4.18,0,0,1-2.77.84Zm0-1.66h1.83a1.8,1.8,0,0,0,1.24-.38,1.39,1.39,0,0,0,.43-1.1,1.63,1.63,0,0,0-.43-1.18,1.61,1.61,0,0,0-1.19-.46h-1.88Z"/><path class="cls-6" d="M624.75,285.57a6,6,0,0,1-.52,2.57,4,4,0,0,1-1.49,1.71,4.36,4.36,0,0,1-4.43,0,4,4,0,0,1-1.5-1.7,5.68,5.68,0,0,1-.54-2.54v-.49a6.05,6.05,0,0,1,.53-2.59,3.92,3.92,0,0,1,1.5-1.71,4.37,4.37,0,0,1,4.42,0,4,4,0,0,1,1.5,1.71,6,6,0,0,1,.53,2.58Zm-2.08-.45a4.2,4.2,0,0,0-.56-2.38,1.85,1.85,0,0,0-1.6-.82,1.81,1.81,0,0,0-1.59.81,4,4,0,0,0-.57,2.35v.49a4.27,4.27,0,0,0,.56,2.36,2,2,0,0,0,3.2,0,4.24,4.24,0,0,0,.56-2.36Z"/><path class="cls-6" d="M629.92,286.67h-1.63v3.65h-2v-9.95h3.69a4.23,4.23,0,0,1,2.73.78,2.75,2.75,0,0,1,1,2.22,3,3,0,0,1-.44,1.7,3,3,0,0,1-1.34,1.09l2.16,4.06v.1h-2.2ZM628.29,285h1.65a1.7,1.7,0,0,0,1.2-.39,1.4,1.4,0,0,0,.42-1.08,1.5,1.5,0,0,0-.4-1.11,1.64,1.64,0,0,0-1.23-.4h-1.64Z"/><path class="cls-6" d="M642.32,282h-3.05v8.29h-2V282h-3v-1.66h8.11Z"/><path class="cls-6" d="M649.48,286h-3.94v2.67h4.62v1.65h-6.67v-9.95h6.66V282h-4.61v2.37h3.94Z"/><path class="cls-6" d="M654.85,290.32v-9.95h3.06a4.58,4.58,0,0,1,2.35.59,4.1,4.1,0,0,1,1.62,1.68,5.16,5.16,0,0,1,.58,2.48v.45a5.2,5.2,0,0,1-.57,2.47,4.14,4.14,0,0,1-1.61,1.68,4.8,4.8,0,0,1-2.35.6Zm2-8.29v6.64h1a2.2,2.2,0,0,0,1.84-.79,3.5,3.5,0,0,0,.65-2.24v-.53a3.6,3.6,0,0,0-.63-2.3,2.22,2.22,0,0,0-1.84-.78Z"/><path class="cls-6" d="M669.94,286H666v2.67h4.62v1.65H664v-9.95h6.66V282H666v2.37h3.94Z"/><path class="cls-6" d="M683.41,290.32h-2.06l-4-6.55v6.55h-2.05v-9.95h2.05l4,6.56v-6.56h2Z"/><path class="cls-6" d="M693.37,285.57a5.9,5.9,0,0,1-.52,2.57,3.88,3.88,0,0,1-1.48,1.71,4.16,4.16,0,0,1-2.22.61,4.11,4.11,0,0,1-2.21-.6,3.89,3.89,0,0,1-1.5-1.7,5.68,5.68,0,0,1-.54-2.54v-.49a5.91,5.91,0,0,1,.53-2.59,4,4,0,0,1,1.49-1.71,4.39,4.39,0,0,1,4.43,0,4,4,0,0,1,1.49,1.71,5.89,5.89,0,0,1,.53,2.58Zm-2.08-.45a4.12,4.12,0,0,0-.56-2.38,2,2,0,0,0-3.19,0,4.19,4.19,0,0,0-.57,2.35v.49a4.27,4.27,0,0,0,.56,2.36,1.84,1.84,0,0,0,1.62.84,1.79,1.79,0,0,0,1.58-.81,4.15,4.15,0,0,0,.56-2.36Z"/><path class="cls-6" d="M706.16,287a3.53,3.53,0,0,1-1.18,2.53,4.17,4.17,0,0,1-2.82.93,3.73,3.73,0,0,1-3-1.29,5.25,5.25,0,0,1-1.1-3.54V285a6.08,6.08,0,0,1,.5-2.53,3.8,3.8,0,0,1,1.45-1.68,4,4,0,0,1,2.18-.58,4.09,4.09,0,0,1,2.78.92,3.81,3.81,0,0,1,1.22,2.59h-2.06a2,2,0,0,0-.53-1.4,2,2,0,0,0-1.41-.43,1.76,1.76,0,0,0-1.53.73,4.13,4.13,0,0,0-.52,2.28v.76a4.39,4.39,0,0,0,.49,2.36,1.71,1.71,0,0,0,1.54.74,2,2,0,0,0,1.42-.43,2,2,0,0,0,.53-1.35Z"/><path class="cls-6" d="M715.68,285.57a6,6,0,0,1-.51,2.57,4,4,0,0,1-1.49,1.71,4.36,4.36,0,0,1-4.43,0,4,4,0,0,1-1.5-1.7,5.68,5.68,0,0,1-.54-2.54v-.49a5.91,5.91,0,0,1,.53-2.59,3.92,3.92,0,0,1,1.5-1.71,4.37,4.37,0,0,1,4.42,0,4,4,0,0,1,1.5,1.71,6,6,0,0,1,.52,2.58Zm-2.07-.45a4.2,4.2,0,0,0-.56-2.38,2,2,0,0,0-3.2,0,4.12,4.12,0,0,0-.56,2.35v.49a4.18,4.18,0,0,0,.56,2.36,2,2,0,0,0,3.2,0,4.24,4.24,0,0,0,.56-2.36Z"/><path class="cls-6" d="M725.27,290.32h-2l-4-6.55v6.55h-2.06v-9.95h2.06l4,6.56v-6.56h2Z"/><path class="cls-6" d="M733.05,286.25h-3.94v4.07h-2.05v-9.95h6.48V282h-4.43v2.57h3.94Z"/><path class="cls-6" d="M742.91,285.57a6,6,0,0,1-.52,2.57,4,4,0,0,1-1.49,1.71,4.36,4.36,0,0,1-4.43,0,4,4,0,0,1-1.5-1.7,5.68,5.68,0,0,1-.54-2.54v-.49a6.05,6.05,0,0,1,.53-2.59,3.92,3.92,0,0,1,1.5-1.71,4.37,4.37,0,0,1,4.42,0,4,4,0,0,1,1.5,1.71,6,6,0,0,1,.53,2.58Zm-2.08-.45a4.2,4.2,0,0,0-.56-2.38,2,2,0,0,0-3.2,0,4.12,4.12,0,0,0-.56,2.35v.49a4.18,4.18,0,0,0,.56,2.36,2,2,0,0,0,3.2,0,4.24,4.24,0,0,0,.56-2.36Z"/><path class="cls-6" d="M748.08,286.67h-1.63v3.65H744.4v-9.95h3.69a4.18,4.18,0,0,1,2.72.78,2.72,2.72,0,0,1,1,2.22,3.09,3.09,0,0,1-.44,1.7,3,3,0,0,1-1.34,1.09l2.16,4.06v.1H750ZM746.45,285h1.65a1.72,1.72,0,0,0,1.2-.39,1.4,1.4,0,0,0,.42-1.08,1.5,1.5,0,0,0-.4-1.11,1.66,1.66,0,0,0-1.23-.4h-1.64Z"/><path class="cls-6" d="M756,280.37l2.56,7.21,2.54-7.21h2.69v9.95h-2V287.6l.2-4.7-2.69,7.42h-1.4l-2.68-7.41.2,4.69v2.72h-2v-9.95Z"/><path class="cls-6" d="M767.77,290.32h-2v-9.95h2Z"/><path class="cls-6" d="M769.67,290.32v-9.95h3.07a4.61,4.61,0,0,1,2.35.59,4,4,0,0,1,1.61,1.68,5.16,5.16,0,0,1,.58,2.48v.45a5.2,5.2,0,0,1-.57,2.47,4.07,4.07,0,0,1-1.61,1.68,4.79,4.79,0,0,1-2.34.6Zm2.06-8.29v6.64h1a2.23,2.23,0,0,0,1.84-.79,3.56,3.56,0,0,0,.65-2.24v-.53a3.6,3.6,0,0,0-.63-2.3,2.23,2.23,0,0,0-1.84-.78Z"/><path class="cls-6" d="M784.39,288.27H780.8l-.69,2.05h-2.18l3.71-9.95h1.9l3.72,9.95h-2.18Zm-3-1.66h2.49l-1.25-3.73Z"/><path class="cls-6" d="M788.19,290.32v-9.95h3.07a4.57,4.57,0,0,1,2.34.59,4.1,4.1,0,0,1,1.62,1.68,5.16,5.16,0,0,1,.58,2.48v.45a5.2,5.2,0,0,1-.57,2.47,4.14,4.14,0,0,1-1.61,1.68,4.79,4.79,0,0,1-2.34.6Zm2-8.29v6.64h1a2.19,2.19,0,0,0,1.83-.79,3.5,3.5,0,0,0,.65-2.24v-.53a3.6,3.6,0,0,0-.63-2.3,2.2,2.2,0,0,0-1.83-.78Z"/></g></g><g id="What_are_the_two_mea-8" data-name="What are the two mea-8" class="cls-5"><g class="cls-5"><path class="cls-6" d="M184.57,296.85l2.26-7.48h2.28l-3.47,9.95H183.5l-3.45-9.95h2.28Z"/><path class="cls-6" d="M196,295H192.1v2.67h4.62v1.65h-6.67v-9.95h6.65V291h-4.6v2.37H196Z"/><path class="cls-6" d="M201.61,295.67H200v3.65h-2.05v-9.95h3.7a4.22,4.22,0,0,1,2.72.78,2.72,2.72,0,0,1,1,2.22,3.09,3.09,0,0,1-.44,1.7,3,3,0,0,1-1.34,1.09l2.15,4.06v.1h-2.2ZM200,294h1.66a1.69,1.69,0,0,0,1.19-.39,1.41,1.41,0,0,0,.43-1.08,1.54,1.54,0,0,0-.4-1.11,1.67,1.67,0,0,0-1.23-.4H200Z"/><path class="cls-6" d="M209,299.32h-2v-9.95h2Z"/><path class="cls-6" d="M216.92,295.25H213v4.07h-2.05v-9.95h6.48V291H213v2.57h3.93Z"/><path class="cls-6" d="M220.79,299.32h-2v-9.95h2Z"/><path class="cls-6" d="M230.85,294.57a6,6,0,0,1-.45,2.42,4.12,4.12,0,0,1-1.25,1.65l1.65,1.3-1.3,1.16-2.12-1.71a4.67,4.67,0,0,1-.76.07,4.08,4.08,0,0,1-2.2-.6,4,4,0,0,1-1.51-1.7,6,6,0,0,1-.54-2.54v-.49a6.05,6.05,0,0,1,.53-2.59,4,4,0,0,1,1.5-1.71,4.37,4.37,0,0,1,4.42,0,3.92,3.92,0,0,1,1.5,1.71,6,6,0,0,1,.53,2.58Zm-2.08-.45a4.2,4.2,0,0,0-.56-2.38,1.84,1.84,0,0,0-1.6-.82,1.81,1.81,0,0,0-1.59.81,4.19,4.19,0,0,0-.57,2.35v.49a4.27,4.27,0,0,0,.56,2.36,2,2,0,0,0,3.2,0,4.15,4.15,0,0,0,.56-2.36Z"/><path class="cls-6" d="M239.89,289.37v6.55a3.32,3.32,0,0,1-1,2.58,3.91,3.91,0,0,1-2.79,1,4,4,0,0,1-2.77-.93,3.28,3.28,0,0,1-1-2.53v-6.63h2.05v6.56a1.87,1.87,0,0,0,.47,1.43,1.78,1.78,0,0,0,1.29.45c1.16,0,1.74-.61,1.76-1.82v-6.62Z"/><path class="cls-6" d="M247.56,295h-3.94v2.67h4.62v1.65h-6.67v-9.95h6.66V291h-4.61v2.37h3.94Z"/><path class="cls-6" d="M252.93,299.32v-9.95H256a4.58,4.58,0,0,1,2.35.59,4.1,4.1,0,0,1,1.62,1.68,5.28,5.28,0,0,1,.58,2.48v.45A5.2,5.2,0,0,1,260,297a4.14,4.14,0,0,1-1.61,1.68,4.85,4.85,0,0,1-2.35.6Zm2-8.29v6.64h1a2.21,2.21,0,0,0,1.84-.79,3.56,3.56,0,0,0,.65-2.24v-.53a3.6,3.6,0,0,0-.63-2.3A2.22,2.22,0,0,0,256,291Z"/><path class="cls-6" d="M268,295h-3.94v2.67h4.62v1.65H262v-9.95h6.66V291h-4.61v2.37H268Z"/></g><g class="cls-5"><path class="cls-6" d="M212.58,320.32h-2.05l-4-6.55v6.55h-2v-9.95h2l4,6.56v-6.56h2Z"/><path class="cls-6" d="M221.9,310.37v6.55a3.34,3.34,0,0,1-1,2.58,3.91,3.91,0,0,1-2.79,1,4,4,0,0,1-2.77-.93,3.28,3.28,0,0,1-1-2.53v-6.63h2.05v6.56a1.91,1.91,0,0,0,.46,1.43,1.82,1.82,0,0,0,1.3.45c1.15,0,1.74-.61,1.76-1.82v-6.62Z"/><path class="cls-6" d="M229.57,316h-3.93v2.67h4.62v1.65h-6.67v-9.95h6.65V312h-4.6v2.37h3.93Z"/><path class="cls-6" d="M235.14,317.85l2.26-7.48h2.28l-3.47,9.95h-2.14l-3.45-9.95h2.28Z"/><path class="cls-6" d="M248.7,315.57a5.9,5.9,0,0,1-.52,2.57,3.88,3.88,0,0,1-1.48,1.71,4.16,4.16,0,0,1-2.22.61,4.11,4.11,0,0,1-2.21-.6,3.89,3.89,0,0,1-1.5-1.7,5.68,5.68,0,0,1-.54-2.54v-.49a6,6,0,0,1,.52-2.59,4,4,0,0,1,1.5-1.71,4.37,4.37,0,0,1,4.42,0,3.92,3.92,0,0,1,1.5,1.71,6,6,0,0,1,.53,2.58Zm-2.08-.45a4.12,4.12,0,0,0-.56-2.38,2,2,0,0,0-3.19,0,4.19,4.19,0,0,0-.57,2.35v.49a4.27,4.27,0,0,0,.56,2.36,1.84,1.84,0,0,0,1.62.84,1.79,1.79,0,0,0,1.58-.81,4.15,4.15,0,0,0,.56-2.36Z"/></g></g><g id="What_are_the_two_mea-9" data-name="What are the two mea-9" class="cls-5"><g class="cls-5"><path class="cls-6" d="M210,426h-3.94v2.67h4.62v1.65H204v-9.95h6.66V422h-4.61v2.37H210Z"/><path class="cls-6" d="M217.05,427.71a1.08,1.08,0,0,0-.41-.9,5.81,5.81,0,0,0-1.48-.65,11.05,11.05,0,0,1-1.69-.68,2.76,2.76,0,0,1-1.69-2.47,2.42,2.42,0,0,1,.45-1.44,3,3,0,0,1,1.31-1,5,5,0,0,1,1.91-.35,4.45,4.45,0,0,1,1.9.39,3,3,0,0,1,1.29,1.09,2.8,2.8,0,0,1,.47,1.59h-2.06a1.33,1.33,0,0,0-.43-1.06,1.77,1.77,0,0,0-1.21-.38,1.86,1.86,0,0,0-1.16.32,1,1,0,0,0-.42.84,1,1,0,0,0,.49.81,5.58,5.58,0,0,0,1.44.62,6.29,6.29,0,0,1,2.55,1.3,2.62,2.62,0,0,1,.8,1.94,2.41,2.41,0,0,1-1,2,4.28,4.28,0,0,1-2.63.74,5.28,5.28,0,0,1-2.1-.42,3.4,3.4,0,0,1-1.43-1.16,2.86,2.86,0,0,1-.5-1.69h2.06c0,1.1.65,1.64,2,1.64a1.93,1.93,0,0,0,1.14-.29A1,1,0,0,0,217.05,427.71Z"/><path class="cls-6" d="M228.31,427a3.54,3.54,0,0,1-1.19,2.53,4.13,4.13,0,0,1-2.82.93,3.73,3.73,0,0,1-3-1.29,5.3,5.3,0,0,1-1.1-3.54V425a5.92,5.92,0,0,1,.51-2.53,3.84,3.84,0,0,1,1.44-1.68,4.54,4.54,0,0,1,5,.34,3.77,3.77,0,0,1,1.22,2.59h-2a2.08,2.08,0,0,0-.54-1.4,2,2,0,0,0-1.4-.43,1.76,1.76,0,0,0-1.54.73,4.13,4.13,0,0,0-.52,2.28v.76a4.39,4.39,0,0,0,.49,2.36,1.71,1.71,0,0,0,1.54.74,2,2,0,0,0,1.42-.43,2,2,0,0,0,.54-1.35Z"/><path class="cls-6" d="M235.27,428.27h-3.59l-.69,2.05h-2.18l3.71-9.95h1.9l3.72,9.95H236Zm-3-1.66h2.49l-1.25-3.73Z"/><path class="cls-6" d="M241.12,428.67h4.36v1.65h-6.41v-9.95h2.05Z"/><path class="cls-6" d="M252.64,426h-3.93v2.67h4.62v1.65h-6.68v-9.95h6.66V422h-4.6v2.37h3.93Z"/></g></g><g id="What_are_the_two_mea-10" data-name="What are the two mea-10" class="cls-5"><g class="cls-5"><path class="cls-6" d="M39.11,422.32h-2l-4-6.55v6.55H31v-9.95h2.05l4,6.56v-6.56h2Z"/><path class="cls-6" d="M48.44,412.37v6.55a3.34,3.34,0,0,1-1,2.58,4.56,4.56,0,0,1-5.56,0,3.25,3.25,0,0,1-1-2.53v-6.63h2v6.56a1.91,1.91,0,0,0,.47,1.43,1.78,1.78,0,0,0,1.29.45c1.16,0,1.74-.61,1.76-1.82v-6.62Z"/><path class="cls-6" d="M56.11,418H52.17v2.67h4.62v1.65H50.12v-9.95h6.66V414H52.17v2.37h3.94Z"/><path class="cls-6" d="M61.67,419.85l2.26-7.48h2.28l-3.46,9.95H60.61l-3.46-9.95h2.28Z"/><path class="cls-6" d="M72.25,420.27H68.66L68,422.32H65.79l3.71-9.95h1.9l3.73,9.95H73Zm-3-1.66H71.7l-1.25-3.73Z"/></g><g class="cls-5"><path class="cls-6" d="M46.8,440.71a1.08,1.08,0,0,0-.41-.9,5.64,5.64,0,0,0-1.48-.65,10.48,10.48,0,0,1-1.68-.68,2.77,2.77,0,0,1-1.7-2.47,2.42,2.42,0,0,1,.45-1.44,3,3,0,0,1,1.31-1,5,5,0,0,1,1.91-.35,4.42,4.42,0,0,1,1.9.39,3,3,0,0,1,1.3,1.09,2.88,2.88,0,0,1,.46,1.59h-2a1.36,1.36,0,0,0-.43-1.06,1.79,1.79,0,0,0-1.21-.38,1.91,1.91,0,0,0-1.17.32,1,1,0,0,0-.42.84,1,1,0,0,0,.49.81,5.91,5.91,0,0,0,1.44.62,6.16,6.16,0,0,1,2.55,1.3,2.62,2.62,0,0,1,.8,1.94,2.41,2.41,0,0,1-1,2,4.28,4.28,0,0,1-2.63.74,5.23,5.23,0,0,1-2.09-.42,3.37,3.37,0,0,1-1.44-1.16,2.93,2.93,0,0,1-.5-1.69h2.06c0,1.1.66,1.64,2,1.64a1.89,1.89,0,0,0,1.14-.29A1,1,0,0,0,46.8,440.71Z"/><path class="cls-6" d="M55.87,441.27h-3.6l-.68,2.05H49.41l3.7-9.95H55l3.73,9.95H56.56Zm-3-1.66h2.49l-1.25-3.73Z"/><path class="cls-6" d="M67.48,440a3.5,3.5,0,0,1-1.19,2.53,4.13,4.13,0,0,1-2.82.93,3.75,3.75,0,0,1-3-1.29,5.3,5.3,0,0,1-1.09-3.54V438a5.92,5.92,0,0,1,.5-2.53,3.8,3.8,0,0,1,1.45-1.68,4,4,0,0,1,2.18-.58,4.11,4.11,0,0,1,2.78.92,3.8,3.8,0,0,1,1.21,2.59h-2a2.13,2.13,0,0,0-.53-1.4,2,2,0,0,0-1.41-.43,1.76,1.76,0,0,0-1.53.73,4.12,4.12,0,0,0-.53,2.28v.76a4.49,4.49,0,0,0,.49,2.36,1.73,1.73,0,0,0,1.54.74,1.7,1.7,0,0,0,2-1.78Z"/></g></g></g></svg>