<svg id="Grupo_53707" data-name="Grupo 53707" xmlns="http://www.w3.org/2000/svg" xmlns:xlink="http://www.w3.org/1999/xlink" width="134.88" height="113.69" viewBox="0 0 134.88 113.69">
  <defs>
    <linearGradient id="linear-gradient" x1="5.843" y1="-34.623" x2="11.29" y2="-28.432" gradientUnits="objectBoundingBox">
      <stop offset="0" stop-color="#ce1567"/>
      <stop offset="1" stop-color="#7a1dbc"/>
    </linearGradient>
    <linearGradient id="linear-gradient-2" x1="3.113" y1="-50.416" x2="6.065" y2="-41.616" xlink:href="#linear-gradient"/>
    <linearGradient id="linear-gradient-3" x1="-29.355" y1="10.899" x2="-33.736" y2="16.503" gradientUnits="objectBoundingBox">
      <stop offset="0" stop-color="#a737d5"/>
      <stop offset="1" stop-color="#ef497a"/>
    </linearGradient>
    <linearGradient id="linear-gradient-4" x1="0.509" y1="2.145" x2="0.496" y2="-0.606" gradientUnits="objectBoundingBox">
      <stop offset="0" stop-color="#ffa66c"/>
      <stop offset="0.715" stop-color="#fe8d30"/>
    </linearGradient>
    <linearGradient id="linear-gradient-5" x1="0.519" y1="2.383" x2="0.477" y2="-0.75" gradientUnits="objectBoundingBox">
      <stop offset="0" stop-color="#e17d34"/>
      <stop offset="1" stop-color="#e9813b"/>
    </linearGradient>
    <linearGradient id="linear-gradient-6" x1="0.382" y1="-0.274" x2="1.098" y2="3.943" xlink:href="#linear-gradient-5"/>
    <linearGradient id="linear-gradient-7" x1="0.514" y1="2.023" x2="0.472" y2="-1.11" xlink:href="#linear-gradient-5"/>
    <linearGradient id="linear-gradient-8" x1="0.34" y1="-0.442" x2="1.055" y2="3.435" xlink:href="#linear-gradient-5"/>
    <linearGradient id="linear-gradient-9" x1="0.564" y1="-1.077" x2="0.482" y2="1.13" gradientUnits="objectBoundingBox">
      <stop offset="0" stop-color="#ffa66c"/>
      <stop offset="1" stop-color="#fe8d30"/>
    </linearGradient>
    <linearGradient id="linear-gradient-10" x1="0.536" y1="-0.322" x2="0.397" y2="2.901" xlink:href="#linear-gradient-9"/>
    <linearGradient id="linear-gradient-11" x1="0.68" y1="-1.393" x2="0.419" y2="1.019" xlink:href="#linear-gradient-5"/>
  </defs>
  <path id="Trazado_100055" data-name="Trazado 100055" d="M1230.393,743.6a51.045,51.045,0,0,1-9.057,6.237c-23.457,13.286-50.27,9.457-58.56,8.148-13.375-2.112-24.666-3.6-34.366-11.036-22.042-16.894-20.97-52.135-4.127-73.966,2-2.589,18.815-23.736,45.686-26.716.657-.073,1.148-.114,1.577-.153,4.157-.373,29.917-2.344,50.922,12.584a57.327,57.327,0,0,1,12.333,11.87C1251.206,692.062,1251.258,725.354,1230.393,743.6Z" transform="translate(-1111.741 -645.822)" fill="#a1bee9"/>
  <g id="Grupo_53681" data-name="Grupo 53681" transform="translate(3.844 3.763)">
    <path id="Trazado_100056" data-name="Trazado 100056" d="M1120.957,656.8a1.931,1.931,0,0,1,2.181-1.937c7.726,1.007,34.294,4.107,56.237,2.308a1.786,1.786,0,0,1,1.932,1.674l4.8,82.316a2.055,2.055,0,0,1-1.92,2.171c-9.23.594-47.241,2.9-60.811,1.554a1.629,1.629,0,0,1-1.466-1.6Z" transform="translate(-1120.957 -654.843)" fill="#91b3fa"/>
    <path id="Trazado_100057" data-name="Trazado 100057" d="M1123.163,661.836a1.858,1.858,0,0,1,2.1-1.864c7.436.969,33,3.952,54.12,2.221a1.719,1.719,0,0,1,1.859,1.611l4.624,79.216a1.978,1.978,0,0,1-1.847,2.09c-8.882.572-45.463,2.795-58.521,1.5a1.567,1.567,0,0,1-1.41-1.544Z" transform="translate(-1122.243 -657.824)" fill="#bdd0fb"/>
    <path id="Trazado_100058" data-name="Trazado 100058" d="M1139.729,677.338l.877,16.984a1.08,1.08,0,0,0,1.054,1.025c3.146.072,12.952.26,18.485-.057a1.206,1.206,0,0,0,1.136-1.172c.089-3.187.272-12.46-.474-16.333a1.362,1.362,0,0,0-1.3-1.1l-18.6-.553A1.148,1.148,0,0,0,1139.729,677.338Z" transform="translate(-1131.898 -667.252)" fill="#fff" opacity="0.78"/>
    <circle id="Elipse_3974" data-name="Elipse 3974" cx="3.652" cy="3.652" r="3.652" transform="translate(14.881 19.726) rotate(-89.528)" fill="url(#linear-gradient)"/>
    <path id="Trazado_100059" data-name="Trazado 100059" d="M1150.973,712.048l11.634-.06a.9.9,0,0,0,.749-1.393,7.507,7.507,0,0,0-6.656-3.681,8.111,8.111,0,0,0-6.506,3.656A.941.941,0,0,0,1150.973,712.048Z" transform="translate(-1137.901 -685.194)" fill="url(#linear-gradient-2)"/>
    <g id="Grupo_53669" data-name="Grupo 53669" transform="translate(33.454 9.914)" opacity="0.6">
      <path id="Trazado_100060" data-name="Trazado 100060" d="M1222.075,680.022a.6.6,0,0,0,.643-.573.66.66,0,0,0-.682-.578l-20.394-.257a.431.431,0,0,0-.439.616l.1.277a1,1,0,0,0,.885.62Z" transform="translate(-1201.167 -678.613)" fill="#fff"/>
    </g>
    <g id="Grupo_53670" data-name="Grupo 53670" transform="translate(33.47 13.081)" opacity="0.6">
      <path id="Trazado_100061" data-name="Trazado 100061" d="M1201.682,686.207a.43.43,0,0,0-.439.615l.1.276a1,1,0,0,0,.886.62l19.887-.1a.6.6,0,0,0,.643-.573.66.66,0,0,0-.682-.579Z" transform="translate(-1201.206 -686.207)" fill="#fff"/>
    </g>
    <g id="Grupo_53671" data-name="Grupo 53671" transform="translate(33.487 16.294)" opacity="0.6">
      <path id="Trazado_100062" data-name="Trazado 100062" d="M1201.722,693.91a.43.43,0,0,0-.439.615l.1.277a1,1,0,0,0,.886.62l19.887-.1a.6.6,0,0,0,.643-.574.66.66,0,0,0-.682-.578Z" transform="translate(-1201.246 -693.91)" fill="#fff"/>
    </g>
    <g id="Grupo_53672" data-name="Grupo 53672" transform="translate(8.235 31.914)" opacity="0.6">
      <path id="Trazado_100063" data-name="Trazado 100063" d="M1188.923,732.635a.577.577,0,0,0,.622-.573.682.682,0,0,0-.7-.571l-47.775-.128c-.365,0-.476.231-.247.514l.393.488a1.563,1.563,0,0,0,1.078.513Z" transform="translate(-1140.701 -731.362)" fill="#fff"/>
    </g>
    <g id="Grupo_53673" data-name="Grupo 53673" transform="translate(8.252 35.081)" opacity="0.6">
      <path id="Trazado_100064" data-name="Trazado 100064" d="M1141.107,738.955c-.364,0-.476.231-.247.514l.393.488a1.559,1.559,0,0,0,1.078.513l46.632-.243a.576.576,0,0,0,.622-.573.682.682,0,0,0-.7-.571Z" transform="translate(-1140.741 -738.955)" fill="#fff"/>
    </g>
    <path id="Trazado_100065" data-name="Trazado 100065" d="M1140.188,751.4c1.148-.094,3.3-.146,4.483-.169a1.073,1.073,0,0,1,1.064.815,17.5,17.5,0,0,1,.527,4.333.953.953,0,0,1-.957.938l-4.37-.025a1.049,1.049,0,0,1-1.039-.946l-.406-4.109A.765.765,0,0,1,1140.188,751.4Z" transform="translate(-1131.758 -711.03)" fill="#fff" opacity="0.6"/>
    <g id="Grupo_53674" data-name="Grupo 53674" transform="translate(15.951 42.015)" opacity="0.6">
      <path id="Trazado_100066" data-name="Trazado 100066" d="M1159.768,755.581a.527.527,0,0,0-.56.63l.109.7a.8.8,0,0,0,.764.651l10.612-.055a.655.655,0,0,0,.651-.666l0-.179a.709.709,0,0,0-.674-.686Z" transform="translate(-1159.2 -755.581)" fill="#fff"/>
    </g>
    <path id="Trazado_100067" data-name="Trazado 100067" d="M1197.262,751.1c1.148-.094,3.3-.146,4.483-.169a1.073,1.073,0,0,1,1.064.815,17.484,17.484,0,0,1,.526,4.333.953.953,0,0,1-.956.938l-4.37-.025a1.049,1.049,0,0,1-1.039-.946l-.406-4.109A.765.765,0,0,1,1197.262,751.1Z" transform="translate(-1165.028 -710.856)" fill="#fff" opacity="0.6"/>
    <g id="Grupo_53675" data-name="Grupo 53675" transform="translate(39.755 41.892)" opacity="0.6">
      <path id="Trazado_100068" data-name="Trazado 100068" d="M1216.842,755.284a.527.527,0,0,0-.56.63l.109.7a.8.8,0,0,0,.764.651l10.612-.055a.654.654,0,0,0,.651-.666l0-.179a.709.709,0,0,0-.674-.686Z" transform="translate(-1216.274 -755.284)" fill="#fff"/>
    </g>
    <g id="Grupo_53680" data-name="Grupo 53680" transform="translate(9.149 51.127)">
      <path id="Trazado_100069" data-name="Trazado 100069" d="M1148.423,782.947h-.011l-4.032-.018a1.083,1.083,0,0,1-1.11-.916l-.372-3.381a.737.737,0,0,1,.171-.554.888.888,0,0,1,.615-.308h0c.34-.025.818-.068,1.324-.114,1.066-.1,2.392-.216,3.139-.229a1.127,1.127,0,0,1,1.133.784,16.875,16.875,0,0,1,.171,3.812A1,1,0,0,1,1148.423,782.947Zm-4.717-4.867a.572.572,0,0,0-.4.2.424.424,0,0,0-.1.322l.372,3.381a.776.776,0,0,0,.8.641l4.032.018h.008a.687.687,0,0,0,.72-.621,16.867,16.867,0,0,0-.16-3.723.832.832,0,0,0-.829-.557c-.736.013-2.056.133-3.117.228-.508.046-.987.089-1.329.114Z" transform="translate(-1142.892 -777.427)" fill="#fff"/>
      <path id="Trazado_100070" data-name="Trazado 100070" d="M1145.163,779.439c.847-.063,2.687-.259,3.56-.274a.781.781,0,0,1,.784.536,13.705,13.705,0,0,1,.133,3.01.671.671,0,0,1-.706.617l-3.222-.014a.745.745,0,0,1-.765-.622l-.3-2.7A.523.523,0,0,1,1145.163,779.439Z" transform="translate(-1143.915 -778.44)" fill="#fff" opacity="0.6"/>
      <g id="Grupo_53676" data-name="Grupo 53676" transform="translate(9.025 1.97)" opacity="0.6">
        <path id="Trazado_100071" data-name="Trazado 100071" d="M1164.566,783.434a1,1,0,0,0,.98.741l37.3-.512a.757.757,0,0,0-.011-1.514l-37.308.024A1,1,0,0,0,1164.566,783.434Z" transform="translate(-1164.531 -782.149)" fill="#fff"/>
      </g>
      <path id="Trazado_100072" data-name="Trazado 100072" d="M1148.53,803.666h-.011l-4.032-.018a1.084,1.084,0,0,1-1.111-.916l-.372-3.381a.737.737,0,0,1,.171-.554.886.886,0,0,1,.615-.307h0c.339-.025.818-.068,1.324-.114,1.065-.1,2.392-.216,3.139-.229h.016a1.125,1.125,0,0,1,1.117.784,16.892,16.892,0,0,1,.171,3.812A1,1,0,0,1,1148.53,803.666Zm-4.717-4.867a.573.573,0,0,0-.4.2.428.428,0,0,0-.1.322l.372,3.381a.776.776,0,0,0,.8.641l4.032.018h.008a.687.687,0,0,0,.72-.621,16.861,16.861,0,0,0-.16-3.723.829.829,0,0,0-.83-.557c-.735.013-2.056.133-3.117.229-.507.046-.987.089-1.329.114Z" transform="translate(-1142.955 -789.504)" fill="#fff"/>
      <path id="Trazado_100073" data-name="Trazado 100073" d="M1145.271,800.158c.847-.062,2.687-.259,3.56-.274a.781.781,0,0,1,.784.536,13.7,13.7,0,0,1,.133,3.01.671.671,0,0,1-.706.617l-3.222-.014a.744.744,0,0,1-.765-.622l-.3-2.7A.523.523,0,0,1,1145.271,800.158Z" transform="translate(-1143.978 -790.517)" fill="#fff" opacity="0.6"/>
      <g id="Grupo_53677" data-name="Grupo 53677" transform="translate(9.07 10.611)" opacity="0.6">
        <path id="Trazado_100074" data-name="Trazado 100074" d="M1164.674,804.153a1,1,0,0,0,.981.741l37.3-.512a.757.757,0,0,0-.011-1.514l-37.307.024A1,1,0,0,0,1164.674,804.153Z" transform="translate(-1164.639 -802.868)" fill="#fff"/>
      </g>
      <path id="Trazado_100075" data-name="Trazado 100075" d="M1148.638,824.385h-.011l-4.032-.018a1.084,1.084,0,0,1-1.111-.916l-.372-3.381a.734.734,0,0,1,.171-.554.885.885,0,0,1,.615-.307h0c.339-.025.818-.068,1.324-.114,1.066-.1,2.393-.217,3.14-.23h.016a1.124,1.124,0,0,1,1.117.784,16.924,16.924,0,0,1,.172,3.812A1,1,0,0,1,1148.638,824.385Zm-4.717-4.868a.575.575,0,0,0-.4.2.429.429,0,0,0-.1.322l.372,3.381a.775.775,0,0,0,.8.64l4.032.018h.008a.687.687,0,0,0,.72-.621,16.833,16.833,0,0,0-.161-3.723.826.826,0,0,0-.829-.556c-.735.013-2.056.132-3.117.228-.508.046-.987.089-1.329.114Z" transform="translate(-1143.018 -801.582)" fill="#fff"/>
      <path id="Trazado_100076" data-name="Trazado 100076" d="M1145.379,820.878c.847-.062,2.687-.259,3.56-.274a.78.78,0,0,1,.784.536,13.719,13.719,0,0,1,.132,3.01.67.67,0,0,1-.706.617l-3.222-.014a.744.744,0,0,1-.765-.622l-.3-2.7A.523.523,0,0,1,1145.379,820.878Z" transform="translate(-1144.041 -802.596)" fill="#fff" opacity="0.6"/>
      <g id="Grupo_53678" data-name="Grupo 53678" transform="translate(9.115 19.253)" opacity="0.6">
        <path id="Trazado_100077" data-name="Trazado 100077" d="M1164.782,824.873a1,1,0,0,0,.981.741l37.3-.512a.757.757,0,0,0-.011-1.514l-37.307.024A1,1,0,0,0,1164.782,824.873Z" transform="translate(-1164.747 -823.588)" fill="#fff"/>
      </g>
      <path id="Trazado_100078" data-name="Trazado 100078" d="M1148.746,845.1h-.011l-4.032-.018a1.083,1.083,0,0,1-1.111-.916l-.372-3.381a.735.735,0,0,1,.171-.554.884.884,0,0,1,.615-.308h0c.34-.025.817-.068,1.324-.114,1.066-.1,2.393-.216,3.139-.229h.016a1.125,1.125,0,0,1,1.117.784,16.929,16.929,0,0,1,.171,3.812A1,1,0,0,1,1148.746,845.1Zm-4.718-4.868a.577.577,0,0,0-.4.2.429.429,0,0,0-.1.322l.372,3.381a.775.775,0,0,0,.8.64l4.032.017h.008a.687.687,0,0,0,.72-.621,16.826,16.826,0,0,0-.161-3.723.825.825,0,0,0-.829-.556c-.735.013-2.056.132-3.117.228-.508.046-.987.089-1.329.114Z" transform="translate(-1143.081 -813.66)" fill="#fff"/>
      <path id="Trazado_100079" data-name="Trazado 100079" d="M1145.488,841.6c.847-.062,2.686-.259,3.56-.274a.781.781,0,0,1,.784.536,13.741,13.741,0,0,1,.132,3.011.671.671,0,0,1-.706.617l-3.222-.014a.745.745,0,0,1-.765-.622l-.3-2.7A.523.523,0,0,1,1145.488,841.6Z" transform="translate(-1144.104 -814.673)" fill="#fff" opacity="0.6"/>
      <g id="Grupo_53679" data-name="Grupo 53679" transform="translate(9.16 27.894)" opacity="0.6">
        <path id="Trazado_100080" data-name="Trazado 100080" d="M1164.89,845.592h0a1,1,0,0,0,.98.741l37.3-.512a.757.757,0,0,0-.011-1.514l-37.307.024A1,1,0,0,0,1164.89,845.592Z" transform="translate(-1164.855 -844.307)" fill="#fff"/>
      </g>
      <path id="Trazado_100081" data-name="Trazado 100081" d="M1146.186,839.2h0a.619.619,0,0,1,.855.228l.8,1.421a.2.2,0,0,0,.355-.017l1.949-4.4a.22.22,0,0,1,.422.093,8.67,8.67,0,0,1-2.492,6.047,4.716,4.716,0,0,1-2.148-2.54A.649.649,0,0,1,1146.186,839.2Z" transform="translate(-1144.628 -811.742)" fill="url(#linear-gradient-3)"/>
    </g>
  </g>
  <path id="Trazado_100082" data-name="Trazado 100082" d="M1132.636,669.085a1.929,1.929,0,0,1,2.18-1.932c7.727,1,34.294,4.095,56.238,2.3a1.784,1.784,0,0,1,1.932,1.67l4.8,82.067a2.051,2.051,0,0,1-1.919,2.165c-9.23.592-47.241,2.9-60.811,1.55a1.625,1.625,0,0,1-1.465-1.6Z" transform="translate(-1123.921 -658.247)" fill="#91b3fa"/>
  <path id="Trazado_100083" data-name="Trazado 100083" d="M1134.842,674.124a1.857,1.857,0,0,1,2.1-1.859c7.436.966,33,3.94,54.12,2.214a1.717,1.717,0,0,1,1.859,1.606l4.623,78.968a1.973,1.973,0,0,1-1.847,2.083c-8.882.57-45.463,2.786-58.521,1.491a1.564,1.564,0,0,1-1.41-1.538Z" transform="translate(-1125.207 -661.227)" fill="#bdd0fb"/>
  <g id="Grupo_53682" data-name="Grupo 53682" transform="translate(16.584 18.804)" opacity="0.6">
    <path id="Trazado_100084" data-name="Trazado 100084" d="M1197.195,692.315c.8,0,1.428-.26,1.405-.573s-.695-.573-1.491-.578l-44.566-.257c-.8,0-1.228.272-.959.615l.216.276a2.85,2.85,0,0,0,1.936.621Z" transform="translate(-1151.503 -690.907)" fill="#fff"/>
  </g>
  <g id="Grupo_53683" data-name="Grupo 53683" transform="translate(16.62 21.918)" opacity="0.6">
    <path id="Trazado_100085" data-name="Trazado 100085" d="M1152.629,698.5c-.8,0-1.228.272-.96.615l.216.276a2.848,2.848,0,0,0,1.936.621l43.46-.1c.8,0,1.428-.26,1.4-.573s-.694-.573-1.49-.578Z" transform="translate(-1151.59 -698.5)" fill="#fff"/>
  </g>
  <g id="Grupo_53684" data-name="Grupo 53684" transform="translate(16.657 25.123)" opacity="0.6">
    <path id="Trazado_100086" data-name="Trazado 100086" d="M1152.717,706.2c-.8-.005-1.228.272-.959.615l.216.276a2.849,2.849,0,0,0,1.936.62l43.459-.1c.8,0,1.428-.26,1.405-.573s-.694-.574-1.491-.578Z" transform="translate(-1151.678 -706.204)" fill="#fff"/>
  </g>
  <g id="Grupo_53685" data-name="Grupo 53685" transform="translate(16.584 28.825)" opacity="0.6">
    <path id="Trazado_100087" data-name="Trazado 100087" d="M1197.195,716.509c.8,0,1.428-.26,1.405-.573s-.695-.573-1.491-.578l-44.566-.257c-.8,0-1.228.272-.959.615l.216.277a2.848,2.848,0,0,0,1.936.62Z" transform="translate(-1151.503 -715.101)" fill="#fff"/>
  </g>
  <g id="Grupo_53686" data-name="Grupo 53686" transform="translate(16.62 31.984)" opacity="0.6">
    <path id="Trazado_100088" data-name="Trazado 100088" d="M1152.629,722.694c-.8,0-1.228.272-.96.615l.216.277a2.846,2.846,0,0,0,1.936.62l43.46-.1c.8,0,1.428-.26,1.4-.573s-.694-.573-1.49-.578Z" transform="translate(-1151.59 -722.694)" fill="#fff"/>
  </g>
  <g id="Grupo_53687" data-name="Grupo 53687" transform="translate(16.657 35.189)" opacity="0.6">
    <path id="Trazado_100089" data-name="Trazado 100089" d="M1152.717,730.4c-.8,0-1.228.272-.959.616l.216.277a2.852,2.852,0,0,0,1.936.62l43.459-.1c.8,0,1.428-.26,1.405-.574s-.694-.573-1.491-.578Z" transform="translate(-1151.678 -730.397)" fill="#fff"/>
  </g>
  <g id="Grupo_53688" data-name="Grupo 53688" transform="translate(16.95 40.705)" opacity="0.6">
    <path id="Trazado_100090" data-name="Trazado 100090" d="M1200.6,744.928a.576.576,0,0,0,.622-.573.682.682,0,0,0-.7-.571l-47.775-.128c-.365,0-.476.231-.247.515l.393.488a1.559,1.559,0,0,0,1.078.513Z" transform="translate(-1152.38 -743.655)" fill="#fff"/>
  </g>
  <g id="Grupo_53689" data-name="Grupo 53689" transform="translate(16.966 43.865)" opacity="0.6">
    <path id="Trazado_100091" data-name="Trazado 100091" d="M1152.786,751.249c-.364,0-.475.23-.247.514l.393.488a1.557,1.557,0,0,0,1.078.513l46.633-.242a.576.576,0,0,0,.622-.573.682.682,0,0,0-.7-.572Z" transform="translate(-1152.42 -751.249)" fill="#fff"/>
  </g>
  <path id="Trazado_100092" data-name="Trazado 100092" d="M1151.867,763.693c1.148-.094,3.3-.146,4.483-.168a1.073,1.073,0,0,1,1.064.815,17.478,17.478,0,0,1,.526,4.333.952.952,0,0,1-.956.938l-4.37-.024a1.05,1.05,0,0,1-1.039-.946l-.405-4.109A.764.764,0,0,1,1151.867,763.693Z" transform="translate(-1134.723 -714.557)" fill="#fff" opacity="0.6"/>
  <g id="Grupo_53690" data-name="Grupo 53690" transform="translate(29.52 50.781)" opacity="0.6">
    <path id="Trazado_100093" data-name="Trazado 100093" d="M1171.447,767.874a.527.527,0,0,0-.56.631l.11.7a.8.8,0,0,0,.764.651l10.612-.055a.654.654,0,0,0,.651-.666l0-.179a.71.71,0,0,0-.674-.686Z" transform="translate(-1170.878 -767.874)" fill="#fff"/>
  </g>
  <path id="Trazado_100094" data-name="Trazado 100094" d="M1208.941,763.4c1.148-.094,3.3-.146,4.483-.168a1.073,1.073,0,0,1,1.064.815,17.5,17.5,0,0,1,.526,4.333.953.953,0,0,1-.956.938l-4.37-.024a1.05,1.05,0,0,1-1.039-.946l-.405-4.109A.764.764,0,0,1,1208.941,763.4Z" transform="translate(-1160.465 -714.384)" fill="#fff" opacity="0.6"/>
  <g id="Grupo_53691" data-name="Grupo 53691" transform="translate(58.009 50.658)" opacity="0.6">
    <path id="Trazado_100095" data-name="Trazado 100095" d="M1228.521,767.577a.528.528,0,0,0-.561.631l.11.7a.8.8,0,0,0,.764.651l10.612-.055a.654.654,0,0,0,.651-.666l0-.179a.71.71,0,0,0-.674-.687Z" transform="translate(-1227.952 -767.577)" fill="#fff"/>
  </g>
  <g id="Grupo_53696" data-name="Grupo 53696" transform="translate(23.288 58.213)">
    <path id="Trazado_100096" data-name="Trazado 100096" d="M1160.1,795.24h-.011l-4.032-.018a1.084,1.084,0,0,1-1.111-.916l-.372-3.381a.733.733,0,0,1,.171-.553.885.885,0,0,1,.615-.308h0c.339-.025.818-.068,1.324-.114,1.066-.1,2.392-.217,3.139-.23a1.127,1.127,0,0,1,1.133.784,16.9,16.9,0,0,1,.172,3.812A1,1,0,0,1,1160.1,795.24Zm-4.717-4.868a.576.576,0,0,0-.4.2.427.427,0,0,0-.1.322l.372,3.381a.776.776,0,0,0,.8.641l4.032.018h.008a.687.687,0,0,0,.72-.621,16.848,16.848,0,0,0-.16-3.723.833.833,0,0,0-.829-.556c-.736.013-2.056.132-3.117.228-.508.046-.987.089-1.329.114Z" transform="translate(-1154.571 -788.113)" fill="#fff"/>
    <path id="Trazado_100097" data-name="Trazado 100097" d="M1156.842,791.733c.847-.062,2.687-.259,3.56-.274a.781.781,0,0,1,.784.536,13.689,13.689,0,0,1,.133,3.01.671.671,0,0,1-.706.618l-3.222-.014a.745.745,0,0,1-.766-.622l-.3-2.7A.523.523,0,0,1,1156.842,791.733Z" transform="translate(-1155.594 -789.126)" fill="#fff" opacity="0.6"/>
    <g id="Grupo_53692" data-name="Grupo 53692" transform="translate(9.025 3.577)" opacity="0.6">
      <path id="Trazado_100098" data-name="Trazado 100098" d="M1176.245,795.729a1,1,0,0,0,.981.741l37.3-.512a.757.757,0,0,0-.011-1.514l-37.308.024A1,1,0,0,0,1176.245,795.729Z" transform="translate(-1176.21 -794.443)" fill="#fff"/>
    </g>
    <path id="Trazado_100099" data-name="Trazado 100099" d="M1160.209,815.959h-.011l-4.032-.018a1.084,1.084,0,0,1-1.111-.916l-.372-3.381a.734.734,0,0,1,.171-.553.885.885,0,0,1,.615-.308h0c.34-.025.818-.068,1.324-.114,1.066-.1,2.393-.216,3.139-.229h.016a1.125,1.125,0,0,1,1.117.784,16.928,16.928,0,0,1,.171,3.812A1,1,0,0,1,1160.209,815.959Zm-4.717-4.867a.573.573,0,0,0-.4.2.428.428,0,0,0-.1.322l.372,3.381a.776.776,0,0,0,.8.64l4.032.018h.008a.687.687,0,0,0,.72-.621,16.835,16.835,0,0,0-.161-3.723.828.828,0,0,0-.829-.556c-.735.013-2.056.132-3.117.228-.508.046-.987.089-1.329.115Z" transform="translate(-1154.634 -800.19)" fill="#fff"/>
    <path id="Trazado_100100" data-name="Trazado 100100" d="M1156.95,812.452c.847-.062,2.687-.259,3.56-.274a.78.78,0,0,1,.784.536,13.7,13.7,0,0,1,.133,3.011.671.671,0,0,1-.706.617l-3.222-.014a.744.744,0,0,1-.765-.622l-.3-2.7A.523.523,0,0,1,1156.95,812.452Z" transform="translate(-1155.657 -801.204)" fill="#fff" opacity="0.6"/>
    <g id="Grupo_53693" data-name="Grupo 53693" transform="translate(9.07 12.218)" opacity="0.6">
      <path id="Trazado_100101" data-name="Trazado 100101" d="M1176.353,816.447a1,1,0,0,0,.981.741l37.3-.512a.757.757,0,0,0-.011-1.514l-37.307.024A1,1,0,0,0,1176.353,816.447Z" transform="translate(-1176.318 -815.162)" fill="#fff"/>
    </g>
    <path id="Trazado_100102" data-name="Trazado 100102" d="M1160.317,836.678h-.011l-4.032-.018a1.083,1.083,0,0,1-1.111-.916l-.372-3.381a.735.735,0,0,1,.171-.554.884.884,0,0,1,.615-.308h0c.339-.025.818-.068,1.324-.114,1.066-.1,2.393-.216,3.139-.229h.016a1.125,1.125,0,0,1,1.117.784,16.92,16.92,0,0,1,.171,3.812A1,1,0,0,1,1160.317,836.678Zm-4.718-4.867a.574.574,0,0,0-.4.2.428.428,0,0,0-.1.322l.372,3.381a.775.775,0,0,0,.8.64l4.032.018h.008a.687.687,0,0,0,.72-.621,16.826,16.826,0,0,0-.161-3.723.826.826,0,0,0-.829-.556c-.735.013-2.056.132-3.117.228-.508.046-.987.089-1.329.115Z" transform="translate(-1154.697 -812.268)" fill="#fff"/>
    <path id="Trazado_100103" data-name="Trazado 100103" d="M1157.058,833.171c.847-.063,2.686-.259,3.56-.274a.781.781,0,0,1,.784.536,13.752,13.752,0,0,1,.133,3.011.671.671,0,0,1-.706.617l-3.222-.014a.745.745,0,0,1-.766-.622l-.3-2.7A.523.523,0,0,1,1157.058,833.171Z" transform="translate(-1155.72 -813.281)" fill="#fff" opacity="0.6"/>
    <g id="Grupo_53694" data-name="Grupo 53694" transform="translate(9.115 20.86)" opacity="0.6">
      <path id="Trazado_100104" data-name="Trazado 100104" d="M1176.461,837.167a1,1,0,0,0,.98.741l37.3-.512a.757.757,0,0,0-.011-1.514l-37.307.024A1,1,0,0,0,1176.461,837.167Z" transform="translate(-1176.426 -835.881)" fill="#fff"/>
    </g>
    <path id="Trazado_100105" data-name="Trazado 100105" d="M1160.425,857.4h-.011l-4.032-.018a1.083,1.083,0,0,1-1.111-.916l-.372-3.381a.736.736,0,0,1,.171-.554.887.887,0,0,1,.616-.308h0c.34-.025.818-.068,1.324-.114,1.066-.1,2.392-.216,3.139-.229h.016a1.125,1.125,0,0,1,1.117.784,16.932,16.932,0,0,1,.171,3.812A1,1,0,0,1,1160.425,857.4Zm-4.718-4.867a.573.573,0,0,0-.4.2.429.429,0,0,0-.1.322l.372,3.381a.775.775,0,0,0,.8.64l4.032.018h.008a.687.687,0,0,0,.72-.621,16.817,16.817,0,0,0-.161-3.723.825.825,0,0,0-.829-.557c-.736.013-2.056.133-3.117.229-.508.046-.987.089-1.329.114Z" transform="translate(-1154.76 -824.346)" fill="#fff"/>
    <path id="Trazado_100106" data-name="Trazado 100106" d="M1157.166,853.89c.847-.062,2.686-.259,3.56-.274a.78.78,0,0,1,.784.536,13.684,13.684,0,0,1,.133,3.01.671.671,0,0,1-.706.617l-3.222-.014a.745.745,0,0,1-.766-.622l-.3-2.7A.523.523,0,0,1,1157.166,853.89Z" transform="translate(-1155.782 -825.359)" fill="#fff" opacity="0.6"/>
    <g id="Grupo_53695" data-name="Grupo 53695" transform="translate(9.16 29.501)" opacity="0.6">
      <path id="Trazado_100107" data-name="Trazado 100107" d="M1176.568,857.885h0a1,1,0,0,0,.981.741l37.3-.512a.757.757,0,0,0-.011-1.514l-37.307.024A1,1,0,0,0,1176.568,857.885Z" transform="translate(-1176.533 -856.6)" fill="#fff"/>
    </g>
    <path id="Trazado_100108" data-name="Trazado 100108" d="M1157.865,851.489h0a.619.619,0,0,1,.855.228l.8,1.421a.2.2,0,0,0,.354-.017l1.95-4.4a.22.22,0,0,1,.422.093,8.671,8.671,0,0,1-2.492,6.047,4.715,4.715,0,0,1-2.148-2.54A.649.649,0,0,1,1157.865,851.489Z" transform="translate(-1156.307 -822.428)" fill="#e66f09"/>
    <path id="Trazado_100109" data-name="Trazado 100109" d="M1157.352,829.945h0a.619.619,0,0,1,.855.228l.8,1.421a.2.2,0,0,0,.355-.017l1.949-4.4a.22.22,0,0,1,.422.093,8.672,8.672,0,0,1-2.491,6.047,4.715,4.715,0,0,1-2.149-2.54A.65.65,0,0,1,1157.352,829.945Z" transform="translate(-1156.008 -809.87)" fill="#e66f09"/>
    <path id="Trazado_100110" data-name="Trazado 100110" d="M1157.352,809.269h0a.619.619,0,0,1,.855.228l.8,1.421a.2.2,0,0,0,.355-.017l1.949-4.4a.22.22,0,0,1,.422.093,8.671,8.671,0,0,1-2.491,6.047,4.712,4.712,0,0,1-2.149-2.54A.649.649,0,0,1,1157.352,809.269Z" transform="translate(-1156.008 -797.817)" fill="#e66f09"/>
    <path id="Trazado_100111" data-name="Trazado 100111" d="M1157.865,788.768h0a.619.619,0,0,1,.855.228l.8,1.422a.2.2,0,0,0,.354-.017l1.95-4.4a.22.22,0,0,1,.422.093,8.672,8.672,0,0,1-2.492,6.047,4.715,4.715,0,0,1-2.148-2.54A.649.649,0,0,1,1157.865,788.768Z" transform="translate(-1156.307 -785.867)" fill="#e66f09"/>
  </g>
  <g id="Grupo_53697" data-name="Grupo 53697" transform="translate(70.401 57.567)">
    <path id="Trazado_100112" data-name="Trazado 100112" d="M1234.68,852.638l.642,19.983a6.5,6.5,0,0,0,6.474,6.278l47.854.282a4.691,4.691,0,0,0,4.677-3.993c.748-5.046,1.7-14.076.628-22.551Z" transform="translate(-1233.622 -824.219)" fill="url(#linear-gradient-4)"/>
    <path id="Trazado_100113" data-name="Trazado 100113" d="M1290.512,877.839a.143.143,0,0,1-.005-.286,4.338,4.338,0,0,0,.821-.109.143.143,0,0,1,.064.279,4.667,4.667,0,0,1-.875.117Zm-2-.008h0l-.857-.005a.143.143,0,0,1,0-.286h0l.857.005a.143.143,0,0,1,0,.286Zm-2.856-.017h0l-.856-.005a.143.143,0,0,1,0-.286h0l.857.005a.143.143,0,0,1,0,.286Zm-2.856-.017h0l-.857-.005a.143.143,0,0,1,0-.286h0l.857.005a.143.143,0,0,1,0,.286Zm-2.856-.017h0l-.857-.005a.143.143,0,0,1-.142-.144.15.15,0,0,1,.144-.142l.857,0a.143.143,0,0,1,0,.286Zm-2.856-.017h0l-.857-.005a.143.143,0,0,1,0-.286h0l.857.005a.143.143,0,0,1,0,.286Zm-2.856-.017h0l-.857-.005a.143.143,0,0,1,0-.286h0l.857,0a.143.143,0,0,1,0,.286Zm-2.856-.017h0l-.857-.005a.143.143,0,0,1,0-.286h0l.857,0a.143.143,0,0,1,0,.286Zm-2.856-.017h0l-.857-.005a.143.143,0,0,1,0-.286h0l.857.005a.143.143,0,0,1,0,.286Zm-2.856-.017h0l-.857-.005a.143.143,0,0,1,0-.286h0l.857.005a.143.143,0,0,1,0,.286Zm-2.856-.017h0l-.857-.005a.143.143,0,0,1,0-.286h0l.857.005a.143.143,0,0,1,0,.286Zm-2.856-.017h0l-.857-.005a.143.143,0,0,1,0-.285h0l.857.005a.143.143,0,0,1,0,.286Zm-2.856-.017h0l-.857-.005a.143.143,0,0,1,0-.286h0l.857.005a.143.143,0,0,1,0,.286Zm-2.856-.017h0l-.857,0a.143.143,0,0,1,0-.286h0l.857.005a.143.143,0,0,1,0,.286Zm-2.856-.017h0l-.857,0a.143.143,0,0,1-.142-.144.157.157,0,0,1,.144-.142l.857,0a.143.143,0,0,1,0,.285Zm-2.856-.017h0l-.857-.005a.143.143,0,0,1,0-.286h0l.857.005a.143.143,0,0,1,0,.286Zm-2.856-.017h0l-.857-.005a.143.143,0,0,1,0-.286h0l.857.005a.143.143,0,0,1,0,.286Zm-2.822-.319a.138.138,0,0,1-.044-.008,6.279,6.279,0,0,1-.81-.332.143.143,0,1,1,.126-.256,6.054,6.054,0,0,0,.774.317.143.143,0,0,1-.045.279Zm50.292-.4a.143.143,0,0,1-.09-.254,4.31,4.31,0,0,0,.594-.576.143.143,0,1,1,.218.185,4.649,4.649,0,0,1-.634.615A.144.144,0,0,1,1293.144,876.86Zm-52.7-1.079a.141.141,0,0,1-.1-.041,6.4,6.4,0,0,1-.579-.657.143.143,0,1,1,.227-.174,6.163,6.163,0,0,0,.553.628.143.143,0,0,1-.1.244Zm54.232-1.275a.15.15,0,0,1-.036,0,.144.144,0,0,1-.1-.174,4.253,4.253,0,0,0,.091-.449l.056-.379a.142.142,0,0,1,.161-.121.143.143,0,0,1,.121.162l-.056.38a4.582,4.582,0,0,1-.1.478A.142.142,0,0,1,1294.672,874.506Zm-55.736-1.123a.142.142,0,0,1-.135-.1,6.23,6.23,0,0,1-.224-.847.143.143,0,0,1,.281-.054,5.937,5.937,0,0,0,.213.808.142.142,0,0,1-.089.181A.147.147,0,0,1,1238.935,873.383Zm56.152-1.7h-.018a.142.142,0,0,1-.124-.159q.051-.414.1-.849a.143.143,0,1,1,.284.033q-.051.436-.1.852A.143.143,0,0,1,1295.087,871.681Zm-56.509-1.116a.143.143,0,0,1-.143-.138l-.027-.856a.142.142,0,0,1,.138-.147.146.146,0,0,1,.147.138l.028.857a.143.143,0,0,1-.138.147Zm56.821-1.723h-.014a.143.143,0,0,1-.128-.156c.027-.279.052-.564.078-.852a.145.145,0,0,1,.154-.13.142.142,0,0,1,.13.154q-.038.434-.078.855A.142.142,0,0,1,1295.4,868.841Zm-56.913-1.131a.143.143,0,0,1-.142-.138l-.027-.856a.142.142,0,0,1,.138-.147.145.145,0,0,1,.147.138l.028.856a.143.143,0,0,1-.138.147Zm57.144-1.716h-.01a.144.144,0,0,1-.133-.152q.028-.422.053-.854a.143.143,0,1,1,.285.016c-.016.288-.034.574-.052.857A.143.143,0,0,1,1295.63,865.994Zm-57.235-1.139a.142.142,0,0,1-.142-.138l-.028-.856a.143.143,0,1,1,.285-.009l.028.856a.143.143,0,0,1-.138.148Zm57.379-1.713h-.005a.143.143,0,0,1-.137-.148q.014-.425.024-.855a.154.154,0,0,1,.146-.14.143.143,0,0,1,.14.146q-.011.432-.025.858A.143.143,0,0,1,1295.773,863.142ZM1238.3,862a.142.142,0,0,1-.142-.138l-.028-.856a.142.142,0,0,1,.138-.147.15.15,0,0,1,.147.138l.028.857a.143.143,0,0,1-.138.147Zm57.519-1.715a.143.143,0,0,1-.143-.143q0-.426-.006-.855a.143.143,0,0,1,.141-.144.15.15,0,0,1,.145.141c0,.287.005.573.006.858a.143.143,0,0,1-.143.143Zm-57.61-1.139a.142.142,0,0,1-.142-.138l-.028-.857a.143.143,0,0,1,.138-.147.151.151,0,0,1,.148.138l.027.857a.143.143,0,0,1-.138.147Zm57.55-1.715a.143.143,0,0,1-.142-.137q-.018-.427-.041-.854a.143.143,0,1,1,.285-.016c.016.286.03.572.042.858a.143.143,0,0,1-.137.149Zm-57.641-1.14a.142.142,0,0,1-.142-.138l-.028-.856a.143.143,0,0,1,.138-.147.146.146,0,0,1,.148.138l.027.856a.142.142,0,0,1-.138.147Zm57.458-1.71a.142.142,0,0,1-.142-.13c-.026-.284-.052-.568-.082-.851a.143.143,0,0,1,.284-.03q.044.427.082.855a.143.143,0,0,1-.13.155Zm-57.55-1.144a.143.143,0,0,1-.143-.138l-.028-.856a.143.143,0,0,1,.138-.148.152.152,0,0,1,.148.138l.027.856a.142.142,0,0,1-.138.147Zm56.491-.856h-.857a.143.143,0,0,1,0-.286h.857a.143.143,0,1,1,0,.286Zm-2.856,0h-.857a.143.143,0,0,1,0-.286h.857a.143.143,0,0,1,0,.286Zm-2.856,0h-.857a.143.143,0,1,1,0-.286h.857a.143.143,0,0,1,0,.286Zm-2.856,0h-.857a.143.143,0,0,1,0-.286h.857a.143.143,0,1,1,0,.286Zm-2.856,0h-.857a.143.143,0,1,1,0-.286h.857a.143.143,0,0,1,0,.286Zm-2.856,0h-.857a.143.143,0,1,1,0-.286h.857a.143.143,0,1,1,0,.286Zm-2.856,0h-.857a.143.143,0,1,1,0-.286h.857a.143.143,0,0,1,0,.286Zm-2.856,0h-.857a.143.143,0,1,1,0-.286h.857a.143.143,0,0,1,0,.286Zm-2.856,0h-.857a.143.143,0,0,1,0-.286h.857a.143.143,0,1,1,0,.286Zm-2.856,0h-.857a.143.143,0,1,1,0-.286h.857a.143.143,0,0,1,0,.286Zm-2.856,0h-.857a.143.143,0,0,1,0-.286h.857a.143.143,0,1,1,0,.286Zm-2.856,0h-.857a.143.143,0,0,1,0-.286h.857a.143.143,0,0,1,0,.286Zm-2.856,0h-.857a.143.143,0,1,1,0-.286h.857a.143.143,0,0,1,0,.286Zm-2.856,0h-.857a.143.143,0,0,1,0-.286h.857a.143.143,0,1,1,0,.286Zm-2.856,0h-.857a.143.143,0,0,1,0-.286h.857a.143.143,0,0,1,0,.286Zm-2.856,0h-.857a.143.143,0,1,1,0-.286h.857a.143.143,0,1,1,0,.286Zm-2.856,0h-.857a.143.143,0,0,1,0-.286h.857a.143.143,0,0,1,0,.286Zm-2.856,0h-.857a.143.143,0,1,1,0-.286h.857a.143.143,0,0,1,0,.286Zm-2.856,0h-.857a.143.143,0,0,1,0-.286h.857a.143.143,0,1,1,0,.286Zm-2.856,0h-.857a.143.143,0,0,1,0-.286h.857a.143.143,0,0,1,0,.286Z" transform="translate(-1235.473 -824.019)" fill="#fff"/>
    <path id="Trazado_100114" data-name="Trazado 100114" d="M1268.305,814.379l.144-1.541a1.184,1.184,0,0,1,.9-.692c1.491-.237,5.188-.654,6.968.676l.266,1.791Z" transform="translate(-1253.222 -800.467)" fill="url(#linear-gradient-5)"/>
    <path id="Trazado_100115" data-name="Trazado 100115" d="M1277.036,806.292a2.143,2.143,0,0,1-1.032,0,.932.932,0,0,1-.711-.9v-4.826h2.456v4.822A.936.936,0,0,1,1277.036,806.292Z" transform="translate(-1257.296 -793.863)" fill="url(#linear-gradient-6)"/>
    <path id="Trazado_100116" data-name="Trazado 100116" d="M1325.338,814.379l.144-1.541a1.185,1.185,0,0,1,.9-.692c1.491-.237,5.188-.654,6.969.676l.266,1.791Z" transform="translate(-1286.468 -800.467)" fill="url(#linear-gradient-7)"/>
    <path id="Trazado_100117" data-name="Trazado 100117" d="M1334.069,805.581a2.142,2.142,0,0,1-1.031,0,.932.932,0,0,1-.711-.9v-5.334h2.456v5.331A.936.936,0,0,1,1334.069,805.581Z" transform="translate(-1290.541 -793.152)" fill="url(#linear-gradient-8)"/>
    <path id="Trazado_100118" data-name="Trazado 100118" d="M1272.911,792.382l26.412-.874a1.273,1.273,0,0,0,1.216-1.045,10.764,10.764,0,0,0,.082-3.348,3.047,3.047,0,0,0-2.953-2.578c-4.927-.117-17.471-.113-24.384,2.621a2.415,2.415,0,0,0-1.458,1.675,5.854,5.854,0,0,0-.063,2.682A1.137,1.137,0,0,0,1272.911,792.382Z" transform="translate(-1255.163 -784.5)" fill="url(#linear-gradient-9)"/>
    <path id="Trazado_100119" data-name="Trazado 100119" d="M1273.171,793.262a.286.286,0,0,1-.284-.257,6.384,6.384,0,0,1,.163-2.052,2.373,2.373,0,0,1,1.615-1.643,29.237,29.237,0,0,1,6.623-1.237.286.286,0,0,1,.016.571,28.6,28.6,0,0,0-6.478,1.214,1.8,1.8,0,0,0-1.225,1.243,5.86,5.86,0,0,0-.146,1.845.286.286,0,0,1-.255.313Z" transform="translate(-1255.88 -786.583)" fill="#fff"/>
    <path id="Trazado_100120" data-name="Trazado 100120" d="M1234.97,816.22c8.533-.109,45.445-.5,56.167.8a2.184,2.184,0,0,1,1.877,1.691,72.092,72.092,0,0,1,1.757,16.113,1.911,1.911,0,0,1-1.565,1.823l-24.475,4.63h-8.694l-26.079-5.184a2.039,2.039,0,0,1-1.644-1.893c-.17-3.318-.435-11.1.463-16.116A2.256,2.256,0,0,1,1234.97,816.22Z" transform="translate(-1232.142 -802.909)" fill="url(#linear-gradient-10)"/>
    <path id="Trazado_100121" data-name="Trazado 100121" d="M1262.994,842.056a.135.135,0,0,1-.028,0l-.84-.167a.143.143,0,1,1,.055-.28l.833.166h.876a.143.143,0,1,1,0,.286h-.857l-.02,0Zm6.608,0h-.857a.143.143,0,0,1,0-.286h.857a.143.143,0,0,1,0,.286Zm-2.856,0h-.857a.143.143,0,1,1,0-.286h.857a.143.143,0,0,1,0,.286ZM1271.6,842a.143.143,0,0,1-.026-.283l.842-.159a.143.143,0,0,1,.054.281l-.842.159Zm-11.4-.5a.131.131,0,0,1-.028,0l-.841-.167a.143.143,0,0,1,.056-.28l.84.167a.143.143,0,0,1-.027.283Zm14.209-.033a.143.143,0,0,1-.026-.283l.842-.159a.143.143,0,1,1,.053.281l-.842.159Zm-17.01-.523a.135.135,0,0,1-.028,0l-.84-.167a.143.143,0,1,1,.056-.28l.841.167a.143.143,0,0,1-.028.283Zm19.817-.008a.143.143,0,0,1-.027-.283l.842-.159a.143.143,0,1,1,.053.28l-.842.159Zm2.806-.531a.143.143,0,0,1-.026-.283l.842-.159a.143.143,0,1,1,.053.281l-.842.159Zm-25.424-.018a.135.135,0,0,1-.028,0l-.84-.167a.143.143,0,1,1,.056-.28l.84.167a.143.143,0,0,1-.028.283Zm28.23-.513a.143.143,0,0,1-.026-.283l.842-.159a.143.143,0,1,1,.053.28l-.842.159Zm-31.031-.045-.028,0-.84-.167a.143.143,0,0,1,.055-.28l.84.167a.143.143,0,0,1-.028.283Zm33.837-.486a.143.143,0,0,1-.026-.283l.842-.159a.143.143,0,1,1,.053.28l-.842.159Zm-36.638-.07a.134.134,0,0,1-.028,0l-.84-.167a.143.143,0,0,1,.056-.28l.84.167a.143.143,0,0,1-.028.283Zm39.445-.46a.143.143,0,0,1-.027-.283l.842-.159a.143.143,0,0,1,.053.281l-.842.159Zm-42.246-.1a.13.13,0,0,1-.028,0l-.84-.167a.143.143,0,0,1,.056-.28l.84.167a.143.143,0,0,1-.028.283Zm45.053-.435a.143.143,0,0,1-.026-.283l.842-.159a.143.143,0,1,1,.053.281l-.842.159Zm-47.854-.122-.028,0-.84-.167a.143.143,0,1,1,.056-.28l.84.167a.143.143,0,0,1-.028.283Zm50.66-.408a.143.143,0,0,1-.026-.283l.842-.159a.143.143,0,0,1,.053.281l-.842.159Zm-53.461-.148a.126.126,0,0,1-.028,0l-.84-.167a.143.143,0,1,1,.056-.28l.84.167a.143.143,0,0,1-.028.283Zm-2.8-.557a.127.127,0,0,1-.028,0l-.726-.144-.017-.34a.143.143,0,0,1,.136-.149.136.136,0,0,1,.15.136l.005.116.508.1a.143.143,0,0,1-.027.283Zm57.637-1.016a.143.143,0,0,1-.143-.141q-.005-.428-.018-.854a.144.144,0,0,1,.139-.147.149.149,0,0,1,.147.139q.013.429.018.859a.142.142,0,0,1-.141.145Zm-58.348-1.332a.142.142,0,0,1-.142-.138c-.01-.275-.018-.561-.026-.857a.143.143,0,0,1,.139-.147.15.15,0,0,1,.146.139c.008.3.017.581.026.856a.143.143,0,0,1-.138.147Zm58.235-1.52a.143.143,0,0,1-.142-.134q-.028-.43-.061-.853a.143.143,0,0,1,.131-.154.141.141,0,0,1,.154.131c.022.284.043.57.061.857a.143.143,0,0,1-.133.152Zm-58.3-1.336a.143.143,0,0,1-.143-.141c0-.281-.005-.568-.007-.858a.143.143,0,0,1,.142-.144h0a.143.143,0,0,1,.143.142q0,.434.007.856a.142.142,0,0,1-.141.144Zm58.053-1.512a.143.143,0,0,1-.142-.128q-.047-.43-.1-.85a.143.143,0,0,1,.125-.159.141.141,0,0,1,.159.125c.033.281.067.565.1.853a.142.142,0,0,1-.126.157Zm-58.05-1.345h0a.142.142,0,0,1-.141-.145c0-.285.01-.571.017-.858a.146.146,0,0,1,.146-.139.143.143,0,0,1,.139.146c-.007.286-.013.571-.017.855A.143.143,0,0,1,1237.011,828.984ZM1294.7,827.5a.143.143,0,0,1-.141-.122q-.064-.433-.129-.846a.143.143,0,1,1,.282-.045q.066.414.13.849a.143.143,0,0,1-.12.162Zm-57.594-1.366h-.007a.142.142,0,0,1-.135-.15q.022-.431.05-.857a.14.14,0,0,1,.152-.133.143.143,0,0,1,.133.152q-.028.423-.05.853A.143.143,0,0,1,1237.1,826.129Zm57.128-1.454a.143.143,0,0,1-.14-.117c-.054-.295-.107-.576-.159-.84a.143.143,0,0,1,.28-.055q.078.4.16.844a.143.143,0,0,1-.115.166Zm-56.9-1.394h-.016a.143.143,0,0,1-.126-.158c.032-.291.067-.576.1-.854a.14.14,0,0,1,.161-.122.142.142,0,0,1,.123.161q-.056.414-.1.847A.143.143,0,0,1,1237.328,823.282Zm56.217-1.292h-.017q-.4-.046-.849-.091a.143.143,0,0,1-.128-.156.145.145,0,0,1,.156-.128q.455.045.855.092a.143.143,0,0,1-.017.285Zm-2.844-.257h-.01q-.412-.03-.853-.058a.143.143,0,0,1,.018-.285q.443.028.856.058a.143.143,0,0,1-.01.285Zm-2.851-.17h-.007l-.856-.041a.143.143,0,1,1,.013-.285l.856.041a.143.143,0,0,1-.007.285Zm-2.853-.125h-.005l-.856-.031a.143.143,0,0,1-.138-.148.149.149,0,0,1,.148-.138l.857.031a.143.143,0,0,1-.005.286Zm-2.855-.1h0l-.856-.024a.143.143,0,0,1-.139-.147.139.139,0,0,1,.147-.139l.857.024a.143.143,0,0,1,0,.286Zm-2.855-.074h0l-.857-.019a.143.143,0,0,1,0-.285h0l.857.019a.143.143,0,0,1,0,.286Zm-2.856-.058h0l-.857-.015a.143.143,0,0,1,0-.286h0l.857.015a.143.143,0,0,1,0,.286Zm-37.992,0a.143.143,0,0,1,0-.286l.858-.01h0a.143.143,0,0,1,0,.286l-.857.01Zm2.857-.033a.143.143,0,0,1,0-.286l.857-.008h0a.143.143,0,0,1,0,.286l-.857.008Zm32.278-.012h0l-.857-.011a.143.143,0,0,1,0-.286h0l.857.011a.143.143,0,0,1,0,.285Zm-29.421-.015a.143.143,0,0,1,0-.286l.857-.007h0a.143.143,0,0,1,0,.286l-.857.008Zm26.565-.018h0l-.857-.008a.143.143,0,0,1,0-.286h0l.857.008a.143.143,0,0,1,0,.286Zm-23.708-.005a.143.143,0,0,1,0-.286l.857-.006h0a.143.143,0,0,1,0,.286l-.857.006Zm20.852-.02h0l-.857-.005a.143.143,0,0,1,0-.286h0l.857.006a.143.143,0,0,1,0,.285Zm-17.995,0a.143.143,0,1,1,0-.285l.857-.005h0a.143.143,0,0,1,0,.286l-.857,0Zm2.857-.014a.143.143,0,1,1,0-.285l.857,0h0a.143.143,0,1,1,0,.285l-.857,0Zm12.282,0h0l-.857,0a.143.143,0,0,1,0-.286h0l.857,0a.143.143,0,1,1,0,.286Zm-9.425-.008a.143.143,0,0,1,0-.286l.857,0a.143.143,0,0,1,0,.286l-.857,0Zm6.569,0h-.857a.143.143,0,1,1,0-.286h.857a.143.143,0,1,1,0,.286Zm-3.713,0a.143.143,0,0,1,0-.286h.854a.144.144,0,0,1,.144.143.141.141,0,0,1-.141.143h-.857Z" transform="translate(-1234.891 -805.656)" fill="#fff"/>
    <path id="Trazado_100122" data-name="Trazado 100122" d="M1303.277,869.51h-7.617a1.968,1.968,0,0,1-1.957-1.729l-.88-7.329a1.965,1.965,0,0,1,1.957-2.195h9.15a1.965,1.965,0,0,1,1.963,2.135l-.653,7.329A1.968,1.968,0,0,1,1303.277,869.51Z" transform="translate(-1267.506 -827.494)" fill="url(#linear-gradient-11)"/>
  </g>
  <g id="Grupo_53706" data-name="Grupo 53706" transform="translate(75.706 0.827)">
    <g id="Grupo_53701" data-name="Grupo 53701" transform="translate(15.855)">
      <g id="Grupo_53698" data-name="Grupo 53698">
        <path id="Trazado_100123" data-name="Trazado 100123" d="M1283.426,668.45a.458.458,0,0,1-.455-.41c-.054-.515-.086-1.04-.1-1.56a.459.459,0,0,1,.45-.467h.009a.459.459,0,0,1,.458.45c.009.495.04.993.091,1.482a.459.459,0,0,1-.408.5Zm.03-3.993a.471.471,0,0,1-.055,0,.458.458,0,0,1-.4-.509c.061-.516.145-1.035.249-1.542a.458.458,0,0,1,.9.184c-.1.482-.179.975-.236,1.466A.459.459,0,0,1,1283.455,664.457Zm.908-3.888a.451.451,0,0,1-.154-.027.458.458,0,0,1-.278-.586c.174-.489.372-.976.587-1.448a.458.458,0,1,1,.834.38c-.2.449-.392.911-.557,1.376A.459.459,0,0,1,1284.363,660.569Zm1.755-3.588a.458.458,0,0,1-.386-.7c.279-.438.581-.869.9-1.281a.459.459,0,0,1,.728.557c-.3.391-.587.8-.852,1.217A.457.457,0,0,1,1286.118,656.982Zm2.511-3.106a.458.458,0,0,1-.322-.784c.368-.364.758-.717,1.157-1.05a.458.458,0,1,1,.587.7c-.38.317-.749.652-1.1,1A.456.456,0,0,1,1288.629,653.876Zm3.135-2.473a.459.459,0,0,1-.242-.848c.44-.274.9-.532,1.361-.768a.458.458,0,0,1,.417.817c-.44.224-.875.47-1.293.73A.455.455,0,0,1,1291.764,651.4Zm16.8-1.092a.453.453,0,0,1-.189-.041c-.448-.2-.912-.39-1.377-.555a.458.458,0,1,1,.306-.864c.49.174.978.37,1.45.585a.458.458,0,0,1-.19.876Zm-13.195-.624a.458.458,0,0,1-.149-.892c.491-.169.994-.319,1.5-.446a.458.458,0,1,1,.223.889c-.478.12-.956.262-1.422.423A.464.464,0,0,1,1295.367,649.686Zm9.4-.607a.462.462,0,0,1-.092-.009c-.483-.1-.976-.177-1.467-.234a.458.458,0,1,1,.106-.91c.516.06,1.036.143,1.543.246a.458.458,0,0,1-.091.908Zm-5.5-.261a.458.458,0,0,1-.048-.914c.516-.055,1.04-.088,1.559-.1h.01a.458.458,0,0,1,.009.916c-.494.01-.992.043-1.481.095Z" transform="translate(-1282.874 -647.805)" fill="#bdd0fb"/>
        <path id="Trazado_100124" data-name="Trazado 100124" d="M1349.68,655.78a.455.455,0,0,1-.261-.082c-.194-.135-.394-.268-.595-.4a.458.458,0,1,1,.492-.773c.211.134.421.274.626.416a.458.458,0,0,1-.262.835Z" transform="translate(-1321.194 -651.682)" fill="#bdd0fb"/>
      </g>
      <g id="Grupo_53699" data-name="Grupo 53699" transform="translate(7 14.285)">
        <path id="Trazado_100125" data-name="Trazado 100125" d="M1368.206,683.694a.458.458,0,0,1-.452-.386c-.037-.234-.081-.47-.127-.7a.458.458,0,1,1,.9-.183c.05.246.095.495.135.74a.459.459,0,0,1-.38.525A.49.49,0,0,1,1368.206,683.694Z" transform="translate(-1339.272 -682.056)" fill="#bdd0fb"/>
        <path id="Trazado_100126" data-name="Trazado 100126" d="M1314.734,708.785q-.316,0-.635-.011a.459.459,0,0,1,.031-.917c.49.017.98.013,1.461-.01a.459.459,0,1,1,.045.916C1315.338,708.777,1315.034,708.785,1314.734,708.785Zm-3.043-.257a.488.488,0,0,1-.078-.007c-.5-.086-1.01-.195-1.5-.323a.458.458,0,0,1,.23-.887c.469.121.95.224,1.429.306a.459.459,0,0,1-.077.911Zm6.34-.05a.458.458,0,0,1-.084-.909c.476-.09.955-.2,1.423-.331a.458.458,0,1,1,.245.883c-.493.137-1,.254-1.5.348A.458.458,0,0,1,1318.031,708.477Zm-10.118-1.035a.46.46,0,0,1-.175-.035c-.473-.195-.943-.412-1.4-.646a.458.458,0,0,1,.42-.815c.431.222.878.428,1.326.613a.458.458,0,0,1-.175.882Zm13.874-.114a.458.458,0,0,1-.182-.879c.444-.192.887-.406,1.315-.636a.458.458,0,1,1,.433.808c-.45.242-.916.467-1.384.669A.452.452,0,0,1,1321.787,707.328Zm3.412-1.946a.458.458,0,0,1-.27-.829c.393-.285.778-.591,1.145-.907a.458.458,0,0,1,.6.694c-.386.333-.792.655-1.205.955A.457.457,0,0,1,1325.2,705.382Zm2.907-2.643a.458.458,0,0,1-.344-.762c.322-.365.631-.746.921-1.135a.459.459,0,0,1,.736.548c-.3.409-.63.811-.969,1.195A.458.458,0,0,1,1328.106,702.738Zm2.261-3.214a.452.452,0,0,1-.22-.057.458.458,0,0,1-.181-.622c.234-.425.453-.866.65-1.309a.458.458,0,1,1,.838.372c-.207.467-.437.93-.683,1.378A.46.46,0,0,1,1330.367,699.524Zm1.5-3.634a.463.463,0,0,1-.127-.018.458.458,0,0,1-.314-.567c.134-.466.25-.943.344-1.419a.459.459,0,0,1,.9.178c-.1.5-.222,1-.363,1.494A.459.459,0,0,1,1331.868,695.89Zm.666-3.872h-.029a.458.458,0,0,1-.43-.485c.022-.357.032-.718.032-1.075,0-.129,0-.258,0-.386a.459.459,0,0,1,.448-.468.454.454,0,0,1,.468.448c0,.135,0,.27,0,.406,0,.375-.012.756-.034,1.131A.458.458,0,0,1,1332.534,692.018Z" transform="translate(-1303.409 -686.455)" fill="#bdd0fb"/>
        <path id="Trazado_100127" data-name="Trazado 100127" d="M1300.705,725.941a.457.457,0,0,1-.263-.083c-.2-.143-.407-.292-.606-.445a.458.458,0,0,1,.558-.728c.189.145.383.287.576.422a.458.458,0,0,1-.264.833Z" transform="translate(-1299.656 -706.85)" fill="#bdd0fb"/>
      </g>
      <g id="Grupo_53700" data-name="Grupo 53700" transform="translate(4.496 4.342)">
        <path id="Trazado_100128" data-name="Trazado 100128" d="M1297.825,681.933a.215.215,0,0,0,.24.066l2.447-.9a11.359,11.359,0,0,0,3.24,1.745l.6,2.537a.215.215,0,0,0,.187.164l3.112.315a.215.215,0,0,0,.216-.123l1.094-2.365a11.373,11.373,0,0,0,3.524-1.06l2.217,1.373a.215.215,0,0,0,.248-.016l2.423-1.977a.214.214,0,0,0,.066-.24l-.9-2.447a11.352,11.352,0,0,0,1.745-3.24l2.537-.6a.214.214,0,0,0,.164-.187l.315-3.112a.214.214,0,0,0-.123-.216l-2.366-1.094a11.364,11.364,0,0,0-1.059-3.524l1.373-2.217a.214.214,0,0,0-.016-.248l-1.978-2.423a.214.214,0,0,0-.24-.066l-2.447.9a11.355,11.355,0,0,0-3.24-1.745l-.6-2.537a.214.214,0,0,0-.187-.164l-3.112-.315a.215.215,0,0,0-.216.124L1306,660.706a11.362,11.362,0,0,0-3.524,1.06l-2.217-1.373a.215.215,0,0,0-.248.016l-2.423,1.978a.215.215,0,0,0-.066.24l.9,2.447a11.36,11.36,0,0,0-1.745,3.24l-2.537.6a.214.214,0,0,0-.164.187l-.315,3.112a.214.214,0,0,0,.123.216l2.365,1.094a11.352,11.352,0,0,0,1.06,3.524l-1.373,2.217a.214.214,0,0,0,.016.248Z" transform="translate(-1293.654 -658.216)" fill="#4a6ea4"/>
        <path id="Trazado_100129" data-name="Trazado 100129" d="M1322.4,690.106a3.145,3.145,0,1,1,.46-.034A3.189,3.189,0,0,1,1322.4,690.106Zm.007-5.555a2.447,2.447,0,0,0-.357.026,2.4,2.4,0,1,0,.357-.026Z" transform="translate(-1308.578 -673.139)" fill="#fff" opacity="0.56"/>
        <path id="Trazado_100130" data-name="Trazado 100130" d="M1316.119,688.172a7.8,7.8,0,0,1-.793-.04h0q-.126-.012-.25-.029a7.776,7.776,0,0,1-1.21-.261l-.016,0-.045-.014-.089-.028a.184.184,0,0,1-.127-.174.18.18,0,0,1,.009-.057.184.184,0,0,1,.231-.118,7.37,7.37,0,0,0,9.6-6.262,7.55,7.55,0,0,0,.038-.757,7.365,7.365,0,1,0-14.034,3.14.179.179,0,0,1,.018.078.184.184,0,0,1-.35.078,7.731,7.731,0,1,1,14.733-3.3,7.9,7.9,0,0,1-.04.794,7.732,7.732,0,0,1-7.677,6.952Z" transform="translate(-1302.235 -666.665)" fill="#fff" opacity="0.56"/>
      </g>
    </g>
    <g id="Grupo_53705" data-name="Grupo 53705" transform="translate(0 16.867)">
      <g id="Grupo_53702" data-name="Grupo 53702">
        <path id="Trazado_100131" data-name="Trazado 100131" d="M1246.044,724.52a.283.283,0,0,1-.271-.2c-.068-.231-.129-.466-.183-.7a.283.283,0,1,1,.552-.127c.051.224.11.448.175.668a.284.284,0,0,1-.192.352A.278.278,0,0,1,1246.044,724.52Z" transform="translate(-1245.281 -708.661)" fill="#bdd0fb"/>
        <path id="Trazado_100132" data-name="Trazado 100132" d="M1245.2,701.967a.283.283,0,0,1-.281-.254,12.312,12.312,0,0,1-.063-1.244c0-.087,0-.174,0-.262a.293.293,0,0,1,.289-.277.283.283,0,0,1,.277.289q0,.126,0,.25c0,.395.02.794.06,1.187a.283.283,0,0,1-.253.31Zm.063-2.939a.269.269,0,0,1-.041,0,.283.283,0,0,1-.24-.321,12.2,12.2,0,0,1,.306-1.476.283.283,0,0,1,.546.149,11.758,11.758,0,0,0-.292,1.408A.283.283,0,0,1,1245.266,699.028Zm.773-2.836a.287.287,0,0,1-.108-.021.283.283,0,0,1-.154-.37,12.2,12.2,0,0,1,.659-1.356.283.283,0,1,1,.493.279,11.589,11.589,0,0,0-.629,1.293A.283.283,0,0,1,1246.039,696.192Zm1.447-2.56a.283.283,0,0,1-.227-.452,12.238,12.238,0,0,1,.971-1.153.283.283,0,1,1,.41.391,11.572,11.572,0,0,0-.926,1.1A.283.283,0,0,1,1247.486,693.632Zm2.028-2.128a.283.283,0,0,1-.18-.5,12.4,12.4,0,0,1,1.221-.882.283.283,0,1,1,.3.478,11.878,11.878,0,0,0-1.165.842A.282.282,0,0,1,1249.514,691.5Zm2.483-1.572a.283.283,0,0,1-.121-.539,12.206,12.206,0,0,1,1.4-.558.283.283,0,0,1,.177.538,11.626,11.626,0,0,0-1.334.532A.284.284,0,0,1,1252,689.932Zm2.791-.917a.283.283,0,0,1-.054-.561,12.256,12.256,0,0,1,1.494-.2.283.283,0,0,1,.04.565,11.55,11.55,0,0,0-1.425.188A.3.3,0,0,1,1254.787,689.015Zm4.4-.036a.263.263,0,0,1-.05,0,11.756,11.756,0,0,0-1.241-.152c-.063,0-.125-.009-.187-.012a.284.284,0,0,1-.268-.3.28.28,0,0,1,.3-.268l.2.012a12.343,12.343,0,0,1,1.3.16.283.283,0,0,1-.049.562Z" transform="translate(-1244.859 -688.245)" fill="#bdd0fb"/>
      </g>
      <g id="Grupo_53703" data-name="Grupo 53703" transform="translate(4.686 17.288)">
        <path id="Trazado_100133" data-name="Trazado 100133" d="M1266.365,736.846a.283.283,0,0,1,0-.566,11.717,11.717,0,0,0,1.41-.1.283.283,0,0,1,.076.561,12.374,12.374,0,0,1-1.478.109Zm-1.447-.068-.031,0a12.38,12.38,0,0,1-1.462-.246.283.283,0,0,1,.128-.552,11.79,11.79,0,0,0,1.395.235.283.283,0,0,1-.03.565Zm4.312-.319a.283.283,0,0,1-.072-.557,11.686,11.686,0,0,0,1.344-.442.283.283,0,0,1,.209.526,12.256,12.256,0,0,1-1.408.463A.292.292,0,0,1,1269.23,736.459Zm-7.13-.334a.285.285,0,0,1-.1-.017,12.135,12.135,0,0,1-1.36-.593.283.283,0,0,1,.258-.5,11.616,11.616,0,0,0,1.3.565.283.283,0,0,1-.1.549Zm9.816-.734a.283.283,0,0,1-.136-.532,11.666,11.666,0,0,0,1.2-.752.283.283,0,0,1,.329.461,12.3,12.3,0,0,1-1.255.788A.283.283,0,0,1,1271.916,735.391Zm2.351-1.682a.283.283,0,0,1-.192-.492,11.857,11.857,0,0,0,.984-1.016.283.283,0,0,1,.43.368,12.287,12.287,0,0,1-1.031,1.066A.284.284,0,0,1,1274.268,733.709Zm1.881-2.2a.283.283,0,0,1-.236-.44,11.557,11.557,0,0,0,.711-1.223.283.283,0,0,1,.506.254,12.294,12.294,0,0,1-.745,1.283A.284.284,0,0,1,1276.149,731.513Z" transform="translate(-1258.656 -729.694)" fill="#bdd0fb"/>
        <path id="Trazado_100134" data-name="Trazado 100134" d="M1256.952,740.574a.281.281,0,0,1-.158-.049c-.2-.136-.4-.278-.587-.423a.283.283,0,0,1,.344-.45c.18.138.369.274.56.4a.283.283,0,0,1-.159.518Z" transform="translate(-1256.095 -735.465)" fill="#bdd0fb"/>
      </g>
      <g id="Grupo_53704" data-name="Grupo 53704" transform="translate(2.988 2.869)">
        <path id="Trazado_100135" data-name="Trazado 100135" d="M1254.813,710.992a.143.143,0,0,0,.161.044l1.638-.6a7.6,7.6,0,0,0,2.168,1.168l.4,1.7a.143.143,0,0,0,.125.11l2.083.211a.143.143,0,0,0,.144-.083l.732-1.583a7.607,7.607,0,0,0,2.358-.709l1.483.918a.143.143,0,0,0,.166-.011l1.622-1.323a.144.144,0,0,0,.044-.161l-.6-1.637a7.587,7.587,0,0,0,1.167-2.168l1.7-.4a.143.143,0,0,0,.11-.125l.211-2.082a.144.144,0,0,0-.083-.145l-1.583-.732a7.588,7.588,0,0,0-.709-2.358l.919-1.484a.143.143,0,0,0-.011-.166l-1.323-1.622a.142.142,0,0,0-.16-.044l-1.638.6a7.605,7.605,0,0,0-2.168-1.168l-.4-1.7a.144.144,0,0,0-.125-.11l-2.082-.211a.144.144,0,0,0-.145.083l-.731,1.583a7.6,7.6,0,0,0-2.358.709l-1.484-.918a.144.144,0,0,0-.166.011l-1.622,1.323a.143.143,0,0,0-.044.161l.6,1.638a7.612,7.612,0,0,0-1.168,2.168l-1.7.4a.143.143,0,0,0-.11.125l-.211,2.082a.144.144,0,0,0,.082.145l1.583.731a7.594,7.594,0,0,0,.709,2.359l-.918,1.484a.142.142,0,0,0,.011.166Z" transform="translate(-1252.022 -695.122)" fill="#4a6ea4"/>
        <path id="Trazado_100136" data-name="Trazado 100136" d="M1271.2,716.448a2.148,2.148,0,1,1,.317-.023A2.127,2.127,0,0,1,1271.2,716.448Zm.005-3.717a1.549,1.549,0,0,0-.231.017,1.575,1.575,0,1,0,.46,3.117h0a1.575,1.575,0,0,0-.229-3.134Z" transform="translate(-1261.955 -705.057)" fill="#fff" opacity="0.56"/>
        <path id="Trazado_100137" data-name="Trazado 100137" d="M1266.825,715.1a5.386,5.386,0,0,1-1.607-.246l-.046-.015a.283.283,0,0,1-.2-.269.29.29,0,0,1,.014-.088.283.283,0,0,1,.356-.182,4.794,4.794,0,0,0,.994.208h0l.056.005a4.726,4.726,0,0,0,2.306-.365,4.786,4.786,0,0,0,1.1-.662l.008-.007.025-.02a4.767,4.767,0,1,0-7.331-1.67.28.28,0,0,1,.027.12.283.283,0,0,1-.539.121,5.334,5.334,0,1,1,4.834,3.07Z" transform="translate(-1257.539 -700.551)" fill="#fff" opacity="0.56"/>
      </g>
    </g>
  </g>
</svg>
